<?xml version="1.0" encoding="iso-8859-1"?>
<!-- Generator: Adobe Illustrator 18.0.0, SVG Export Plug-In . SVG Version: 6.00 Build 0)  -->
<!DOCTYPE svg PUBLIC "-//W3C//DTD SVG 1.1//EN" "http://www.w3.org/Graphics/SVG/1.1/DTD/svg11.dtd">
<svg version="1.1" id="Capa_1" xmlns="http://www.w3.org/2000/svg" xmlns:xlink="http://www.w3.org/1999/xlink" x="0px" y="0px"
	 viewBox="0 0 458.658 458.658" style="enable-background:new 0 0 458.658 458.658;" xml:space="preserve">
<g>
	<path d="M143.693,194.974c-3.515-3.515-9.213-3.515-12.728,0c-3.515,3.515-3.515,9.213,0,12.728l12,12
		c1.757,1.757,4.061,2.636,6.364,2.636s4.606-0.879,6.364-2.636c3.515-3.515,3.515-9.213,0-12.728L143.693,194.974z"/>
	<path d="M314.966,194.974l-12,12c-3.515,3.515-3.515,9.213,0,12.728c1.757,1.757,4.061,2.636,6.364,2.636s4.606-0.879,6.364-2.636
		l12-12c3.515-3.515,3.515-9.213,0-12.728C324.179,191.46,318.48,191.46,314.966,194.974z"/>
	<path d="M410.48,332.916l-17.714-57.601c-1.699-5.505-2.56-11.241-2.56-17.047c0-11.608,3.434-22.831,9.926-32.45
		c10.128-14.983,14.582-33.133,12.54-51.107c-2.042-17.972-10.451-34.662-23.68-46.997l-33.127-30.877
		c-0.684-6.079-1.414-12.153-2.196-18.221c-4.24-32.894-27.424-60.066-59.066-69.225c-43.315-12.523-87.236-12.523-130.542,0
		c-31.635,9.154-54.822,36.325-59.075,69.226c-0.782,6.068-1.511,12.143-2.196,18.221l-33.127,30.876
		c-13.228,12.334-21.637,29.024-23.679,46.996c-2.042,17.974,2.412,36.124,12.537,51.102c6.496,9.624,9.929,20.847,9.929,32.455
		c0,5.806-0.861,11.542-2.563,17.055l-17.712,57.594c-19.375,11.279-31.256,31.783-31.256,54.421c0,34.738,28.262,63,63,63
		c22.892,0,43.37-12.14,54.456-31.269c14.582,14.056,32.681,23.418,52.71,27.166c0.003,0,0.129,0.024,0.132,0.024
		c3.304,0.615,6.648,0.728,9.925,0.374c8.876,7.692,20.352,12.025,32.187,12.025c11.824,0,23.295-4.329,32.173-12.014
		c1.214,0.131,2.434,0.206,3.659,0.206c2.057,0,4.123-0.188,6.167-0.571l0.236-0.043c20.031-3.748,38.13-13.11,52.713-27.165
		c11.086,19.129,31.563,31.268,54.455,31.268c34.738,0,63-28.262,63-63C441.736,364.697,429.852,344.191,410.48,332.916z
		 M79.922,432.338c-24.813,0-45-20.187-45-45c0-17.118,9.508-32.533,24.822-40.233c6.273-3.163,13.063-4.767,20.178-4.767
		c4.971,0,9-4.029,9-9s-4.029-9-9-9c-3.539,0-7.072,0.312-10.551,0.901l13.721-44.618c2.229-7.226,3.36-14.747,3.36-22.354
		c0-15.21-4.499-29.915-13.013-42.53c-16.081-23.789-12.505-55.271,8.5-74.856l18.127-16.896
		c-6.833,77.196-5.838,154.981,3.007,231.843c2.038,17.678,8.403,34.194,18.555,48.456
		C114.785,421.207,98.457,432.338,79.922,432.338z M229.333,440.658c-4.501,0-8.827-0.943-12.781-2.725
		c0.112-0.101,0.229-0.195,0.339-0.298l0,0c5.025-4.689,9.175-9.278,12.441-13.751c3.269,4.475,7.422,9.065,12.453,13.756
		c0.107,0.1,0.219,0.193,0.328,0.291C238.158,439.715,233.832,440.658,229.333,440.658z M229.329,379.307
		c-17.121,0-31.05-12.628-31.05-28.151c0-1.292,0.097-2.165,0.197-2.721c2.205-0.073,6.711,0.784,10.127,1.434
		c5.785,1.1,12.984,2.469,20.726,2.469s14.941-1.369,20.726-2.469c3.416-0.649,7.916-1.511,10.127-1.434
		c0.1,0.556,0.197,1.429,0.197,2.721C260.379,366.679,246.451,379.307,229.329,379.307z M268.22,428.549l-0.141,0.026
		c-5.02,0.94-10.259-0.592-14.018-4.098c-9.851-9.187-15.731-18.124-15.731-23.909v-4.054c22.761-3.99,40.05-22.804,40.05-45.359
		c0-7.742-2.104-13.248-6.434-16.831c-6.818-5.645-15.773-3.942-25.253-2.139c-5.305,1.009-11.317,2.152-17.363,2.152
		s-12.059-1.144-17.363-2.152c-9.48-1.802-18.434-3.505-25.253,2.139c-4.329,3.583-6.434,9.089-6.434,16.831
		c0,22.555,17.29,41.37,40.05,45.359v4.053c0,5.785-5.876,14.722-15.719,23.907l0,0c-3.753,3.503-9.023,5.031-14.06,4.094
		l-0.151-0.028c-37.182-6.957-65.09-37.006-69.444-74.772c-10.414-90.497-9.78-182.297,1.885-272.848
		c3.333-25.788,21.478-47.077,46.225-54.238c39.987-11.564,80.543-11.563,120.537,0c24.752,7.165,42.893,28.454,46.216,54.235
		c11.665,90.552,12.299,182.353,1.885,272.852c-2.117,18.403-9.882,35.292-22.454,48.844
		C302.662,416.179,286.413,425.145,268.22,428.549z M378.736,432.338c-18.534,0-34.861-11.129-41.704-28.05
		c10.155-14.264,16.519-30.781,18.553-48.46c8.845-76.862,9.84-154.647,3.007-231.843l18.127,16.896
		c21.006,19.586,24.582,51.068,8.498,74.862c-8.511,12.61-13.01,27.314-13.01,42.525c0,7.607,1.13,15.128,3.357,22.346
		l13.724,44.626c-3.48-0.59-7.012-0.902-10.551-0.902c-4.971,0-9,4.029-9,9s4.029,9,9,9c7.116,0,13.905,1.604,20.187,4.771
		c15.305,7.696,24.813,23.111,24.813,40.229C423.736,412.151,403.549,432.338,378.736,432.338z"/>
</g>
<g>
</g>
<g>
</g>
<g>
</g>
<g>
</g>
<g>
</g>
<g>
</g>
<g>
</g>
<g>
</g>
<g>
</g>
<g>
</g>
<g>
</g>
<g>
</g>
<g>
</g>
<g>
</g>
<g>
</g>
</svg>
