<?xml version="1.0" encoding="iso-8859-1"?>
<!-- Generator: Adobe Illustrator 18.0.0, SVG Export Plug-In . SVG Version: 6.00 Build 0)  -->
<!DOCTYPE svg PUBLIC "-//W3C//DTD SVG 1.1//EN" "http://www.w3.org/Graphics/SVG/1.1/DTD/svg11.dtd">
<svg version="1.1" id="Capa_1" xmlns="http://www.w3.org/2000/svg" xmlns:xlink="http://www.w3.org/1999/xlink" x="0px" y="0px"
	 viewBox="0 0 464.777 464.777" style="enable-background:new 0 0 464.777 464.777;" xml:space="preserve">
<g>
	<path d="M418.689,114.695c1.73,2.146,4.319,3.351,7.006,3.351c0.663,0,1.333-0.074,1.997-0.225
		c3.352-0.763,5.977-3.368,6.764-6.714l12.229-51.972c3.208-13.633-4.802-27.417-18.235-31.381L339.35,1.462
		c-13.974-4.123-28.771,0.653-37.695,12.169l-16.955,21.877c-34.74-3.93-69.881-3.93-104.622,0l-16.955-21.877
		C154.197,2.114,139.4-2.663,125.427,1.462L36.328,27.753c-13.433,3.964-21.442,17.748-18.234,31.381l12.229,51.972
		c0.787,3.346,3.412,5.951,6.764,6.714c3.348,0.763,6.844-0.45,9.003-3.125l2.246-2.785l21.98,27.769
		c-6.775,8.12-18.654,24.35-29.131,48.825c-14.043,32.806-28.215,87.541-15.982,162.001c5.254,31.958,18.615,68.771,39.713,109.417
		c1.602,3.086,4.742,4.855,7.995,4.855c1.396,0,2.814-0.326,4.139-1.014c4.412-2.29,6.131-7.723,3.841-12.134
		c-20.221-38.957-32.981-73.962-37.927-104.042c-11.446-69.673,1.502-120.62,14.381-151.089
		c8.372-19.807,17.798-33.782,24.035-41.828c3.997-5.156,37.852-37.051,37.852-37.051c3.63-3.396,3.82-9.091,0.424-12.721
		c-3.396-3.629-9.09-3.821-12.721-0.424l-23.862,22.322L59.92,97.545l36.169-44.85c3.12-3.869,2.513-9.535-1.356-12.656
		c-3.869-3.118-9.535-2.513-12.656,1.356L43.628,89.071l-8.014-34.06c-1.022-4.342,1.529-8.732,5.808-9.995l89.099-26.292
		c6.813-2.009,14.024,0.319,18.375,5.932l14.854,19.167l-8.562,7.42c-3.756,3.255-4.162,8.939-0.907,12.696
		c1.78,2.054,4.285,3.105,6.805,3.105c2.089,0,4.188-0.723,5.891-2.199l12.904-11.183c34.856-4.119,70.155-4.119,105.013,0
		l12.904,11.184c1.703,1.476,3.802,2.199,5.891,2.199c2.52,0,5.025-1.052,6.805-3.105c3.256-3.756,2.85-9.44-0.906-12.696
		l-8.561-7.419l14.855-19.168c4.351-5.613,11.561-7.941,18.374-5.932l89.099,26.292c4.278,1.263,6.829,5.653,5.808,9.995
		l-8.014,34.06L382.7,41.395c-3.12-3.869-8.785-4.477-12.655-1.356c-3.869,3.121-4.477,8.787-1.356,12.656l36.173,44.854
		l-23.157,29.247l-23.863-22.323c-3.631-3.396-9.326-3.205-12.721,0.424c-3.396,3.63-3.206,9.325,0.424,12.721
		c0,0,33.89,31.928,37.853,37.05c16.644,21.511,56.046,85.599,38.415,192.918c-4.943,30.07-17.7,65.076-37.918,104.045
		c-2.289,4.412-0.567,9.844,3.845,12.133c1.324,0.688,2.741,1.013,4.137,1.013c3.254,0,6.395-1.77,7.997-4.857
		c21.092-40.657,34.45-77.469,39.701-109.416c12.232-74.459-1.939-129.195-15.982-162c-10.476-24.473-22.354-40.704-29.13-48.824
		l21.985-27.766L418.689,114.695z"/>
	<path d="M399.488,325.381c2.722,1.935,6.29,2.203,9.271,0.697s4.883-4.538,4.941-7.877l0.58-33.405
		c0.012-0.691,0.021-1.371,0.021-2.051c0-25.289-7.94-49.416-22.962-69.771c-13.982-18.947-32.897-32.991-54.94-40.854
		l-4.163-19.031c-1.563-7.145-5.569-13.596-11.281-18.166c-6.849-5.479-15.411-7.879-24.109-6.755
		c-8.698,1.123-16.37,5.617-21.603,12.655l-4.861,6.539c-7.532,10.122-11.681,22.645-11.681,35.263v49.45
		c0,6.601,1.28,13.036,3.805,19.122c2.552,6.167,6.254,11.679,11.004,16.384c5.841,5.785,9.191,13.961,9.191,22.434v36.38
		c0,5.516-2.147,10.698-6.06,14.602c-3.893,3.9-9.074,6.048-14.59,6.048c-9.244,0-17.088-6.101-19.718-14.484
		c16.527-4.157,28.742-18.41,28.742-35.312c0-13.574-7.81-19.539-14.36-22.153c-7.006-2.795-15.505-3.027-24.328-3.027
		s-17.322,0.231-24.328,3.027c-6.551,2.614-14.36,8.579-14.36,22.153c0,16.905,12.218,31.16,28.749,35.314
		c-2.63,8.383-10.474,14.482-19.717,14.482c-5.516,0-10.697-2.148-14.602-6.06c-3.9-3.893-6.048-9.074-6.048-14.59v-36.38
		c0-8.472,3.35-16.649,9.191-22.434c4.75-4.704,8.453-10.216,11.002-16.378c2.526-6.091,3.807-12.527,3.807-19.127v-49.45
		c0-12.62-4.148-25.143-11.677-35.26l-4.864-6.542c-5.233-7.039-12.905-11.533-21.604-12.656c-8.699-1.123-17.261,1.276-24.11,6.755
		c-5.711,4.569-9.718,11.021-11.28,18.166l-4.163,19.031c-22.043,7.863-40.958,21.908-54.94,40.854
		c-15.022,20.356-22.962,44.482-22.962,69.771c0,0.638,0.009,1.277,0.02,1.924l0.582,33.532c0.058,3.339,1.959,6.371,4.94,7.877
		c2.98,1.506,6.55,1.237,9.271-0.697l3.107-2.208c29.104-20.668,67.877-19.63,95.679,2.136v1.086
		c0,10.331,4.024,20.036,11.32,27.318c4.421,4.429,9.732,7.643,15.528,9.495c6.976,15.442,23.298,25.836,41.462,25.836
		c18.157,0,34.474-10.392,41.45-25.832c5.799-1.85,11.111-5.063,15.528-9.488c7.308-7.293,11.332-17,11.332-27.33v-1.086
		c27.804-21.767,66.577-22.802,95.677-2.138L399.488,325.381z M164.083,290.015v13.587c-15.159-8.843-32.167-13.307-49.234-13.307
		c-15.773,0-31.601,3.817-46.047,11.513L68.5,284.394c-0.008-0.555-0.017-1.102-0.017-1.648c0-21.415,6.724-41.845,19.445-59.083
		c12.735-17.257,30.301-29.71,50.8-36.014c3.104-0.955,5.453-3.507,6.146-6.679l5.257-24.033c0.685-3.13,2.439-5.956,4.941-7.957
		c3-2.4,6.753-3.449,10.561-2.959c3.81,0.492,7.171,2.461,9.463,5.543l4.866,6.545c0.672,0.903,1.304,1.834,1.897,2.79
		c-7.177-1.548-17.742-2.495-24.772,2.807c-4.427,3.339-6.723,8.535-6.462,14.632c0.188,4.424,2.256,8.654,5.673,11.605
		c3.115,2.69,7.147,4.163,11.282,4.163c0.597,0,1.196-0.03,1.795-0.093c8.188-0.851,14.527-6.172,18.707-11.042v49.105
		c0,4.223-0.819,8.338-2.436,12.239c-1.632,3.943-4,7.468-7.039,10.478C169.377,263.933,164.083,276.772,164.083,290.015z
		 M211.701,297.249c0-4.323,0-7.18,20.688-7.18c20.688,0,20.688,2.856,20.688,7.18c0,10.224-9.28,18.542-20.688,18.542
		C220.981,315.791,211.701,307.473,211.701,297.249z M213.03,363.643c7.669-2.121,14.392-6.543,19.363-12.484
		c4.97,5.939,11.69,10.36,19.357,12.482c-4.972,4.606-11.888,7.403-19.357,7.403C224.921,371.045,218.003,368.248,213.03,363.643z
		 M396.283,284.489l-0.301,17.318c-30.075-16.022-66.11-15.22-95.28,1.795v-13.588c0-13.244-5.294-26.082-14.525-35.223
		c-3.038-3.01-5.406-6.536-7.041-10.484c-1.615-3.895-2.434-8.01-2.434-12.233v-49.106c4.179,4.869,10.52,10.191,18.709,11.042
		c0.598,0.062,1.197,0.093,1.794,0.093c4.134,0,8.166-1.472,11.281-4.163c3.417-2.951,5.484-7.181,5.674-11.605
		c0.26-6.097-2.036-11.292-6.463-14.631c-7.032-5.302-17.595-4.355-24.771-2.807c0.594-0.956,1.226-1.888,1.899-2.792l4.864-6.542
		c2.292-3.083,5.652-5.051,9.462-5.543c0.613-0.079,1.226-0.118,1.833-0.118c3.165,0,6.211,1.064,8.728,3.077
		c2.501,2.002,4.257,4.828,4.941,7.958l5.257,24.033c0.693,3.172,3.043,5.725,6.146,6.679c20.499,6.304,38.065,18.757,50.801,36.014
		c12.722,17.238,19.445,37.669,19.445,59.083C396.303,283.325,396.293,283.905,396.283,284.489z"/>
	<path d="M146.692,101.388l28.197-11.962c10.569-4.483,22.617-3.41,32.225,2.873c9.742,6.37,15.558,17.122,15.558,28.761
		c0,4.971,4.029,9,9,9s9-4.029,9-9c0-11.64,5.816-22.391,15.559-28.761c9.606-6.283,21.653-7.358,32.225-2.873l28.197,11.962
		c4.574,1.941,9.858-0.194,11.8-4.77c1.941-4.576-0.194-9.859-4.771-11.8l-28.197-11.962c-16.106-6.833-34.463-5.196-49.106,4.378
		c-5.911,3.866-10.874,8.79-14.706,14.437c-3.833-5.647-8.795-10.571-14.708-14.437c-14.642-9.574-33-11.211-49.106-4.378
		l-28.197,11.962c-4.576,1.941-6.711,7.224-4.77,11.8C136.834,101.193,142.115,103.33,146.692,101.388z"/>
</g>
<g>
</g>
<g>
</g>
<g>
</g>
<g>
</g>
<g>
</g>
<g>
</g>
<g>
</g>
<g>
</g>
<g>
</g>
<g>
</g>
<g>
</g>
<g>
</g>
<g>
</g>
<g>
</g>
<g>
</g>
</svg>
