<?xml version="1.0" encoding="iso-8859-1"?>
<!-- Generator: Adobe Illustrator 18.0.0, SVG Export Plug-In . SVG Version: 6.00 Build 0)  -->
<!DOCTYPE svg PUBLIC "-//W3C//DTD SVG 1.1//EN" "http://www.w3.org/Graphics/SVG/1.1/DTD/svg11.dtd">
<svg version="1.1" id="Capa_1" xmlns="http://www.w3.org/2000/svg" xmlns:xlink="http://www.w3.org/1999/xlink" x="0px" y="0px"
	 viewBox="0 0 466.999 466.999" style="enable-background:new 0 0 466.999 466.999;" xml:space="preserve">
<path d="M464.51,406.969l-3.35-27.74c-7.73-64.02-23.172-127.039-45.894-187.304c-1.836-4.875-4.308-10.997-7.559-18.725
	c-5.069-12.016-15.36-20.412-27.393-23.31c2.86-7.487,4.284-16.135,4.284-26.086c0-33.438-15.974-64.755-44.978-88.181
	C311.178,12.652,273.475,0,233.457,0s-77.722,12.652-106.165,35.624C98.288,59.05,82.314,90.366,82.314,123.805
	c0,9.96,1.426,18.614,4.291,26.105c-12,2.916-22.258,11.303-27.317,23.299c-3.245,7.715-5.717,13.836-7.557,18.715
	C29.01,252.191,13.569,315.21,5.838,379.23l-3.35,27.742c-1.833,15.216,2.947,30.52,13.115,41.987
	c10.166,11.465,24.786,18.04,40.11,18.04h50.1c27.34,0,50.243-20.486,53.274-47.65l5.86-52.413l7.828,22.127
	c9.217,26.064,33.035,42.905,60.683,42.905c27.646,0,51.465-16.841,60.68-42.903l7.894-22.314l5.88,52.596
	c3.031,27.166,25.934,47.652,53.273,47.652h50.101c15.324,0,29.944-6.575,40.11-18.04
	C461.564,437.492,466.344,422.188,464.51,406.969z M233.457,18c73.415,0,133.143,47.464,133.143,105.805
	c0,13.903-3.366,23.988-10.291,30.832c-16.491,16.296-54.21,15.846-97.874,15.33c-8.082-0.096-16.439-0.195-24.978-0.195
	s-16.896,0.099-24.978,0.195c-43.67,0.517-81.383,0.965-97.874-15.33c-6.925-6.844-10.291-16.929-10.291-30.832
	C100.314,65.464,160.042,18,233.457,18z M329.862,218.301l-3.454-3.454c-6.243-6.243-14.544-9.682-23.373-9.682
	s-17.13,3.438-23.373,9.681l-8.751,8.751c-1.338,1.338-2.487,4.736-2.488,4.743l-4.946,27.006
	c-0.896,4.889,2.342,9.579,7.231,10.474c0.548,0.1,1.094,0.149,1.632,0.149c4.261,0,8.047-3.039,8.842-7.38l2.439-13.319
	c6.127,2.889,12.769,4.34,19.414,4.34c8.024,0,16.047-2.108,23.16-6.322c-0.798,3.041-1.721,6.052-2.772,9.024l-44.284,120.934
	c-3.314,8.821-11.871,14.747-21.324,14.747c-6.434,0-11.948-3.981-14.23-9.605c0.807-0.585,1.578-1.229,2.289-1.958l13.264-13.619v0
	c5.424-5.568,6.975-13.794,3.953-20.955c-3.022-7.161-9.997-11.788-17.77-11.788h-23.728c-7.772,0-14.748,4.627-17.771,11.789
	c-3.021,7.161-1.47,15.387,3.953,20.955l13.264,13.619c0.71,0.729,1.482,1.373,2.289,1.958c-2.282,5.624-7.796,9.605-14.229,9.605
	c-9.436,0-17.997-5.938-21.303-14.775l-44.22-120.659c-1.076-3.046-2.017-6.134-2.828-9.252c7.105,4.201,15.117,6.302,23.129,6.302
	c6.645,0,13.287-1.451,19.415-4.34l2.44,13.319c0.795,4.341,4.581,7.38,8.842,7.38c0.538,0,1.084-0.048,1.633-0.149
	c4.889-0.896,8.126-5.585,7.23-10.475l-4.947-27.006c-0.001-0.007-1.15-3.404-2.488-4.742l-8.751-8.751
	c-6.243-6.243-14.544-9.682-23.373-9.682s-17.13,3.438-23.373,9.681l-3.378,3.378c-0.379-10.965,0.794-21.976,3.524-32.642
	c19.631,2.953,171.938,2.071,185.749-0.018C329.119,196.263,330.271,207.306,329.862,218.301z M314.995,228.89
	c-7.531,3.64-16.389,3.64-23.92,0l1.315-1.315c2.843-2.843,6.623-4.409,10.645-4.409s7.802,1.566,10.645,4.409L314.995,228.89z
	 M233.457,363.382l-12.786-13.128c-0.178-0.183-0.596-0.612-0.264-1.399s0.931-0.787,1.187-0.787h23.728
	c0.255,0,0.854,0,1.186,0.787c0.332,0.787-0.086,1.216-0.264,1.399v0L233.457,363.382z M151.919,228.89l1.315-1.315
	c2.843-2.843,6.623-4.409,10.645-4.409s7.802,1.566,10.645,4.409l1.315,1.315C168.307,232.53,159.45,232.53,151.919,228.89z
	 M141.199,417.351c-2.014,18.042-17.226,31.648-35.386,31.648h-50.1c-10.18,0-19.891-4.368-26.644-11.983
	c-6.754-7.617-9.929-17.782-8.711-27.888l3.349-27.74c7.559-62.588,22.654-124.196,44.867-183.115
	c1.758-4.665,4.147-10.58,7.302-18.077c4.193-9.941,13.589-13.743,21.503-13.355c0.193,0.198,0.375,0.404,0.573,0.598
	c6.682,6.603,15.183,11.132,25.121,14.233c-6.354,25.289-5.177,52.245,3.533,76.889l24.577,69.471L141.199,417.351z M206.944,405.93
	c0.716,0.038,1.434,0.065,2.156,0.065c9.604,0,18.267-4.085,24.359-10.603c6.096,6.517,14.767,10.603,24.388,10.603
	c0.71,0,1.417-0.026,2.122-0.063c-8.358,5.692-18.004,8.036-26.51,8.036C224.95,413.968,215.303,411.623,206.944,405.93z
	 M437.929,437.016c-6.753,7.615-16.464,11.983-26.644,11.983h-50.101c-18.159,0-33.371-13.606-35.385-31.65l-10.006-89.501
	l24.599-69.532c8.687-24.575,9.88-51.459,3.578-76.684c9.881-3.1,18.337-7.618,24.989-14.191c0.195-0.193,0.376-0.397,0.567-0.593
	c7.93-0.42,17.386,3.37,21.592,13.342c3.159,7.508,5.548,13.423,7.305,18.085c22.213,58.918,37.309,120.526,44.865,183.114
	l3.351,27.738C447.858,419.233,444.683,429.399,437.929,437.016z"/>
<g>
</g>
<g>
</g>
<g>
</g>
<g>
</g>
<g>
</g>
<g>
</g>
<g>
</g>
<g>
</g>
<g>
</g>
<g>
</g>
<g>
</g>
<g>
</g>
<g>
</g>
<g>
</g>
<g>
</g>
</svg>
