<?xml version="1.0" encoding="iso-8859-1"?>
<!-- Generator: Adobe Illustrator 18.0.0, SVG Export Plug-In . SVG Version: 6.00 Build 0)  -->
<!DOCTYPE svg PUBLIC "-//W3C//DTD SVG 1.1//EN" "http://www.w3.org/Graphics/SVG/1.1/DTD/svg11.dtd">
<svg version="1.1" id="Capa_1" xmlns="http://www.w3.org/2000/svg" xmlns:xlink="http://www.w3.org/1999/xlink" x="0px" y="0px"
	 viewBox="0 0 454.38 454.38" style="enable-background:new 0 0 454.38 454.38;" xml:space="preserve">
<g>
	<path d="M426.247,293.325l-7.95-91.867c-1.397-16.198-7.079-31.599-16.472-44.807c9.132-50.936-6.278-102.363-45.987-153.191
		c-3.048-3.901-8.676-4.608-12.595-1.581c-28.236,21.819-44.353,44.254-53.534,63.317c-4.203-1.773-8.571-3.156-13.076-4.104
		c-32.809-6.927-66.078-6.927-98.882-0.001c-4.509,0.951-8.878,2.334-13.079,4.106c-9.18-19.063-25.297-41.498-53.534-63.317
		c-3.919-3.028-9.547-2.321-12.595,1.581C58.834,54.287,43.423,105.715,52.555,156.651c-9.393,13.208-15.075,28.609-16.471,44.804
		l-7.95,91.868c-2.325,26.8,7.255,53.084,26.283,72.111l62.32,62.32c17.169,17.17,39.996,26.626,64.274,26.626h92.36
		c24.278,0,47.104-9.456,64.274-26.626l62.32-62.32C418.992,346.407,428.572,320.123,426.247,293.325z M347.176,21.828
		c14.288,19.456,24.436,38.319,30.921,57.439c9.363,27.604,10.765,55.414,4.198,82.828l-56.588-34.737
		c3.844-9.341,5.925-20.104,5.925-31.077c0-16.963-4.725-32.667-13.115-44.098C325.636,42.419,334.952,32.131,347.176,21.828z
		 M307.843,69.266c3.704,7.614,5.791,17.07,5.791,27.014c0,7.592-1.228,14.977-3.519,21.505l-14.322-8.792
		C296.221,102.053,298.345,87.381,307.843,69.266z M145.368,117.109c-2.142-6.36-3.288-13.497-3.288-20.828
		c0-9.345,1.842-18.259,5.138-25.619c2.217,4.344,3.965,8.387,5.334,12.029c4.418,11.757,5.675,21.152,6.011,26.319L145.368,117.109
		z M76.283,79.267c6.485-19.119,16.633-37.981,30.919-57.436c12.703,10.723,22.205,21.407,29.313,31.327
		C128.558,64.5,124.08,79.789,124.08,96.28c0,10.718,1.984,21.236,5.659,30.423l-57.654,35.392
		C65.518,134.68,66.919,106.87,76.283,79.267z M387.236,352.707l-62.32,62.32c-13.771,13.77-32.077,21.354-51.546,21.354h-92.36
		c-19.47,0-37.776-7.583-51.546-21.354l-62.32-62.321c-15.259-15.259-22.942-36.336-21.078-57.83l7.951-91.873
		c0.649-7.532,2.463-14.848,5.333-21.734c1.032,1.427,2.465,2.542,4.154,3.169c1.014,0.376,2.074,0.562,3.13,0.562
		c1.642,0,3.275-0.45,4.709-1.33l101-62c2.465-1.513,4.053-4.12,4.267-7.005c0.082-1.114,0.849-13.978-5.228-32.769
		c3.232-1.385,6.601-2.459,10.084-3.194c30.34-6.405,61.108-6.405,91.452,0.001c3.479,0.733,6.846,1.807,10.079,3.193
		c-6.077,18.791-5.31,31.656-5.228,32.769c0.214,2.885,1.802,5.492,4.267,7.005l101,62c1.435,0.881,3.066,1.33,4.709,1.33
		c1.056,0,2.116-0.186,3.13-0.562c1.69-0.627,3.122-1.743,4.154-3.169c2.87,6.887,4.684,14.203,5.334,21.737l7.95,91.872
		C410.178,316.37,402.496,337.447,387.236,352.707z"/>
	<path d="M277.202,245.501c-10.42-17.58-29.584-28.5-50.012-28.5c-10.084,0-20.04,2.64-28.782,7.629
		c-8.742,4.977-16.083,12.193-21.232,20.876l-20.64,34.87c-7.699,13.006-10.027,28.264-6.555,42.962l5.6,23.73
		c0.705,2.986,2.882,5.408,5.778,6.424l0.035,0.012c5.937,2.145,12.345,1.829,18.044-0.887c1.058-0.504,2.049-1.102,3.004-1.743
		c9.434,14.136,26.058,23.127,44.749,23.127c18.691,0,35.315-8.991,44.749-23.127c0.955,0.641,1.946,1.239,3.004,1.743
		c3.211,1.531,6.648,2.299,10.085,2.299c2.662,0,5.325-0.461,7.883-1.385l0.11-0.039c2.896-1.017,5.073-3.438,5.778-6.424
		l5.6-23.728c3.473-14.7,1.145-29.958-6.554-42.964L277.202,245.501z M227.19,356.001c-14.412,0-27.304-8.233-32.466-20.149
		c0.515-0.191,1.065-0.309,1.636-0.336l3.302-0.161c11.092-0.541,20.882-5.729,27.528-13.629c6.646,7.9,16.437,13.088,27.528,13.629
		l3.302,0.161c0.571,0.028,1.12,0.146,1.636,0.336C254.495,347.768,241.602,356.001,227.19,356.001z M227.19,288.001
		c-9.022,0-16.362-6.518-16.362-14.528c0-9.251,11.442-10.25,16.362-10.25s16.362,0.999,16.362,10.25
		C243.552,281.483,236.212,288.001,227.19,288.001z M286.881,319.203l-4.065,17.224c-0.043-0.019-0.085-0.039-0.128-0.059
		c-1.322-0.63-2.315-1.739-2.796-3.123c-3.157-9.075-11.398-15.241-20.994-15.708l-3.302-0.161
		c-8.25-0.402-15.135-5.648-17.987-12.908c13.869-4.187,23.944-16.497,23.944-30.996c0-16.897-13.809-28.25-34.362-28.25
		c-20.553,0-34.362,11.353-34.362,28.25c0,14.499,10.075,26.809,23.944,30.996c-2.852,7.259-9.737,12.505-17.987,12.908
		l-3.301,0.161c-9.597,0.468-17.837,6.634-20.995,15.709c-0.481,1.383-1.474,2.492-2.796,3.122c-0.043,0.02-0.085,0.04-0.128,0.059
		l-4.065-17.226c-2.396-10.145-0.789-20.677,4.526-29.656l20.636-34.864c3.554-5.994,8.621-10.976,14.66-14.414
		c6.038-3.446,12.908-5.267,19.869-5.267c14.103,0,27.333,7.541,34.525,19.674l20.641,34.87
		C287.67,298.524,289.278,309.056,286.881,319.203z"/>
	<path d="M168.075,237.001c4.821,0,8.814-3.82,8.988-8.678c0.178-4.967-3.704-9.138-8.672-9.316l-27.892-1
		c-4.953-0.189-9.138,3.704-9.316,8.672c-0.178,4.967,3.704,9.138,8.672,9.316l27.892,1
		C167.857,236.999,167.966,237.001,168.075,237.001z"/>
	<path d="M313.881,218.006l-27.892,1c-4.968,0.178-8.85,4.349-8.672,9.316c0.174,4.858,4.167,8.678,8.988,8.678
		c0.109,0,0.219-0.002,0.328-0.006l27.892-1c4.968-0.178,8.85-4.349,8.672-9.316S318.838,217.826,313.881,218.006z"/>
</g>
<g>
</g>
<g>
</g>
<g>
</g>
<g>
</g>
<g>
</g>
<g>
</g>
<g>
</g>
<g>
</g>
<g>
</g>
<g>
</g>
<g>
</g>
<g>
</g>
<g>
</g>
<g>
</g>
<g>
</g>
</svg>
