<?xml version="1.0" encoding="iso-8859-1"?>
<!-- Generator: Adobe Illustrator 18.0.0, SVG Export Plug-In . SVG Version: 6.00 Build 0)  -->
<!DOCTYPE svg PUBLIC "-//W3C//DTD SVG 1.1//EN" "http://www.w3.org/Graphics/SVG/1.1/DTD/svg11.dtd">
<svg version="1.1" id="Capa_1" xmlns="http://www.w3.org/2000/svg" xmlns:xlink="http://www.w3.org/1999/xlink" x="0px" y="0px"
	 viewBox="0 0 469.502 469.502" style="enable-background:new 0 0 469.502 469.502;" xml:space="preserve">
<g>
	<path d="M266.648,135.217l14.296,11.343c1.654,1.313,3.628,1.95,5.588,1.95c2.652,0,5.279-1.167,7.056-3.407
		c3.089-3.894,2.438-9.555-1.457-12.644l-14.296-11.343c-3.894-3.09-9.555-2.437-12.645,1.456
		C262.102,126.466,262.754,132.127,266.648,135.217z"/>
	<path d="M184.845,148.51c1.959,0,3.934-0.638,5.588-1.95l14.296-11.343c3.894-3.089,4.546-8.75,1.457-12.645
		c-3.089-3.893-8.75-4.546-12.644-1.456l-14.296,11.343c-3.894,3.089-4.546,8.75-1.457,12.644
		C179.565,147.343,182.192,148.51,184.845,148.51z"/>
	<path d="M273.96,188.409c6.023,5.69,13.834,8.792,22.086,8.792c0.313,0,0.626-0.004,0.94-0.013
		c8.596-0.245,16.583-3.823,22.489-10.075l8.195-8.676c3.413-3.613,3.251-9.31-0.362-12.723
		c-17.689-16.71-45.676-15.913-62.386,1.777c-1.639,1.735-2.522,4.05-2.454,6.437c0.068,2.386,1.081,4.647,2.816,6.286
		L273.96,188.409z M307.309,173.781l-0.918,0.972c-2.604,2.757-6.126,4.334-9.917,4.442c-3.8,0.104-7.396-1.267-10.153-3.871
		l-0.972-0.918C292.201,171,300.274,170.77,307.309,173.781z"/>
	<path d="M139.373,172.001c-0.068,2.386,0.815,4.701,2.454,6.437l8.195,8.676c5.906,6.251,13.893,9.829,22.489,10.074
		c0.314,0.009,0.627,0.013,0.94,0.013c8.251,0,16.063-3.102,22.085-8.792l8.676-8.195c3.613-3.413,3.775-9.109,0.362-12.723
		c-8.094-8.569-19.042-13.473-30.825-13.809c-11.785-0.341-22.992,3.938-31.562,12.032
		C140.455,167.354,139.442,169.615,139.373,172.001z M184.15,174.406l-0.973,0.918c-5.69,5.375-14.693,5.119-20.069-0.571
		l-0.919-0.973C169.225,170.77,177.297,170.999,184.15,174.406z"/>
	<path d="M458.53,74.734c-20.834-23.58-51.744-29.103-68.314-30.296c-5.7-0.411-11.163-3.388-15.38-8.383l-0.368-0.437
		c-13.775-16.312-35.422-19.491-52.305-8.02c-9.719-5.69-21.002-8.881-32.949-8.881H180.289c-11.947,0-23.23,3.191-32.949,8.881
		c-16.884-11.471-38.53-8.291-52.306,8.021l-0.367,0.435c-4.218,4.996-9.681,7.973-15.381,8.384
		c-16.57,1.193-47.479,6.716-68.314,30.296c-10.452,11.829-13.784,29.622-8.49,45.33c8.653,25.673,23.458,59.562,34.355,83.47
		c3.603,7.907,6.799,21.038,9.242,37.974c1.592,11.035,9.182,19.983,19.808,23.353c2.911,0.923,5.875,1.373,8.805,1.373
		c6.13,0,12.097-1.977,17.077-5.699c-3.456,27.734-13.795,93.981-37.227,133.034c-2.44,4.067-1.305,9.33,2.594,12.03
		c22.177,15.353,61.152,26.383,89.944,32.932c31.752,7.223,66.32,12.253,84.169,12.253c0.049,0,0.102,0,0.15,0
		c2.235-0.004,4.469-0.004,6.702,0c0.05,0,0.1,0,0.15,0c17.851,0,52.419-5.03,84.17-12.253
		c28.792-6.549,67.767-17.579,89.944-32.932c3.9-2.7,5.035-7.963,2.594-12.03c-23.432-39.053-33.771-105.3-37.227-133.034
		c4.98,3.722,10.947,5.699,17.077,5.699c2.929,0,5.895-0.45,8.805-1.373c10.626-3.37,18.216-12.318,19.808-23.354
		c2.443-16.936,5.639-30.067,9.242-37.974c10.896-23.909,25.702-57.797,34.355-83.471C472.314,104.356,468.982,86.563,458.53,74.734
		z M289.213,36.718c20.85,0,38.923,13.405,44.974,33.357l38.146,125.778c2.745,9.052,1.927,18.697-2.303,27.157l-61.779,123.559
		c-5.589,11.177-18.059,17.309-30.324,14.909l-23.479-4.594c-13.07-2.558-26.326-2.558-39.396,0l-23.479,4.594
		c-12.267,2.396-24.735-3.731-30.324-14.909L99.472,223.01c-4.23-8.46-5.048-18.105-2.303-27.157l38.146-125.778
		c6.051-19.952,24.125-33.357,44.974-33.357H289.213z M71.328,247.703c-4.048-1.284-6.827-4.56-7.434-8.765
		c-2.722-18.871-6.314-33.293-10.678-42.869c-10.721-23.525-25.267-56.805-33.677-81.755c-3.224-9.565-1.246-20.682,4.922-27.663
		c16.6-18.788,42.285-23.265,56.118-24.261c10.58-0.762,20.467-5.991,27.841-14.725l0.367-0.435
		c6.338-7.506,15.252-10.068,23.346-7.283c-6.305,6.969-11.161,15.398-14.044,24.903L79.943,190.63
		c-4.086,13.476-2.869,27.835,3.429,40.431l4.184,8.368l-5.101,5.395C79.537,247.91,75.376,248.987,71.328,247.703z
		 M238.258,432.784c-0.042,0-0.086,0-0.128,0c-2.251-0.003-4.504-0.003-6.758,0c-0.043,0-0.085,0-0.128,0
		c-29.054,0-117.292-15.622-156.926-37.702c18.589-35.46,28.411-84.677,33.107-115.916l37.726,75.453
		c7.861,15.723,23.996,25.375,41.122,25.374c2.902,0,5.834-0.278,8.758-0.85l23.479-4.594c10.778-2.108,21.707-2.108,32.484,0
		l23.479,4.594c20.177,3.95,40.686-6.138,49.879-24.524l37.726-75.452c4.697,31.239,14.518,80.456,33.107,115.916
		C355.548,417.164,267.307,432.784,238.258,432.784z M449.963,114.315c-8.41,24.95-22.956,58.23-33.677,81.755
		c-4.364,9.576-7.957,23.999-10.678,42.869c-0.606,4.205-3.385,7.481-7.434,8.765c-4.049,1.283-8.208,0.208-11.127-2.88
		l-5.101-5.395l4.184-8.368c6.298-12.596,7.515-26.955,3.429-40.431L351.413,64.852c-2.883-9.505-7.739-17.935-14.044-24.903
		c8.094-2.785,17.007-0.222,23.345,7.282l0.368,0.437c7.374,8.732,17.261,13.962,27.841,14.724
		c13.833,0.996,39.518,5.473,56.118,24.261C451.209,93.633,453.187,104.75,449.963,114.315z"/>
	<path d="M200.822,213.101c-23.969,12.646-38.858,37.319-38.858,64.389v55.215c0,3.554,2.091,6.775,5.338,8.221
		c13.747,6.123,29.501,6.114,43.236-0.03l6.118-2.745c11.499-5.139,24.688-5.139,36.174-0.005l6.139,2.754
		c6.873,3.074,14.254,4.611,21.637,4.611c7.362,0,14.727-1.528,21.589-4.585c3.247-1.446,5.338-4.667,5.338-8.221V277.49
		c0-27.07-14.889-51.742-38.858-64.389c-5.049-2.664-8.395-7.839-8.731-13.506l-2.669-44.917c-0.295-4.962-4.547-8.748-9.519-8.451
		c-4.961,0.295-8.745,4.557-8.45,9.518l2.669,44.918c0.708,11.91,7.72,22.776,18.3,28.358c18.046,9.522,29.257,28.094,29.257,48.469
		v48.871c-7.675,2.018-15.883,1.388-23.206-1.887l-6.142-2.755c-5.279-2.359-10.814-3.934-16.436-4.752v-7.077
		c1.639-0.266,3.267-0.578,4.865-0.989c2.66-0.684,4.861-2.545,5.979-5.054l3.474-7.798c0.451-1.012,1.584-1.512,2.636-1.165
		l2.97,0.98c3.721,1.229,7.806-0.09,10.105-3.261c4.084-5.628,6.243-12.099,6.243-18.714c0-18.928-16.551-31.067-43.17-31.68
		c-1.408-0.036-2.819-0.036-4.18,0c-26.643,0.614-43.194,12.753-43.194,31.681c0,6.615,2.159,13.086,6.243,18.714
		c2.301,3.17,6.385,4.49,10.105,3.261l2.971-0.98c1.053-0.348,2.185,0.154,2.636,1.166l3.474,7.797
		c1.118,2.508,3.319,4.37,5.979,5.054c1.598,0.411,3.225,0.723,4.864,0.989v7.077c-5.625,0.819-11.165,2.394-16.451,4.757
		l-6.121,2.746c-7.331,3.279-15.541,3.91-23.215,1.891V277.49c0-20.375,11.211-38.947,29.257-48.469
		c10.581-5.582,17.593-16.448,18.301-28.358l2.669-44.917c0.294-4.962-3.489-9.223-8.451-9.518
		c-4.953-0.294-9.223,3.488-9.518,8.451l-2.669,44.917C209.217,205.262,205.871,210.437,200.822,213.101z M207.828,276.834
		c-0.231-0.968-0.348-1.95-0.348-2.944c0-12.464,21.333-13.587,25.633-13.686c1.098-0.028,2.157-0.029,3.302,0
		c4.276,0.099,25.609,1.221,25.609,13.686c0,0.994-0.116,1.976-0.348,2.944c-8.372-0.705-16.485,3.89-20.049,11.891l-1.581,3.549
		c-3.477,0.483-7.111,0.483-10.587,0l-1.581-3.549C224.311,280.723,216.2,276.118,207.828,276.834z"/>
</g>
<g>
</g>
<g>
</g>
<g>
</g>
<g>
</g>
<g>
</g>
<g>
</g>
<g>
</g>
<g>
</g>
<g>
</g>
<g>
</g>
<g>
</g>
<g>
</g>
<g>
</g>
<g>
</g>
<g>
</g>
</svg>
