<?xml version="1.0" encoding="iso-8859-1"?>
<!-- Generator: Adobe Illustrator 18.0.0, SVG Export Plug-In . SVG Version: 6.00 Build 0)  -->
<!DOCTYPE svg PUBLIC "-//W3C//DTD SVG 1.1//EN" "http://www.w3.org/Graphics/SVG/1.1/DTD/svg11.dtd">
<svg version="1.1" id="Capa_1" xmlns="http://www.w3.org/2000/svg" xmlns:xlink="http://www.w3.org/1999/xlink" x="0px" y="0px"
	 viewBox="0 0 473.488 473.488" style="enable-background:new 0 0 473.488 473.488;" xml:space="preserve">
<g>
	<path d="M472.682,265.151c-16.938-99.784-81.657-191.768-92.284-206.349c-0.676-4.381-1.523-8.874-2.599-13.454
		c-2.865-12.208-14.815-20.296-27.192-18.41c-8.996,1.37-17.496,3.387-25.296,5.704c-57.991-17.402-119.136-17.402-177.125,0
		c-7.8-2.317-16.299-4.334-25.295-5.704c-12.388-1.886-24.327,6.2-27.193,18.409c-1.074,4.576-1.921,9.064-2.597,13.442
		C82.498,73.333,17.749,165.341,0.807,265.15c-3.185,18.753,3.178,37.767,17.019,50.862
		c43.71,41.354,135.992,98.645,187.109,129.114c9.811,5.847,20.811,8.771,31.81,8.771s21.999-2.924,31.81-8.771
		c51.117-30.469,143.399-87.759,187.109-129.114C469.503,302.918,475.865,283.904,472.682,265.151z M443.292,302.937
		c-44.036,41.664-143.314,102.503-183.955,126.727c-13.937,8.306-31.251,8.307-45.186,0
		c-40.641-24.224-139.919-85.063-183.955-126.727c-9.467-8.957-13.82-21.957-11.644-34.774
		c11.903-70.121,49.702-137.989,72.456-173.952c0.547,16.498,3.003,27.397,3.189,28.198c0.965,4.156,4.663,6.961,8.754,6.96
		c0.671,0,1.352-0.075,2.033-0.232c4.838-1.115,7.857-5.945,6.749-10.785c-0.072-0.316-7.152-32.105,1.485-68.892
		c0.735-3.134,3.798-5.209,6.96-4.728c36.561,5.566,64.978,23.411,65.411,23.686c4.187,2.676,9.748,1.452,12.426-2.732
		c2.68-4.187,1.458-9.752-2.729-12.432c-0.578-0.37-7.13-4.51-17.859-9.507c39.194-8.217,79.443-8.217,118.637,0
		c-10.729,4.997-17.281,9.138-17.859,9.507c-4.184,2.677-5.402,8.234-2.73,12.421c2.674,4.186,8.234,5.413,12.425,2.746
		c0.283-0.181,28.755-18.106,65.414-23.688c3.165-0.482,6.225,1.594,6.96,4.729c8.639,36.786,1.558,68.574,1.488,68.877
		c-1.124,4.842,1.89,9.678,6.731,10.802c0.685,0.159,1.369,0.235,2.043,0.235c4.092,0,7.794-2.81,8.759-6.967
		c0.186-0.801,2.641-11.696,3.189-28.188c22.756,35.966,60.548,103.827,72.45,173.94
		C457.111,280.981,452.759,293.981,443.292,302.937z"/>
	<path d="M155.235,84.197c4.766,1.401,9.771-1.332,11.17-6.101s-1.332-9.771-6.102-11.17c-8.789-2.579-18.175-1.101-25.748,4.059
		c-7.587,5.17-12.406,13.383-13.223,22.534c-0.441,4.951,3.214,9.323,8.165,9.764c0.272,0.024,0.542,0.036,0.811,0.036
		c4.608,0,8.536-3.522,8.954-8.201c0.335-3.761,2.314-7.136,5.43-9.259C147.791,83.747,151.632,83.14,155.235,84.197z"/>
	<path d="M338.941,70.986c-7.574-5.161-16.963-6.641-25.75-4.06c-4.77,1.4-7.501,6.401-6.102,11.17
		c1.399,4.769,6.4,7.499,11.17,6.101c3.603-1.057,7.444-0.451,10.544,1.663c3.115,2.123,5.094,5.497,5.429,9.258
		c0.418,4.679,4.345,8.201,8.954,8.201c0.268,0,0.538-0.012,0.81-0.036c4.951-0.441,8.607-4.813,8.166-9.764
		C351.346,84.369,346.527,76.156,338.941,70.986z"/>
	<path d="M236.744,356.345c-17.424,0-32.966-9.81-39.595-24.991l16.496-7.203c3.765,8.623,12.832,14.194,23.099,14.194
		c10.266,0,19.333-5.572,23.099-14.195l16.496,7.204C269.708,346.535,254.167,356.345,236.744,356.345z"/>
	<g>
		<path d="M161.921,194.456c2.304,0,4.606-0.879,6.364-2.636l11.214-11.214l1.692,1.692c3.516,3.515,9.213,3.515,12.729,0
			c3.515-3.515,3.515-9.213,0-12.728l-2.586-2.586c-6.525-6.526-17.145-6.526-23.67,0l-12.107,12.107
			c-3.515,3.515-3.515,9.213,0,12.728C157.314,193.577,159.617,194.456,161.921,194.456z"/>
		<path d="M282.161,166.985l-2.586,2.586c-3.515,3.515-3.515,9.213,0,12.728c3.516,3.515,9.213,3.515,12.729,0l1.692-1.693
			l11.215,11.214c1.758,1.757,4.061,2.636,6.364,2.636s4.606-0.879,6.364-2.636c3.515-3.515,3.515-9.213,0-12.728l-12.107-12.107
			C299.305,160.458,288.688,160.46,282.161,166.985z"/>
		<path d="M307.202,218.774L289.8,198.762c-5.171-5.947-11.245-10.899-17.923-14.746c-8.18-4.712-13.148-13.755-11.974-23.123
			c0.056-0.449,0.125-0.898,0.206-1.347c1.515-8.374,7.128-15.279,15.018-18.47l15.724-6.361c4.445-1.798,6.969-6.722,5.462-11.274
			c-1.651-4.987-7.133-7.468-11.924-5.529l-16.013,6.478c-13.648,5.521-23.36,17.466-25.98,31.953
			c-1.138,6.297-0.85,12.612,0.727,18.558c-2.111-0.192-4.235-0.311-6.374-0.311c-2.139,0-4.264,0.119-6.375,0.311
			c1.577-5.946,1.865-12.261,0.727-18.558c-2.62-14.487-12.332-26.433-25.98-31.953l-16.013-6.478
			c-4.789-1.938-10.275,0.544-11.924,5.531c-1.506,4.551,1.019,9.474,5.464,11.272l15.724,6.361
			c7.89,3.191,13.503,10.096,15.018,18.47c0.081,0.449,0.15,0.898,0.206,1.347c1.174,9.367-3.794,18.41-11.974,23.122
			c-6.678,3.847-12.752,8.799-17.923,14.746l-17.402,20.013c-24.688,28.391-25.958,70.642-3.019,100.464
			c8.901,11.57,22.431,17.972,36.42,17.972c5.126,0,10.314-0.86,15.357-2.64c8.879-3.133,16.348-8.828,21.695-16.076
			c5.347,7.248,12.816,12.943,21.694,16.076c18.811,6.639,39.615,0.477,51.777-15.333
			C333.158,289.416,331.89,247.166,307.202,218.774z M236.748,266.559c-10.457,0-18.964-7.6-18.964-16.942
			c0-11.034,13.262-12.225,18.964-12.225c5.701,0,18.963,1.191,18.963,12.225C255.711,258.959,247.204,266.559,236.748,266.559z
			 M295.952,308.262c-7.403,9.624-20.068,13.375-31.52,9.334c-11.176-3.944-18.685-14.558-18.685-26.41v-7.68
			c16.046-3.81,27.963-17.557,27.963-33.89c0-18.079-14.854-30.225-36.963-30.225c-22.109,0-36.964,12.146-36.964,30.225
			c0,16.333,11.918,30.081,27.964,33.89v7.68c0,11.852-7.509,22.465-18.686,26.41c-11.454,4.04-24.117,0.289-31.52-9.334
			c-17.736-23.058-16.755-55.725,2.333-77.677l17.403-20.013c9.937-11.428,24.323-17.983,39.469-17.983s29.531,6.555,39.469,17.983
			l17.402,20.013C312.707,252.537,313.688,285.205,295.952,308.262z"/>
	</g>
</g>
<g>
</g>
<g>
</g>
<g>
</g>
<g>
</g>
<g>
</g>
<g>
</g>
<g>
</g>
<g>
</g>
<g>
</g>
<g>
</g>
<g>
</g>
<g>
</g>
<g>
</g>
<g>
</g>
<g>
</g>
</svg>
