<?xml version="1.0" encoding="iso-8859-1"?>
<!-- Generator: Adobe Illustrator 18.0.0, SVG Export Plug-In . SVG Version: 6.00 Build 0)  -->
<!DOCTYPE svg PUBLIC "-//W3C//DTD SVG 1.1//EN" "http://www.w3.org/Graphics/SVG/1.1/DTD/svg11.dtd">
<svg version="1.1" id="Capa_1" xmlns="http://www.w3.org/2000/svg" xmlns:xlink="http://www.w3.org/1999/xlink" x="0px" y="0px"
	 viewBox="0 0 486.104 486.104" style="enable-background:new 0 0 486.104 486.104;" xml:space="preserve">
<g>
	<path d="M388.755,233.73c19.074-50.658,23.842-105.429,13.76-158.671l-10.571-55.831c-1.849-9.764-9.37-17.171-19.161-18.87
		c-9.792-1.7-19.369,2.741-24.399,11.311L285.937,118.06c-2.643-0.559-5.36-0.858-8.121-0.858h-69.528
		c-3.068,0-6.084,0.365-9.001,1.053L137.721,13.365c-5.03-8.57-14.608-13.01-24.399-11.311s-17.313,9.106-19.161,18.87
		L83.589,76.755c-10.054,53.097-5.342,107.716,13.603,158.258l-11.879,96.366c-2.595,21.058,0.749,42.364,9.671,61.614
		l40.737,87.894c2.09,4.51,7.439,6.472,11.95,4.381c4.51-2.09,6.471-7.44,4.381-11.95l-40.737-87.894
		c-7.507-16.197-10.321-34.124-8.137-51.843l11.974-97.145l76.904-93.563c4.006-4.874,9.923-7.67,16.232-7.67h69.528
		c6.309,0,12.226,2.795,16.232,7.67l76.904,93.563l11.974,97.145c2.184,17.719-0.63,35.646-8.137,51.843l-40.737,87.894
		c-2.09,4.51-0.129,9.86,4.381,11.95c1.225,0.568,2.512,0.837,3.779,0.837c3.397,0,6.649-1.933,8.171-5.218l40.737-87.894
		c8.922-19.25,12.267-40.556,9.671-61.615L388.755,233.73z M153.736,137.772c-2.123,18.036-9.579,35.028-21.11,49.058
		l-23.265,28.304c-13.812-43.581-16.633-89.891-8.086-135.031l10.571-55.831c0.653-3.447,3.402-4.284,4.553-4.484
		c1.153-0.199,4.022-0.338,5.798,2.688l27.671,47.143c1.171,5.673,4.006,20.938,4.777,39.042
		C155.092,119.154,154.781,128.896,153.736,137.772z M178.151,131.443l-6.473,7.876c1.208-10.554,1.386-21.098,1.003-30.834
		l10.496,17.883C181.37,127.891,179.682,129.58,178.151,131.443z M307.953,131.443c-1.719-2.091-3.634-3.966-5.696-5.628
		l11.248-19.163c-0.481,10.236-0.368,21.44,0.914,32.657L307.953,131.443z M376.351,214.657l-22.918-27.882
		c-11.543-14.044-19.036-31.053-21.117-49.112c-3.927-34.077,4.309-69.907,4.428-70.41c0,0-0.049,0.004-0.119,0.01l27.282-46.481
		c1.777-3.026,4.646-2.887,5.798-2.688c1.151,0.2,3.9,1.037,4.553,4.484l10.571,55.831
		C393.457,123.969,390.499,170.721,376.351,214.657z"/>
	<path d="M324.876,247.421c-4.271-6.861-10.959-11.649-18.831-13.48c-7.871-1.83-15.986-0.488-22.847,3.784l-3.824,2.381
		c-2.058-7.274-3.28-14.765-3.635-22.405l-0.237-5.1c-0.082-1.751,0.011-2.867,0.121-3.539c1.053,0.05,3.126,0.364,6.666,1.686
		c0.04,0.015,0.079,0.029,0.118,0.043c0.395,0.141,39.767,14.467,68.057,45.378c3.356,3.666,9.048,3.918,12.715,0.563
		c3.667-3.356,3.919-9.049,0.563-12.715c-30.949-33.816-72.62-49.218-75.204-50.149c-3.877-1.449-15.459-5.734-23.878,0.402
		c-7.767,5.662-7.294,15.827-7.139,19.168l0.237,5.099c0.715,15.373,4.377,30.24,10.885,44.187
		c16.599,35.571,25.373,75.123,25.373,114.378c0,6.684-3.518,12.557-9.411,15.711c-5.893,3.153-12.73,2.823-18.292-0.885
		l-18.269-12.179c-3.023-2.015-6.962-2.015-9.984,0l-18.269,12.179c-5.562,3.707-12.4,4.038-18.292,0.884
		c-5.893-3.154-9.411-9.027-9.411-15.711c0-39.255,8.774-78.806,25.373-114.378c6.508-13.947,10.17-28.813,10.885-44.186l0.237-5.1
		c0.174-3.739,0.636-13.671-6.736-19.155c-7.323-5.448-17.298-2.87-24.213-0.439c-1.782,0.637-44,16.005-75.272,50.174
		c-3.356,3.667-3.104,9.36,0.563,12.715c3.666,3.356,9.36,3.104,12.715-0.563c28.175-30.785,67.669-45.239,68.01-45.362
		c3.569-1.255,5.724-1.635,6.915-1.731c0.072,0.733,0.114,1.854,0.037,3.524l-0.237,5.1c-0.355,7.64-1.577,15.131-3.635,22.404
		l-3.824-2.38c-6.861-4.271-14.976-5.614-22.847-3.784c-7.872,1.832-14.56,6.619-18.831,13.48l-5.78,9.285
		c-1.261,2.027-1.666,4.471-1.125,6.796c0.541,2.325,1.983,4.34,4.01,5.601c6.758,4.207,14.274,6.212,21.704,6.212
		c4.609,0,9.179-0.789,13.52-2.286c-12.759,33.084-19.468,68.685-19.468,104.072c0,13.235,7.249,25.336,18.918,31.581
		c11.668,6.245,25.76,5.563,36.77-1.778l13.276-8.851l13.277,8.851c6.004,4.003,12.922,6.025,19.865,6.025
		c5.791,0,11.599-1.408,16.905-4.248c11.669-6.245,18.918-18.346,18.918-31.581c0-35.386-6.71-70.987-19.468-104.071
		c4.34,1.496,8.91,2.285,13.519,2.285c7.428,0,14.947-2.006,21.704-6.212c2.026-1.261,3.469-3.276,4.01-5.601
		c0.541-2.325,0.136-4.769-1.125-6.796L324.876,247.421z M176.446,257.036l0.063-0.102c1.73-2.78,4.439-4.719,7.628-5.461
		c3.19-0.742,6.476-0.197,9.256,1.533l0.102,0.064C188.558,256.551,182.412,257.98,176.446,257.036z M292.609,253.069l0.102-0.063
		c2.78-1.731,6.067-2.275,9.256-1.533c3.189,0.742,5.898,2.681,7.628,5.461l0.063,0.101
		C303.693,257.98,297.546,256.55,292.609,253.069z"/>
	<path d="M204.658,337.102c0,21.171,17.224,38.394,38.395,38.394c21.17,0,38.394-17.224,38.394-38.395
		c0-8.853-7.202-16.054-16.055-16.054h-44.679C211.86,321.047,204.658,328.249,204.658,337.102z M263.355,339.047
		c-0.983,10.336-9.713,18.449-20.302,18.449h0c-10.589,0-19.319-8.113-20.302-18.449H263.355z"/>
</g>
<g>
</g>
<g>
</g>
<g>
</g>
<g>
</g>
<g>
</g>
<g>
</g>
<g>
</g>
<g>
</g>
<g>
</g>
<g>
</g>
<g>
</g>
<g>
</g>
<g>
</g>
<g>
</g>
<g>
</g>
</svg>
