<?xml version="1.0" encoding="iso-8859-1"?>
<!-- Generator: Adobe Illustrator 18.0.0, SVG Export Plug-In . SVG Version: 6.00 Build 0)  -->
<!DOCTYPE svg PUBLIC "-//W3C//DTD SVG 1.1//EN" "http://www.w3.org/Graphics/SVG/1.1/DTD/svg11.dtd">
<svg version="1.1" id="Capa_1" xmlns="http://www.w3.org/2000/svg" xmlns:xlink="http://www.w3.org/1999/xlink" x="0px" y="0px"
	 viewBox="0 0 476.419 476.419" style="enable-background:new 0 0 476.419 476.419;" xml:space="preserve">
<g>
	<path d="M171.044,179.964c0.656,0,1.317-0.04,1.98-0.12c6.044-0.733,11.128-4.73,13.269-10.432l2.236-5.962
		c1.3-3.465,0.346-7.373-2.405-9.849c-2.75-2.476-6.734-3.017-10.047-1.361l-15.028,7.514c-2.326,1.163-4.035,3.276-4.688,5.794
		c-0.651,2.518-0.183,5.195,1.287,7.341C160.712,177.361,165.717,179.964,171.044,179.964z"/>
	<path d="M315.37,159.753l-15.029-7.514c-3.309-1.656-7.297-1.115-10.047,1.362c-2.75,2.477-3.704,6.385-2.403,9.85l2.236,5.961
		c2.139,5.701,7.223,9.698,13.267,10.432c0.664,0.081,1.325,0.12,1.982,0.12c5.326,0,10.332-2.603,13.396-7.075
		c1.47-2.146,1.938-4.823,1.287-7.341C319.406,163.029,317.697,160.916,315.37,159.753z"/>
	<path d="M466.978,238.656L383.756,90.844c-8.266-14.681-25.446-22.048-41.778-17.911l-17.655,4.47
		c-5.703-5.39-11.974-10.308-18.794-14.648c-20.15-12.827-43.431-19.606-67.325-19.606c-23.876,0-47.152,6.779-67.313,19.606
		c-6.806,4.333-13.098,9.24-18.831,14.638l-17.617-4.46c-16.329-4.134-33.512,3.23-41.778,17.911L9.441,238.656
		c-11.897,21.132-12.59,46.755-1.853,68.542c14.914,30.263,42.162,76.22,87.279,123.299c1.7,1.774,4.049,2.773,6.498,2.773
		c0.104,0,0.208-0.002,0.313-0.005c2.561-0.089,4.961-1.265,6.602-3.233c16.222-19.466,33.476-46.469,43.746-63.3
		c2.887,2.889,6.458,5.179,10.59,6.631c11.568,4.065,23.85,0.39,31.28-9.372l12.282-16.146c7.835,8.699,19.494,14.022,32.035,14.022
		c12.535,0,24.192-5.321,32.03-14.017l12.28,16.143c5.42,7.12,13.42,11.001,21.846,11.001c3.122,0,6.305-0.534,9.434-1.633
		c4.132-1.452,7.704-3.743,10.59-6.631c10.27,16.831,27.524,43.834,43.747,63.301c1.641,1.968,4.041,3.144,6.602,3.233
		c0.104,0.003,0.209,0.005,0.313,0.005c2.449,0,4.798-0.999,6.498-2.773c45.117-47.079,72.365-93.036,87.279-123.299
		C479.568,285.411,478.876,259.788,466.978,238.656z M100.819,410.542c-39.345-42.756-63.522-83.78-77.084-111.301
		c-8.11-16.455-7.59-35.803,1.392-51.754l83.221-147.812c4.289-7.617,13.201-11.437,21.676-9.293l8.406,2.128
		c-16.426,21.498-25.617,48.031-25.617,76.073c0,15.916,2.992,31.499,8.893,46.313l4.923,12.371
		c12.76,32.081,18.79,65.838,17.924,100.339l-0.428,17.263C138.68,354.156,119.517,386.265,100.819,410.542z M238.214,343.868
		c-7.517,0-14.431-3.174-18.891-8.312c0.377-0.15,0.755-0.3,1.142-0.429c6.996-2.332,13.081-6.509,17.733-12.14
		c4.554,5.492,10.63,9.761,17.743,12.136c0.394,0.132,0.778,0.283,1.161,0.437C252.639,340.696,245.726,343.868,238.214,343.868z
		 M238.21,288.809c-13.228,0-23.989-9.691-23.989-21.604c0-4.934,1.563-5.49,3.54-6.194c4.347-1.547,11.738-1.574,19.605-1.574
		c0.138,0,0.276,0,0.414,0h0.859c8.004,0.003,15.596-0.001,20.019,1.574c1.979,0.704,3.541,1.26,3.541,6.194
		C262.199,279.118,251.437,288.809,238.21,288.809z M307.835,356.381c-1.57,0.552-7.002,1.946-10.987-3.287l-16.46-21.638
		c-2.396-3.134-5.211-5.865-8.349-8.107c-3.155-2.264-6.649-4.045-10.391-5.297c-6.13-2.047-10.82-6.699-13.035-12.474
		c18.137-4.377,31.586-19.92,31.586-38.372c0-14.573-8.431-20.634-15.504-23.151c-7.352-2.617-16.455-2.621-26.057-2.616h-0.857
		c-9.584-0.018-18.705-0.001-26.057,2.616c-7.073,2.518-15.504,8.578-15.504,23.151c0,18.449,13.444,33.991,31.578,38.37
		c-0.648,1.684-1.504,3.294-2.584,4.788c-2.605,3.62-6.216,6.278-10.446,7.688c-7.491,2.502-13.976,7.144-18.752,13.423
		l-16.443,21.616c-3.985,5.234-9.419,3.841-10.989,3.29c-1.567-0.551-6.671-2.859-6.506-9.432l0.469-18.893
		c0.104-4.119,0.34-13.855,0.34-14.667c0-29.093,16.896-65.477,31.803-97.577c8.904-19.172,17.313-37.282,21.413-52.296
		c1.99-7.291,8.049-29.477-8.374-40.712c-17.791-12.173-37.571-8.962-55.694,9.042c-3.526,3.503-3.545,9.201-0.042,12.728
		c3.502,3.526,9.202,3.545,12.728,0.042c17.543-17.427,29.06-9.546,32.845-6.957c10.3,7.047-5.373,40.795-19.2,70.571
		c-7.801,16.798-16.119,34.71-22.512,52.541c-3.108-13.61-7.271-27.016-12.498-40.157l-4.924-12.375
		c-5.054-12.688-7.616-26.031-7.616-39.656c0-36.93,18.596-70.815,49.741-90.643c17.267-10.985,37.202-16.792,57.649-16.792
		c20.464,0,40.402,5.806,57.66,16.792c43.447,27.65,61.163,82.45,42.124,130.302l-4.924,12.373
		c-5.226,13.14-9.389,26.544-12.496,40.153c-6.394-17.829-14.711-35.741-22.512-52.539c-13.827-29.775-29.499-63.523-19.2-70.57
		c3.785-2.59,15.304-10.47,32.846,6.957c3.527,3.501,9.225,3.486,12.728-0.042c3.503-3.526,3.484-9.225-0.042-12.728
		c-18.124-18.004-37.904-21.215-55.695-9.042c-16.422,11.236-10.364,33.422-8.374,40.712c4.101,15.015,12.51,33.124,21.413,52.295
		c14.907,32.101,31.804,68.484,31.804,97.578c0,0.81,0.234,10.544,0.338,14.664l0.468,18.899
		C314.505,353.521,309.402,355.829,307.835,356.381z M452.684,299.241c-13.562,27.521-37.739,68.544-77.084,111.3
		c-18.691-24.27-37.867-56.397-43.307-65.678l-0.427-17.26c-0.867-34.495,5.163-68.252,17.923-100.335l4.923-12.372
		c16.634-41.808,9.237-88.156-16.793-122.368l8.477-2.146c8.476-2.144,17.387,1.676,21.675,9.292l83.223,147.812
		C460.274,263.439,460.795,282.786,452.684,299.241z"/>
</g>
<g>
</g>
<g>
</g>
<g>
</g>
<g>
</g>
<g>
</g>
<g>
</g>
<g>
</g>
<g>
</g>
<g>
</g>
<g>
</g>
<g>
</g>
<g>
</g>
<g>
</g>
<g>
</g>
<g>
</g>
</svg>
