<?xml version="1.0" encoding="iso-8859-1"?>
<!-- Generator: Adobe Illustrator 18.0.0, SVG Export Plug-In . SVG Version: 6.00 Build 0)  -->
<!DOCTYPE svg PUBLIC "-//W3C//DTD SVG 1.1//EN" "http://www.w3.org/Graphics/SVG/1.1/DTD/svg11.dtd">
<svg version="1.1" id="Capa_1" xmlns="http://www.w3.org/2000/svg" xmlns:xlink="http://www.w3.org/1999/xlink" x="0px" y="0px"
	 viewBox="0 0 437.71 437.71" style="enable-background:new 0 0 437.71 437.71;" xml:space="preserve">
<path d="M432.976,74.616L312.741,9.875c-13.061-7.03-29.242-5.087-40.266,4.836l-6.247,5.623
	c-4.813,4.331-11.028,6.716-17.503,6.716h-59.741c-6.475,0-12.69-2.385-17.503-6.717l-6.247-5.622
	c-11.025-9.922-27.206-11.865-40.266-4.836L4.734,74.616c-3.766,2.028-5.584,6.427-4.35,10.523
	c0.707,2.344,17.623,57.834,44.531,94.673c6.083,8.319,16.194,12.456,26.393,10.794c10.208-1.663,18.496-8.803,21.627-18.633
	c0.693-2.173,1.384-4.42,2.074-6.715l10.353,52.569c-6.885,20.721-10.863,42.421-11.672,64.208
	c-1.307,35.179,5.62,70.75,20.032,102.867l3.371,7.511c1.452,3.237,4.669,5.315,8.21,5.315c0.035,0,0.071,0,0.106,0
	c3.583-0.042,6.799-2.205,8.19-5.507l7.691-18.266c22.864,31.665,71.153,55.935,73.56,57.131c1.262,0.626,2.633,0.94,4.005,0.94
	s2.744-0.313,4.004-0.94c2.407-1.196,50.697-25.466,73.561-57.131l7.691,18.267c1.391,3.302,4.607,5.465,8.19,5.507
	c0.035,0,0.07,0,0.105,0c3.541,0,6.758-2.079,8.21-5.316l3.37-7.511c14.412-32.118,21.34-67.689,20.033-102.867
	c-0.81-21.787-4.787-43.488-11.673-64.209l10.353-52.569c0.69,2.294,1.381,4.541,2.074,6.714
	c3.131,9.832,11.418,16.972,21.626,18.635c1.492,0.243,2.98,0.362,4.456,0.362c8.613,0,16.745-4.055,21.94-11.16
	c26.906-36.836,43.822-92.326,44.529-94.67C438.56,81.043,436.742,76.645,432.976,74.616z M304.209,25.725l12.017,6.468
	c0.192,2.032,0.41,4.127,0.643,6.255c-10.293-4.675-22.501-7.448-33.767-9.085l1.413-1.272
	C289.908,23.238,297.821,22.287,304.209,25.725z M281.444,47.371c19.104,2.827,32.632,7.911,38.509,14.411
	c2.396,15.781,5.531,32.753,9.1,49.402l-50.825,5.627c-6.111,0.676-12.133-0.812-17.149-4.122
	c0.762-1.819,3.114-5.895,10.284-12.315c3.703-3.316,4.017-9.005,0.701-12.708c-3.316-3.704-9.007-4.018-12.709-0.702
	c-3.746,3.354-6.865,6.616-9.358,9.771c-0.623-2.748-0.804-5.613-0.5-8.5c0.521-4.943-3.064-9.373-8.008-9.893
	c-4.953-0.516-9.372,3.066-9.893,8.008c-1.402,13.316,3.238,26.37,12.731,35.812c7.26,7.22,16.615,11.59,26.567,12.589
	c-2.032,3.479-3.203,7.52-3.203,11.831c0,1.715,0.189,3.386,0.539,4.997c-20.584-0.681-39.487,10.263-49.375,27.635
	c-9.889-17.374-28.793-28.317-49.376-27.636c0.35-1.612,0.539-3.282,0.539-4.997c0-4.311-1.171-8.352-3.203-11.831
	c9.951-0.999,19.308-5.369,26.567-12.588c9.494-9.443,14.134-22.496,12.733-35.812c-0.521-4.944-4.954-8.525-9.893-8.009
	c-4.943,0.521-8.529,4.95-8.009,9.893c0.304,2.888,0.123,5.753-0.5,8.501c-2.493-3.154-5.612-6.416-9.358-9.771
	c-3.703-3.315-9.393-3.001-12.708,0.702s-3.001,9.393,0.702,12.708c7.154,6.406,9.511,10.466,10.283,12.316
	c-5.016,3.309-11.037,4.797-17.148,4.121l-50.825-5.627c3.569-16.65,6.704-33.622,9.1-49.403c5.877-6.5,19.405-11.583,38.508-14.41
	C173.28,44.853,264.432,44.853,281.444,47.371z M291.244,152.122c-3.062,0-5.553-2.485-5.553-5.54c0-3.055,2.491-5.541,5.553-5.541
	s5.553,2.485,5.553,5.541C296.796,149.636,294.305,152.122,291.244,152.122z M218.854,253.135c-11.407,0-20.688-8.318-20.688-18.542
	c0-4.323,0-7.18,20.688-7.18c20.688,0,20.688,2.856,20.688,7.18C239.542,244.817,230.262,253.135,218.854,253.135z M146.466,141.041
	c3.062,0,5.552,2.485,5.552,5.541c0,3.055-2.491,5.54-5.552,5.54s-5.552-2.485-5.552-5.54
	C140.914,143.526,143.404,141.041,146.466,141.041z M133.5,25.725c6.387-3.438,14.3-2.487,19.693,2.366l1.415,1.273
	C143.34,31,131.135,33.774,120.84,38.45c0.233-2.128,0.452-4.224,0.644-6.257L133.5,25.725z M75.786,166.509
	c-1.08,3.389-3.835,5.756-7.371,6.332c-3.526,0.572-6.877-0.792-8.967-3.649c-19.731-27.014-34.212-66.448-39.566-82.289
	l82.355-44.347C97.501,80.818,86.576,132.656,75.786,166.509z M106.22,129.024l22.196,2.457c-3.431,4.091-5.502,9.357-5.502,15.1
	c0,8.045,4.061,15.157,10.239,19.405c-4.739,4.232-8.778,9.269-11.854,14.952c-1.214,2.244-2.379,4.514-3.517,6.798L106.22,129.024z
	 M125.25,365.664c-9.944-26.38-14.619-54.805-13.573-82.96c1.205-32.43,10.005-64.657,25.451-93.198
	c5.762-10.647,16.007-17.746,28.104-19.474l0.788-0.112c1.765-0.252,3.518-0.375,5.252-0.375c17.334,0,32.646,12.25,36.067,29.737
	l2.023,10.34c-5.347,0.305-10.393,1.045-14.837,2.818c-6.551,2.614-14.36,8.579-14.36,22.153c0,17.257,12.735,31.749,29.793,35.556
	c-2.113,7.264-9.392,11.645-16.85,10.014c-16.901-3.696-34.045,5.193-40.76,21.14L125.25,365.664z M218.854,412.899
	c-19.074-10.161-58.353-35.093-68.87-59.594l18.955-45.018c3.348-7.952,11.899-12.379,20.323-10.541
	c11.117,2.433,22.073-1.06,29.591-8.442c7.519,7.382,18.479,10.877,29.592,8.442c8.424-1.844,16.976,2.59,20.323,10.541
	l18.954,45.017C277.207,377.807,237.925,402.74,218.854,412.899z M312.458,365.663l-27.099-64.361
	c-6.716-15.947-23.861-24.837-40.76-21.14c-7.463,1.63-14.738-2.752-16.851-10.014c17.058-3.807,29.793-18.298,29.793-35.556
	c0-13.574-7.81-19.54-14.36-22.153c-4.443-1.773-9.489-2.513-14.837-2.818l2.023-10.34c3.765-19.237,21.905-32.135,41.322-29.363
	l0.782,0.112c12.101,1.729,22.346,8.827,28.107,19.474c15.445,28.541,24.247,60.769,25.451,93.198
	C327.078,310.858,322.404,339.283,312.458,365.663z M316.411,180.938c-3.075-5.683-7.114-10.72-11.853-14.952
	c6.178-4.248,10.239-11.36,10.239-19.405c0-5.743-2.071-11.01-5.502-15.1l22.196-2.457l-11.563,58.712
	C318.79,185.452,317.625,183.182,316.411,180.938z M378.264,169.188c-2.093,2.861-5.451,4.224-8.97,3.652
	c-3.535-0.576-6.29-2.943-7.37-6.334c-10.791-33.851-21.716-85.689-26.451-123.951l82.354,44.347
	C412.473,102.743,397.993,142.178,378.264,169.188z"/>
<g>
</g>
<g>
</g>
<g>
</g>
<g>
</g>
<g>
</g>
<g>
</g>
<g>
</g>
<g>
</g>
<g>
</g>
<g>
</g>
<g>
</g>
<g>
</g>
<g>
</g>
<g>
</g>
<g>
</g>
</svg>
