<?xml version="1.0" encoding="iso-8859-1"?>
<!-- Generator: Adobe Illustrator 18.0.0, SVG Export Plug-In . SVG Version: 6.00 Build 0)  -->
<!DOCTYPE svg PUBLIC "-//W3C//DTD SVG 1.1//EN" "http://www.w3.org/Graphics/SVG/1.1/DTD/svg11.dtd">
<svg version="1.1" id="Capa_1" xmlns="http://www.w3.org/2000/svg" xmlns:xlink="http://www.w3.org/1999/xlink" x="0px" y="0px"
	 viewBox="0 0 472.032 472.032" style="enable-background:new 0 0 472.032 472.032;" xml:space="preserve">
<g>
	<path d="M302.542,210.819c-3.563-3.465-9.261-3.386-12.727,0.177c-3.466,3.563-3.387,9.261,0.177,12.727
		c2.705,2.63,4.833,5.749,6.321,9.261c1.476,3.491,2.225,7.191,2.225,10.997c0,15.599-12.691,28.29-28.29,28.29h-8.336
		c-7.105,0-13.188-4.414-15.681-10.64c13.594-3.59,23.469-14.14,23.469-26.568c0-14.852-13.222-24.449-33.684-24.449
		s-33.684,9.597-33.684,24.449c0,12.427,9.875,22.978,23.469,26.568c-2.493,6.226-8.576,10.64-15.681,10.64h-8.336
		c-15.599,0-28.29-12.69-28.29-28.29c0-3.806,0.749-7.506,2.221-10.989c1.492-3.52,3.62-6.639,6.325-9.269
		c3.563-3.465,3.643-9.164,0.177-12.727c-3.466-3.563-9.164-3.643-12.727-0.177c-4.433,4.311-7.914,9.407-10.351,15.155
		c-2.418,5.722-3.645,11.78-3.645,18.006c0,21.843,15.213,40.188,35.596,45.029c10.771,13.791,27.289,21.923,44.92,21.923
		c17.637,0,34.159-8.133,44.93-21.923c20.383-4.841,35.596-23.186,35.596-45.029c0-6.227-1.227-12.285-3.649-18.015
		C310.455,220.226,306.974,215.13,302.542,210.819z M220.333,235.062c0-4.431,8.13-6.449,15.684-6.449s15.684,2.018,15.684,6.449
		c0,4.674-6.441,9.882-15.684,9.882S220.333,239.736,220.333,235.062z M219.144,289.081c6.593-1.767,12.424-5.415,16.872-10.34
		c4.448,4.925,10.278,8.573,16.871,10.34c-5.192,2.491-10.938,3.852-16.875,3.852C230.078,292.932,224.334,291.572,219.144,289.081z
		"/>
	<path d="M463.291,194.321l-22.35-68.79c-10.443-32.146-29.648-60.343-55.61-81.81c-0.814-5.574-1.918-11.257-3.414-16.862
		c-2.943-11.026-11.247-19.485-22.21-22.628c-10.885-3.12-22.316-0.373-30.579,7.349c-0.191,0.178-0.379,0.36-0.569,0.539
		c-18.157-6.099-37.092-9.197-56.377-9.197h-72.33c-20.492,0-40.556,3.487-59.723,10.356c-1.369-1.033-2.751-2.048-4.141-3.03
		c-9.239-6.522-20.938-7.685-31.295-3.108C94.26,11.749,87.188,21.262,85.776,32.587c-0.531,4.255-0.843,8.524-0.99,12.737
		c-24.974,21.259-43.509,48.893-53.694,80.207l-22.35,68.79c-11.656,35.872-11.656,73.792-0.001,109.664
		c11.655,35.872,33.946,66.551,64.461,88.718l58.52,42.52c30.511,22.169,66.576,33.887,104.295,33.887s73.784-11.718,104.295-33.887
		l58.52-42.52c30.512-22.169,52.801-52.847,64.457-88.718C474.945,268.112,474.946,230.191,463.291,194.321z M388.251,378.141
		l-58.52,42.52c-56.053,40.729-131.376,40.729-187.429,0l-58.521-42.52c-56.056-40.723-79.333-112.359-57.92-178.258l22.349-68.787
		c7.601-23.369,20.379-44.455,37.341-61.877c1.632,17.6,5.019,30.698,5.249,31.572c1.063,4.039,4.707,6.709,8.695,6.709
		c0.757,0,1.526-0.096,2.292-0.297c4.805-1.261,7.679-6.181,6.421-10.987c-0.083-0.316-8.239-31.98-4.571-61.401
		c0.623-4.99,3.736-9.18,8.33-11.209c4.584-2.026,9.556-1.534,13.64,1.349c16.505,11.652,32.603,28.798,32.843,29.054
		c3.392,3.634,9.087,3.831,12.721,0.439c3.633-3.392,3.83-9.087,0.438-12.72c-0.419-0.449-6.496-6.932-15.14-14.798
		c14.066-3.987,28.6-6.006,43.383-6.006h72.33c14.469,0,28.718,1.939,42.52,5.765c-9.398,10.81-16.159,20.357-16.567,20.935
		c-2.864,4.063-1.893,9.677,2.169,12.542s9.678,1.892,12.542-2.17c0.136-0.192,13.733-19.396,28.573-33.263
		c3.652-3.413,8.51-4.578,13.328-3.197c4.827,1.384,8.483,5.11,9.78,9.968c7.647,28.646,3.887,61.126,3.849,61.445
		c-0.598,4.935,2.918,9.419,7.853,10.017c0.367,0.044,0.732,0.066,1.093,0.066c4.487,0,8.371-3.352,8.923-7.919
		c0.094-0.775,1.278-10.894,1.095-25.01c16.541,17.243,29.01,37.991,36.482,60.992l22.35,68.79
		C467.583,265.777,444.306,337.413,388.251,378.141z"/>
	<path d="M151.142,60.834c-0.049-0.053-5.015-5.34-12.062-11.855c-4.696-4.342-11.459-5.37-17.228-2.622
		c-5.776,2.752-9.242,8.659-8.829,15.05c1.146,17.703,4.824,32.141,4.86,32.279c1.07,4.026,4.703,6.679,8.683,6.679
		c0.753,0,1.519-0.095,2.281-0.294c4.793-1.249,7.673-6.148,6.448-10.947c-0.028-0.111-2.448-9.693-3.773-22.51
		c3.937,3.821,6.453,6.495,6.487,6.531c3.399,3.624,9.092,3.808,12.718,0.411C154.355,70.157,154.541,64.461,151.142,60.834z"/>
	<path d="M348.06,45.417c-6.091-1.935-12.648,0.007-16.707,4.947c-6.175,7.515-10.302,13.348-10.343,13.406
		c-2.865,4.058-1.898,9.666,2.157,12.534c4.054,2.869,9.669,1.906,12.542-2.145c0.028-0.04,2.15-3.026,5.535-7.355
		c0.431,12.799-0.651,22.659-0.672,22.838c-0.564,4.933,2.974,9.392,7.908,9.963c0.352,0.041,0.7,0.06,1.045,0.06
		c4.508,0,8.398-3.38,8.929-7.967c0.017-0.147,1.688-14.92,0.406-32.578C358.397,52.733,354.157,47.355,348.06,45.417z"/>
	<path d="M158.352,185.791c5.024,3.316,10.21,1.102,13.308-0.222c1.595-0.682,3.402-1.454,4.596-1.454s3.002,0.772,4.597,1.454
		c1.9,0.812,4.586,1.959,7.539,1.959c1.86,0,3.827-0.456,5.77-1.738c2.282-1.507,5.003-4.583,5.003-10.675
		c0-12.632-10.276-22.908-22.908-22.908s-22.908,10.276-22.908,22.908C153.348,181.209,156.069,184.284,158.352,185.791z"/>
	<path d="M294.239,152.208c-12.632,0-22.908,10.276-22.908,22.908c0,6.093,2.721,9.168,5.003,10.675
		c1.943,1.282,3.909,1.738,5.77,1.738c2.952,0,5.639-1.147,7.539-1.959c1.595-0.681,3.402-1.454,4.597-1.454
		s3.001,0.772,4.596,1.454c3.097,1.324,8.284,3.539,13.308,0.222c2.283-1.507,5.004-4.583,5.004-10.675
		C317.147,162.484,306.871,152.208,294.239,152.208z"/>
</g>
<g>
</g>
<g>
</g>
<g>
</g>
<g>
</g>
<g>
</g>
<g>
</g>
<g>
</g>
<g>
</g>
<g>
</g>
<g>
</g>
<g>
</g>
<g>
</g>
<g>
</g>
<g>
</g>
<g>
</g>
</svg>
