<?xml version="1.0" encoding="iso-8859-1"?>
<!-- Generator: Adobe Illustrator 18.0.0, SVG Export Plug-In . SVG Version: 6.00 Build 0)  -->
<!DOCTYPE svg PUBLIC "-//W3C//DTD SVG 1.1//EN" "http://www.w3.org/Graphics/SVG/1.1/DTD/svg11.dtd">
<svg version="1.1" id="Capa_1" xmlns="http://www.w3.org/2000/svg" xmlns:xlink="http://www.w3.org/1999/xlink" x="0px" y="0px"
	 viewBox="0 0 485.849 485.849" style="enable-background:new 0 0 485.849 485.849;" xml:space="preserve">
<g>
	<path d="M193.977,201.509c-12.689-11.027-35.103-16.94-48.942-12.912c-8.79,2.558-11.693,8.295-12.642,11.488
		c-2.708,9.114,1.75,19.642,11.635,27.475c4.626,3.667,10.203,5.447,15.771,5.447c7.488,0,14.96-3.221,20.074-9.403
		c4.101-4.958,10.232-6.7,10.478-6.768c3.188-0.816,5.668-3.329,6.439-6.533C197.566,207.077,196.482,203.686,193.977,201.509z
		 M166.167,212.267c-2.795,3.38-7.771,3.987-11.093,1.354c-3.753-2.974-5.457-6.2-5.658-7.802
		c3.121-1.416,12.092-0.937,20.829,2.263C168.843,209.309,167.465,210.698,166.167,212.267z"/>
	<path d="M341.121,188.597c-13.843-4.03-36.254,1.885-48.942,12.912c-2.505,2.177-3.627,5.558-2.85,8.784
		c0.777,3.227,3.248,5.742,6.47,6.54c0.063,0.017,6.321,1.735,10.486,6.77c5.114,6.183,12.584,9.403,20.073,9.403
		c5.567,0,11.145-1.78,15.771-5.446c9.884-7.833,14.342-18.361,11.633-27.475C352.814,196.893,349.91,191.156,341.121,188.597z
		 M331.082,213.621c-3.32,2.633-8.299,2.025-11.092-1.353c-1.299-1.569-2.678-2.959-4.08-4.185
		c8.738-3.199,17.712-3.678,20.828-2.263C336.538,207.422,334.834,210.647,331.082,213.621z"/>
	<path d="M485.38,154.829c-2.483-19.011-14.459-34.927-32.035-42.575c-51.486-22.405-92.998-34.324-123.451-35.462l-173.633-0.01
		c-30.48,1.068-72.098,12.992-123.758,35.472c-17.577,7.649-29.551,23.565-32.034,42.576c-2.484,19.023,5.01,37.494,20.045,49.409
		c15.57,12.338,23.114,32.159,19.69,51.727l-4.848,27.703c-0.551,3.152,0.633,6.358,3.101,8.394
		c1.619,1.335,3.626,2.032,5.659,2.032c1.068,0,2.142-0.192,3.171-0.585c21.31-8.137,36.791-25.624,42.715-46.647l1.515,24.314
		c0.786,12.624,6.949,23.651,16.175,30.801l2.391,41.118c0.75,13.012,6.574,25.109,15.978,33.189l28.831,24.771
		c8.729,7.503,20.274,9.766,30.879,6.055c1.375-0.481,2.7-1.054,3.98-1.701c3.964,1.461,8.176,2.237,12.422,2.237
		c8.631,0,16.863-3.079,23.306-8.594c11.488,2.463,23.722,2.479,35.249,0.041c6.445,5.488,14.662,8.553,23.26,8.553
		c4.035,0,8.048-0.705,11.843-2.032c1.268,0.641,2.582,1.21,3.944,1.688c3.378,1.185,6.85,1.767,10.297,1.766
		c7.406,0,14.693-2.683,20.664-7.814l29.06-24.969c9.403-8.08,15.228-20.177,15.977-33.185l2.381-40.946
		c9.35-7.144,15.604-18.25,16.397-30.977l1.476-23.684c6.054,20.743,21.437,37.963,42.533,46.018
		c1.029,0.393,2.104,0.585,3.171,0.585c2.033,0,4.04-0.697,5.659-2.032c2.468-2.036,3.653-5.242,3.101-8.394l-4.848-27.703
		c-3.425-19.568,4.12-39.389,19.691-51.727C480.371,192.324,487.864,173.853,485.38,154.829z M56.163,267.949l1.561-8.918
		c4.55-26.001-5.475-52.338-26.163-68.733c-10.093-7.998-15.123-20.397-13.456-33.167c1.666-12.757,9.702-23.438,21.495-28.57
		c33.898-14.751,63.757-24.919,88.17-30.099c-11.526,11.101-21.542,23.771-29.614,37.552c-13.356,22.806-21.476,48.771-23.481,75.09
		c-0.253,3.319-0.216,7.705,0.111,13.409C75.766,241.543,68.628,257.461,56.163,267.949z M137.652,362.793
		c-5.762-4.95-9.338-12.503-9.812-20.726l-1.866-32.088c1.656,0.276,3.343,0.463,5.061,0.535c0.616,0.025,1.235,0.038,1.858,0.038
		h0.383c9.094,0,17.683-2.797,24.849-7.706v77.536L137.652,362.793z M175.91,391.079V278.322
		c3.999-11.499,10.782-21.635,19.83-29.689c0.153,6.605,2.361,13.051,6.449,18.682c2.274,3.132,6.311,4.435,9.986,3.221l3.137-1.036
		c1.414-0.468,2.935,0.207,3.541,1.566l3.67,8.238c1.104,2.479,3.28,4.319,5.909,4.994c1.889,0.486,3.811,0.87,5.754,1.162v38.132
		c-17.046,3.888-31.88,19.08-40.728,42.307c-1.002,2.649-1.921,6.208-2.81,10.886c-1.243,6.556-5.263,11.617-10.751,13.537
		C178.887,390.675,177.513,391.02,175.91,391.079z M250.751,263.827l-1.809,4.06c-3.949,0.584-8.086,0.584-12.035,0l-1.808-4.06
		c-3.73-8.373-12.318-13.114-21.084-12.15c-0.345-1.236-0.519-2.496-0.519-3.774c0-13.741,23.04-14.968,27.68-15.075
		c1.17-0.03,2.304-0.031,3.521,0c4.618,0.107,27.657,1.334,27.657,15.074c0,1.279-0.174,2.538-0.519,3.774
		C263.067,250.721,254.481,255.456,250.751,263.827z M270.21,383.504c-2.245-2.633-5.815-3.724-9.152-2.794
		c-11.595,3.23-24.354,3.208-35.884-0.051c-3.358-0.948-6.956,0.152-9.208,2.814c-2.816,3.329-6.71,5.467-10.959,6.138
		c1.411-2.941,2.471-6.125,3.113-9.509c0.853-4.483,1.543-6.777,1.965-7.893c7.479-19.633,20.064-31.83,32.844-31.83
		c12.349,0,24.289,11.048,31.936,29.548c0.481,1.163,1.463,4.064,2.653,10.443c0.608,3.233,1.594,6.29,2.911,9.12
		C276.48,388.701,272.874,386.624,270.21,383.504z M295,377.098c-1.146-6.146-2.354-10.711-3.696-13.96
		c-8.871-21.461-23.166-35.609-39.334-39.472v-38.25c1.839-0.286,3.658-0.658,5.448-1.118c2.629-0.675,4.804-2.515,5.908-4.993
		l3.671-8.239c0.606-1.36,2.126-2.032,3.539-1.567l3.138,1.036c3.674,1.213,7.713-0.089,9.985-3.221
		c4.138-5.701,6.356-12.235,6.46-18.925c8.788,7.767,15.693,17.754,19.826,29.322v113.575c-1.727-0.03-3.209-0.393-4.28-0.768
		C300.207,388.602,296.219,383.58,295,377.098z M358.019,342.071c-0.474,8.219-4.05,15.772-9.812,20.722l-20.475,17.593v-77.692
		c7.21,5.002,15.878,7.857,25.063,7.857h0.382c0.622,0,1.241-0.013,1.863-0.039c1.643-0.068,3.257-0.244,4.844-0.5L358.019,342.071z
		 M376.801,270.07c-0.762,12.221-10.644,22.18-22.493,22.671c-0.375,0.015-0.753,0.024-1.132,0.024h-0.382
		c-11.477,0-21.639-7.517-25.29-18.709c-11.967-36.63-45.913-61.241-84.469-61.241c-19.121,0-37.336,5.979-52.674,17.29
		c-15.016,11.069-26.01,26.266-31.798,43.955c-3.648,11.188-13.811,18.705-25.288,18.705h-0.383c-0.378,0-0.756-0.008-1.125-0.023
		c-11.855-0.492-21.737-10.45-22.499-22.671l-4.636-74.389c0-0.007,0-0.013-0.001-0.019c-1.709-26.498,7.351-51.758,25.51-71.125
		c18.115-19.322,42.666-29.979,69.144-30.026h87.519c54.864,0.093,91.069,39.023,94.598,101.69L376.801,270.07z M454.288,190.299
		c-20.687,16.395-30.712,42.732-26.163,68.733l1.56,8.918c-12.464-10.488-19.603-26.406-18.622-43.435
		c0.328-5.703,0.365-10.089,0.111-13.409c-2.005-26.318-10.125-52.284-23.481-75.089c-8.072-13.781-18.088-26.451-29.614-37.552
		c24.413,5.181,54.272,15.348,88.17,30.099c11.794,5.132,19.829,15.812,21.495,28.569
		C469.412,169.902,464.381,182.301,454.288,190.299z"/>
	<path d="M297.807,158.206l7.09-7.09c3.473-3.473,3.473-9.103,0-12.576c-3.474-3.473-9.103-3.473-12.577,0l-7.09,7.091
		c-3.473,3.473-3.473,9.103,0,12.576c1.737,1.736,4.012,2.605,6.289,2.605S296.07,159.942,297.807,158.206z"/>
	<path d="M195.267,138.539c-3.473-3.473-9.103-3.473-12.576,0c-3.473,3.473-3.473,9.104,0,12.576l7.09,7.09
		c1.736,1.736,4.012,2.605,6.288,2.605c2.276,0,4.552-0.868,6.288-2.605c3.473-3.473,3.473-9.103,0-12.576L195.267,138.539z"/>
</g>
<g>
</g>
<g>
</g>
<g>
</g>
<g>
</g>
<g>
</g>
<g>
</g>
<g>
</g>
<g>
</g>
<g>
</g>
<g>
</g>
<g>
</g>
<g>
</g>
<g>
</g>
<g>
</g>
<g>
</g>
</svg>
