<?xml version="1.0" encoding="iso-8859-1"?>
<!-- Generator: Adobe Illustrator 18.0.0, SVG Export Plug-In . SVG Version: 6.00 Build 0)  -->
<!DOCTYPE svg PUBLIC "-//W3C//DTD SVG 1.1//EN" "http://www.w3.org/Graphics/SVG/1.1/DTD/svg11.dtd">
<svg version="1.1" id="Capa_1" xmlns="http://www.w3.org/2000/svg" xmlns:xlink="http://www.w3.org/1999/xlink" x="0px" y="0px"
	 viewBox="0 0 482.44 482.44" style="enable-background:new 0 0 482.44 482.44;" xml:space="preserve">
<g>
	<path d="M162.713,120.688c-1.955,5.481-1.425,11.526,1.453,16.586c3.277,5.756,8.564,9.75,14.506,10.957
		c1.304,0.265,2.609,0.395,3.908,0.395c4.32,0,8.543-1.45,12.187-4.234c5.784-4.421,9.237-11.407,9.237-18.688v-15.269
		c0-2.967-1.462-5.743-3.909-7.422c-2.444-1.677-5.563-2.042-8.331-0.975l-17.432,6.727
		C168.903,110.861,164.668,115.207,162.713,120.688z M179.667,126.734c0.139-0.389,0.45-0.908,1.146-1.177l5.19-2.003v2.149
		c0,1.709-0.811,3.35-2.169,4.388c-0.847,0.647-1.379,0.54-1.58,0.5c-0.836-0.17-1.75-1-2.444-2.22
		C179.442,127.722,179.529,127.123,179.667,126.734z"/>
	<path d="M282.381,103.013c-2.447,1.679-3.909,4.455-3.909,7.422v15.269c0,7.281,3.453,14.268,9.237,18.688
		c3.643,2.785,7.864,4.235,12.187,4.235c1.298,0,2.604-0.131,3.907-0.396c5.943-1.207,11.229-5.201,14.506-10.958
		c2.878-5.059,3.408-11.104,1.453-16.585c-1.955-5.482-6.189-9.828-11.62-11.924l-17.43-6.727
		C287.945,100.969,284.827,101.335,282.381,103.013z M296.472,123.555l5.188,2.002c0.697,0.27,1.009,0.789,1.147,1.177
		c0.139,0.388,0.226,0.988-0.144,1.637c-0.694,1.221-1.608,2.05-2.443,2.22c-0.197,0.04-0.73,0.149-1.58-0.5
		c-1.358-1.038-2.169-2.678-2.169-4.388V123.555z"/>
	<path d="M462.038,362.324l-29.148-124.852c-3.89-16.659-13.709-31.294-27.649-41.209c-7.341-5.221-13.231-12.295-17.037-20.459
		L346.91,87.214c-3.089-16.086-9.906-31.452-20.24-44.977C306.16,15.395,275.022,0,241.24,0s-64.92,15.395-85.431,42.238
		c-10.305,13.487-17.114,28.803-20.215,44.84l-41.357,88.726c-3.806,8.164-9.696,15.239-17.037,20.459
		c-13.939,9.915-23.759,24.55-27.648,41.209L20.403,362.324c-6.853,29.353-0.004,59.704,18.789,83.27
		c18.69,23.437,46.549,36.848,76.502,36.847c0.165,0,0.334,0,0.5-0.001c53.695-0.267,97.379-44.169,97.379-97.865v-40.597
		c3.516-1.34,6.856-3.167,9.945-5.462c7.175-5.328,12.34-12.666,14.938-21.225c0.516-1.704,1.795-2.061,2.776-2.061
		c0.986,0,2.271,0.357,2.788,2.062c3.827,12.62,13.115,22.265,24.846,26.7v40.583c0,53.696,43.685,97.598,97.38,97.865
		c0.168,0.001,0.333,0.001,0.5,0.001c29.951,0,57.812-13.411,76.501-36.846C462.042,422.029,468.89,391.678,462.038,362.324z
		 M116.104,464.439c-24.547,0.13-47.502-10.837-62.839-30.069c-15.337-19.231-20.926-44-15.333-67.954l29.148-124.853
		c2.891-12.383,10.189-23.263,20.553-30.633c9.874-7.023,17.799-16.541,22.918-27.523l25.348-54.382
		c0.464,2.251,0.993,4.498,1.603,6.738L170.69,254.48l-11.529,39.107c-3.723,12.635-1.332,25.934,6.559,36.485
		c7.229,9.665,17.976,15.538,29.854,16.457v38.047C195.573,428.395,159.923,464.222,116.104,464.439z M261.247,312.068
		c-2.733-9.014-10.589-14.838-20.014-14.838c-9.273,0-17.312,5.963-20.002,14.835c-1.469,4.838-4.388,8.987-8.446,12
		c-4.053,3.012-8.87,4.604-13.932,4.604c-7.438,0-14.261-3.418-18.719-9.379c-4.46-5.963-5.812-13.478-3.708-20.616l45.932-155.799
		c8.344-28.302,2.229-58.881-16.356-81.799c-3.131-3.86-8.799-4.453-12.659-1.321c-3.86,3.131-4.452,8.798-1.321,12.659
		c14.854,18.315,19.74,42.753,13.071,65.371l-25.152,85.316l-25.071-92.067c-7.39-27.138-1.834-55.52,15.242-77.868
		C187.188,30.818,213.114,18,241.24,18s54.052,12.818,71.128,35.167c17.076,22.348,22.632,50.73,15.242,77.868l-25.07,92.066
		l-25.148-85.316c-6.667-22.618-1.779-47.055,13.074-65.37c3.131-3.86,2.539-9.527-1.321-12.658
		c-3.864-3.132-9.529-2.539-12.66,1.322c-18.585,22.916-24.7,53.494-16.358,81.795l45.925,155.799
		c0.646,2.192,0.973,4.438,0.973,6.677c0,12.859-10.497,23.32-23.399,23.32C273.25,328.67,264.257,321.998,261.247,312.068z
		 M429.174,434.372c-15.253,19.125-37.986,30.07-62.43,30.069c-0.135,0-0.273,0-0.408-0.001c-43.82-0.218-79.47-36.045-79.47-79.865
		v-38.044c21.316-1.658,38.156-19.488,38.156-41.181c0-3.961-0.574-7.918-1.707-11.764l-11.527-39.106l33.188-118.716
		c0.604-2.22,1.13-4.447,1.591-6.678l25.32,54.322c5.119,10.982,13.044,20.5,22.918,27.523c10.363,7.371,17.663,18.25,20.554,30.634
		l29.148,124.852C450.101,390.371,444.512,415.14,429.174,434.372z"/>
	<path d="M243.042,236.506c-1.209-0.031-2.422-0.031-3.576,0c-22.852,0.526-37.617,11.518-37.617,28.003
		c0,5.854,1.906,11.573,5.512,16.539c2.3,3.168,6.384,4.485,10.104,3.258l2.489-0.821c0.161-0.053,0.346,0.023,0.417,0.185
		l2.91,6.533c1.118,2.509,3.32,4.371,5.981,5.055c3.874,0.996,7.904,1.5,11.979,1.5s8.104-0.505,11.979-1.5
		c2.661-0.684,4.863-2.545,5.981-5.055l2.909-6.533c0.071-0.161,0.251-0.243,0.42-0.185l2.489,0.821
		c3.721,1.226,7.804-0.091,10.104-3.26c3.604-4.966,5.51-10.685,5.51-16.538C280.631,248.023,265.866,237.032,243.042,236.506z
		 M262.582,265.456c-0.066,0-0.135-0.001-0.201-0.001c-7.06,0-13.687,4.097-16.714,10.89l-0.989,2.222
		c-2.266,0.254-4.609,0.254-6.875,0l-0.99-2.222c-3.025-6.792-9.653-10.889-16.713-10.889c-0.066,0-0.135,0-0.201,0.001
		c-0.033-0.314-0.05-0.63-0.05-0.948c0-1.916,0.481-4.167,4.056-6.332c3.66-2.217,9.334-3.523,16.003-3.676
		c0.893-0.023,1.746-0.024,2.693,0c6.642,0.153,12.315,1.458,15.976,3.676c3.574,2.165,4.056,4.416,4.056,6.332
		C262.631,264.826,262.615,265.142,262.582,265.456z"/>
</g>
<g>
</g>
<g>
</g>
<g>
</g>
<g>
</g>
<g>
</g>
<g>
</g>
<g>
</g>
<g>
</g>
<g>
</g>
<g>
</g>
<g>
</g>
<g>
</g>
<g>
</g>
<g>
</g>
<g>
</g>
</svg>
