<?xml version="1.0" encoding="iso-8859-1"?>
<!-- Generator: Adobe Illustrator 18.0.0, SVG Export Plug-In . SVG Version: 6.00 Build 0)  -->
<!DOCTYPE svg PUBLIC "-//W3C//DTD SVG 1.1//EN" "http://www.w3.org/Graphics/SVG/1.1/DTD/svg11.dtd">
<svg version="1.1" id="Capa_1" xmlns="http://www.w3.org/2000/svg" xmlns:xlink="http://www.w3.org/1999/xlink" x="0px" y="0px"
	 viewBox="0 0 484.32 484.32" style="enable-background:new 0 0 484.32 484.32;" xml:space="preserve">
<g>
	<path d="M479.76,252.011l-57.407-132.186c-4.42-10.179-12.472-18.192-22.672-22.564l-33.652-14.422l-11.114-12.448
		c-9.45-10.583-22.997-16.366-37.179-15.855c-4.69,0.165-9.413-0.801-13.658-2.802l-2.971-1.4
		c-37.46-17.653-80.431-17.654-117.894,0l-2.971,1.399c-4.246,2.001-8.972,2.97-13.659,2.802
		c-14.179-0.506-27.729,5.273-37.178,15.855l-11.114,12.448L84.64,97.261c-10.2,4.372-18.252,12.385-22.672,22.564L4.561,252.011
		c-8.436,19.424-4.981,42.364,8.8,58.443l15.468,18.046c14.656,17.098,23.34,38.003,25.112,60.454
		c0.284,3.593,2.684,6.671,6.101,7.821c0.941,0.317,1.911,0.471,2.87,0.471c2.521,0,4.98-1.062,6.718-3.01l25.786-28.911
		l41.185,43.973l-0.259,13.066c-0.131,6.602,2.342,12.834,6.965,17.55s10.805,7.312,17.408,7.312
		c9.086,0,17.636-4.838,22.314-12.627l14.812-24.657c5.694,11.428,17.494,19.301,31.105,19.301h26.431
		c13.61,0,25.41-7.872,31.104-19.299l14.81,24.655c4.678,7.789,13.229,12.627,22.314,12.627c6.603,0,12.786-2.597,17.408-7.312
		s7.096-10.948,6.965-17.55l-0.259-13.066l41.185-43.973l25.786,28.911c1.738,1.948,4.196,3.01,6.718,3.01
		c0.959,0,1.929-0.154,2.87-0.471c3.417-1.15,5.817-4.228,6.101-7.821c1.772-22.451,10.456-43.355,25.112-60.454l15.468-18.046
		C484.741,294.376,488.195,271.435,479.76,252.011z M68.807,368.116c-4.545-18.867-13.469-36.348-26.312-51.33L27.028,298.74
		c-9.329-10.883-11.667-26.411-5.957-39.559l57.406-132.186c2.584-5.95,7.291-10.634,13.253-13.189l3.434-1.472
		c-9.814,13.102-13.197,29.664-9.277,45.605l5.357,21.785c2.5,10.167,3.472,20.623,2.888,31.077l-7.689,137.542L68.807,368.116z
		 M272.112,394.508c0,9.228-7.507,16.735-16.735,16.735h-26.431c-9.228,0-16.735-7.507-16.735-16.735v-8.488l29.949-49.857
		l29.952,49.861V394.508z M250.523,246.259c-5.473,0.912-11.252,0.912-16.725,0l-2.535-5.691
		c-4.36-9.788-14.649-15.136-24.912-13.403c-0.75-2.064-1.129-4.19-1.129-6.361c0-3.161,1.677-18.968,34.803-19.731
		c1.43-0.037,2.816-0.038,4.296,0c33.101,0.763,34.777,16.569,34.777,19.73c0,2.17-0.378,4.296-1.128,6.36
		c-10.259-1.73-20.552,3.617-24.912,13.404L250.523,246.259z M328.16,427.313c-1.209,1.234-2.827,1.913-4.555,1.913
		c-2.803,0-5.441-1.493-6.884-3.896L251.16,316.19v-51.836c2.693-0.354,5.353-0.862,7.96-1.532c2.66-0.684,4.863-2.545,5.98-5.054
		l4.399-9.875c1.075-2.412,3.778-3.604,6.281-2.779l3.762,1.242c3.719,1.229,7.806-0.09,10.106-3.26
		c4.874-6.715,7.45-14.424,7.45-22.293c0-22.526-20.064-36.981-52.337-37.725c-1.744-0.045-3.487-0.045-5.177,0
		c-32.298,0.744-52.362,15.2-52.362,37.726c0,7.869,2.576,15.577,7.449,22.293c2.3,3.169,6.387,4.487,10.106,3.26l3.762-1.242
		c2.507-0.828,5.207,0.367,6.281,2.778l4.399,9.875c1.118,2.509,3.32,4.37,5.98,5.054c2.607,0.67,5.267,1.178,7.96,1.532v51.836
		l-65.562,109.14c-1.443,2.403-4.081,3.896-6.884,3.896c-1.728,0-3.345-0.679-4.555-1.913c-1.209-1.233-1.856-2.864-1.822-4.591
		l3.373-170.046c0.441-22.242,9.433-43.067,25.318-58.641c15.885-15.574,36.885-24.15,59.131-24.15
		c22.246,0,43.246,8.577,59.131,24.15c15.886,15.573,24.877,36.399,25.318,58.641l3.373,170.046
		C330.017,424.449,329.369,426.08,328.16,427.313z M344.606,252.319c-0.535-26.981-11.442-52.245-30.713-71.137
		c-8.194-8.034-17.513-14.526-27.591-19.343L272.7,140.846c-4.915-7.586-4.936-16.658-0.056-24.267
		c4.88-7.61,13.133-11.376,22.078-10.071c4.915,0.714,9.487-2.69,10.203-7.609c0.716-4.918-2.69-9.486-7.609-10.203
		c-15.893-2.315-31.153,4.646-39.824,18.166c-8.67,13.52-8.632,30.292,0.101,43.771l1.738,2.682
		c-5.623-0.945-11.362-1.43-17.171-1.43c-5.81,0-11.548,0.485-17.171,1.43l1.738-2.682c8.733-13.479,8.771-30.251,0.101-43.771
		c-8.671-13.52-23.931-20.479-39.823-18.166c-4.919,0.717-8.326,5.285-7.609,10.203c0.717,4.919,5.29,8.323,10.203,7.609
		c8.947-1.304,17.198,2.462,22.078,10.071s4.859,16.68-0.056,24.267l-13.602,20.993c-10.077,4.817-19.396,11.309-27.591,19.343
		c-19.271,18.892-30.178,44.156-30.713,71.137l-2.602,131.194l-32.658-34.869l7.649-136.837c0.685-12.238-0.453-24.479-3.38-36.38
		l-5.357-21.785c-2.677-10.888-0.265-22.208,6.619-31.059l32.847-40.203c5.874-6.578,14.288-10.177,23.108-9.855
		c7.542,0.273,15.144-1.289,21.975-4.508l2.971-1.4c32.586-15.356,69.963-15.355,102.548,0l2.971,1.4
		c6.831,3.219,14.434,4.778,21.974,4.507c8.804-0.309,17.235,3.278,23.109,9.855l32.847,40.203
		c6.883,8.851,9.296,20.171,6.619,31.059l-5.357,21.784c-2.927,11.902-4.064,24.142-3.38,36.38l7.649,136.837l-32.658,34.869
		L344.606,252.319z M457.292,298.74l-15.467,18.045c-12.843,14.983-21.767,32.464-26.312,51.331l-17.636-19.773l-7.689-137.542
		c-0.584-10.454,0.387-20.91,2.888-31.077l5.357-21.785c3.919-15.941,0.537-32.503-9.277-45.605l3.434,1.472
		c5.962,2.555,10.669,7.239,13.253,13.189l57.406,132.186C468.959,272.329,466.621,287.857,457.292,298.74z"/>
	<path d="M120.231,203.192l-2.961,38.498c-0.381,4.956,3.328,9.283,8.283,9.664c0.235,0.018,0.468,0.027,0.7,0.027
		c4.657,0,8.601-3.589,8.964-8.31l2.961-38.498c0.624-8.115,2.486-15.931,5.399-23.24c1.694,1.507,3.83,2.272,5.974,2.272
		c2.192,0,4.389-0.796,6.122-2.405l13.72-12.74c3.643-3.382,3.854-9.077,0.471-12.719c-1.833-1.973-4.344-2.93-6.84-2.863
		c7.59-7.069,16.623-12.665,26.72-16.266c4.019-1.434,6.633-2.015,6.77-2.045c4.854-1.025,7.964-5.786,6.95-10.644
		c-1.015-4.866-5.786-7.989-10.648-6.972c-0.377,0.079-3.838,0.823-9.118,2.707C148.069,132.366,123.157,165.155,120.231,203.192z"
		/>
	<path d="M364.09,203.192c-2.926-38.037-27.838-70.826-63.468-83.535c-5.28-1.883-8.741-2.628-9.118-2.707
		c-4.854-1.015-9.601,2.095-10.629,6.947c-1.028,4.852,2.076,9.624,6.925,10.667c0.026,0.005,2.666,0.58,6.775,2.046
		c10.097,3.601,19.13,9.197,26.72,16.266c-2.496-0.067-5.007,0.89-6.839,2.864c-3.382,3.643-3.171,9.337,0.471,12.719l13.72,12.74
		c1.733,1.609,3.93,2.405,6.122,2.405c2.144,0,4.281-0.765,5.974-2.272c2.913,7.309,4.775,15.125,5.399,23.24l2.961,38.498
		c0.363,4.721,4.307,8.31,8.964,8.31c0.231,0,0.465-0.009,0.7-0.027c4.956-0.381,8.664-4.708,8.283-9.664L364.09,203.192z"/>
</g>
<g>
</g>
<g>
</g>
<g>
</g>
<g>
</g>
<g>
</g>
<g>
</g>
<g>
</g>
<g>
</g>
<g>
</g>
<g>
</g>
<g>
</g>
<g>
</g>
<g>
</g>
<g>
</g>
<g>
</g>
</svg>
