<svg xmlns="http://www.w3.org/2000/svg" viewBox="0 0 307 307"><title>Ресурс 11 1By Poale Ell</title><g id="Слой_2" data-name="Слой 2"><g id="Слой_1-2" data-name="Слой 1"><g style="opacity:0.48"><path d="M219.87,73.68h-2.75a9,9,0,0,0-8.77,9.13V219.88a9,9,0,0,0,8.77,9.13h2.75a9,9,0,0,0,8.77-9.13V82.8A9,9,0,0,0,219.87,73.68Z" style="fill:#fff"/><path d="M178,73.68h-2.75a9,9,0,0,0-8.77,9.12V219.88a9,9,0,0,0,8.77,9.13H178a9,9,0,0,0,8.77-9.13V82.8A9,9,0,0,0,178,73.68Z" style="fill:#fff"/><path d="M136,73.68H88.54a8.47,8.47,0,0,0-1.31-.11H84.49a9,9,0,0,0-8.77,9.13V219.78a9,9,0,0,0,8.77,9.12h3a8.45,8.45,0,0,0,1.3.11H136a9,9,0,0,0,8.77-9.13V217A9,9,0,0,0,136,207.9H96v-46h40a9,9,0,0,0,8.77-9.13v-2.86a9,9,0,0,0-8.77-9.13H96v-46h40a9,9,0,0,0,8.77-9.13V82.8A9,9,0,0,0,136,73.68Z" style="fill:#fff"/><path d="M153.5,307C68.86,307,0,238.14,0,153.5S148.52,0,153.5,0C238.14,0,307,68.86,307,153.5,307,158.48,238.14,307,153.5,307Zm0-287.09C79.84,19.91,19.91,79.84,19.91,153.5S79.84,287.09,153.5,287.09,287.09,227.16,287.09,153.5,227.16,19.91,153.5,19.91Z" style="fill:#fff"/></g></g></g></svg>