<svg id="Слой_1" data-name="Слой 1" xmlns="http://www.w3.org/2000/svg" xmlns:xlink="http://www.w3.org/1999/xlink" viewBox="0 0 170.62 87.72"><defs><style>.cls-1{fill:#201600;}.cls-2{fill:#d4544c;}</style></defs><title>logo</title><image width="173" height="33" transform="translate(0.8) scale(0.98)" xlink:href="logo.png"/><path class="cls-1" d="M42.92,18.35V10.58a5.7,5.7,0,0,0-.19-1.91,1.58,1.58,0,0,0-1-.66q-1.23-.38-1.23-1.33a1.16,1.16,0,0,1,.52-1,2.68,2.68,0,0,1,1.51-.35l1.63,0h.82q2.28,0,2.67,0l2.79-.26A13.22,13.22,0,0,1,51.86,5a8,8,0,0,1,4,1,5.78,5.78,0,0,1,3.06,5.43,6,6,0,0,1-2.14,4.83,7.33,7.33,0,0,1-4.88,1.7q-.73,0-1.78-.1l-.7,0q-.4,0-.4.49v.09l.1,2.42a2.24,2.24,0,0,0,.24,1.06,2.37,2.37,0,0,0,.87.72q.89.52.89,1.12,0,.93-1.32,1.43a10.91,10.91,0,0,1-3.73.5Q41,25.6,41,23.72a1,1,0,0,1,.22-.68,4.72,4.72,0,0,1,1-.68,1.08,1.08,0,0,0,.58-.78Q42.9,21.08,42.92,18.35Zm6.19-9.64v5q0,.58.23.69a2.16,2.16,0,0,0,1,.21,2.21,2.21,0,0,0,1.52-.55,3.35,3.35,0,0,0,.89-2.63,3.39,3.39,0,0,0-1-2.78,2.41,2.41,0,0,0-1.59-.55Q49.11,8.13,49.11,8.71Z" transform="translate(0 56.88)"/><path class="cls-1" d="M68.46,10.58a7.2,7.2,0,0,1,4.4,1.4,7.35,7.35,0,0,1,2.18,2.61,7.7,7.7,0,0,1,.85,3.51,6.82,6.82,0,0,1-2.73,5.45,9.14,9.14,0,0,1-6,2.14,7.22,7.22,0,0,1-5.31-2,6.82,6.82,0,0,1-2-5.08,7.38,7.38,0,0,1,2.42-5.7A8.71,8.71,0,0,1,68.46,10.58ZM67.37,14a1.15,1.15,0,0,0-1,.48A2.06,2.06,0,0,0,66,15.75a13,13,0,0,0,.31,2.41,19.35,19.35,0,0,0,.73,2.71q.42,1.21,1.39,1.21,1.22,0,1.22-1.67a14.85,14.85,0,0,0-.31-2.82A12.26,12.26,0,0,0,68.63,15,1.47,1.47,0,0,0,67.37,14Z" transform="translate(0 56.88)"/><path class="cls-1" d="M85.65,10.58a6.37,6.37,0,0,1,4,1.3,3.8,3.8,0,0,1,1.23,1.59,7,7,0,0,1,.35,2.46l0,2.2a9,9,0,0,0,.3,3,1,1,0,0,0,.29.41,1.77,1.77,0,0,0,.58.16q.44.07.44.62a2.62,2.62,0,0,1-.53,1.48A4.52,4.52,0,0,1,91,25.05a4,4,0,0,1-2.15.65,2.74,2.74,0,0,1-2.28-1.06q-.29-.38-.54-.38a1.32,1.32,0,0,0-.73.37,4.91,4.91,0,0,1-3.11,1.08,4.75,4.75,0,0,1-2.91-.83,3.83,3.83,0,0,1-1.15-1.42,4.17,4.17,0,0,1-.43-1.84,3.78,3.78,0,0,1,1.15-2.72A7.2,7.2,0,0,1,84.2,17a1.84,1.84,0,0,0,1-.17q.21-.17.21-.79a6.18,6.18,0,0,0-.3-2.27,1,1,0,0,0-1-.7,1.12,1.12,0,0,0-.73.27,4.83,4.83,0,0,0-.8,1Q81.35,16.21,80,16.21a1.48,1.48,0,0,1-1.1-.43,1.52,1.52,0,0,1-.43-1.12A2.37,2.37,0,0,1,79,13.24,4.75,4.75,0,0,1,80.46,12,10.32,10.32,0,0,1,85.65,10.58Zm-.92,8.55a1.34,1.34,0,0,0-1,.53,2.12,2.12,0,0,0-.13,2.42,1,1,0,0,0,.84.44q1.1,0,1.1-2a2.52,2.52,0,0,0-.16-1.09A.65.65,0,0,0,84.73,19.13Z" transform="translate(0 56.88)"/><path class="cls-1" d="M102.51,13.59v4.74q0,3.15.09,3.66a1.09,1.09,0,0,0,.68.8,2,2,0,0,1,.68.44.9.9,0,0,1,.17.59,1.37,1.37,0,0,1-.32.89,1.7,1.7,0,0,1-.86.56,11.9,11.9,0,0,1-3.33.33,11.17,11.17,0,0,1-3.72-.43,1.85,1.85,0,0,1-.81-.6,1.37,1.37,0,0,1-.32-.85.79.79,0,0,1,.17-.55,2.49,2.49,0,0,1,.75-.46q.54-.25.66-1.37a51.52,51.52,0,0,0,.22-5.46,33.42,33.42,0,0,0-.19-4.64,2.22,2.22,0,0,0-1-1.54A2.56,2.56,0,0,1,94.62,9a1.36,1.36,0,0,1-.21-.78A1.61,1.61,0,0,1,95.06,7a6.33,6.33,0,0,1,2.06-1,19.64,19.64,0,0,1,2.46-.59,13.57,13.57,0,0,1,2.2-.28q1.08,0,1.08,1.45,0,.47-.14,2.17Q102.53,11.39,102.51,13.59Z" transform="translate(0 56.88)"/><path class="cls-1" d="M118.54,18.69h-6.45q-.42,0-.43.4a2.42,2.42,0,0,0,1,1.81,3.1,3.1,0,0,0,2.08.85,4.59,4.59,0,0,0,1.46-.27,4.64,4.64,0,0,0,1.32-.67,1.4,1.4,0,0,1,.74-.35.92.92,0,0,1,.7.47,1.64,1.64,0,0,1,.34,1A2.72,2.72,0,0,1,118,23.94a7.79,7.79,0,0,1-5,1.76,6.84,6.84,0,0,1-4.83-1.8,7.33,7.33,0,0,1-1.56-2.14,8,8,0,0,1-.81-3.51,7.54,7.54,0,0,1,1.4-4.46,7.46,7.46,0,0,1,3.07-2.55,7.25,7.25,0,0,1,3-.64,6.5,6.5,0,0,1,4.43,1.59,6.29,6.29,0,0,1,1.48,1.89,5.23,5.23,0,0,1,.65,2.42,3,3,0,0,1-.37,1.57A1.1,1.1,0,0,1,118.54,18.69Zm-6.09-2.76h1.39a.77.77,0,0,0,.88-.87,1.94,1.94,0,0,0-.43-1.3,1.46,1.46,0,0,0-2.32.15,2.16,2.16,0,0,0-.41,1.23.8.8,0,0,0,.2.62A1,1,0,0,0,112.45,15.93Z" transform="translate(0 56.88)"/><path class="cls-1" d="M132.51,5.15h7.05q2.14,0,3.12-.1a9.35,9.35,0,0,0,1.91-.39,1.65,1.65,0,0,1,.45-.09,1.54,1.54,0,0,1,1.26.83,5.68,5.68,0,0,1,.91,3.25,2.65,2.65,0,0,1-.38,1.51,1.19,1.19,0,0,1-1,.55,1.12,1.12,0,0,1-.71-.2,3.69,3.69,0,0,1-.68-.89,3,3,0,0,0-1.53-1.32,9.88,9.88,0,0,0-3-.33q-1.58,0-1.92.6a2.09,2.09,0,0,0-.21.87q0,.55,0,2.79,0,.89.27,1.1a2.88,2.88,0,0,0,1.44.21,1.15,1.15,0,0,0,.84-.26,1.52,1.52,0,0,0,.33-.92,7,7,0,0,1,.2-1.17,1.22,1.22,0,0,1,.38-.55,1,1,0,0,1,.67-.27,1.15,1.15,0,0,1,1,.58,4.3,4.3,0,0,1,.49,1.51,12.53,12.53,0,0,1,.2,2.27,9.36,9.36,0,0,1-.67,3.82,1.2,1.2,0,0,1-1.12.81.73.73,0,0,1-.65-.26,2.68,2.68,0,0,1-.27-1.07,1.66,1.66,0,0,0-1.81-1.67.87.87,0,0,0-.84.42,3.66,3.66,0,0,0-.23,1.56q0,.69.09,1.79a9.91,9.91,0,0,0,.19,1.45.88.88,0,0,0,.68.61,7.42,7.42,0,0,0,1.9.17,6.64,6.64,0,0,0,3.1-.57,4.12,4.12,0,0,0,1.7-2.06,3.92,3.92,0,0,1,.69-1.15,1.11,1.11,0,0,1,.8-.3,1.13,1.13,0,0,1,1,.54,2.3,2.3,0,0,1,.38,1.35,7.56,7.56,0,0,1-.43,2.21,11.34,11.34,0,0,1-1,2.36,3,3,0,0,1-.52.67.79.79,0,0,1-.52.17,4.59,4.59,0,0,1-.75-.09,14.56,14.56,0,0,0-2.35-.22H131.09A1.61,1.61,0,0,1,130,25a1.17,1.17,0,0,1-.38-.94,1,1,0,0,1,.16-.62,2.69,2.69,0,0,1,.75-.49,1.5,1.5,0,0,0,.61-.47,2.2,2.2,0,0,0,.31-.83,31.55,31.55,0,0,0,.45-6q0-5.7-.66-7.19A1,1,0,0,0,131,8a2.79,2.79,0,0,0-.69-.28,1.06,1.06,0,0,1-.78-1.12,1.42,1.42,0,0,1,.26-.84,1.22,1.22,0,0,1,.69-.49A10.38,10.38,0,0,1,132.51,5.15Z" transform="translate(0 56.88)"/><path class="cls-1" d="M157.82,13.59v4.74q0,3.15.09,3.66a1.09,1.09,0,0,0,.68.8,2,2,0,0,1,.68.44.9.9,0,0,1,.17.59,1.37,1.37,0,0,1-.32.89,1.7,1.7,0,0,1-.86.56,11.9,11.9,0,0,1-3.33.33,11.17,11.17,0,0,1-3.72-.43,1.85,1.85,0,0,1-.81-.6,1.37,1.37,0,0,1-.32-.85.79.79,0,0,1,.17-.55,2.49,2.49,0,0,1,.75-.46q.54-.25.66-1.37a51.52,51.52,0,0,0,.22-5.46,33.42,33.42,0,0,0-.19-4.64,2.22,2.22,0,0,0-1-1.54,2.56,2.56,0,0,1-.79-.67,1.36,1.36,0,0,1-.21-.78A1.61,1.61,0,0,1,150.37,7a6.33,6.33,0,0,1,2.06-1,19.64,19.64,0,0,1,2.46-.59,13.57,13.57,0,0,1,2.2-.28q1.08,0,1.08,1.45,0,.47-.14,2.17Q157.84,11.39,157.82,13.59Z" transform="translate(0 56.88)"/><path class="cls-1" d="M169,13.59v4.74q0,3.15.09,3.66a1.09,1.09,0,0,0,.68.8,2,2,0,0,1,.68.44.9.9,0,0,1,.17.59,1.37,1.37,0,0,1-.32.89,1.7,1.7,0,0,1-.86.56,11.9,11.9,0,0,1-3.33.33,11.17,11.17,0,0,1-3.72-.43,1.85,1.85,0,0,1-.81-.6,1.37,1.37,0,0,1-.32-.85.79.79,0,0,1,.17-.55,2.49,2.49,0,0,1,.75-.46q.54-.25.66-1.37a51.52,51.52,0,0,0,.22-5.46,33.42,33.42,0,0,0-.19-4.64,2.22,2.22,0,0,0-1-1.54,2.56,2.56,0,0,1-.79-.67,1.36,1.36,0,0,1-.21-.78A1.61,1.61,0,0,1,161.55,7a6.33,6.33,0,0,1,2.06-1,19.64,19.64,0,0,1,2.46-.59,13.57,13.57,0,0,1,2.2-.28q1.08,0,1.08,1.45,0,.47-.14,2.17Q169,11.39,169,13.59Z" transform="translate(0 56.88)"/><path class="cls-2" d="M22.08,7.4h-.28a.9.9,0,0,0-.88.92V22.08a.9.9,0,0,0,.88.92h.28a.9.9,0,0,0,.88-.92V8.32A.9.9,0,0,0,22.08,7.4Z" transform="translate(0 56.88)"/><path class="cls-2" d="M17.88,7.4h-.28a.9.9,0,0,0-.88.92V22.08a.9.9,0,0,0,.88.92h.28a.9.9,0,0,0,.88-.92V8.32A.9.9,0,0,0,17.88,7.4Z" transform="translate(0 56.88)"/><path class="cls-2" d="M13.66,7.4H8.49a.9.9,0,0,0-.88.92V22.07a.9.9,0,0,0,.88.92h5.17a.9.9,0,0,0,.88-.92V21.8a.9.9,0,0,0-.88-.92h-4V16.26h4a.9.9,0,0,0,.88-.92v-.29a.9.9,0,0,0-.88-.92h-4V9.52h4a.9.9,0,0,0,.88-.92V8.32A.9.9,0,0,0,13.66,7.4Z" transform="translate(0 56.88)"/><path class="cls-2" d="M15.42,30.83A15.42,15.42,0,1,1,30.83,15.42,15.43,15.43,0,0,1,15.42,30.83ZM15.42,2A13.42,13.42,0,1,0,28.83,15.42,13.43,13.43,0,0,0,15.42,2Z" transform="translate(0 56.88)"/></svg>