<?xml version="1.0" encoding="utf-8"?>
<!-- Generator: Adobe Illustrator 20.1.0, SVG Export Plug-In . SVG Version: 6.00 Build 0)  -->
<svg version="1.1" id="Слой_1" xmlns="http://www.w3.org/2000/svg" xmlns:xlink="http://www.w3.org/1999/xlink" x="0px" y="0px"
	 viewBox="0 0 140.8 34" style="enable-background:new 0 0 140.8 34;" xml:space="preserve">
<style type="text/css">
	.st0{display:none;fill:#D4544C;}
	.st1{fill:#D45250;}
	.st2{fill:#15171B;}
</style>
<path class="st0" d="M165.4-71.6c3.2,0,6.3-1,8.8-2.6h-17.5C159.2-72.6,162.2-71.6,165.4-71.6z"/>
<path class="st0" d="M149.5-87.5c0,2.8,0.8,5.5,2.1,7.8v-15.7C150.3-93,149.5-90.3,149.5-87.5z"/>
<path class="st0" d="M178.5-96.5v18c1.8-2.6,2.8-5.7,2.8-9S180.3-94,178.5-96.5z"/>
<path class="st0" d="M165.4-103.4c-2.9,0-5.7,0.8-8,2.2h16C171.1-102.6,168.4-103.4,165.4-103.4z"/>
<g>
	<path class="st1" d="M23.9,8.7h-0.3c-0.5,0-0.9,0.4-0.9,1v14.3c0,0.5,0.4,1,0.9,1h0.3c0.5,0,0.9-0.4,0.9-1V9.6
		C24.8,9.1,24.4,8.7,23.9,8.7z"/>
	<path class="st1" d="M19.5,8.7h-0.3c-0.5,0-0.9,0.4-0.9,1v14.3c0,0.5,0.4,1,0.9,1h0.3c0.5,0,0.9-0.4,0.9-1V9.6
		C20.5,9.1,20.1,8.7,19.5,8.7z"/>
	<path class="st1" d="M15.2,8.7h-4.9c0,0,0,0,0,0c0,0-0.1,0-0.1,0H9.8c-0.5,0-0.9,0.4-0.9,1v14.3c0,0.5,0.4,1,0.9,1h0.3c0,0,0,0,0,0
		c0,0,0.1,0,0.1,0h4.9c0.5,0,0.9-0.4,0.9-1v-0.3c0-0.5-0.4-1-0.9-1H11v-4.8h4.2c0.5,0,0.9-0.4,0.9-1v-0.3c0-0.5-0.4-1-0.9-1H11v-4.8
		h4.2c0.5,0,0.9-0.4,0.9-1V9.6C16.1,9.1,15.7,8.7,15.2,8.7z"/>
	<path class="st1" d="M17,34C7.6,34,0,26.4,0,17C0,7.6,16.4,0,17,0c9.4,0,17,7.6,17,17C34,17.6,26.4,34,17,34z M17,2.2
		C8.8,2.2,2.2,8.8,2.2,17c0,8.2,6.6,14.8,14.8,14.8S31.8,25.2,31.8,17C31.8,8.8,25.2,2.2,17,2.2z"/>
</g>
<g>
	<path class="st2" d="M42.3,29.5V4.4h7.5c4.4,0,6.6,2.4,6.6,7.1c0,2.3-0.6,4-1.8,5.1c-1.2,1.1-2.9,1.6-5.1,1.6h-2.4v11.2H42.3z
		 M47.1,15.1h1.5c1.3,0,2.2-0.3,2.7-0.8c0.5-0.5,0.7-1.4,0.7-2.8c0-0.8,0-1.4-0.1-1.8c-0.1-0.4-0.2-0.8-0.4-1.2
		c-0.2-0.3-0.6-0.6-1-0.7c-0.5-0.1-1.1-0.2-1.8-0.2h-1.5V15.1z"/>
	<path class="st2" d="M64.2,29.8c-2,0-3.5-0.5-4.5-1.6c-1-1.1-1.5-2.6-1.5-4.7v-5.9c0-2,0.5-3.6,1.5-4.7c1-1.1,2.5-1.6,4.5-1.6
		c2,0,3.5,0.5,4.5,1.6c1,1.1,1.5,2.6,1.5,4.7v5.9c0,2-0.5,3.6-1.5,4.7C67.7,29.3,66.2,29.8,64.2,29.8z M64.2,26.8
		c0.4,0,0.6-0.1,0.9-0.2c0.2-0.2,0.4-0.4,0.5-0.7c0.1-0.3,0.2-0.6,0.2-0.9c0-0.3,0-0.7,0-1.2v-6.5c0-0.4,0-0.7,0-0.9
		c0-0.2-0.1-0.5-0.1-0.8c-0.1-0.3-0.1-0.5-0.3-0.7c-0.1-0.2-0.3-0.3-0.5-0.4c-0.2-0.1-0.4-0.2-0.7-0.2c-0.4,0-0.6,0.1-0.9,0.2
		c-0.2,0.2-0.4,0.4-0.5,0.7c-0.1,0.3-0.2,0.6-0.2,0.9c0,0.3,0,0.7,0,1.2v6.5c0,0.4,0,0.7,0,0.9c0,0.2,0.1,0.5,0.1,0.8
		c0.1,0.3,0.1,0.5,0.3,0.7c0.1,0.2,0.3,0.3,0.5,0.4C63.7,26.8,63.9,26.8,64.2,26.8z"/>
	<path class="st2" d="M87.9,29.5V4.4h4.4v25.1H87.9z"/>
	<path class="st2" d="M101.4,29.8c-2.1,0-3.6-0.6-4.6-1.7c-0.9-1.1-1.4-2.8-1.4-5V18c0-2.2,0.5-3.9,1.4-5c0.9-1.1,2.5-1.7,4.5-1.7
		c1.1,0,2,0.2,2.8,0.5c0.8,0.3,1.3,0.8,1.8,1.4c0.4,0.6,0.7,1.4,0.9,2.2c0.2,0.8,0.3,1.8,0.3,3v2.3h-7.3v2.7c0,0.4,0,0.7,0,0.9
		c0,0.2,0,0.5,0.1,0.7c0,0.3,0.1,0.5,0.1,0.7c0.1,0.2,0.2,0.3,0.3,0.5c0.1,0.2,0.3,0.3,0.5,0.4c0.2,0.1,0.4,0.1,0.7,0.1
		c0.6,0,1-0.2,1.2-0.6c0.2-0.4,0.3-1,0.3-1.7v-1h4.2v0.7c0,1.9-0.5,3.3-1.4,4.3C104.7,29.3,103.3,29.8,101.4,29.8z M99.8,18.6h3.2
		v-1.7c0-0.9-0.1-1.6-0.4-2c-0.2-0.4-0.7-0.6-1.2-0.6c-0.6,0-1,0.2-1.2,0.7c-0.2,0.4-0.3,1.3-0.3,2.4V18.6z"/>
	<path class="st2" d="M114.6,29.5V4.4h10.9v3.2h-6.1v7.2h4.9v3.2h-4.9v8.3h6.2v3.2H114.6z"/>
	<path class="st2" d="M128.3,29.5V4.4h4.4v25.1H128.3z"/>
	<path class="st2" d="M136.4,29.5V4.4h4.4v25.1H136.4z"/>
</g>
<path class="st2" d="M80.2,25.4c-0.2,0.3-0.5,0.5-0.8,0.7c-0.3,0.2-0.7,0.4-1,0.4c-0.5,0-0.8-0.2-1.1-0.6c-0.3-0.4-0.4-0.9-0.4-1.5
	c0-1,0.5-1.9,1.5-2.8l-1.9-1.8c-0.5,0.3-0.7,0.4-1.5,0.9c-0.8,0.6-1.4,1.2-1.7,2c-0.4,0.8-0.5,1.7-0.5,2.7c0,1.1,0.4,2.1,1.1,3
	c0.7,0.9,1.7,1.3,2.9,1.3c1,0,1.7-0.3,2.4-0.8c0.6-0.6,1-1.3,1.3-2.1c0.1,0.6,0.2,1.5,0.5,2.6h4c-0.2-1.6-0.3-3.1-0.3-4.5v-8.2
	c0-1.8-0.4-3.1-1.3-4.1c-0.9-1-2.2-1.4-4.1-1.4c-1.9,0-3.3,0.4-4.4,1.3c-1,0.9-1.6,2.3-1.7,4.1c0,0.1,0,0.2,0,0.3c0,0.2,0,0.3,0,0.3
	l4.2,0.2l0.1-1.1c0-1.3,0.5-2,1.5-2c0.6,0,1,0.2,1.2,0.6c0.2,0.4,0.3,1,0.3,1.8v1.5c-0.2,0.1-0.4,0.2-0.7,0.3
	c-0.4,0.1-0.7,0.3-1,0.4c0,0,1.6,1,1.6,1.5"/>
<g>
	<path class="st1" d="M-95.5,5.9h-0.3c-0.6,0-1.1,0.5-1.1,1.1v16.5c0,0.6,0.5,1.1,1.1,1.1h0.3c0.6,0,1.1-0.5,1.1-1.1V7
		C-94.4,6.4-94.9,5.9-95.5,5.9z"/>
	<path class="st1" d="M-100.5,5.9h-0.3c-0.6,0-1.1,0.5-1.1,1.1v16.5c0,0.6,0.5,1.1,1.1,1.1h0.3c0.6,0,1.1-0.5,1.1-1.1V7
		C-99.5,6.4-100,5.9-100.5,5.9z"/>
	<path class="st1" d="M-105.6,5.9h-5.7c0,0,0,0,0,0c-0.1,0-0.1,0-0.2,0h-0.3c-0.6,0-1.1,0.5-1.1,1.1v16.5c0,0.6,0.5,1.1,1.1,1.1h0.3
		c0,0,0,0,0,0c0.1,0,0.1,0,0.2,0h5.7c0.6,0,1.1-0.5,1.1-1.1v-0.3c0-0.6-0.5-1.1-1.1-1.1h-4.8v-5.5h4.8c0.6,0,1.1-0.5,1.1-1.1v-0.3
		c0-0.6-0.5-1.1-1.1-1.1h-4.8V8.4h4.8c0.6,0,1.1-0.5,1.1-1.1V7C-104.6,6.4-105,5.9-105.6,5.9z"/>
	<path class="st1" d="M-103.5,34c-10.2,0-18.5-8.3-18.5-18.5C-122,5.3-104.1-3-103.5-3C-93.3-3-85,5.3-85,15.5
		C-85,16.1-93.3,34-103.5,34z M-103.5-0.6c-8.9,0-16.1,7.2-16.1,16.1c0,8.9,7.2,16.1,16.1,16.1s16.1-7.2,16.1-16.1
		C-87.4,6.6-94.6-0.6-103.5-0.6z"/>
</g>
</svg>
