<?xml version="1.0" encoding="utf-8"?>
<!-- Generator: Adobe Illustrator 15.0.0, SVG Export Plug-In . SVG Version: 6.00 Build 0)  -->
<!DOCTYPE svg PUBLIC "-//W3C//DTD SVG 1.1//EN" "http://www.w3.org/Graphics/SVG/1.1/DTD/svg11.dtd">
<svg version="1.1" id="Слой_1" xmlns="http://www.w3.org/2000/svg" xmlns:xlink="http://www.w3.org/1999/xlink" x="0px" y="0px"
	 width="150px" height="36.221px" viewBox="345.945 279.529 150 36.221" enable-background="new 345.945 279.529 150 36.221"
	 xml:space="preserve">
<path display="none" fill="#D4544C" d="M988.981-232.128c19.134,0,37.67-5.979,52.618-15.546H936.961
	C951.909-238.108,969.847-232.128,988.981-232.128z"/>
<path display="none" fill="#D4544C" d="M893.909-327.2c0,16.742,4.783,32.886,12.557,46.639v-93.875
	C898.693-360.086,893.909-343.942,893.909-327.2z"/>
<path display="none" fill="#D4544C" d="M1067.31-381.014v107.628c10.763-15.546,16.742-34.082,16.742-53.814
	S1078.073-366.065,1067.31-381.014z"/>
<path display="none" fill="#D4544C" d="M988.981-422.271c-17.34,0-34.082,4.783-47.835,13.154h95.67
	C1023.063-417.488,1006.919-422.271,988.981-422.271z"/>
<g>
	<path fill="#D45250" d="M371.406,288.798h-0.319c-0.533,0-0.959,0.426-0.959,1.065v15.234c0,0.533,0.426,1.065,0.959,1.065h0.319
		c0.533,0,0.959-0.426,0.959-1.065v-15.341C372.365,289.224,371.939,288.798,371.406,288.798z"/>
	<path fill="#D45250" d="M366.719,288.798h-0.319c-0.533,0-0.959,0.426-0.959,1.065v15.234c0,0.533,0.426,1.065,0.959,1.065h0.319
		c0.533,0,0.959-0.426,0.959-1.065v-15.341C367.784,289.224,367.358,288.798,366.719,288.798z"/>
	<path fill="#D45250" d="M362.138,288.798h-5.22l0,0h-0.106h-0.426c-0.533,0-0.959,0.426-0.959,1.065v15.234
		c0,0.533,0.426,1.065,0.959,1.065h0.319l0,0h0.107h5.22c0.532,0,0.958-0.426,0.958-1.065v-0.319c0-0.532-0.426-1.065-0.958-1.065
		h-4.368v-5.113h4.475c0.532,0,0.958-0.426,0.958-1.065v-0.32c0-0.533-0.426-1.065-0.958-1.065h-4.475v-5.113h4.475
		c0.532,0,0.958-0.426,0.958-1.065v-0.213C363.096,289.224,362.67,288.798,362.138,288.798z"/>
	<path fill="#D45250" d="M364.055,315.75c-10.014,0-18.111-8.097-18.111-18.11c0-10.014,17.472-18.111,18.111-18.111
		c10.014,0,18.111,8.097,18.111,18.111C382.166,298.28,374.07,315.75,364.055,315.75z M364.055,281.873
		c-8.736,0-15.767,7.031-15.767,15.767c0,8.736,7.031,15.767,15.767,15.767s15.767-7.03,15.767-15.767
		C379.823,288.904,372.791,281.873,364.055,281.873z"/>
</g>
<g>
	<path fill="#FFFFFF" d="M391.009,310.957v-26.74h7.99c4.687,0,7.031,2.557,7.031,7.564c0,2.45-0.639,4.261-1.918,5.433
		c-1.278,1.172-3.089,1.705-5.433,1.705h-2.557v11.932h-5.114V310.957z M396.122,295.616h1.598c1.385,0,2.344-0.319,2.876-0.852
		s0.746-1.491,0.746-2.983c0-0.853,0-1.492-0.107-1.917c-0.106-0.426-0.213-0.853-0.426-1.278c-0.213-0.32-0.639-0.64-1.065-0.746
		c-0.533-0.106-1.172-0.213-1.917-0.213h-1.598v7.99H396.122z"/>
	<path fill="#FFFFFF" d="M414.34,311.277c-2.131,0-3.729-0.533-4.794-1.705c-1.065-1.172-1.598-2.77-1.598-5.007v-6.285
		c0-2.131,0.533-3.835,1.598-5.007c1.065-1.172,2.663-1.705,4.794-1.705c2.13,0,3.729,0.533,4.794,1.705s1.598,2.77,1.598,5.007
		v6.285c0,2.131-0.533,3.835-1.598,5.007S416.47,311.277,414.34,311.277z M414.34,308.081c0.426,0,0.639-0.106,0.958-0.213
		c0.213-0.214,0.426-0.427,0.533-0.746c0.106-0.319,0.213-0.639,0.213-0.959c0-0.319,0-0.745,0-1.278v-6.925
		c0-0.426,0-0.746,0-0.958c0-0.213-0.106-0.533-0.106-0.853c-0.106-0.319-0.106-0.533-0.32-0.746
		c-0.106-0.213-0.32-0.319-0.533-0.426c-0.213-0.107-0.426-0.213-0.746-0.213c-0.426,0-0.639,0.106-0.959,0.213
		c-0.213,0.213-0.426,0.426-0.533,0.746c-0.106,0.319-0.213,0.639-0.213,0.958c0,0.32,0,0.746,0,1.278v6.925
		c0,0.426,0,0.746,0,0.959s0.106,0.533,0.106,0.853c0.106,0.319,0.106,0.532,0.319,0.745c0.107,0.213,0.32,0.319,0.533,0.427
		C413.807,308.081,414.02,308.081,414.34,308.081z"/>
	<path fill="#FFFFFF" d="M439.588,310.957v-26.74h4.688v26.74H439.588z"/>
	<path fill="#FFFFFF" d="M453.97,311.277c-2.237,0-3.835-0.64-4.9-1.812c-0.959-1.172-1.491-2.982-1.491-5.326v-5.434
		c0-2.344,0.532-4.155,1.491-5.327s2.663-1.811,4.794-1.811c1.172,0,2.131,0.213,2.983,0.533c0.852,0.319,1.385,0.852,1.917,1.491
		c0.427,0.639,0.746,1.492,0.959,2.344s0.319,1.917,0.319,3.196v2.45h-7.776v2.877c0,0.426,0,0.745,0,0.959
		c0,0.213,0,0.532,0.106,0.745c0,0.32,0.106,0.533,0.106,0.746c0.106,0.213,0.213,0.319,0.319,0.532s0.32,0.319,0.533,0.427
		c0.213,0.106,0.426,0.106,0.745,0.106c0.64,0,1.065-0.214,1.278-0.64c0.214-0.426,0.32-1.065,0.32-1.811v-1.065h4.474v0.745
		c0,2.024-0.532,3.517-1.491,4.581C457.486,310.744,455.994,311.277,453.97,311.277z M452.266,299.344h3.409v-1.811
		c0-0.959-0.106-1.705-0.427-2.131c-0.213-0.426-0.745-0.639-1.278-0.639c-0.639,0-1.065,0.213-1.278,0.746
		c-0.213,0.426-0.319,1.385-0.319,2.557v1.278H452.266z"/>
	<path fill="#FFFFFF" d="M468.032,310.957v-26.74h11.612v3.409h-6.498v7.67h5.22v3.409h-5.22v8.842h6.604v3.409H468.032z"/>
	<path fill="#FFFFFF" d="M482.628,310.957v-26.74h4.688v26.74H482.628z"/>
	<path fill="#FFFFFF" d="M491.257,310.957v-26.74h4.688v26.74H491.257z"/>
</g>
<path fill="#FFFFFF" d="M431.385,306.589c-0.213,0.319-0.533,0.532-0.853,0.745s-0.746,0.426-1.065,0.426
	c-0.532,0-0.853-0.213-1.172-0.639s-0.426-0.959-0.426-1.598c0-1.065,0.532-2.024,1.598-2.983l-2.024-1.917
	c-0.532,0.319-0.745,0.426-1.598,0.958c-0.852,0.64-1.491,1.278-1.811,2.131c-0.427,0.853-0.533,1.812-0.533,2.877
	c0,1.171,0.427,2.237,1.172,3.195c0.746,0.959,1.812,1.386,3.09,1.386c1.065,0,1.811-0.32,2.557-0.853
	c0.64-0.64,1.065-1.385,1.385-2.237c0.106,0.64,0.213,1.598,0.533,2.77h4.261c-0.213-1.704-0.319-3.303-0.319-4.794v-8.736
	c0-1.917-0.426-3.302-1.385-4.368s-2.344-1.492-4.368-1.492s-3.516,0.426-4.688,1.385c-1.065,0.959-1.704,2.45-1.811,4.368
	c0,0.106,0,0.213,0,0.32c0,0.213,0,0.319,0,0.319l4.474,0.213l0.106-1.172c0-1.385,0.533-2.131,1.599-2.131
	c0.639,0,1.065,0.213,1.278,0.639c0.213,0.426,0.319,1.065,0.319,1.917v1.598c-0.213,0.106-0.426,0.213-0.745,0.319
	c-0.427,0.106-0.746,0.32-1.065,0.427c0,0,1.704,1.065,1.704,1.598"/>
<g>
	<path fill="#D45250" d="M-571.026,231.27h-1.794c-3.587,0-6.577,2.99-6.577,6.577v98.659c0,3.588,2.99,6.578,6.577,6.578h1.794
		c3.588,0,6.577-2.99,6.577-6.578v-98.659C-564.449,234.259-567.438,231.27-571.026,231.27z"/>
	<path fill="#D45250" d="M-600.923,231.27h-1.794c-3.588,0-6.577,2.99-6.577,6.577v98.659c0,3.588,2.989,6.578,6.577,6.578h1.794
		c3.588,0,6.577-2.99,6.577-6.578v-98.659C-594.943,234.259-597.933,231.27-600.923,231.27z"/>
	<path fill="#D45250" d="M-631.417,231.27H-665.5l0,0c-0.598,0-0.598,0-1.195,0h-1.794c-3.588,0-6.577,2.99-6.577,6.577v98.659
		c0,3.588,2.989,6.578,6.577,6.578h1.794l0,0c0.598,0,0.598,0,1.195,0h34.083c3.587,0,6.577-2.99,6.577-6.578v-1.793
		c0-3.588-2.99-6.578-6.577-6.578h-28.701v-32.886h28.701c3.587,0,6.577-2.99,6.577-6.578v-1.793c0-3.588-2.99-6.578-6.577-6.578
		h-28.701v-34.082h28.701c3.587,0,6.577-2.99,6.577-6.577v-1.794C-625.438,234.259-627.83,231.27-631.417,231.27z"/>
	<path fill="#D45250" d="M-618.861,399.289c-60.988,0-110.617-49.629-110.617-110.618s107.03-110.617,110.617-110.617
		c60.989,0,110.618,49.628,110.618,110.617C-508.243,292.259-557.872,399.289-618.861,399.289z M-618.861,192.404
		c-53.216,0-96.267,43.051-96.267,96.267c0,53.215,43.051,96.268,96.267,96.268c53.217,0,96.268-43.053,96.268-96.268
		C-522.594,235.455-565.644,192.404-618.861,192.404z"/>
</g>
</svg>
