<?xml version="1.0" encoding="utf-8"?>
<!-- Generator: Adobe Illustrator 20.1.0, SVG Export Plug-In . SVG Version: 6.00 Build 0)  -->
<svg version="1.1" xmlns="http://www.w3.org/2000/svg" xmlns:xlink="http://www.w3.org/1999/xlink" x="0px" y="0px"
	 viewBox="0 0 552.6 468.4" style="enable-background:new 0 0 552.6 468.4;" xml:space="preserve">
<style type="text/css">
	.st0{display:none;}
	.st1{display:inline;fill:none;stroke:#FFB007;stroke-miterlimit:10;}
	.st2{fill:none;stroke:#E84B3C;stroke-width:16;stroke-miterlimit:10;}
	.st3{display:inline;fill:none;stroke:#000105;stroke-width:0.9884;stroke-miterlimit:10;}
	.st4{display:inline;fill:none;stroke:#000105;stroke-width:0.9532;stroke-miterlimit:10;}
	.st5{display:inline;fill:none;stroke:#000105;stroke-width:1.621;stroke-miterlimit:10;}
	.st6{display:inline;fill:none;stroke:#000105;stroke-width:1.7482;stroke-miterlimit:10;}
</style>
<g id="Слой_1">
	<g id="Layer_2" class="st0">
		<ellipse class="st1" cx="276.3" cy="229" rx="9.8" ry="9.9"/>
		<ellipse class="st1" cx="276.3" cy="234.2" rx="2.9" ry="3.5"/>
		<path class="st1" d="M269.6,223.9c0,0,3.2-4.3,5-1.6"/>
		<path class="st1" d="M282.7,224.2c0,0-3.3-4.4-5.1-1.7"/>
		<ellipse class="st1" cx="272.7" cy="225.7" rx="1.8" ry="2"/>
		<ellipse class="st1" cx="279.6" cy="225.9" rx="1.8" ry="2"/>
		<ellipse class="st1" cx="272.8" cy="225.5" rx="1" ry="1.2"/>
		<path class="st1" d="M280.4,225.5c0,0.6-0.4,1.2-1,1.2c-0.6,0-1-0.5-1-1.2c0-0.6,0.4-1.2,1-1.2
			C279.9,224.3,280.4,224.9,280.4,225.5z"/>
		<ellipse class="st1" cx="276.1" cy="228.4" rx="1.1" ry="1.2"/>
	</g>
	<g id="Layer_1">
		<path class="st2" d="M22.6,67.3C106.3-51,250.2,37.6,279.8,76.9c26.9-37.2,209.7-116.5,258.6-1.4
			c53,124.7-254.5,315.9-282.1,373.8C230.2,390.7-59.5,183.1,22.6,67.3z"/>
	</g>
</g>
<g id="Слой_2" class="st0">
	<ellipse class="st3" cx="275.7" cy="218" rx="217.4" ry="207.7"/>
	<path class="st4" d="M422.9,240.7c0,0-25.6,165.5-151.2,158.4c-119.8-6.7-151.9-158.4-151.9-158.4s94.8,28,156.9,28
		S422.9,240.7,422.9,240.7z"/>
	<path class="st5" d="M375.3,101.5c-21.7,21-90,41.1-90,41.1s50.8-20.7,103.5,4c29.3,13.7,36.4,7.8,36.4,7.8"/>
	<path class="st6" d="M153,103.2c21.2,23.8,100.1,42.2,100.1,42.2s-50.5-22.6-104.2,7.4c-29.9,16.7-36.9,10-36.9,10"/>
</g>
</svg>
