<svg height="678" version="1.1" width="1148" xmlns="http://www.w3.org/2000/svg" style="overflow: hidden; position: relative; left: -0.5px;"><desc style="-webkit-tap-highlight-color: rgba(0, 0, 0, 0);">Created with Raphaël 2.0.1</desc><defs style="-webkit-tap-highlight-color: rgba(0, 0, 0, 0);"></defs><rect x="0" y="0" width="1148" height="678" r="0" rx="0" ry="0" fill="#b754a5" stroke="none" style="-webkit-tap-highlight-color: rgba(0, 0, 0, 0);"></rect><ellipse cx="970" cy="665" rx="10" ry="14.1" fill="#90244d" stroke="#f9cfff" transform="matrix(1,0,0,1,0,0)" stroke-width="9" opacity="0.87" style="-webkit-tap-highlight-color: rgba(0, 0, 0, 0); opacity: 0.87;"></ellipse><ellipse cx="441" cy="313" rx="7" ry="9.87" fill="#90244d" stroke="#f9cfff" transform="matrix(0.9918,0.1279,-0.1279,0.9918,43.6462,-53.8241)" stroke-width="9" opacity="0.87" style="-webkit-tap-highlight-color: rgba(0, 0, 0, 0); opacity: 0.87;"></ellipse><ellipse cx="815" cy="15" rx="7" ry="9.87" fill="#90244d" stroke="#f9cfff" transform="matrix(0.9673,0.2537,-0.2537,0.9673,30.4595,-206.2379)" stroke-width="9" opacity="0.87" style="-webkit-tap-highlight-color: rgba(0, 0, 0, 0); opacity: 0.87;"></ellipse><ellipse cx="179" cy="130" rx="5" ry="7.05" fill="#90244d" stroke="#f9cfff" transform="matrix(0.9269,0.3753,-0.3753,0.9269,61.8666,-57.672)" stroke-width="9" opacity="0.87" style="-webkit-tap-highlight-color: rgba(0, 0, 0, 0); opacity: 0.87;"></ellipse><ellipse cx="221" cy="660" rx="7" ry="9.87" fill="#90244d" stroke="#f9cfff" transform="matrix(0.8713,0.4907,-0.4907,0.8713,352.3122,-23.5189)" stroke-width="9" opacity="0.87" style="-webkit-tap-highlight-color: rgba(0, 0, 0, 0); opacity: 0.87;"></ellipse><ellipse cx="697" cy="686" rx="13" ry="18.33" fill="#90244d" stroke="#f9cfff" transform="matrix(0.8014,0.5981,-0.5981,0.8014,548.7185,-280.6528)" stroke-width="9" opacity="0.87" style="-webkit-tap-highlight-color: rgba(0, 0, 0, 0); opacity: 0.87;"></ellipse><ellipse cx="347" cy="635" rx="7" ry="9.87" fill="#90244d" stroke="#f9cfff" transform="matrix(0.7183,0.6957,-0.6957,0.7183,539.4912,-62.5537)" stroke-width="9" opacity="0.87" style="-webkit-tap-highlight-color: rgba(0, 0, 0, 0); opacity: 0.87;"></ellipse><ellipse cx="226" cy="430" rx="8" ry="11.28" fill="#90244d" stroke="#f9cfff" transform="matrix(0.6235,0.7818,-0.7818,0.6235,421.2788,-14.7945)" stroke-width="9" opacity="0.87" style="-webkit-tap-highlight-color: rgba(0, 0, 0, 0); opacity: 0.87;"></ellipse><ellipse cx="314" cy="111" rx="12" ry="16.919999999999998" fill="#90244d" stroke="#f9cfff" transform="matrix(0.5184,0.8551,-0.8551,0.5184,246.1456,-215.0564)" stroke-width="9" opacity="0.87" style="-webkit-tap-highlight-color: rgba(0, 0, 0, 0); opacity: 0.87;"></ellipse><ellipse cx="1023" cy="68" rx="13" ry="18.33" fill="#90244d" stroke="#f9cfff" transform="matrix(0.4048,0.9144,-0.9144,0.4048,671.0867,-894.9694)" stroke-width="9" opacity="0.87" style="-webkit-tap-highlight-color: rgba(0, 0, 0, 0); opacity: 0.87;"></ellipse><ellipse cx="194" cy="53" rx="21" ry="29.61" fill="#90244d" stroke="#f9cfff" transform="matrix(0.2845,0.9587,-0.9587,0.2845,189.611,-148.0615)" stroke-width="9" opacity="0.87" style="-webkit-tap-highlight-color: rgba(0, 0, 0, 0); opacity: 0.87;"></ellipse><ellipse cx="242" cy="673" rx="8" ry="11.28" fill="#90244d" stroke="#f9cfff" transform="matrix(0.1596,0.9872,-0.9872,0.1596,867.7502,326.6913)" stroke-width="9" opacity="0.87" style="-webkit-tap-highlight-color: rgba(0, 0, 0, 0); opacity: 0.87;"></ellipse><ellipse cx="84" cy="571" rx="22" ry="31.02" fill="#90244d" stroke="#f9cfff" transform="matrix(0.0321,0.9995,-0.9995,0.0321,652.0143,468.7417)" stroke-width="9" opacity="0.87" style="-webkit-tap-highlight-color: rgba(0, 0, 0, 0); opacity: 0.87;"></ellipse><ellipse cx="373" cy="-5" rx="18" ry="25.38" fill="#90244d" stroke="#f9cfff" transform="matrix(-0.096,0.9954,-0.9954,-0.096,403.8397,-376.7565)" stroke-width="9" opacity="0.87" style="-webkit-tap-highlight-color: rgba(0, 0, 0, 0); opacity: 0.87;"></ellipse><ellipse cx="1227" cy="87" rx="21" ry="29.61" fill="#90244d" stroke="#f9cfff" transform="matrix(-0.2225,0.9749,-0.9749,-0.2225,1584.8519,-1089.8772)" stroke-width="9" opacity="0.87" style="-webkit-tap-highlight-color: rgba(0, 0, 0, 0); opacity: 0.87;"></ellipse><ellipse cx="739" cy="497" rx="14" ry="19.74" fill="#90244d" stroke="#f9cfff" transform="matrix(-0.3454,0.9385,-0.9385,-0.3454,1460.6436,-24.8817)" stroke-width="9" opacity="0.87" style="-webkit-tap-highlight-color: rgba(0, 0, 0, 0); opacity: 0.87;"></ellipse><ellipse cx="-46" cy="-7" rx="9" ry="12.69" fill="#90244d" stroke="#f9cfff" transform="matrix(-0.4625,0.8866,-0.8866,-0.4625,-73.483,30.5458)" stroke-width="9" opacity="0.87" style="-webkit-tap-highlight-color: rgba(0, 0, 0, 0); opacity: 0.87;"></ellipse><ellipse cx="969" cy="1" rx="12" ry="16.919999999999998" fill="#90244d" stroke="#f9cfff" transform="matrix(-0.5721,0.8202,-0.8202,-0.5721,1524.2012,-793.1748)" stroke-width="9" opacity="0.87" style="-webkit-tap-highlight-color: rgba(0, 0, 0, 0); opacity: 0.87;"></ellipse><ellipse cx="194" cy="544" rx="9" ry="12.69" fill="#90244d" stroke="#f9cfff" transform="matrix(-0.6723,0.7403,-0.7403,-0.6723,727.1376,766.1178)" stroke-width="9" opacity="0.87" style="-webkit-tap-highlight-color: rgba(0, 0, 0, 0); opacity: 0.87;"></ellipse><ellipse cx="852" cy="413" rx="14" ry="19.74" fill="#90244d" stroke="#f9cfff" transform="matrix(-0.7614,0.6482,-0.6482,-0.7614,1768.4703,175.1866)" stroke-width="9" opacity="0.87" style="-webkit-tap-highlight-color: rgba(0, 0, 0, 0); opacity: 0.87;"></ellipse><ellipse cx="1144" cy="450" rx="14" ry="19.74" fill="#90244d" stroke="#f9cfff" transform="matrix(-0.8381,0.5455,-0.5455,-0.8381,2348.2635,203.0477)" stroke-width="9" opacity="0.87" style="-webkit-tap-highlight-color: rgba(0, 0, 0, 0); opacity: 0.87;"></ellipse><ellipse cx="276" cy="446" rx="10" ry="14.1" fill="#90244d" stroke="#f9cfff" transform="matrix(-0.901,0.4339,-0.4339,-0.901,718.1796,728.0802)" stroke-width="9" opacity="0.87" style="-webkit-tap-highlight-color: rgba(0, 0, 0, 0); opacity: 0.87;"></ellipse><ellipse cx="362" cy="31" rx="11" ry="15.51" fill="#90244d" stroke="#f9cfff" transform="matrix(-0.9491,0.3151,-0.3151,-0.9491,715.3265,-53.6484)" stroke-width="9" opacity="0.87" style="-webkit-tap-highlight-color: rgba(0, 0, 0, 0); opacity: 0.87;"></ellipse><ellipse cx="872" cy="682" rx="17" ry="23.97" fill="#90244d" stroke="#f9cfff" transform="matrix(-0.9816,0.1912,-0.1912,-0.9816,1858.2898,1184.733)" stroke-width="9" opacity="0.87" style="-webkit-tap-highlight-color: rgba(0, 0, 0, 0); opacity: 0.87;"></ellipse><ellipse cx="75" cy="425" rx="20" ry="28.2" fill="#90244d" stroke="#f9cfff" transform="matrix(-0.9979,0.0641,-0.0641,-0.9979,177.0757,844.3215)" stroke-width="9" opacity="0.87" style="-webkit-tap-highlight-color: rgba(0, 0, 0, 0); opacity: 0.87;"></ellipse><ellipse cx="1085" cy="-14" rx="21" ry="29.61" fill="#90244d" stroke="#f9cfff" transform="matrix(-0.9979,-0.0641,0.0641,-0.9979,2168.6677,41.545)" stroke-width="9" opacity="0.87" style="-webkit-tap-highlight-color: rgba(0, 0, 0, 0); opacity: 0.87;"></ellipse><ellipse cx="515" cy="28" rx="21" ry="29.61" fill="#90244d" stroke="#f9cfff" transform="matrix(-0.9816,-0.1912,0.1912,-0.9816,1015.1505,153.9304)" stroke-width="9" opacity="0.87" style="-webkit-tap-highlight-color: rgba(0, 0, 0, 0); opacity: 0.87;"></ellipse><ellipse cx="673" cy="640" rx="7" ry="9.87" fill="#90244d" stroke="#f9cfff" transform="matrix(-0.9491,-0.3151,0.3151,-0.9491,1110.0453,1459.4635)" stroke-width="9" opacity="0.87" style="-webkit-tap-highlight-color: rgba(0, 0, 0, 0); opacity: 0.87;"></ellipse><ellipse cx="957" cy="549" rx="19" ry="26.79" fill="#90244d" stroke="#f9cfff" transform="matrix(-0.901,-0.4339,0.4339,-0.901,1581.025,1458.8586)" stroke-width="9" opacity="0.87" style="-webkit-tap-highlight-color: rgba(0, 0, 0, 0); opacity: 0.87;"></ellipse><ellipse cx="1085" cy="666" rx="17" ry="23.97" fill="#90244d" stroke="#f9cfff" transform="matrix(-0.8381,-0.5455,0.5455,-0.8381,1630.9993,1816.072)" stroke-width="9" opacity="0.87" style="-webkit-tap-highlight-color: rgba(0, 0, 0, 0); opacity: 0.87;"></ellipse><ellipse cx="107" cy="5" rx="7" ry="9.87" fill="#90244d" stroke="#f9cfff" transform="matrix(-0.7614,-0.6482,0.6482,-0.7614,185.2336,78.1677)" stroke-width="9" opacity="0.87" style="-webkit-tap-highlight-color: rgba(0, 0, 0, 0); opacity: 0.87;"></ellipse><ellipse cx="441" cy="297" rx="13" ry="18.33" fill="#90244d" stroke="#f9cfff" transform="matrix(-0.6723,-0.7403,0.7403,-0.6723,517.6221,823.136)" stroke-width="9" opacity="0.87" style="-webkit-tap-highlight-color: rgba(0, 0, 0, 0); opacity: 0.87;"></ellipse><ellipse cx="811" cy="232" rx="9" ry="12.69" fill="#90244d" stroke="#f9cfff" transform="matrix(-0.5721,-0.8202,0.8202,-0.5721,1084.7066,1029.8908)" stroke-width="9" opacity="0.87" style="-webkit-tap-highlight-color: rgba(0, 0, 0, 0); opacity: 0.87;"></ellipse><ellipse cx="1115" cy="514" rx="19" ry="26.79" fill="#90244d" stroke="#f9cfff" transform="matrix(-0.4625,-0.8866,0.8866,-0.4625,1175.0182,1740.3029)" stroke-width="9" opacity="0.87" style="-webkit-tap-highlight-color: rgba(0, 0, 0, 0); opacity: 0.87;"></ellipse><ellipse cx="106" cy="24" rx="10" ry="14.1" fill="#90244d" stroke="#f9cfff" transform="matrix(-0.3454,-0.9385,0.9385,-0.3454,120.0855,131.7664)" stroke-width="9" opacity="0.87" style="-webkit-tap-highlight-color: rgba(0, 0, 0, 0); opacity: 0.87;"></ellipse><ellipse cx="978" cy="240" rx="6" ry="8.459999999999999" fill="#90244d" stroke="#f9cfff" transform="matrix(-0.2225,-0.9749,0.9749,-0.2225,961.6428,1246.8845)" stroke-width="9" opacity="0.87" style="-webkit-tap-highlight-color: rgba(0, 0, 0, 0); opacity: 0.87;"></ellipse><ellipse cx="78" cy="718" rx="11" ry="15.51" fill="#90244d" stroke="#f9cfff" transform="matrix(-0.096,-0.9954,0.9954,-0.096,-629.1924,864.5841)" stroke-width="9" opacity="0.87" style="-webkit-tap-highlight-color: rgba(0, 0, 0, 0); opacity: 0.87;"></ellipse><ellipse cx="233" cy="409" rx="15" ry="21.15" fill="#90244d" stroke="#f9cfff" transform="matrix(0.0321,-0.9995,0.9995,0.0321,-183.2579,628.7712)" stroke-width="9" opacity="0.87" style="-webkit-tap-highlight-color: rgba(0, 0, 0, 0); opacity: 0.87;"></ellipse><ellipse cx="5" cy="85" rx="14" ry="19.74" fill="#90244d" stroke="#f9cfff" transform="matrix(0.1596,-0.9872,0.9872,0.1596,-79.7085,76.3699)" stroke-width="9" opacity="0.87" style="-webkit-tap-highlight-color: rgba(0, 0, 0, 0); opacity: 0.87;"></ellipse><ellipse cx="-18" cy="436" rx="18" ry="25.38" fill="#90244d" stroke="#f9cfff" transform="matrix(0.2845,-0.9587,0.9587,0.2845,-430.8577,294.69)" stroke-width="9" opacity="0.87" style="-webkit-tap-highlight-color: rgba(0, 0, 0, 0); opacity: 0.87;"></ellipse><ellipse cx="472" cy="607" rx="12" ry="16.919999999999998" fill="#90244d" stroke="#f9cfff" transform="matrix(0.4048,-0.9144,0.9144,0.4048,-274.1062,792.8993)" stroke-width="9" opacity="0.87" style="-webkit-tap-highlight-color: rgba(0, 0, 0, 0); opacity: 0.87;"></ellipse><ellipse cx="921" cy="204" rx="8" ry="11.28" fill="#90244d" stroke="#f9cfff" transform="matrix(0.5184,-0.8551,0.8551,0.5184,269.1113,885.8344)" stroke-width="9" opacity="0.87" style="-webkit-tap-highlight-color: rgba(0, 0, 0, 0); opacity: 0.87;"></ellipse><ellipse cx="845" cy="47" rx="15" ry="21.15" fill="#90244d" stroke="#f9cfff" transform="matrix(0.6235,-0.7818,0.7818,0.6235,281.405,678.3436)" stroke-width="9" opacity="0.87" style="-webkit-tap-highlight-color: rgba(0, 0, 0, 0); opacity: 0.87;"></ellipse><ellipse cx="937" cy="409" rx="13" ry="18.33" fill="#90244d" stroke="#f9cfff" transform="matrix(0.7183,-0.6957,0.6957,0.7183,-20.6275,767.0497)" stroke-width="9" opacity="0.87" style="-webkit-tap-highlight-color: rgba(0, 0, 0, 0); opacity: 0.87;"></ellipse><ellipse cx="1195" cy="21" rx="4" ry="5.64" fill="#90244d" stroke="#f9cfff" transform="matrix(0.8014,-0.5981,0.5981,0.8014,224.7504,718.9124)" stroke-width="9" opacity="0.87" style="-webkit-tap-highlight-color: rgba(0, 0, 0, 0); opacity: 0.87;"></ellipse><ellipse cx="1125" cy="355" rx="19" ry="26.79" fill="#90244d" stroke="#f9cfff" transform="matrix(0.8713,-0.4907,0.4907,0.8713,-29.4383,597.7391)" stroke-width="9" opacity="0.87" style="-webkit-tap-highlight-color: rgba(0, 0, 0, 0); opacity: 0.87;"></ellipse><ellipse cx="1089" cy="486" rx="14" ry="19.74" fill="#90244d" stroke="#f9cfff" transform="matrix(0.9269,-0.3753,0.3753,0.9269,-102.7921,444.1842)" stroke-width="9" opacity="0.87" style="-webkit-tap-highlight-color: rgba(0, 0, 0, 0); opacity: 0.87;"></ellipse><ellipse cx="936" cy="159" rx="14" ry="19.74" fill="#90244d" stroke="#f9cfff" transform="matrix(0.9673,-0.2537,0.2537,0.9673,-9.7191,242.6208)" stroke-width="9" opacity="0.87" style="-webkit-tap-highlight-color: rgba(0, 0, 0, 0); opacity: 0.87;"></ellipse><ellipse cx="785" cy="378" rx="13" ry="18.33" fill="#90244d" stroke="#f9cfff" transform="matrix(0.9918,-0.1279,0.1279,0.9918,-41.8927,103.4869)" stroke-width="9" opacity="0.87" style="-webkit-tap-highlight-color: rgba(0, 0, 0, 0); opacity: 0.87;"></ellipse></svg>