<?xml version="1.0" encoding="iso-8859-1"?>
<!-- Generator: Adobe Illustrator 18.0.0, SVG Export Plug-In . SVG Version: 6.00 Build 0)  -->
<!DOCTYPE svg PUBLIC "-//W3C//DTD SVG 1.1//EN" "http://www.w3.org/Graphics/SVG/1.1/DTD/svg11.dtd">
<svg version="1.1" id="Capa_1" xmlns="http://www.w3.org/2000/svg" xmlns:xlink="http://www.w3.org/1999/xlink" x="0px" y="0px"
	 viewBox="0 0 474.466 474.466" style="enable-background:new 0 0 474.466 474.466;" xml:space="preserve">
<g>
	<path d="M315.484,131.962c-1.149-0.852-11.542-8.227-22.682-5.134c-4.6,1.275-10.919,4.816-14.902,14.443
		c-1.896,4.585,0.274,9.84,4.854,11.749c3.245,1.352,9.012,2.918,15.115,2.918c4.383,0,8.939-0.808,12.86-3.083
		c4.699-2.727,7.656-7.182,8.327-12.544C319.46,137.087,318.094,133.896,315.484,131.962z"/>
	<path d="M181.662,126.827c-11.135-3.085-21.53,4.284-22.68,5.135c-2.61,1.934-3.976,5.124-3.573,8.348
		c0.67,5.362,3.627,9.817,8.326,12.544c3.921,2.275,8.478,3.083,12.861,3.083c6.103,0,11.87-1.566,15.114-2.918
		c4.581-1.908,6.753-7.164,4.855-11.749C192.582,131.644,186.262,128.103,181.662,126.827z"/>
	<path d="M455.311,263.896c-3.148-70.181-25.253-138.513-63.923-197.608c-8.423-12.871-17.697-25.383-27.565-37.188
		C341.73,2.666,305.157-6.943,272.812,5.19l-35.579,13.348L201.653,5.19c-32.34-12.13-68.916-2.525-91.011,23.909
		C100.77,40.91,91.497,53.422,83.077,66.288c-38.67,59.095-60.773,127.427-63.923,197.608c-1.354,30.187-1.111,58.365,0.719,83.752
		c2.226,30.879,15.053,60.44,36.118,83.236c21.043,22.773,49.495,37.92,80.112,42.652l2.235,0.342
		c2.59,0.394,5.174,0.586,7.737,0.586c14.695-0.001,28.667-6.352,38.445-17.764c11.455-13.368,15.146-31.357,9.877-48.123
		c-11.522-36.651-16.391-69.269-14.369-95.554c1.613,1.177,3.277,2.286,4.984,3.333c5.459,17.314,26.878,29.874,52.219,29.874
		c25.34,0,46.759-12.558,52.219-29.872c1.708-1.047,3.373-2.158,4.987-3.335c2.021,26.285-2.848,58.903-14.369,95.556
		c-5.27,16.765-1.578,34.755,9.876,48.123c11.486,13.403,28.755,19.827,46.185,17.176l2.232-0.342
		c30.618-4.732,59.069-19.879,80.113-42.652c21.065-22.796,33.893-52.356,36.119-83.236
		C456.424,322.257,456.666,294.079,455.311,263.896z M319.178,195.686c3.319,5.432,4.164,12.041,2.318,18.134l-12.535,41.365
		c-1.658-7.619-4.599-15.03-8.85-21.893c-3.583-5.785-6.491-11.995-8.644-18.457l-15.498-46.555
		c-1.569-4.715-6.662-7.268-11.382-5.696c-4.716,1.57-7.267,6.666-5.696,11.382l15.498,46.556c2.594,7.79,6.1,15.276,10.42,22.25
		c10.554,17.039,10.302,38.615-0.522,55.38c-6.091,4.534-13.11,7.876-20.703,9.674c-3.855,0.913-7.815,0.238-11.15-1.902
		c-2.122-1.361-3.805-3.203-4.952-5.36c9.788-3.847,16.696-13.025,16.696-23.715c0-7.957-3.878-13.887-10.92-16.697
		c-4.821-1.924-10.331-2.083-16.024-2.083s-11.203,0.159-16.024,2.083c-7.043,2.81-10.921,8.74-10.921,16.697
		c0,10.689,6.908,19.868,16.696,23.715c-1.148,2.158-2.831,3.999-4.953,5.36c-3.333,2.14-7.291,2.817-11.15,1.902
		c-7.593-1.798-14.611-5.14-20.702-9.673c-10.826-16.766-11.077-38.342-0.523-55.381c4.322-6.979,7.828-14.465,10.419-22.25
		l15.499-46.555c1.57-4.716-0.98-9.812-5.696-11.382c-4.717-1.572-9.812,0.981-11.382,5.696l-15.499,46.556
		c-2.15,6.458-5.058,12.668-8.644,18.457c-4.25,6.862-7.191,14.272-8.849,21.892l-12.535-41.364
		c-1.847-6.092-1.001-12.701,2.318-18.134c8.144-13.327,5.628-30.583-5.98-41.031c-7.218-6.497-9.276-17.125-5.005-25.846
		l17.227-35.168c5.156-10.529,15.632-17.486,27.338-18.155c0.616-0.035,1.229-0.053,1.842-0.053c13.761,0,26.24,8.81,30.753,21.939
		l7.261,21.12c1.249,3.634,4.668,6.074,8.511,6.074s7.262-2.44,8.512-6.074l7.259-21.12c4.714-13.713,18.123-22.709,32.596-21.886
		c11.706,0.669,22.182,7.625,27.338,18.155l17.225,35.167c4.272,8.721,2.214,19.349-5.005,25.846
		C313.548,165.103,311.035,182.359,319.178,195.686z M237.233,284.495c-4.933,0-8.945-3.431-8.945-7.647
		c0-0.049,0.001-0.096,0.002-0.14c2.101-0.64,7.158-0.64,8.943-0.64c1.784,0,6.842,0,8.942,0.64c0.001,0.044,0.002,0.091,0.002,0.14
		C246.177,281.064,242.165,284.495,237.233,284.495z M170.853,444.99c-7.417,8.655-18.554,12.802-29.811,11.093l-2.189-0.335
		c-26.615-4.113-51.348-17.281-69.643-37.08c-18.305-19.809-29.451-45.491-31.385-72.314c-1.78-24.691-2.012-52.163-0.689-81.651
		c3.004-66.959,24.099-132.162,61.003-188.558c8.037-12.282,16.89-24.226,26.313-35.501c17.198-20.576,45.682-28.052,70.878-18.599
		l32.902,12.343v39.785c-10.042-11.111-24.802-17.546-40.394-16.657c-18.188,1.04-34.464,11.848-42.476,28.208l-17.227,35.167
		c-7.791,15.908-4.037,35.293,9.129,47.143c5.168,4.651,6.287,12.333,2.662,18.266c-5.993,9.808-7.519,21.741-4.186,32.739
		l16.764,55.32c2.506,8.27,6.414,15.915,11.428,22.683c-5.712,31.364-1.253,70.669,13.292,116.935
		C180.621,424.777,178.239,436.37,170.853,444.99z M220.296,325.653c4.017-0.767,7.895-2.297,11.454-4.58
		c2.006-1.287,3.839-2.764,5.482-4.405c1.643,1.641,3.476,3.117,5.481,4.404c3.563,2.286,7.447,3.808,11.469,4.574
		c-4.906,1.614-10.621,2.585-16.952,2.585C230.908,328.232,225.198,327.263,220.296,325.653z M436.64,346.354
		c-1.935,26.823-13.08,52.505-31.386,72.314c-18.295,19.798-43.027,32.967-69.645,37.08l-2.186,0.335
		c-11.247,1.707-22.395-2.438-29.812-11.093c-7.386-8.619-9.768-20.213-6.373-31.013c14.544-46.268,19.004-85.573,13.292-116.936
		c5.014-6.768,8.922-14.413,11.428-22.683l16.764-55.32c3.333-11,1.807-22.933-4.186-32.739c-3.626-5.933-2.506-13.615,2.661-18.266
		c13.166-11.849,16.92-31.235,9.129-47.142l-17.225-35.167c-8.013-16.36-24.289-27.169-42.477-28.208
		c-15.583-0.892-30.349,5.545-40.394,16.659V34.387l32.901-12.343c25.197-9.454,53.68-1.977,70.878,18.599
		c9.42,11.27,18.273,23.214,26.313,35.501c36.904,56.396,57.999,121.599,61.003,188.559
		C438.652,294.188,438.42,321.659,436.64,346.354z"/>
</g>
<g>
</g>
<g>
</g>
<g>
</g>
<g>
</g>
<g>
</g>
<g>
</g>
<g>
</g>
<g>
</g>
<g>
</g>
<g>
</g>
<g>
</g>
<g>
</g>
<g>
</g>
<g>
</g>
<g>
</g>
</svg>
