<?xml version="1.0" encoding="iso-8859-1"?>
<!-- Generator: Adobe Illustrator 18.0.0, SVG Export Plug-In . SVG Version: 6.00 Build 0)  -->
<!DOCTYPE svg PUBLIC "-//W3C//DTD SVG 1.1//EN" "http://www.w3.org/Graphics/SVG/1.1/DTD/svg11.dtd">
<svg version="1.1" id="Capa_1" xmlns="http://www.w3.org/2000/svg" xmlns:xlink="http://www.w3.org/1999/xlink" x="0px" y="0px"
	 viewBox="0 0 478.101 478.101" style="enable-background:new 0 0 478.101 478.101;" xml:space="preserve">
<g>
	<path d="M476.428,143.943c-24.914-34.935-61.718-59.219-103.638-68.382c-17.591-3.834-35.52-4.897-53.348-3.168
		c-23.127-9.483-50.331-14.415-80.396-14.43c-30.059,0.015-57.26,4.946-80.387,14.43c-17.828-1.729-35.757-0.666-53.353,3.17
		c-41.915,9.161-78.719,33.446-103.634,68.381c-1.412,1.98-1.962,4.447-1.526,6.839c0.204,1.12,5.09,27.776,13.027,57.303
		c11.184,41.605,22.266,66.417,33.88,75.853c0.229,0.186,0.467,0.361,0.714,0.524c3.534,2.335,12.415,8.204,22.023,8.203
		c3.361,0,6.813-0.719,10.153-2.558c5.007-2.757,8.561-7.427,11.068-13.668l30.325,68.103l-5.923,35.18
		c-1.699,10.075,1.11,20.329,7.708,28.134c6.6,7.806,16.246,12.283,26.466,12.283c8.704,0,61.11-26.736,61.11-26.736
		c8.322,4.908,18.01,7.736,28.351,7.736c10.387,0,20.115-2.852,28.462-7.8c0,0,52.008,26.759,60.832,26.8c0.055,0,0.109,0,0.164,0
		c9.231,0,17.905-3.576,24.44-10.081c6.597-6.566,10.229-15.278,10.229-24.529c0-1.908-0.162-3.853-0.485-5.805l-5.926-35.181
		l30.323-68.103c2.507,6.241,6.061,10.911,11.068,13.668c3.342,1.84,6.792,2.558,10.153,2.558c9.607,0,18.489-5.868,22.022-8.203
		c0.247-0.163,0.485-0.338,0.715-0.524c11.613-9.436,22.695-34.248,33.879-75.853c7.938-29.527,12.823-56.183,13.027-57.303
		C478.391,148.39,477.84,145.923,476.428,143.943z M377.378,117.107c-7.012-10.052-15.679-19.015-25.957-26.745
		c4.992,0.502,9.969,1.248,14.918,2.239C371.486,98.386,374.995,106.922,377.378,117.107z M111.761,92.601
		c4.948-0.99,9.923-1.733,14.914-2.235c-10.275,7.729-18.941,16.691-25.952,26.742C103.105,106.922,106.615,98.386,111.761,92.601z
		 M77.743,253.169c-1.678,17.255-5.386,20.566-6.483,21.17c-1.521,0.839-5.874,0.111-13.167-4.631
		C43.055,256.79,26.271,192.04,18.559,151.344c17.661-23.534,41.481-41.372,68.708-51.698c-10.42,27.287-9.634,66.958-8.921,102.987
		C78.721,221.575,79.075,239.465,77.743,253.169z M149.588,402.137c-4.912,0-9.548-2.152-12.721-5.904
		c-3.171-3.751-4.521-8.678-3.705-13.521l16.82-99.908c2.67-15.835,10.073-30.231,21.407-41.63
		c4.295-4.319,9.025-8.073,14.103-11.223c-0.413,2.119-0.635,4.323-0.635,6.617c0,7.772,2.543,15.385,7.355,22.016
		c2.3,3.17,6.386,4.487,10.105,3.26l3.701-1.222c2.393-0.791,4.974,0.35,6,2.653l4.328,9.714c1.118,2.509,3.32,4.37,5.98,5.054
		c2.53,0.651,5.111,1.145,7.723,1.493v0.03c0,1.704-0.387,4.711-2.229,9.353c-4.342,10.941-12.624,20.146-23.318,25.921
		c-23.597,12.74-38.255,37.301-38.255,64.096v6.54c0,4.451-1.732,8.631-4.89,11.783
		C158.219,400.405,154.039,402.137,149.588,402.137z M291.775,363.995c1.357,4.793,2.074,9.813,2.074,14.943v6.004
		c0,0.294,0.015,0.585,0.022,0.878l-11.411-5.353C286.438,375.588,289.61,370.03,291.775,363.995z M184.248,385.477v-6.54
		c0-5.132,0.718-10.154,2.076-14.949c2.178,6.072,5.372,11.663,9.384,16.563l-11.47,5.381
		C184.239,385.78,184.248,385.63,184.248,385.477z M239.05,306.414c3.961,6.321,8.969,11.989,14.809,16.769
		c-4.717-0.807-9.683-1.235-14.811-1.235c-5.126,0-10.09,0.428-14.806,1.235C230.081,318.403,235.089,312.736,239.05,306.414z
		 M247.173,261.477c-5.318,0.878-10.932,0.878-16.249,0l-2.462-5.526c-4.3-9.652-14.426-14.945-24.543-13.29
		c-0.705-1.979-1.06-4.015-1.06-6.093c0-3.085,1.643-18.515,34.091-19.263c1.405-0.036,2.768-0.037,4.222,0
		c32.425,0.747,34.067,16.177,34.067,19.262c0,2.078-0.355,4.114-1.061,6.093c-10.12-1.654-20.244,3.64-24.542,13.29
		L247.173,261.477z M202.168,354.276c4.691-8.901,22.165-14.328,36.88-14.328c14.717,0,32.195,5.43,36.883,14.333
		c-4.105,16.55-19.08,28.856-36.881,28.856C221.247,383.137,206.271,370.829,202.168,354.276z M340.25,397.299
		c-3.136,3.122-7.304,4.838-11.743,4.838c-0.026,0-0.054,0-0.08,0c-9.141-0.042-16.578-7.756-16.578-17.195v-6.004
		c0-26.793-14.654-51.351-38.245-64.091c-10.701-5.779-18.984-14.987-23.325-25.928c-1.842-4.641-2.229-7.646-2.229-9.351v-0.031
		c2.611-0.348,5.191-0.842,7.72-1.493c2.66-0.684,4.862-2.545,5.979-5.054l4.329-9.715c1.025-2.303,3.605-3.443,5.998-2.653
		l3.701,1.222c3.718,1.227,7.804-0.09,10.105-3.26c4.812-6.631,7.355-14.244,7.355-22.016c0-2.275-0.209-4.465-0.614-6.568
		c18.476,11.478,31.735,30.51,35.489,52.803l16.826,99.886c0.159,0.958,0.239,1.913,0.239,2.839
		C345.179,389.955,343.429,394.136,340.25,397.299z M380.973,236.73c0,5.635-1.156,11.211-3.395,16.382l-4.331,9.999
		c-1.944-8.148-4.42-14.266-6.735-18.712c-2.808-5.394-10.1-6.399-14.298-2.001c-0.061,0.064-0.122,0.128-0.183,0.191
		c-2.604,2.726-3.231,6.807-1.499,10.155c3.415,6.6,8.221,20.076,8.274,43.706l-7.301,16.857l-5.643-33.496
		c-6.691-39.738-37.868-71.088-77.586-78.013c-19.28-3.347-39.15-3.35-58.454,0.001c-19.52,3.401-37.223,12.627-51.197,26.681
		c-13.974,14.054-23.101,31.803-26.393,51.332l-5.639,33.494l-7.298-16.85c0.053-23.622,4.854-37.098,8.27-43.702
		c1.733-3.352,1.112-7.436-1.494-10.165l-0.183-0.191c-4.204-4.403-11.497-3.384-14.307,2.016c-2.313,4.446-4.785,10.559-6.727,18.7
		l-4.333-10.004c-2.24-5.171-3.395-10.746-3.395-16.381v-46.147c0-36.878,13.629-65.793,40.509-85.943
		c25-18.74,60.069-28.656,101.408-28.677c41.349,0.021,76.418,9.937,101.417,28.677c26.881,20.149,40.51,49.065,40.51,85.943V236.73
		z M420.009,269.708c-7.293,4.741-11.645,5.469-13.167,4.631c-1.097-0.604-4.806-3.915-6.483-21.17
		c-1.333-13.704-0.979-31.594-0.604-50.535c0.713-36.029,1.5-75.699-8.92-102.986c27.228,10.326,51.046,28.164,68.707,51.697
		C451.829,192.04,435.046,256.79,420.009,269.708z"/>
	<path d="M185.915,190.167l-2.994-7.866c-5.063-13.301-15.172-22.368-27.041-24.255c-10.883-1.73-21.531,2.734-29.209,12.249
		c-1.269,1.572-5.766,13.125-6.949,21.255c-1.94,13.337,0.588,22.651,7.513,27.683c3.201,2.326,6.907,3.505,11.219,3.505
		c9.703,0,22.471-5.973,39.438-18.298c1.709-1.242,5.621-4.272,5.749-4.488C186.259,197.513,187.246,193.661,185.915,190.167z
		 M140.68,181.599c3.571-4.425,7.966-6.479,12.376-5.776c5.425,0.862,10.302,5.678,13.044,12.881l0.111,0.292l-5.098,2.58
		c-5.824,2.947-12.278,1.363-17.309-4.235C143.804,187.341,140.484,181.934,140.68,181.599z"/>
	<path d="M351.429,170.295c-7.678-9.514-18.321-13.98-29.209-12.249c-11.868,1.886-21.977,10.954-27.04,24.255l-2.994,7.865
		c-1.33,3.494-0.344,7.346,2.272,9.785c0.129,0.216,4.126,3.311,5.875,4.58c16.906,12.265,29.634,18.208,39.313,18.207
		c4.311,0,8.019-1.18,11.219-3.505c6.925-5.032,9.453-14.346,7.513-27.683C357.195,183.42,352.694,171.863,351.429,170.295z
		 M312.002,188.705c2.742-7.204,7.618-12.019,13.043-12.882c4.407-0.699,8.804,1.35,12.343,5.731
		c0.229,0.381-3.091,5.788-3.091,5.788c-5.03,5.596-11.482,7.18-17.308,4.234l-5.099-2.58L312.002,188.705z"/>
	<path d="M206.604,95.005c-4.971,0-9,4.03-9,9c0,4.802,3.761,8.726,8.499,8.986c1.65,1.219,5.108,7.556,5.108,18.012v34.955
		c0,4.97,4.029,9,9,9s9-4.03,9-9v-34.955C229.211,110.144,219.703,95.005,206.604,95.005z"/>
	<path d="M267.258,95.005c-13.099,0-22.606,15.14-22.606,35.999v34.955c0,4.97,4.029,9,9,9c4.971,0,9-4.03,9-9v-34.955
		c0-10.455,3.458-16.792,5.108-18.012c4.737-0.26,8.498-4.184,8.498-8.986C276.258,99.034,272.228,95.005,267.258,95.005z"/>
</g>
<g>
</g>
<g>
</g>
<g>
</g>
<g>
</g>
<g>
</g>
<g>
</g>
<g>
</g>
<g>
</g>
<g>
</g>
<g>
</g>
<g>
</g>
<g>
</g>
<g>
</g>
<g>
</g>
<g>
</g>
</svg>
