<?xml version="1.0" encoding="iso-8859-1"?>
<!-- Generator: Adobe Illustrator 18.0.0, SVG Export Plug-In . SVG Version: 6.00 Build 0)  -->
<!DOCTYPE svg PUBLIC "-//W3C//DTD SVG 1.1//EN" "http://www.w3.org/Graphics/SVG/1.1/DTD/svg11.dtd">
<svg version="1.1" id="Capa_1" xmlns="http://www.w3.org/2000/svg" xmlns:xlink="http://www.w3.org/1999/xlink" x="0px" y="0px"
	 viewBox="0 0 468.509 468.509" style="enable-background:new 0 0 468.509 468.509;" xml:space="preserve">
<g>
	<path d="M465.873,94.54c-30.341-30.341-70.65-48.216-113.507-50.33c-19.076-0.931-38.009,1.279-56.285,6.564
		c-18.457-5.072-39.079-7.629-61.827-7.629c-22.865,0-43.569,2.535-62.082,7.558c-18.197-5.232-37.047-7.418-56.035-6.492
		C73.287,46.324,32.978,64.198,2.636,94.54c-3.021,3.021-3.502,7.75-1.151,11.317l37.08,56.259c1.683,2.553,4.521,4.048,7.513,4.047
		c0.495,0,0.995-0.041,1.494-0.125c3.514-0.591,6.349-3.199,7.229-6.653l0.741-2.909l8.772,14.547
		c-4.695,21.801-7.016,46.626-7.016,74.758c0,26.532,5.89,47.466,18.534,65.879c10.729,15.624,25.65,28.591,43.96,43.461v36.486
		c0,18.615,15.144,33.759,33.759,33.759c5.192,0,10.163-1.21,14.619-3.375l44.952-22.744c6.921,1.152,13.904,1.736,20.888,1.736
		c7.188,0,14.375-0.612,21.495-1.832l45.128,22.974c4.381,2.078,9.247,3.241,14.327,3.241c18.615,0,33.759-15.144,33.759-33.759
		V355.12c18.31-14.87,33.23-27.837,43.959-43.461c12.645-18.413,18.534-39.346,18.534-65.879c0-27.963-2.371-52.703-7.169-74.504
		l8.925-14.801l0.741,2.908c0.88,3.453,3.714,6.062,7.229,6.653c0.5,0.084,0.999,0.125,1.494,0.125c2.992,0,5.831-1.495,7.513-4.047
		l37.08-56.259C469.375,102.289,468.894,97.561,465.873,94.54z M20.649,102.224C38.572,85.91,59.913,74.154,82.972,67.708
		c-18.979,18.545-33.122,41.917-40.529,67.582L20.649,102.224z M62.196,132.655c10.339-29.15,30.619-54.359,57.055-70.559
		c7.122-0.245,14.216-0.001,21.251,0.726c-21.358,10.952-38.638,26.441-51.683,46.438c-7.258,11.126-13.238,23.676-17.967,37.748
		L62.196,132.655z M190.282,373.883l1.63-11.073c1.773-12.049,8.566-22.697,18.689-29.42c15.612-3.364,31.987-3.304,47.566,0.17
		c9.981,6.731,16.674,17.302,18.432,29.25l1.6,10.871C250.008,385.983,218.508,386.051,190.282,373.883z M234.255,244.529
		c-7.524,0-14.073,2.112-19.335,3.808c-0.667,0.215-1.411,0.455-2.147,0.683c0.834-11.122,10.151-19.917,21.483-19.917
		c11.332,0,20.648,8.794,21.482,19.917c-0.737-0.228-1.481-0.468-2.147-0.683C248.328,246.641,241.779,244.529,234.255,244.529z
		 M330.718,391.606c0,8.69-7.069,15.759-15.759,15.759c-7.759,0-14.461-5.788-15.591-13.464l-4.961-33.712
		c-2.602-17.679-12.792-33.252-27.958-42.727l-0.283-0.176c-14.346-8.854-22.911-23.957-22.911-40.4v-12.895
		c1.655,0.463,3.271,0.981,4.812,1.478c6.699,2.16,13.626,4.394,19.716-0.04c6.016-4.382,6.016-12.209,6.016-14.782
		c0-21.805-17.739-39.544-39.543-39.544c-21.805,0-39.544,17.739-39.544,39.544c0,2.572,0,10.4,6.016,14.782
		c2.575,1.875,5.299,2.557,8.093,2.557c3.813,0,7.756-1.271,11.623-2.518c1.541-0.497,3.157-1.015,4.812-1.478v12.895
		c0,16.443-8.565,31.546-22.92,40.406l-0.272,0.169c-15.167,9.475-25.357,25.049-27.959,42.728l-4.961,33.712
		c-1.129,7.676-7.832,13.464-15.591,13.464c-8.689,0-15.759-7.069-15.759-15.759v-96.84c0-53.19,43.273-96.463,96.463-96.463
		s96.463,43.273,96.463,96.463V391.606z M141.969,212.597l-11.007-3.967c-0.005-0.002-0.01-0.004-0.016-0.006
		c4.824-2.716,9.902-5.463,14.707-7.767c4.085-1.958,7.201-3.217,9.544-4.024l-4.14,11.49c-0.643,1.784-1.943,3.212-3.659,4.019
		C145.682,213.149,143.753,213.24,141.969,212.597z M321.111,212.342c-1.716-0.807-3.016-2.234-3.659-4.019l-4.14-11.49
		c2.343,0.807,5.459,2.065,9.544,4.024c4.805,2.304,9.883,5.051,14.707,7.767c-0.005,0.002-0.01,0.004-0.016,0.006l-11.007,3.967
		C324.756,213.239,322.828,213.149,321.111,212.342z M348.718,331.758v-36.992c0-23.789-7.298-45.905-19.769-64.231
		c1.237-0.243,2.472-0.564,3.693-1.004l10.461-3.77l21.145-4.661c3.721-0.82,6.522-3.895,6.993-7.676
		c0.472-3.781-1.489-7.449-4.894-9.157c-2.312-1.16-6.043-3.323-10.365-5.826c-29.134-16.883-44.854-24.155-55.374-19.814
		c-4.005,1.653-6.84,4.897-7.981,9.136c-0.479,1.777-0.401,3.659,0.224,5.391l1.535,4.26c-17.486-10.84-38.09-17.11-60.133-17.11
		c-22.043,0-42.646,6.269-60.132,17.11l1.535-4.26c0.625-1.732,0.702-3.614,0.224-5.391c-1.141-4.239-3.976-7.484-7.981-9.136
		c-10.522-4.342-26.239,2.931-55.374,19.814c-4.321,2.504-8.053,4.667-10.365,5.826c-3.405,1.709-5.366,5.377-4.894,9.157
		c0.471,3.781,3.272,6.855,6.993,7.676l21.145,4.661l10.461,3.77c1.222,0.44,2.457,0.761,3.694,1.004
		c-12.47,18.326-19.768,40.442-19.768,64.231v36.992c-29.288-24.858-44.494-44.401-44.494-85.978
		c0-55.75,9.354-97.19,28.596-126.687c25.438-38.994,68.08-57.95,130.361-57.95c32.344,0,60.011,5.485,82.234,16.303
		c19.591,9.537,35.572,23.559,47.498,41.678c19.665,29.876,29.224,71.305,29.224,126.656
		C393.212,287.357,378.006,306.9,348.718,331.758z M379.023,109.229c-13.129-19.945-30.376-35.403-51.588-46.346
		c7.225-0.774,14.512-1.04,21.824-0.788c26.437,16.2,46.716,41.411,57.055,70.558l-8.89,14.742
		C392.586,133.218,386.461,120.529,379.023,109.229z M426.067,135.29c-7.407-25.665-21.549-49.034-40.529-67.581
		c23.061,6.446,44.399,18.202,62.322,34.516L426.067,135.29z"/>
	<path d="M317.168,140.109c-12.531,6.142-25.842,10.545-39.562,13.088c-4.688,0.87-9.489-0.39-13.173-3.454
		c-3.725-3.098-5.861-7.651-5.861-12.492c0-4.97-4.029-9-9-9s-9,4.03-9,9c0,10.206,4.502,19.803,12.352,26.332
		c6.185,5.144,13.866,7.886,21.743,7.886c2.067,0,4.149-0.189,6.22-0.573c15.33-2.841,30.202-7.761,44.203-14.624
		c4.463-2.188,6.308-7.579,4.121-12.042S321.63,137.922,317.168,140.109z"/>
	<path d="M218.938,128.251c-4.971,0-9,4.03-9,9c0,4.841-2.136,9.394-5.861,12.492c-3.684,3.064-8.487,4.322-13.173,3.454
		c-13.72-2.543-27.03-6.946-39.562-13.088c-4.464-2.187-9.854-0.343-12.042,4.121c-2.188,4.463-0.343,9.855,4.121,12.042
		c14.001,6.862,28.874,11.782,44.203,14.624c2.072,0.384,4.152,0.573,6.22,0.573c7.877,0,15.559-2.742,21.743-7.886
		c7.85-6.528,12.352-16.126,12.352-26.332C227.938,132.281,223.908,128.251,218.938,128.251z"/>
	<path d="M157.566,120.346l26.784,17.142c1.502,0.961,3.183,1.421,4.843,1.421c2.966,0,5.871-1.466,7.589-4.15
		c2.679-4.187,1.458-9.753-2.729-12.432l-26.784-17.142c-4.185-2.678-9.752-1.458-12.432,2.729
		C152.157,112.1,153.379,117.666,157.566,120.346z"/>
	<path d="M279.317,138.908c1.661,0,3.341-0.459,4.843-1.421l26.784-17.142c4.187-2.679,5.408-8.245,2.729-12.432
		c-2.68-4.187-8.246-5.408-12.432-2.729l-26.784,17.142c-4.187,2.679-5.408,8.245-2.729,12.432
		C273.446,137.443,276.35,138.908,279.317,138.908z"/>
</g>
<g>
</g>
<g>
</g>
<g>
</g>
<g>
</g>
<g>
</g>
<g>
</g>
<g>
</g>
<g>
</g>
<g>
</g>
<g>
</g>
<g>
</g>
<g>
</g>
<g>
</g>
<g>
</g>
<g>
</g>
</svg>
