<?xml version="1.0" encoding="iso-8859-1"?>
<!-- Generator: Adobe Illustrator 18.0.0, SVG Export Plug-In . SVG Version: 6.00 Build 0)  -->
<!DOCTYPE svg PUBLIC "-//W3C//DTD SVG 1.1//EN" "http://www.w3.org/Graphics/SVG/1.1/DTD/svg11.dtd">
<svg version="1.1" id="Capa_1" xmlns="http://www.w3.org/2000/svg" xmlns:xlink="http://www.w3.org/1999/xlink" x="0px" y="0px"
	 viewBox="0 0 470.757 470.757" style="enable-background:new 0 0 470.757 470.757;" xml:space="preserve">
<g>
	<path d="M346.868,150.916l-46.253-19.496c-17.684-7.451-37.838-1.768-49.021,13.823l-16.215,22.608l-16.207-22.607
		c-11.182-15.596-31.342-21.284-49.025-13.829l-46.258,19.501c-4.58,1.931-6.728,7.209-4.797,11.789
		c1.93,4.58,7.206,6.729,11.789,4.797l46.258-19.5c9.886-4.168,21.153-0.988,27.404,7.73l21.835,30.457v18.046
		c-9.051,1.444-17.833,5.085-25.557,10.912c-0.933-1.056-2.146-2.293-3.706-3.767l-13.265-12.133
		c-13.415-12.272-33.431-13.924-48.675-4.014l-11.627,7.557c-4.168,2.708-5.351,8.283-2.642,12.451
		c2.689,4.137,8.204,5.329,12.361,2.693l7.973,8.262c0.11,0.114,0.224,0.226,0.34,0.334c4.927,4.592,11.278,6.932,17.656,6.932
		c5.3,0,10.618-1.615,15.151-4.895c0.071-0.052,0.142-0.104,0.211-0.157l7.858-6.042c0,0,3.812,3.325,4.53,3.687l-13.203,10.445
		c-12.247,9.689-19.989,23.566-21.799,39.076l-9.257,79.294c-0.702,6.021-1.643,12.192-2.551,18.16
		c-0.455,2.987-0.91,5.975-1.341,8.966c-1.78,12.366,2.911,24.708,12.549,33.018l1.226,1.057c9.313,8.027,21.5,10.948,33.438,8.016
		c11.938-2.933,21.385-11.169,25.917-22.597l6.039-15.228c5.134-2.771,11.137-4.247,17.473-4.247c6.232,0,12.143,1.424,17.214,4.098
		l6.098,15.377c4.532,11.428,13.979,19.664,25.917,22.597c3.04,0.747,6.096,1.114,9.116,1.114c8.842,0,17.381-3.146,24.32-9.129
		l1.227-1.058c9.639-8.308,14.33-20.651,12.55-33.018c-0.432-2.995-0.887-5.987-1.343-8.978c-0.908-5.964-1.848-12.131-2.55-18.147
		l-9.256-79.295c-1.812-15.51-9.553-29.388-21.799-39.075l-13.222-10.459c0.708-0.36,4.504-3.673,4.504-3.673l7.858,6.042
		c0.069,0.054,0.14,0.106,0.211,0.158c4.534,3.28,9.852,4.895,15.151,4.895c6.378,0,12.73-2.34,17.657-6.932
		c0.116-0.108,0.229-0.22,0.34-0.334l7.971-8.262c4.159,2.637,9.672,1.444,12.362-2.693c2.709-4.167,1.526-9.742-2.641-12.451
		l-11.627-7.558c-15.243-9.908-35.26-8.258-48.676,4.014l-13.265,12.133c-1.556,1.473-2.754,2.707-3.671,3.76
		c-7.723-5.823-16.501-9.462-25.548-10.905v-18.046l21.843-30.456c6.249-8.715,17.52-11.894,27.401-7.727l46.253,19.496
		c4.579,1.93,9.858-0.217,11.789-4.798C353.595,158.125,351.448,152.847,346.868,150.916z M153.998,213.493l-5.017-5.199
		c6.489-2.528,13.835-1.828,19.727,1.938l-4.957,3.812C160.771,216.14,156.716,215.906,153.998,213.493z M243.389,308.392
		c-5.242,0.861-10.779,0.861-16.021,0l-2.427-5.447c-4.271-9.588-14.326-14.851-24.366-13.237c-0.684-1.938-1.028-3.931-1.028-5.964
		c0-3.049,1.626-18.299,33.753-19.039c1.392-0.036,2.739-0.037,4.184,0c32.102,0.739,33.728,15.989,33.728,19.039
		c0,2.033-0.345,4.026-1.028,5.964c-10.053-1.617-20.096,3.65-24.367,13.236L243.389,308.392z M235.478,364.014
		c-3.023,0-6.007,0.236-8.925,0.692l0.785-1.979c2.01-5.067,6.661-5.46,8.04-5.46c1.378,0,6.03,0.394,8.039,5.46l0.772,1.948
		C241.34,364.24,238.428,364.014,235.478,364.014z M321.732,208.295l-5.016,5.199c-2.718,2.413-6.774,2.646-9.754,0.551
		l-4.957-3.812C307.896,206.467,315.242,205.767,321.732,208.295z M285.805,250.617c8.477,6.705,13.835,16.31,15.088,27.045
		l9.256,79.295c0.739,6.329,1.703,12.653,2.634,18.77c0.448,2.943,0.897,5.887,1.321,8.833c0.9,6.255-1.524,12.542-6.485,16.819
		l-1.228,1.058c-4.841,4.175-11.176,5.695-17.39,4.169c-6.209-1.525-11.122-5.809-13.479-11.752L260.15,356.09
		c-2.895-7.301-8.692-12.74-15.771-15.261v-14.394c2.573-0.345,5.115-0.833,7.607-1.474c2.66-0.684,4.861-2.545,5.979-5.054
		l4.292-9.637c1.004-2.251,3.525-3.366,5.865-2.594l3.671,1.212c3.714,1.228,7.805-0.089,10.104-3.26
		c4.784-6.591,7.313-14.158,7.313-21.884c0-22.114-19.662-36.305-51.288-37.033c-1.706-0.044-3.413-0.043-5.063,0
		c-31.651,0.729-51.313,14.919-51.313,37.034c0,7.728,2.528,15.295,7.313,21.885c2.301,3.168,6.387,4.486,10.104,3.259l3.671-1.212
		c2.34-0.772,4.861,0.343,5.864,2.594l4.294,9.637c1.117,2.508,3.319,4.369,5.979,5.053c2.492,0.641,5.034,1.129,7.607,1.474v14.394
		c-7.079,2.521-12.877,7.96-15.772,15.261l-15.372,38.763c-2.356,5.943-7.27,10.227-13.479,11.752
		c-6.206,1.526-12.548,0.007-17.391-4.169l-1.226-1.056c-4.962-4.277-7.386-10.565-6.485-16.819
		c0.424-2.943,0.871-5.882,1.319-8.821c0.932-6.121,1.896-12.45,2.635-18.783l9.257-79.295c1.253-10.734,6.611-20.339,15.088-27.045
		l25.961-20.537c14.404-11.396,34.527-11.396,48.932,0L285.805,250.617z"/>
	<path d="M470.744,193.422l-0.005-3.897c-0.015-12.529-3.104-24.916-8.936-35.822c-24.672-46.143-66.81-77.212-97.813-95.151
		c-19.364-11.204-36.69-18.754-48.061-23.194c-22.067-12.551-66.584-13.601-80.55-13.601c-13.965,0-58.481,1.05-80.548,13.6
		c-11.37,4.439-28.698,11.99-48.063,23.195C75.763,76.491,33.626,107.56,8.954,153.703c-5.831,10.906-8.921,23.293-8.936,35.822
		l-0.005,3.877c-0.099,82.454-0.163,136.927,19.764,182.913c1.45,3.347,4.733,5.422,8.255,5.422c0.67,0,1.35-0.075,2.026-0.231
		c15.636-3.608,40.211-22.517,54.998-34.849c2.149,12.433,5.618,24.647,10.408,36.374l10.032,24.561
		c10.274,25.153,34.47,41.407,61.641,41.407h11.629c20.332,0,40.172-6.422,56.613-18.208c16.441,11.786,36.281,18.208,56.613,18.208
		h11.629c27.171,0,51.365-16.253,61.64-41.407l10.032-24.561c4.79-11.726,8.259-23.941,10.408-36.374
		c14.787,12.332,39.362,31.241,54.998,34.849c0.677,0.156,1.355,0.231,2.026,0.231c3.521,0,6.805-2.076,8.255-5.422
		C470.906,330.333,470.841,275.867,470.744,193.422z M33.118,361.244c-15.257-41.209-15.194-92.515-15.104-167.82l0.005-3.878
		c0.011-9.585,2.365-19.045,6.809-27.355c20.452-38.25,54.416-65.788,84.767-84.267c-12.063,18.296-18.649,39.874-18.649,62.469
		v111.238c0,6.495-0.854,12.968-2.536,19.241c-4.735,17.647-6.627,35.957-5.743,54.13C69.017,337.088,47.244,354.318,33.118,361.244
		z M358.629,376.225l-10.032,24.561c-7.496,18.354-25.15,30.213-44.976,30.213h-11.629c-18.558,0-36.609-6.566-50.831-18.488
		c-1.673-1.402-3.728-2.103-5.782-2.103s-4.109,0.701-5.782,2.103c-14.222,11.922-32.273,18.488-50.831,18.488h-11.629
		c-19.826,0-37.48-11.859-44.977-30.213l-10.032-24.561c-12.979-31.778-15.229-67.537-6.334-100.69
		c2.091-7.793,3.151-15.836,3.151-23.905V140.392c0-29.293,13.139-56.565,36.048-74.821l16.206-12.913
		c9.531-7.596,40.035-12.901,74.18-12.901s64.648,5.305,74.181,12.901l16.204,12.913c22.91,18.256,36.049,45.527,36.049,74.821
		v111.238c0,8.069,1.061,16.112,3.151,23.905C373.858,308.689,371.608,344.448,358.629,376.225z M437.639,361.243
		c-14.126-6.925-35.899-24.155-49.548-36.243c0.884-18.172-1.008-36.482-5.743-54.129c-1.683-6.273-2.536-12.746-2.536-19.241
		V140.392c0-22.626-6.603-44.232-18.698-62.545c30.345,18.462,64.319,46.008,84.816,84.343c4.443,8.311,6.798,17.77,6.809,27.355
		l0.005,3.898C452.833,268.74,452.895,320.039,437.639,361.243z"/>
</g>
<g>
</g>
<g>
</g>
<g>
</g>
<g>
</g>
<g>
</g>
<g>
</g>
<g>
</g>
<g>
</g>
<g>
</g>
<g>
</g>
<g>
</g>
<g>
</g>
<g>
</g>
<g>
</g>
<g>
</g>
</svg>
