<?xml version="1.0" encoding="iso-8859-1"?>
<!-- Generator: Adobe Illustrator 18.0.0, SVG Export Plug-In . SVG Version: 6.00 Build 0)  -->
<!DOCTYPE svg PUBLIC "-//W3C//DTD SVG 1.1//EN" "http://www.w3.org/Graphics/SVG/1.1/DTD/svg11.dtd">
<svg version="1.1" id="Capa_1" xmlns="http://www.w3.org/2000/svg" xmlns:xlink="http://www.w3.org/1999/xlink" x="0px" y="0px"
	 viewBox="0 0 461.046 461.046" style="enable-background:new 0 0 461.046 461.046;" xml:space="preserve">
<g>
	<path d="M187.252,183.092c1.837-4.141,0.311-9.002-3.565-11.349c-0.378-0.229-9.39-5.643-20.576-8.752
		c-8.877-2.467-18.373-0.916-26.05,4.258c-7.72,5.202-12.751,13.474-13.805,22.696c-0.987,8.626-0.491,13.336-0.382,14.193
		c0.501,3.918,3.498,7.051,7.39,7.727c2.475,0.429,5.433,0.697,8.701,0.697C154.451,212.562,176.851,206.537,187.252,183.092z
		 M140.891,194.483c0.065-0.772,0.146-1.604,0.248-2.493c0.456-3.983,2.635-7.56,5.98-9.813c2.278-1.536,4.922-2.332,7.589-2.332
		c1.199,0,2.404,0.161,3.582,0.489c2.893,0.804,5.629,1.82,7.996,2.82C158.862,192.123,148.083,194.206,140.891,194.483z"/>
	<path d="M328.646,167.295c-7.804-5.229-17.473-6.741-26.525-4.148c-10.929,3.129-19.657,8.375-20.023,8.596
		c-3.876,2.346-5.402,7.208-3.565,11.349c10.402,23.447,32.801,29.47,48.288,29.47c3.267,0,6.227-0.268,8.701-0.697
		c3.893-0.675,6.89-3.81,7.39-7.729c0.107-0.839,0.594-5.452-0.349-13.894C341.519,180.886,336.446,172.522,328.646,167.295z
		 M299.506,183.15c2.251-0.951,4.835-1.915,7.569-2.698c3.95-1.131,8.159-0.477,11.55,1.796c3.389,2.271,5.593,5.912,6.048,9.991
		c0.088,0.789,0.16,1.531,0.219,2.225C317.706,194.17,306.921,192.074,299.506,183.15z"/>
	<path d="M456.046,182.734c-24.726-52.025-65.137-80.087-94.683-94.466c-28.077-13.665-51.571-17.853-57.605-18.759
		c-22.73-10.712-48.013-16.381-73.241-16.381c-25.181,0.01-50.435,5.675-73.148,16.368c-5.89,0.878-29.471,5.039-57.686,18.771
		c-29.547,14.379-69.957,42.441-94.683,94.466c-3.874,8.152-5.549,17.206-4.844,26.183c3.041,38.633,10.923,80.431,46.335,97.527
		c29.142,14.068,41.913,23.891,41.913,58.895c0,4.971,4.029,9,9,9s9-4.029,9-9c0-32.035-0.412-79.843-0.808-118.392
		c5.152,6.515,11.066,12.553,17.637,17.975c11.813,9.744,14.014,21.45,14.274,27.556l3.25,77.119
		c0.521,12.409,7.041,23.873,17.439,30.667c0.079,0.052,0.159,0.102,0.24,0.151l6.962,4.242c3.539,2.156,7.564,3.262,11.622,3.262
		c2.255,0,4.52-0.342,6.716-1.034c6.144-1.938,11.147-6.433,13.73-12.332c1.396-3.188,2.692-6.07,3.899-8.693h58.387
		c1.207,2.623,2.502,5.504,3.898,8.692c2.583,5.9,7.587,10.395,13.73,12.333c6.147,1.938,12.831,1.126,18.338-2.228l6.962-4.242
		c0.081-0.049,0.161-0.1,0.24-0.151c10.398-6.794,16.918-18.258,17.439-30.666l3.25-77.115c0.261-6.11,2.462-17.816,14.275-27.561
		c6.538-5.394,12.424-11.4,17.56-17.884c-0.396,38.532-0.808,86.291-0.808,118.301c0,4.971,4.029,9,9,9s9-4.029,9-9
		c0-35.004,12.771-44.827,41.913-58.895c15.177-7.327,26.202-19.311,33.704-36.635c6.535-15.092,10.549-34.441,12.631-60.892
		C461.595,199.941,459.921,190.887,456.046,182.734z M54.318,290.233c-21.933-10.588-32.425-34.557-36.216-82.729
		c-0.459-5.84,0.632-11.734,3.156-17.044c17.957-37.786,46.795-66.626,85.712-85.72c9.626-4.723,18.715-8.233,26.596-10.821
		l-24.812,27.492c-15.328,16.985-23.293,39.799-21.872,62.629c0.056,4.427,0.881,70.188,1.292,128.13
		C79.174,302.959,67.43,296.563,54.318,290.233z M134.689,251.036c-12.705-10.481-22.477-23.617-28.225-37.904l0-0.001
		c-0.839-2.135-1.284-4.415-1.311-6.709c-0.16-13.786-0.283-23.152-0.294-23.309c-1.178-18.089,5.112-36.183,17.259-49.642
		l41.054-45.491c1.368-1.515,3.023-2.754,4.888-3.582c12.971-5.762,26.8-9.724,40.906-11.731l-3.91,107.005
		c-0.208,5.745-3.313,10.891-8.307,13.767c-5.902,3.399-11.238,7.666-15.845,12.667c-4.614,4.986-8.441,10.629-11.378,16.78
		l-18.089,37.948c-1.032,2.163-1.995,4.356-2.905,6.572C145.436,261.896,141.009,256.25,134.689,251.036z M210.397,367.859
		c2.823-4.958,4.236-6.572,4.613-6.958c1.029-0.626,1.894-0.943,2.571-0.943c4.87,0,9.353-1.549,12.979-4.193
		c3.627,2.643,8.111,4.193,12.98,4.193c0.678,0,1.542,0.317,2.572,0.943c0.376,0.386,1.79,2,4.612,6.958H210.397z M238.572,306.411
		c-5.245,0.862-10.78,0.862-16.021,0l-2.428-5.448c-4.271-9.587-14.314-14.851-24.366-13.236c-0.684-1.938-1.027-3.931-1.027-5.964
		c0-3.049,1.626-18.299,33.753-19.039c1.392-0.036,2.739-0.037,4.184,0c32.101,0.739,33.727,15.989,33.727,19.039
		c0,2.033-0.345,4.026-1.027,5.964c-10.054-1.614-20.096,3.65-24.367,13.236L238.572,306.411z M302.379,368.84
		c-0.276,6.574-3.71,12.651-9.192,16.283l-6.83,4.161c-1.466,0.893-2.858,0.655-3.56,0.433c-0.698-0.22-1.971-0.822-2.655-2.385
		c-15.841-36.179-21.418-39.739-24.098-41.45c-4.078-2.604-8.284-3.924-12.503-3.924c-2.117,0-3.886-1.715-3.942-3.824
		c-0.002-0.067-0.037-13.68-0.037-13.68c2.572-0.345,5.114-0.833,7.606-1.474c2.66-0.684,4.862-2.545,5.98-5.054l4.292-9.637
		c1.004-2.251,3.525-3.365,5.865-2.594l3.671,1.212c3.713,1.228,7.805-0.089,10.104-3.26c4.783-6.59,7.312-14.157,7.312-21.884
		c0-22.114-19.662-36.305-51.287-37.033c-1.706-0.044-3.413-0.043-5.063,0c-31.651,0.729-51.313,14.919-51.313,37.034
		c0,7.727,2.528,15.294,7.311,21.884c2.301,3.169,6.386,4.488,10.105,3.26l3.672-1.212c2.341-0.772,4.86,0.342,5.864,2.594
		l4.294,9.638c1.117,2.509,3.319,4.37,5.979,5.054c2.492,0.641,5.034,1.128,7.606,1.474c0,0-0.035,13.62-0.037,13.679
		c-0.057,2.109-1.826,3.826-3.943,3.826c-4.219,0-8.425,1.32-12.503,3.924c-2.68,1.711-8.257,5.271-24.098,41.451
		c-0.685,1.562-1.957,2.165-2.655,2.384c-0.701,0.221-2.096,0.459-3.56-0.433l-6.831-4.162c-5.482-3.632-8.915-9.708-9.191-16.283
		l-1.973-46.815l0.003,0.005c-0.775-18.372,2.998-36.853,10.912-53.448l18.087-37.945c2.154-4.509,4.961-8.649,8.357-12.32
		c3.382-3.67,7.285-6.792,11.603-9.279c10.406-5.993,16.878-16.727,17.313-28.71l3.988-109.148c1.163-0.027,2.326-0.051,3.488-0.051
		c1.023,0,2.046,0.023,3.07,0.044c1.084,38.209,2.521,85.249,3.639,109.069c0.557,11.838,7.025,22.435,17.297,28.345l0.735,0.424
		c8.733,5.024,15.655,12.504,20.015,21.621l18.089,37.948c7.914,16.613,11.688,35.095,10.913,53.45c0,0,0.031-0.045,0.077-0.113
		L302.379,368.84z M354.691,213.049c-5.781,14.37-15.553,27.506-28.258,37.987c-6.348,5.237-10.788,10.91-13.887,16.443
		c-0.917-2.239-1.89-4.456-2.931-6.642l-18.094-37.959c-5.942-12.429-15.376-22.62-27.276-29.466l-0.735-0.424
		c-4.907-2.828-8.034-7.951-8.3-13.608c-1.093-23.292-2.496-69.019-3.571-106.779c14.247,1.98,28.213,5.948,41.303,11.754
		c1.868,0.829,3.526,2.068,4.896,3.586l40.844,45.257c12.215,13.535,19.288,31.443,17.531,49.591
		c-0.026,0.265-0.161,10.06-0.325,24.135C355.864,209.016,355.458,211.099,354.691,213.049L354.691,213.049z M442.943,207.504
		c-3.791,48.172-14.283,72.141-36.216,82.729c-13.111,6.33-24.854,12.726-33.856,21.937c0.412-57.942,1.237-123.703,1.293-128.129
		c1.42-22.831-6.545-45.646-21.872-62.629L327.48,93.919c7.879,2.587,16.972,6.099,26.595,10.821
		c38.917,19.094,67.756,47.935,85.713,85.72C442.313,195.771,443.403,201.665,442.943,207.504z"/>
</g>
<g>
</g>
<g>
</g>
<g>
</g>
<g>
</g>
<g>
</g>
<g>
</g>
<g>
</g>
<g>
</g>
<g>
</g>
<g>
</g>
<g>
</g>
<g>
</g>
<g>
</g>
<g>
</g>
<g>
</g>
</svg>
