<?xml version="1.0" encoding="iso-8859-1"?>
<!-- Generator: Adobe Illustrator 18.0.0, SVG Export Plug-In . SVG Version: 6.00 Build 0)  -->
<!DOCTYPE svg PUBLIC "-//W3C//DTD SVG 1.1//EN" "http://www.w3.org/Graphics/SVG/1.1/DTD/svg11.dtd">
<svg version="1.1" id="Capa_1" xmlns="http://www.w3.org/2000/svg" xmlns:xlink="http://www.w3.org/1999/xlink" x="0px" y="0px"
	 viewBox="0 0 454.054 454.054" style="enable-background:new 0 0 454.054 454.054;" xml:space="preserve">
<g>
	<path d="M444.878,295.803c-9.739-31.091-24.154-50.526-28.232-55.626c27.097-74.091,4.319-164.377-11.91-212.121
		c-3.572-10.509-11.556-18.819-21.902-22.8c-10.262-3.948-21.646-3.147-31.233,2.198c-61.657,34.376-78.992,81.425-83.377,98.236
		l-41.066-0.591c-0.088-0.001-0.172-0.001-0.26,0l-41.067,0.591c-4.385-16.812-21.72-63.86-83.376-98.236
		c-9.589-5.345-20.973-6.145-31.235-2.197c-10.346,3.98-18.328,12.291-21.9,22.799C33.09,75.8,10.311,166.087,37.408,240.176
		c-4.077,5.099-18.493,24.535-28.232,55.627c-10.263,32.761-17.083,85.346,8.704,149.813c1.375,3.438,4.7,5.658,8.353,5.658
		c0.254,0,0.509-0.01,0.766-0.032c3.945-0.335,7.209-3.21,8.038-7.082c3.697-17.251,11.869-31.693,24.29-42.924
		c14.976-13.542,34.758-20.886,55.715-20.629l57.752,0.657c2.155,1.583,4.414,2.958,6.748,4.145
		c5.153,20.596,24.735,35.311,47.486,35.311c22.754,0,42.339-14.72,47.488-35.321c2.34-1.186,4.589-2.57,6.726-4.135l57.771-0.657
		c0.331-0.004,0.66-0.006,0.991-0.006c20.585,0,39.985,7.308,54.725,20.635c12.421,11.231,20.593,25.673,24.29,42.924
		c0.829,3.872,4.093,6.747,8.038,7.082c3.955,0.343,7.647-1.948,9.118-5.625C461.961,381.149,455.141,328.564,444.878,295.803z
		 M360.366,23.175c4.908-2.736,10.741-3.145,16.005-1.12c5.348,2.057,9.475,6.355,11.322,11.793
		c14.86,43.717,35.576,124.664,14.769,192.057l-83.216-82.025c-1.06-40.21,7.896-87.397,10.327-99.367
		C338.141,37.149,348.302,29.902,360.366,23.175z M352.327,217.652c2.203,18.104-4.556,33.119-20.091,44.625
		c-3.12,2.312-4.406,6.365-3.189,10.053c1.218,3.688,4.663,6.179,8.547,6.179h1.329c23.186,0,42.049,18.863,42.049,42.048
		s-18.863,42.048-42.049,42.048c-0.01,0-0.019,0.001-0.029,0.001c-0.029,0-0.057-0.001-0.086-0.001l-42.318,0.481
		c6.675-13.656,6.716-29.94-0.813-44.138l-33.811-63.734c-1.176-2.218-2.269-4.466-3.29-6.738c0.804,0.682,1.723,1.233,2.736,1.601
		c3.609,1.313,16.699,5.712,29.917,5.712c7.579,0,15.201-1.447,21.101-5.752c4.759-3.473,10.328-10.238,9.841-22.745
		c-0.266-6.805-3.368-13.24-8.514-17.657c-5.092-4.371-11.543-6.363-18.169-5.611c-8.538,0.97-16.809,5.434-24.581,13.269
		c-7.288,7.347-12.21,15.784-14.496,20.159c-0.545,1.043-0.862,2.17-0.971,3.316c-8.066-22.112-9.094-46.17-2.746-69.183
		l13.224-47.928l7.276,0.105l71.87,70.842C346.928,198.171,351.028,206.983,352.327,217.652z M278.372,236.192
		c5.349-7.219,12.216-13.493,19.147-14.281c2.144-0.24,3.688,0.762,4.413,1.384c1.36,1.167,2.181,2.88,2.252,4.7
		c0.216,5.542-1.729,6.964-2.46,7.5C297.376,238.677,287.433,238.079,278.372,236.192z M307.071,68.249
		c-2.496,16.223-5.039,37.087-5.732,57.98l-15.8-15.574C287.394,103.432,292.847,86.915,307.071,68.249z M227.027,123.099
		l20.292,0.292l-11.977,43.41c-8.987,32.584-5.216,66.979,10.622,96.849l33.811,63.735c7.954,15.002,2.124,29.762-7.237,37.843
		c-0.081,0.064-0.161,0.129-0.24,0.196c-7.602,6.426-17.377,8.707-27.414,6.107c-3.281-0.856-5.937-3.038-7.458-5.879
		c16.633-4.317,28.891-18.714,28.891-35.772c0-13.811-8.007-19.56-14.725-21.951c-6.869-2.446-15.288-2.459-24.171-2.445h-0.789
		c-8.873,0.014-17.302,0-24.172,2.445c-6.718,2.391-14.725,8.141-14.725,21.951c0,17.06,12.262,31.458,28.898,35.773
		c-0.308,0.573-0.666,1.125-1.072,1.65c-1.622,2.096-3.835,3.558-6.393,4.228c-9.941,2.593-19.68,0.424-27.418-6.111
		c-0.077-0.065-0.155-0.128-0.234-0.191c-9.362-8.081-15.193-22.842-7.239-37.843l33.813-63.738
		c15.837-29.868,19.608-64.263,10.621-96.848l-11.977-43.409L227.027,123.099z M227.027,348.981
		c-11.74,0-21.291-8.568-21.291-19.101c0-4.011,1.039-4.381,2.762-4.994c3.871-1.378,10.592-1.402,17.747-1.402
		c0.129,0,0.258,0,0.387,0h0.791c7.287,0.009,14.192,0,18.134,1.402c1.722,0.613,2.761,0.983,2.761,4.994
		C248.318,340.413,238.767,348.981,227.027,348.981z M115.246,362.607c-0.029,0-0.057,0.001-0.086,0.001
		c-0.01,0-0.019-0.001-0.029-0.001c-23.186,0-42.048-18.863-42.048-42.048s18.862-42.048,42.048-42.048h1.33
		c3.884,0,7.329-2.491,8.547-6.179c1.217-3.688-0.069-7.741-3.189-10.053c-15.373-11.387-22.155-26.215-20.156-44.072
		c1.223-10.924,5.423-19.96,7.328-23.601l71.87-70.841l7.277-0.105l13.224,47.928c6.348,23.014,5.32,47.073-2.746,69.184
		c-0.109-1.146-0.426-2.274-0.972-3.317c-2.285-4.375-7.208-12.812-14.496-20.158c-7.772-7.835-16.043-12.299-24.58-13.269
		c-6.617-0.752-13.077,1.239-18.169,5.611c-5.146,4.417-8.248,10.853-8.514,17.657c-0.487,12.507,5.082,19.272,9.841,22.745
		c5.9,4.306,13.52,5.752,21.101,5.752c13.217,0,26.308-4.4,29.917-5.712c1.013-0.369,1.932-0.919,2.737-1.601
		c-1.021,2.271-2.114,4.519-3.289,6.736l-33.813,63.738c-7.528,14.197-7.487,30.48-0.813,44.136L115.246,362.607z M175.694,236.208
		c-9.043,1.891-18.979,2.488-23.358-0.708c-0.733-0.535-2.682-1.957-2.466-7.504c0.071-1.82,0.892-3.533,2.252-4.7
		c0.648-0.557,1.947-1.422,3.756-1.422c0.212,0,0.432,0.012,0.657,0.038C163.471,222.699,170.343,228.982,175.694,236.208z
		 M156.768,82.898c7.096,12.265,10.368,22.483,11.736,27.77l-15.788,15.562c-0.692-20.873-3.231-41.715-5.724-57.931
		C150.99,73.534,154.21,78.477,156.768,82.898z M66.361,33.848c1.848-5.437,5.975-9.735,11.321-11.792
		c5.264-2.026,11.098-1.618,16.006,1.12c12.124,6.76,22.29,14.051,30.802,21.382c2.443,12.039,11.377,59.162,10.317,99.323
		l-83.215,82.024C30.785,158.513,51.501,77.566,66.361,33.848z M47.254,387.883c-8.672,7.842-15.653,16.922-20.894,27.152
		c-11.266-39.052-11.369-76.975-0.264-113.028c9.414-30.562,24.031-48.966,25.829-51.155l31.539-31.088
		c-0.806,12.815,1.613,28.762,13.498,43.554c-24.258,7.716-41.88,30.458-41.88,57.24c0,19.673,9.514,37.16,24.177,48.119
		C67.479,372.957,56.609,379.424,47.254,387.883z M227.027,402.718c-10.479,0-19.862-4.74-25.446-12.151
		c4.022-0.039,8.091-0.564,12.139-1.621c5.086-1.331,9.622-3.901,13.313-7.516c3.62,3.534,8.166,6.176,13.323,7.521
		c4.038,1.046,8.109,1.583,12.112,1.624C246.882,397.983,237.502,402.718,227.027,402.718z M427.651,414.949
		c-5.235-10.195-12.202-19.247-20.85-27.066c-9.358-8.461-20.222-14.928-32.004-19.209c14.662-10.959,24.175-28.445,24.175-48.116
		c0-26.781-17.622-49.523-41.881-57.24c11.885-14.792,14.304-30.738,13.498-43.554l31.548,31.097
		c1.818,2.196,16.081,20.05,25.564,50.323C440.988,343.599,436.513,383.742,427.651,414.949z"/>
	<path d="M165.648,191.759c2.304,0,4.607-0.879,6.364-2.636l11.457-11.458c3.515-3.515,3.515-9.213-0.001-12.728
		c-3.514-3.515-9.214-3.514-12.728,0l-11.457,11.458c-3.515,3.515-3.515,9.213,0.001,12.728
		C161.041,190.881,163.344,191.759,165.648,191.759z"/>
	<path d="M270.585,177.665l11.458,11.458c1.758,1.757,4.061,2.636,6.364,2.636s4.606-0.879,6.364-2.636
		c3.515-3.515,3.515-9.213,0-12.728l-11.458-11.458c-3.516-3.515-9.213-3.515-12.729,0
		C267.07,168.452,267.07,174.151,270.585,177.665z"/>
</g>
<g>
</g>
<g>
</g>
<g>
</g>
<g>
</g>
<g>
</g>
<g>
</g>
<g>
</g>
<g>
</g>
<g>
</g>
<g>
</g>
<g>
</g>
<g>
</g>
<g>
</g>
<g>
</g>
<g>
</g>
</svg>
