<?xml version="1.0" encoding="iso-8859-1"?>
<!-- Generator: Adobe Illustrator 18.0.0, SVG Export Plug-In . SVG Version: 6.00 Build 0)  -->
<!DOCTYPE svg PUBLIC "-//W3C//DTD SVG 1.1//EN" "http://www.w3.org/Graphics/SVG/1.1/DTD/svg11.dtd">
<svg version="1.1" id="Capa_1" xmlns="http://www.w3.org/2000/svg" xmlns:xlink="http://www.w3.org/1999/xlink" x="0px" y="0px"
	 viewBox="0 0 456.356 456.356" style="enable-background:new 0 0 456.356 456.356;" xml:space="preserve">
<g>
	<path d="M455.439,245.941c-1.057-9.115-1.057-18.358,0-27.473v0c4.602-39.691-8.271-79.323-35.354-108.775
		c-1.133-1.232-2.253-2.503-3.33-3.778c-14.017-16.598-30.821-31.334-49.946-43.8l-10.667-6.953
		C317.98,30.288,273.731,17.14,228.178,17.14c-45.553,0-89.802,13.147-127.965,38.021l-10.667,6.953
		C70.42,74.581,53.616,89.318,39.603,105.913c-1.084,1.283-2.205,2.555-3.369,3.821C9.187,139.145-3.685,178.778,0.916,218.469
		c1.057,9.115,1.057,18.357,0,27.473c-4.602,39.691,8.271,79.323,35.354,108.775c6.184,6.724,11.595,14.168,16.083,22.121
		l0.105,0.186c16.692,29.585,43.052,33.497,70.959,37.639c6.907,1.025,14.05,2.085,21.308,3.557l0.323,0.066
		c8.875,1.8,17.552,4.619,25.791,8.377l0.361,0.165c18.105,8.259,37.54,12.388,56.977,12.388c19.437,0,38.876-4.13,56.983-12.39
		l0.357-0.163c8.24-3.759,16.917-6.577,25.792-8.378l0.318-0.064c7.262-1.473,14.405-2.533,21.312-3.558
		c27.907-4.142,54.267-8.053,70.957-37.635l0.104-0.185c4.49-7.958,9.902-15.402,16.122-22.167
		C447.168,325.265,460.041,285.632,455.439,245.941z M437.56,248.015c3.932,33.912-6.828,67.77-29.569,93.227
		c-4.082,1.824-17.047,6.872-27.542,2.758c-6.239-2.445-10.745-7.842-13.775-16.5c-6.404-18.297-2.821-44.185,0.341-67.025
		c3.661-26.45,6.553-47.341-4.472-58.366c-3.515-3.515-9.213-3.515-12.728,0c-3.515,3.515-3.515,9.213,0,12.728
		c4.695,4.695,1.742,26.029-0.631,43.17c-3.441,24.86-7.341,53.036,0.5,75.439c4.799,13.712,12.94,22.901,24.197,27.313
		c5.156,2.021,10.447,2.78,15.492,2.78c0.541,0,1.077-0.014,1.612-0.031c-0.911,1.48-1.805,2.971-2.659,4.485l-0.104,0.185
		c-12.366,21.917-31.476,24.753-57.924,28.678c-7.139,1.059-14.521,2.155-22.25,3.723l-0.318,0.064
		c-10.212,2.072-20.199,5.315-29.686,9.643l-0.357,0.163c-31.462,14.353-67.552,14.353-99.015,0l-0.361-0.165
		c-9.482-4.326-19.468-7.569-29.678-9.641l-0.323-0.066c-7.729-1.568-15.11-2.664-22.249-3.723
		c-26.449-3.925-45.559-6.761-57.922-28.673l-0.105-0.187c-0.856-1.518-1.752-3.012-2.666-4.497c0.54,0.017,1.079,0.04,1.625,0.04
		c5.043,0,10.337-0.761,15.492-2.781c11.257-4.411,19.398-13.6,24.197-27.312c7.841-22.403,3.941-50.58,0.5-75.439
		c-2.373-17.141-5.326-38.475-0.631-43.17c3.515-3.515,3.515-9.213,0-12.728c-3.515-3.515-9.213-3.515-12.728,0
		c-11.025,11.024-8.133,31.916-4.472,58.366c3.162,22.84,6.745,48.728,0.341,67.025c-3.02,8.629-7.505,14.018-13.711,16.474
		c-10.537,4.172-23.515-0.896-27.619-2.738c-22.726-25.422-33.496-59.294-29.563-93.223c1.217-10.491,1.217-21.129,0-31.62
		c-3.998-34.486,7.187-68.922,30.723-94.518c1.297-1.411,2.586-2.874,3.833-4.35c12.883-15.255,28.367-28.826,46.022-40.334
		l10.667-6.952c35.231-22.964,76.082-35.102,118.136-35.102c42.054,0,82.905,12.138,118.135,35.101l10.667,6.953
		c17.655,11.507,33.139,25.077,46.022,40.333c1.239,1.468,2.529,2.932,3.871,4.391c23.5,25.556,34.685,59.991,30.687,94.478
		C436.343,226.886,436.343,237.524,437.56,248.015z"/>
	<path d="M175.165,225.033l-13.333,4c-4.761,1.429-7.462,6.446-6.034,11.207c1.17,3.898,4.746,6.416,8.617,6.416
		c0.856,0,1.728-0.124,2.59-0.382l13.333-4c4.761-1.429,7.462-6.446,6.034-11.207C184.943,226.307,179.926,223.604,175.165,225.033z
		"/>
	<path d="M289.385,246.274c0.863,0.259,1.733,0.382,2.59,0.382c3.871,0,7.447-2.518,8.617-6.416
		c1.428-4.761-1.273-9.778-6.034-11.207l-13.333-4c-4.763-1.431-9.778,1.273-11.207,6.034c-1.428,4.761,1.273,9.778,6.034,11.207
		L289.385,246.274z"/>
	<path d="M282.34,183.815c-4.493-2.125-9.858-0.206-11.984,4.286c-2.126,4.493-0.207,9.858,4.286,11.984
		c18.46,8.734,29.752,20.267,30.981,31.639c4.67,43.325,1.76,75.446-8.626,95.929l-5.882-50.387
		c-1.389-11.901-7.33-22.55-16.728-29.985c-27.198-21.515-65.188-21.517-92.387,0c-9.397,7.434-15.338,18.083-16.727,29.984
		l-5.887,50.432c-10.401-20.481-13.318-52.617-8.647-95.977c1.221-11.368,12.513-22.898,30.98-31.636
		c4.493-2.126,6.412-7.491,4.286-11.984c-2.125-4.493-7.491-6.413-11.984-4.286c-24.621,11.649-39.245,27.98-41.179,45.981
		c-6.545,60.752,0.994,101.333,23.02,123.803c-0.037,0.253-0.077,0.505-0.113,0.758c-1.412,9.806,2.301,19.588,9.931,26.167
		l0.89,0.767c7.257,6.255,17.144,8.625,26.45,6.34c9.205-2.261,16.798-8.83,20.38-17.594c4.689,1.207,9.665,1.847,14.766,1.847
		c5.119,0,10.112-0.647,14.817-1.864c3.578,8.773,11.175,15.349,20.387,17.611c2.333,0.573,4.701,0.854,7.057,0.854
		c7.039,0,13.955-2.506,19.391-7.192l0.891-0.768c7.631-6.579,11.344-16.361,9.931-26.167c-0.038-0.262-0.079-0.523-0.117-0.785
		c22.011-22.478,29.542-63.05,22.997-123.779C321.574,211.787,306.949,195.458,282.34,183.815z M233.501,296.39l-1.204,2.702
		c-2.7,0.333-5.506,0.333-8.207,0l-1.204-2.702c-3.242-7.276-10.468-11.572-18.064-11.26c-0.089-0.547-0.133-1.099-0.133-1.654
		c0-10.3,18.356-11.245,22.063-11.33c0.965-0.025,1.89-0.026,2.91,0c3.679,0.085,22.035,1.029,22.035,11.33
		c0,0.556-0.044,1.107-0.133,1.654C243.976,284.822,236.743,289.115,233.501,296.39z M220.124,353.106l4.542-11.453
		c0.827-2.085,2.566-2.396,3.528-2.396c0.963,0,2.702,0.312,3.529,2.396l4.537,11.44c-2.605,0.512-5.335,0.791-8.095,0.791
		C225.424,353.884,222.713,353.609,220.124,353.106z M278.957,366.89l-0.891,0.768c-2.897,2.497-6.688,3.407-10.402,2.494
		c-3.714-0.913-6.653-3.475-8.063-7.03l-11.146-28.104c-2.141-5.398-6.221-9.551-11.261-11.824v-6.657
		c1.23-0.219,2.453-0.47,3.657-0.78c2.66-0.684,4.862-2.545,5.979-5.054l3.113-6.987c0.208-0.466,0.73-0.699,1.216-0.538
		l2.662,0.878c3.719,1.228,7.804-0.091,10.105-3.26c3.777-5.203,5.773-11.192,5.773-17.32c0-17.26-15.552-28.771-39.593-29.324
		c-1.279-0.033-2.57-0.033-3.794,0c-24.069,0.554-39.622,12.065-39.622,29.325c0,6.128,1.997,12.117,5.774,17.321
		c2.3,3.167,6.383,4.488,10.104,3.259l2.663-0.878c0.486-0.16,1.008,0.071,1.215,0.538l3.113,6.987
		c1.118,2.508,3.319,4.37,5.979,5.054c1.204,0.31,2.426,0.56,3.657,0.78v6.657c-5.039,2.273-9.12,6.426-11.261,11.824
		l-11.146,28.104c-1.41,3.555-4.349,6.117-8.063,7.03c-3.713,0.914-7.505,0.003-10.402-2.493l-0.89-0.767
		c-2.954-2.547-4.4-6.273-3.868-9.968c0.306-2.124,0.629-4.245,0.952-6.366c0.68-4.462,1.382-9.076,1.924-13.713l6.711-57.491
		c0.832-7.126,4.389-13.503,10.017-17.955c20.623-16.313,49.429-16.313,70.05,0l0,0c5.627,4.452,9.185,10.828,10.016,17.955
		l6.711,57.49c0.542,4.64,1.245,9.256,1.924,13.72c0.322,2.119,0.645,4.238,0.951,6.36
		C283.355,360.618,281.909,364.344,278.957,366.89z"/>
</g>
<g>
</g>
<g>
</g>
<g>
</g>
<g>
</g>
<g>
</g>
<g>
</g>
<g>
</g>
<g>
</g>
<g>
</g>
<g>
</g>
<g>
</g>
<g>
</g>
<g>
</g>
<g>
</g>
<g>
</g>
</svg>
