<?xml version="1.0" encoding="iso-8859-1"?>
<!-- Generator: Adobe Illustrator 18.0.0, SVG Export Plug-In . SVG Version: 6.00 Build 0)  -->
<!DOCTYPE svg PUBLIC "-//W3C//DTD SVG 1.1//EN" "http://www.w3.org/Graphics/SVG/1.1/DTD/svg11.dtd">
<svg version="1.1" id="Capa_1" xmlns="http://www.w3.org/2000/svg" xmlns:xlink="http://www.w3.org/1999/xlink" x="0px" y="0px"
	 viewBox="0 0 466.557 466.557" style="enable-background:new 0 0 466.557 466.557;" xml:space="preserve">
<path d="M463.679,75.787c-3.436-5.746-9.476-9.425-16.156-9.843l-24.773-1.548l-0.558-3.238
	c-2.634-15.273-16.018-26.016-31.381-25.375c1.379-3.532,3.698-6.868,7.563-7.125c4.758-0.315,7.581,0.81,8.4,3.347
	c1.274,3.942,5.503,6.105,9.443,4.83c3.941-1.274,6.104-5.502,4.83-9.443c-1.134-3.508-6.203-14.857-23.672-13.7
	c-8.822,0.588-14.598,5.715-18.22,11.912c-0.622-2.15-1.294-4.208-2.019-6.093c-0.799-2.078-2.479-3.693-4.587-4.409
	c-2.105-0.716-4.424-0.46-6.324,0.702c-12.083,7.384-16.703,23.119-18.365,36.451l-8.155,6.741
	c-14.176,11.727-22.869,28.987-23.851,47.349c-0.172,3.178-0.274,6.343-0.374,9.403c-0.497,15.282-0.926,28.48-9.203,36.756
	c-10.79,10.791-31.814,23.729-58.46,27.676c-7.15,1.058-30.315,2.188-100.097,1.573c-0.228-0.002-0.452-0.003-0.68-0.003
	c-16.149,0-31.597,5.061-44.39,14.146c-9.698-1.41-36.942-2.935-58.488,19.271c-9.061,0.58-24.35,3.075-32.246,12.948
	c-2.775,3.47-6.812,10.911-9.807,35.363c-1.558,12.723-2.081,23.983-2.103,24.456c-0.115,2.54,1.063,4.965,3.132,6.443
	c1.291,0.923,2.819,1.398,4.361,1.398c0.927,0,1.859-0.172,2.748-0.522c3.663-1.443,36.146-14.549,48.351-30.083
	c6.19-7.883,5.112-20.609-3.455-39.776c10.472-10.646,22.683-14.125,32.121-14.989c-1.213,1.511-2.38,3.067-3.486,4.681
	c-14.422,21.045-17.434,47.754-8.065,71.48l0.004,0.011c0.032,0.092,0.066,0.183,0.103,0.274
	c8.391,21.135-0.318,45.307-20.25,56.222l-2.353,1.284c-2.614,1.427-4.137,4.266-3.879,7.233l7.049,81.113
	c1.015,11.544,10.517,20.249,22.1,20.249H98.18c4.451,0,8.652-1.95,11.527-5.35c2.874-3.399,4.098-7.865,3.361-12.229
	c-0.716-4.33-2.681-8.314-5.683-11.523c-2.991-3.197-6.834-5.42-11.115-6.43l-3.071-0.722l-4.238-26.039
	c-0.784-4.802,1.536-9.641,5.771-12.039l19.273-10.9c27.043-15.301,44.226-43.23,46.255-73.641
	c4.348-2.792,15.844-7.738,35.533,0.136c2.13,0.851,5.064,2.145,8.462,3.642c19.684,8.674,58.495,25.779,96.54,25.779
	c1.881,0,3.759-0.049,5.633-0.136c2.534,16.459,4.358,38.552,2.801,65.01c-0.053,0.898,0.057,1.798,0.322,2.657
	c5.153,16.658,9.414,30.932,12.662,42.414c3.204,11.405,13.722,19.371,25.578,19.371h26.462c2.521,0,4.874-1.267,6.262-3.373
	s1.625-4.767,0.631-7.084l-5.196-12.112c-3.438-8.014-10.179-14.121-18.505-16.76l-4.361-1.375l1.899-102.611l18.76-21.506
	c14.983-17.174,24.012-39.166,25.421-61.925l2.277-36.828c7.983,3.797,13.539,5.339,13.995,5.462c0.65,0.175,1.307,0.26,1.956,0.26
	c2.644,0,5.156-1.404,6.515-3.786c1.691-2.966,1.165-6.701-1.28-9.085c-0.193-0.188-9.793-9.663-19.272-23.868l1.954-31.571
	l32.701-4.635c0.113-0.016,0.226-0.035,0.338-0.056c9.431-1.78,17.452-8.048,21.459-16.768l4.894-10.651
	C467.497,88.595,467.114,81.533,463.679,75.787z M46.804,255.901c-5.829,7.419-20.059,15.317-31.02,20.538
	c1.735-20.43,5.145-35.58,7.847-38.958c3.08-3.852,10.483-6.018,17.378-6.937C48.394,246.816,48.127,254.216,46.804,255.901z
	 M366.785,37.973c0.467,2.188,3.475,21.825,3.487,21.938c0.43,4.119,4.108,7.107,8.238,6.68c4.119-0.43,7.109-4.117,6.681-8.237
	c-0.034-0.326-0.324-3.052-0.883-7.058l6.535-0.499c8.081-0.614,15.192,4.935,16.567,12.908l0.05,0.291
	c-7.439,0.394-17.544,1.928-24.179,6.944c-8.527,6.447-13.053,17.984-13.451,34.289c-0.452,18.53,6.198,38.54,19.771,59.501
	c-2.739-2.065-5.514-4.371-8.248-6.937c-20.837-19.556-31.025-45.662-30.385-77.745c1.111,0.646,2.393,1.019,3.752,1.019
	c0.192,0,0.388-0.007,0.583-0.022c4.13-0.318,7.221-3.923,6.902-8.053C361.684,66.22,361.901,49.328,366.785,37.973z
	 M384.194,225.276c-1.207,19.476-8.932,38.294-21.754,52.991l-20.556,23.566c-1.161,1.33-1.814,3.027-1.848,4.792l-2.054,110.949
	c-0.062,3.324,2.073,6.292,5.244,7.292l9.697,3.058c4.155,1.317,7.524,4.368,9.241,8.372l0.71,1.655h-15.083
	c-5.163,0-9.743-3.465-11.141-8.441c-3.199-11.312-7.36-25.264-12.37-41.484c1.993-36.281-2.083-64.754-5.884-82.332
	c-4.229-19.552-9.022-30.322-9.224-30.771c-1.699-3.773-6.128-5.451-9.902-3.761c-3.775,1.691-5.467,6.126-3.782,9.904
	c0.043,0.098,4.342,9.854,8.185,27.521c-35.679,0.957-74.162-15.992-93.371-24.458c-3.526-1.554-6.571-2.896-8.942-3.844
	c-18.653-7.46-32.487-5.829-41.446-2.571l-2.152-24.011c-0.369-4.125-4.039-7.161-8.139-6.801c-4.126,0.37-7.171,4.014-6.801,8.14
	l2.343,26.147c2.688,29.864-12.444,58.704-38.548,73.473l-19.275,10.902c-9.68,5.48-14.98,16.536-13.188,27.507l5.044,30.983
	c0.487,2.995,2.731,5.401,5.686,6.096l7.947,1.869c1.39,0.328,2.635,1.046,3.6,2.077c0.971,1.038,1.605,2.325,1.844,3.779
	c0,0.001-0.021,0.075-0.097,0.075H78.487c-3.751,0-6.828-2.822-7.157-6.556l-6.627-76.269c25.147-15.003,35.927-46.238,25.114-73.67
	l-0.004-0.011c-0.032-0.092-0.066-0.184-0.103-0.274c-7.702-19.397-5.354-40.393,6.441-57.605
	c11.803-17.224,30.515-26.999,51.437-26.813c56.794,0.504,91.255-0.08,102.427-1.734c25.699-3.808,50.697-15.735,66.868-31.907
	c3.847-3.847,6.559-8.174,8.49-12.813c3.541,6.883,8.349,13.797,14.911,20.107c1.454,1.398,3.327,2.094,5.197,2.094
	c1.969,0,3.935-0.771,5.407-2.301c2.871-2.986,2.778-7.734-0.208-10.605c-19.653-18.898-20.055-45.547-19.905-51.169
	c0.021-0.424,0.034-0.851,0.057-1.272c0.372-6.951,2.181-13.693,5.208-19.832c1.302,40.982,19.294,66.822,35.574,81.907
	c5.131,4.754,10.346,8.706,15.305,11.968L384.194,225.276z M451.071,88.416l-4.894,10.65c-1.959,4.265-5.861,7.344-10.458,8.261
	l-38.573,5.467c-3.623,0.513-6.268,3.538-6.435,7.064l-0.797,12.881c-3.255-8.672-5.313-17.891-5.088-27.144
	c0.276-11.343,2.871-19.189,7.502-22.69c2.326-1.758,7.461-2.727,12.343-3.26c5.465-0.597,10.966-0.666,16.453-0.323
	c8.779,0.549,25.463,1.593,25.463,1.593c2.514,0.157,3.787,1.849,4.218,2.569S452.123,86.127,451.071,88.416z"/>
<g>
</g>
<g>
</g>
<g>
</g>
<g>
</g>
<g>
</g>
<g>
</g>
<g>
</g>
<g>
</g>
<g>
</g>
<g>
</g>
<g>
</g>
<g>
</g>
<g>
</g>
<g>
</g>
<g>
</g>
</svg>
