<?xml version="1.0" encoding="utf-8"?>
<!-- Generator: Adobe Illustrator 15.0.0, SVG Export Plug-In . SVG Version: 6.00 Build 0)  -->
<!DOCTYPE svg PUBLIC "-//W3C//DTD SVG 1.1//EN" "http://www.w3.org/Graphics/SVG/1.1/DTD/svg11.dtd">
<svg version="1.1" xmlns="http://www.w3.org/2000/svg" xmlns:xlink="http://www.w3.org/1999/xlink" x="0px" y="0px"
	 width="96.392px" height="81.667px" viewBox="0 0 96.392 81.667" enable-background="new 0 0 96.392 81.667" xml:space="preserve">
<g id="Layer_1">
	<path display="none" fill="#DCCA37" d="M287.299,156.13c0.019,2.854-2.29,5.192-5.145,5.207l-112.586,0.57
		c-2.862,0.012-5.195-2.302-5.213-5.156l-0.057-11.056c-0.011-2.858,2.296-5.196,5.161-5.211l112.585-0.564
		c2.857-0.017,5.189,2.298,5.201,5.156L287.299,156.13z M304.507,78.457c-0.117-23.054-18.966-41.715-42.02-41.6
		c-2.815,0.016-5.563,0.312-8.214,0.864c4.294,9.277,6.841,20.826,6.903,33.434c0.06,11.776-2.061,22.602-5.748,31.599
		l-11.475,0.057c4.291-8.307,6.928-19.535,6.861-31.604c-0.125-24.99-11.787-46.059-25.469-45.99
		c-13.674,0.068-25.131,21.265-25,46.259c0.06,12.067,2.818,23.255,7.181,31.521l-11.465,0.059
		c-3.791-8.963-6.017-19.763-6.076-31.542c-0.061-12.652,2.378-24.222,6.602-33.56c-2.529-0.476-5.139-0.734-7.811-0.723
		c-23.058,0.12-41.718,18.969-41.6,42.022c0.064,12.873,6.001,24.365,15.211,31.991c-0.227,0.88-0.324,1.792-0.313,2.73l0.014,3.227
		c0.031,5.965,4.84,10.877,10.801,10.849l105.954-0.539c5.966-0.03,10.366-4.986,10.337-10.953l-0.019-3.222
		c-0.003-0.835,0.102-1.648-0.083-2.426C298.421,103.189,304.576,91.491,304.507,78.457z M225.401-8.302
		c-5.995,0.031-10.853,4.934-10.823,10.933c0.033,6.006,4.938,10.862,10.935,10.831c5.998-0.029,10.853-4.934,10.82-10.943
		C236.305-3.477,231.4-8.332,225.401-8.302z"/>
	<path opacity="0.15" fill="#667E74" d="M53.479,47.652c0.001,0.245-0.197,0.446-0.442,0.447l-9.678,0.05
		c-0.246,0.001-0.446-0.198-0.448-0.443l-0.005-0.95c0-0.246,0.198-0.447,0.444-0.448l9.678-0.049
		c0.245-0.001,0.445,0.197,0.446,0.443L53.479,47.652z M54.958,40.975c-0.011-1.981-1.631-3.585-3.612-3.575
		c-0.242,0.001-0.479,0.026-0.706,0.073c0.369,0.798,0.588,1.791,0.594,2.874c0.005,1.013-0.178,1.943-0.494,2.717l-0.986,0.005
		c0.368-0.714,0.595-1.68,0.59-2.717c-0.011-2.148-1.014-3.959-2.189-3.953s-2.16,1.828-2.149,3.976
		c0.005,1.038,0.242,1.999,0.617,2.71l-0.985,0.005c-0.325-0.771-0.517-1.698-0.522-2.711c-0.005-1.088,0.205-2.082,0.568-2.885
		c-0.218-0.041-0.442-0.063-0.672-0.063c-1.982,0.011-3.586,1.631-3.576,3.612c0.006,1.106,0.517,2.095,1.308,2.75
		c-0.02,0.075-0.027,0.153-0.026,0.234l0.001,0.277c0.002,0.513,0.416,0.936,0.929,0.933l9.106-0.046
		c0.514-0.003,0.892-0.429,0.889-0.941l-0.001-0.277c0-0.071,0.009-0.142-0.008-0.209C54.435,43.101,54.964,42.096,54.958,40.975z
		 M48.158,33.518c-0.516,0.002-0.934,0.424-0.931,0.939c0.003,0.517,0.425,0.934,0.939,0.931c0.516-0.002,0.934-0.424,0.931-0.94
		C49.096,33.932,48.674,33.515,48.158,33.518z"/>
</g>
<g id="Layer_3">
</g>
<g id="Layer_2">
</g>
</svg>
