<?xml version="1.0" encoding="utf-8"?>
<!-- Generator: Adobe Illustrator 15.0.0, SVG Export Plug-In . SVG Version: 6.00 Build 0)  -->
<!DOCTYPE svg PUBLIC "-//W3C//DTD SVG 1.1//EN" "http://www.w3.org/Graphics/SVG/1.1/DTD/svg11.dtd">
<svg version="1.1" id="Layer_1" xmlns="http://www.w3.org/2000/svg" xmlns:xlink="http://www.w3.org/1999/xlink" x="0px" y="0px"
	 width="525.219px" height="165.503px" viewBox="0 0 525.219 165.503" enable-background="new 0 0 525.219 165.503"
	 xml:space="preserve">
<g>
	<defs>
		<rect id="SVGID_1_" y="-9.498" width="529" height="180"/>
	</defs>
	<clipPath id="SVGID_2_">
		<use xlink:href="#SVGID_1_"  overflow="visible"/>
	</clipPath>
	<g clip-path="url(#SVGID_2_)">
		<g>
			<path fill="#D10B0B" d="M113.103,134.847c-2.769,8.259-32.211,0.276-118.792,29.232l-6.225-99.204
				c0,0,29.335-16.332,101.769-22.847C89.854,42.029,118.757,117.986,113.103,134.847z"/>
			<linearGradient id="SVGID_3_" gradientUnits="userSpaceOnUse" x1="-11.9141" y1="103.0542" x2="113.8359" y2="103.0542">
				<stop  offset="0" style="stop-color:#EDB682"/>
				<stop  offset="0.1387" style="stop-color:#F4D1B0"/>
				<stop  offset="0.4088" style="stop-color:#FAEADA"/>
				<stop  offset="0.6898" style="stop-color:#FEFAF6"/>
				<stop  offset="1" style="stop-color:#FFFFFF"/>
			</linearGradient>
			<path fill="url(#SVGID_3_)" d="M113.103,134.847c-2.769,8.259-32.211,0.276-118.792,29.232l-6.225-99.204
				c0,0,29.335-16.332,101.769-22.847C89.854,42.029,118.757,117.986,113.103,134.847z"/>
			<path fill="#E80C0C" d="M475.401,74.651c-16.722-7.672-37.32-15.815-61.016-22.657c-20.615-5.961-43.543-10.938-68.331-13.746
				h-0.044c-0.087,4.116-0.087,8.449-0.046,13.064c0.809,3.056-1.921,6.745-6.508,10.924c-9.859,8.967-28.298,20.179-38.897,32.204
				c-4.21,4.779-7.188,9.674-7.897,14.614c0,0,0,0,0,0.058c0.088,2.833,0.123,4.556,0.123,5.003c0,0.05,0,0.108,0,0.108
				c0.351,1.665,0.965,3.332,1.962,4.996c5.474,9.343,79.459-21.168,228.679-18.226C523.426,100.994,505.825,88.613,475.401,74.651z
				"/>
			<linearGradient id="SVGID_4_" gradientUnits="userSpaceOnUse" x1="292.6621" y1="79.6265" x2="523.4258" y2="79.6265">
				<stop  offset="0" style="stop-color:#EDB682"/>
				<stop  offset="0.1387" style="stop-color:#F4D1B0"/>
				<stop  offset="0.4088" style="stop-color:#FAEADA"/>
				<stop  offset="0.6898" style="stop-color:#FEFAF6"/>
				<stop  offset="1" style="stop-color:#FFFFFF"/>
			</linearGradient>
			<path fill="url(#SVGID_4_)" d="M475.401,74.651c-16.722-7.672-37.32-15.815-61.016-22.657
				c-20.615-5.961-43.543-10.938-68.331-13.746h-0.044c-0.087,4.116-0.087,8.449-0.046,13.064c0.809,3.056-1.921,6.745-6.508,10.924
				c-9.859,8.967-28.298,20.179-38.897,32.204c-4.21,4.779-7.188,9.674-7.897,14.614c0,0,0,0,0,0.058
				c0.088,2.833,0.123,4.556,0.123,5.003c0,0.05,0,0.108,0,0.108c0.351,1.665,0.965,3.332,1.962,4.996
				c5.474,9.343,79.459-21.168,228.679-18.226C523.426,100.994,505.825,88.613,475.401,74.651z"/>
			<g>
				<defs>
					<path id="SVGID_5_" d="M113.103,134.847c-2.769,8.259-32.211,0.276-118.792,29.232l-6.225-99.204
						c0,0,29.335-16.332,101.769-22.847C89.854,42.029,118.757,117.986,113.103,134.847z"/>
				</defs>
				<clipPath id="SVGID_6_">
					<use xlink:href="#SVGID_5_"  overflow="visible"/>
				</clipPath>
				
					<radialGradient id="SVGID_7_" cx="120.2129" cy="-5.3188" r="37.6482" gradientTransform="matrix(-1.2588 0.1681 -0.5765 -4.3172 244.2064 56.3319)" gradientUnits="userSpaceOnUse">
					<stop  offset="0" style="stop-color:#8A1313"/>
					<stop  offset="1" style="stop-color:#FFFFFF"/>
				</radialGradient>
				<path clip-path="url(#SVGID_6_)" fill="url(#SVGID_7_)" d="M48.562,105.836C36.581,16.059,48.088-59.552,74.25-63.044
					c26.165-3.498,57.11,66.445,69.088,156.219c11.99,89.778,0.505,165.377-25.669,168.874
					C91.498,265.535,60.55,195.604,48.562,105.836z"/>
				
					<radialGradient id="SVGID_8_" cx="148.6631" cy="-3.4688" r="37.6489" gradientTransform="matrix(-1.1189 0.1494 -0.4739 -3.5492 222.6143 39.1771)" gradientUnits="userSpaceOnUse">
					<stop  offset="0" style="stop-color:#8A1313"/>
					<stop  offset="1" style="stop-color:#FFFFFF"/>
				</radialGradient>
				<path clip-path="url(#SVGID_6_)" fill="url(#SVGID_8_)" d="M15.796,79.323C5.946,5.518,16.825-56.832,40.081-59.935
					c23.257-3.11,50.115,54.202,59.961,128.005c9.856,73.807-1.001,136.145-24.269,139.254
					C52.511,210.422,25.652,153.122,15.796,79.323z"/>
				
					<radialGradient id="SVGID_9_" cx="213.8486" cy="-10.0088" r="37.6492" gradientTransform="matrix(-1.1189 0.1494 -0.4739 -3.5492 222.6143 39.1771)" gradientUnits="userSpaceOnUse">
					<stop  offset="0.0547" style="stop-color:#F26666"/>
					<stop  offset="0.2014" style="stop-color:#B04A4A"/>
					<stop  offset="0.3426" style="stop-color:#793333"/>
					<stop  offset="0.4722" style="stop-color:#4E2121"/>
					<stop  offset="0.6389" style="stop-color:#2A1212"/>
					<stop  offset="0.8241" style="stop-color:#090404"/>
					<stop  offset="1" style="stop-color:#000000"/>
				</radialGradient>
				<path clip-path="url(#SVGID_6_)" fill="url(#SVGID_9_)" d="M-54.042,112.273c-9.849-73.806,1.028-136.155,24.285-139.259
					c23.257-3.11,50.115,54.202,59.962,128.005c9.856,73.807-1.002,136.147-24.269,139.254
					C-17.327,243.371-44.186,186.07-54.042,112.273z"/>
			</g>
			<g>
				<defs>
					<path id="SVGID_10_" d="M475.401,74.651c-16.722-7.672-37.32-15.815-61.016-22.657c-20.615-5.961-43.543-10.938-68.331-13.746
						h-0.044c-0.087,4.116-0.087,8.449-0.046,13.064c0.809,3.056-1.921,6.745-6.508,10.924
						c-9.859,8.967-28.298,20.179-38.897,32.204c-4.21,4.779-7.188,9.674-7.897,14.614c0,0,0,0,0,0.058
						c0.088,2.833,0.123,4.556,0.123,5.003c0,0.05,0,0.108,0,0.108c0.351,1.665,0.965,3.332,1.962,4.996
						c5.474,9.343,79.459-21.168,228.679-18.226C523.426,100.994,505.825,88.613,475.401,74.651z"/>
				</defs>
				<clipPath id="SVGID_11_">
					<use xlink:href="#SVGID_10_"  overflow="visible"/>
				</clipPath>
				
					<radialGradient id="SVGID_12_" cx="389.499" cy="-207.4897" r="103.156" gradientTransform="matrix(-0.0651 -0.2913 0.9774 -0.2185 528.1239 177.777)" gradientUnits="userSpaceOnUse">
					<stop  offset="0" style="stop-color:#8A1313"/>
					<stop  offset="1" style="stop-color:#FFFFFF"/>
				</radialGradient>
				<path clip-path="url(#SVGID_11_)" fill="url(#SVGID_12_)" d="M293.253,79.605c55.681-12.446,103.827-9.078,107.553,7.522
					c3.685,16.586-38.445,40.119-94.133,52.573c-55.687,12.433-103.828,9.069-107.542-7.514
					C195.427,115.605,237.559,92.066,293.253,79.605z"/>
				
					<radialGradient id="SVGID_13_" cx="483.6318" cy="-158.2588" r="103.1594" gradientTransform="matrix(0.3377 0.046 -0.1351 0.9924 157.01 199.7207)" gradientUnits="userSpaceOnUse">
					<stop  offset="0" style="stop-color:#8A1313"/>
					<stop  offset="1" style="stop-color:#FFFFFF"/>
				</radialGradient>
				<path clip-path="url(#SVGID_11_)" fill="url(#SVGID_13_)" d="M376.549,69.656c-7.695,56.533-29.537,100.238-48.79,97.631
					c-19.219-2.638-28.57-50.585-20.881-107.128c7.712-56.537,29.546-100.237,48.776-97.627
					C374.878-34.848,384.232,13.104,376.549,69.656z"/>
				
					<radialGradient id="SVGID_14_" cx="825.2119" cy="-197.1963" r="103.1543" gradientTransform="matrix(0.3497 0.169 -0.6619 1.37 30.0192 199.4646)" gradientUnits="userSpaceOnUse">
					<stop  offset="0.0547" style="stop-color:#F26666"/>
					<stop  offset="0.2014" style="stop-color:#B04A4A"/>
					<stop  offset="0.3426" style="stop-color:#793333"/>
					<stop  offset="0.4722" style="stop-color:#4E2121"/>
					<stop  offset="0.6389" style="stop-color:#2A1212"/>
					<stop  offset="0.8241" style="stop-color:#090404"/>
					<stop  offset="1" style="stop-color:#000000"/>
				</radialGradient>
				<path clip-path="url(#SVGID_11_)" fill="url(#SVGID_14_)" d="M485.188,86.198c-37.708,78.046-84.435,133.509-104.374,123.898
					c-19.891-9.645-5.467-80.708,32.241-158.769C450.783-26.72,497.5-82.179,517.413-72.57
					C537.321-62.95,522.896,8.123,485.188,86.198z"/>
				
					<radialGradient id="SVGID_15_" cx="753.1279" cy="-216.6426" r="103.1519" gradientTransform="matrix(0.3982 0.2433 -0.9729 1.5928 -66.8771 155.4683)" gradientUnits="userSpaceOnUse">
					<stop  offset="0.0401" style="stop-color:#A0A0A0"/>
					<stop  offset="0.1861" style="stop-color:#6C6C6C"/>
					<stop  offset="0.3212" style="stop-color:#515151"/>
					<stop  offset="0.4599" style="stop-color:#363636"/>
					<stop  offset="0.6314" style="stop-color:#1B1B1B"/>
					<stop  offset="0.8102" style="stop-color:#070707"/>
					<stop  offset="1" style="stop-color:#000000"/>
				</radialGradient>
				<path clip-path="url(#SVGID_11_)" fill="url(#SVGID_15_)" d="M484.86,18.729c-55.424,90.74-118.752,153.061-141.461,139.219
					c-22.644-13.878,3.902-98.656,59.326-189.413c55.446-90.735,118.761-153.052,141.441-139.216
					C566.833-156.833,540.288-72.045,484.86,18.729z"/>
			</g>
			<g>
				<defs>
					<path id="SVGID_16_" d="M345.965,98.379c-1.803,14.845-59.666,2.72-51.218,20.84c-3.497-4.058-2.84-22.113-2.62-39.592
						C319.972,78.103,347.695,84.123,345.965,98.379z"/>
				</defs>
				<use xlink:href="#SVGID_16_"  overflow="visible" fill="#C40A0A"/>
				<clipPath id="SVGID_17_">
					<use xlink:href="#SVGID_16_"  overflow="visible"/>
				</clipPath>
				
					<radialGradient id="SVGID_18_" cx="88.9814" cy="-68.5566" r="37.6475" gradientTransform="matrix(-0.062 0.5839 -3.5607 -0.378 93.3476 11.0322)" gradientUnits="userSpaceOnUse">
					<stop  offset="0" style="stop-color:#8A1313"/>
					<stop  offset="1" style="stop-color:#FFFFFF"/>
				</radialGradient>
				<path clip-path="url(#SVGID_17_)" fill="url(#SVGID_18_)" d="M329.61,110.884c-74.043-7.863-133.021-24.08-131.731-36.215
					c1.285-12.137,62.355-15.61,136.396-7.747c74.047,7.86,133.019,24.066,131.73,36.207
					C464.709,115.266,403.648,118.742,329.61,110.884z"/>
				
					<radialGradient id="SVGID_19_" cx="79.9268" cy="-56.6113" r="48.1523" gradientTransform="matrix(0.0713 0.5828 -2.2072 0.27 179.989 83.7934)" gradientUnits="userSpaceOnUse">
					<stop  offset="0.0547" style="stop-color:#F26666"/>
					<stop  offset="0.2014" style="stop-color:#B04A4A"/>
					<stop  offset="0.3426" style="stop-color:#793333"/>
					<stop  offset="0.4722" style="stop-color:#4E2121"/>
					<stop  offset="0.6389" style="stop-color:#2A1212"/>
					<stop  offset="0.8241" style="stop-color:#090404"/>
					<stop  offset="1" style="stop-color:#000000"/>
				</radialGradient>
				<path clip-path="url(#SVGID_17_)" fill="url(#SVGID_19_)" d="M314.075,143.151c-58.707,7.179-107.823,0.423-109.72-15.064
					c-1.895-15.499,44.153-33.883,102.858-41.061c58.699-7.176,107.816-0.44,109.716,15.06
					C418.814,117.581,372.776,135.973,314.075,143.151z"/>
			</g>
			<g>
				<defs>
					<path id="SVGID_20_" d="M58.256,123.54c2.603,14.649,54.847-2.536,54.847,11.307c2.838-4.827-0.462-22.403-3.25-39.517
						C82.281,100.539,56.134,111.596,58.256,123.54z"/>
				</defs>
				<use xlink:href="#SVGID_20_"  overflow="visible" fill="#C40A0A"/>
				<clipPath id="SVGID_21_">
					<use xlink:href="#SVGID_20_"  overflow="visible"/>
				</clipPath>
				
					<radialGradient id="SVGID_22_" cx="136.1143" cy="-2.1357" r="37.6487" gradientTransform="matrix(0.1639 0.5638 -3.4383 0.9996 59.2033 32.0414)" gradientUnits="userSpaceOnUse">
					<stop  offset="0" style="stop-color:#8A1313"/>
					<stop  offset="1" style="stop-color:#FFFFFF"/>
				</radialGradient>
				<path clip-path="url(#SVGID_21_)" fill="url(#SVGID_22_)" d="M95.03,127.872C23.53,148.656-37.195,156-40.6,144.282
					c-3.411-11.718,51.788-38.077,123.286-58.859c71.501-20.788,132.216-28.141,135.625-16.418
					C221.711,80.729,166.523,107.086,95.03,127.872z"/>
				
					<radialGradient id="SVGID_23_" cx="81.4917" cy="40.6738" r="48.1526" gradientTransform="matrix(-0.0364 0.586 -2.2194 -0.138 185.3269 92.7071)" gradientUnits="userSpaceOnUse">
					<stop  offset="0.0547" style="stop-color:#F26666"/>
					<stop  offset="0.2014" style="stop-color:#B04A4A"/>
					<stop  offset="0.3426" style="stop-color:#793333"/>
					<stop  offset="0.4722" style="stop-color:#4E2121"/>
					<stop  offset="0.6389" style="stop-color:#2A1212"/>
					<stop  offset="0.8241" style="stop-color:#090404"/>
					<stop  offset="1" style="stop-color:#000000"/>
				</radialGradient>
				<path clip-path="url(#SVGID_21_)" fill="url(#SVGID_23_)" d="M90.338,163.065c-59.031-3.671-106.083-19.291-105.119-34.864
					c0.971-15.583,49.603-25.243,108.63-21.569c59.022,3.674,106.081,19.274,105.116,34.86
					C197.986,157.069,149.362,166.737,90.338,163.065z"/>
			</g>
			<path fill="#E80C0C" d="M324.882,11.277C261.152-2.107,142.406-7.474,58.135,34.095c-14.78,7.291-11.982,16.045-9.749,23.137
				c2.401,7.622,4.887,20.68,5.537,26.473c3.303,29.436,4.334,39.835,4.334,39.835c1.887-10.618,28.766-18.952,50.93-24.232
				c72.049-17.168,232.191-23.763,236.816-0.929c-0.041-4.615-0.041-8.949,0.045-13.063c0.141-6.012,0.418-11.475,0.794-16.492
				c0.877-11.704,2.274-20.792,3.626-27.939C354.964,17.144,338.27,14.089,324.882,11.277z"/>
			<g>
				<defs>
					<path id="SVGID_24_" d="M324.882,11.277C261.152-2.107,142.406-7.474,58.135,34.095c-14.78,7.291-11.982,16.045-9.749,23.137
						c2.401,7.622,4.887,20.68,5.537,26.473c3.303,29.436,4.334,39.835,4.334,39.835c1.887-10.618,28.766-18.952,50.93-24.232
						c72.049-17.168,232.191-23.763,236.816-0.929c-0.041-4.615-0.041-8.949,0.045-13.063c0.141-6.012,0.418-11.475,0.794-16.492
						c0.877-11.704,2.274-20.792,3.626-27.939C354.964,17.144,338.27,14.089,324.882,11.277z"/>
				</defs>
				<linearGradient id="SVGID_25_" gradientUnits="userSpaceOnUse" x1="46.5908" y1="62.5391" x2="351.2158" y2="62.5391">
					<stop  offset="0" style="stop-color:#EDB682"/>
					<stop  offset="0.1387" style="stop-color:#F4D1B0"/>
					<stop  offset="0.4088" style="stop-color:#FAEADA"/>
					<stop  offset="0.6898" style="stop-color:#FEFAF6"/>
					<stop  offset="1" style="stop-color:#FFFFFF"/>
				</linearGradient>
				<use xlink:href="#SVGID_24_"  overflow="visible" fill="url(#SVGID_25_)"/>
				<clipPath id="SVGID_26_">
					<use xlink:href="#SVGID_24_"  overflow="visible"/>
				</clipPath>
				
					<radialGradient id="SVGID_27_" cx="-122.0391" cy="1.1875" r="59.6235" gradientTransform="matrix(1.0266 -0.1793 0.6094 3.4899 182.6993 35.6796)" gradientUnits="userSpaceOnUse">
					<stop  offset="0.0401" style="stop-color:#A0A0A0"/>
					<stop  offset="0.1861" style="stop-color:#6C6C6C"/>
					<stop  offset="0.3212" style="stop-color:#515151"/>
					<stop  offset="0.4599" style="stop-color:#363636"/>
					<stop  offset="0.6314" style="stop-color:#1B1B1B"/>
					<stop  offset="0.8102" style="stop-color:#070707"/>
					<stop  offset="1" style="stop-color:#000000"/>
				</radialGradient>
				<path clip-path="url(#SVGID_26_)" fill="url(#SVGID_27_)" d="M119.343,51.006c20.099,114.917,8.927,212.873-24.869,218.785
					c-33.822,5.896-77.488-82.482-97.546-197.409c-20.083-114.91-8.954-212.854,24.846-218.762
					C55.61-152.287,99.262-63.906,119.343,51.006z"/>
				
					<radialGradient id="SVGID_28_" cx="268.8604" cy="-3.7344" r="59.6187" gradientTransform="matrix(1.2447 0.5821 -1.5007 3.2091 -33.1925 -130.4362)" gradientUnits="userSpaceOnUse">
					<stop  offset="0.0547" style="stop-color:#F26666"/>
					<stop  offset="0.2014" style="stop-color:#B04A4A"/>
					<stop  offset="0.3426" style="stop-color:#793333"/>
					<stop  offset="0.4722" style="stop-color:#4E2121"/>
					<stop  offset="0.6389" style="stop-color:#2A1212"/>
					<stop  offset="0.8241" style="stop-color:#090404"/>
					<stop  offset="1" style="stop-color:#000000"/>
				</radialGradient>
				<path clip-path="url(#SVGID_26_)" fill="url(#SVGID_28_)" d="M381.261,48.783C331.873,154.477,258.539,224.58,217.565,205.424
					c-40.993-19.178-34.139-120.376,15.301-226.047c49.395-105.68,122.677-175.803,163.665-156.642
					C437.55-158.074,430.667-56.889,381.261,48.783z"/>
				
					<radialGradient id="SVGID_29_" cx="137.9937" cy="-10.4473" r="59.6182" gradientTransform="matrix(0.6505 0.3042 -1.0904 2.3316 62.6577 -14.36)" gradientUnits="userSpaceOnUse">
					<stop  offset="0.0547" style="stop-color:#F26666"/>
					<stop  offset="0.2014" style="stop-color:#B04A4A"/>
					<stop  offset="0.3426" style="stop-color:#793333"/>
					<stop  offset="0.4722" style="stop-color:#4E2121"/>
					<stop  offset="0.6389" style="stop-color:#2A1212"/>
					<stop  offset="0.8241" style="stop-color:#090404"/>
					<stop  offset="1" style="stop-color:#000000"/>
				</radialGradient>
				<path clip-path="url(#SVGID_26_)" fill="url(#SVGID_29_)" d="M202.591,21.392C166.7,98.18,120.204,152.287,98.79,142.279
					c-21.422-10.025-9.667-80.382,26.25-157.16c35.895-76.78,82.363-130.899,103.783-120.886
					C250.26-125.736,238.491-55.384,202.591,21.392z"/>
				
					<radialGradient id="SVGID_30_" cx="437.252" cy="-8.3418" r="59.6221" gradientTransform="matrix(0.4817 0.0555 -0.406 3.5194 130.61 53.5079)" gradientUnits="userSpaceOnUse">
					<stop  offset="0.0401" style="stop-color:#A0A0A0"/>
					<stop  offset="0.1861" style="stop-color:#6C6C6C"/>
					<stop  offset="0.3212" style="stop-color:#515151"/>
					<stop  offset="0.4599" style="stop-color:#363636"/>
					<stop  offset="0.6314" style="stop-color:#1B1B1B"/>
					<stop  offset="0.8102" style="stop-color:#070707"/>
					<stop  offset="1" style="stop-color:#000000"/>
				</radialGradient>
				<path clip-path="url(#SVGID_26_)" fill="url(#SVGID_30_)" d="M373.34,51.722c-13.357,115.895-37.07,208.356-52.928,206.538
					c-15.868-1.842-17.886-97.273-4.508-213.168c13.362-115.884,37.055-208.347,52.913-206.522
					C384.693-159.596,386.703-64.164,373.34,51.722z"/>
			</g>
		</g>
		<g>
			<g>
				<path display="none" fill="#FFFFFF" d="M123.133,43.238l-1.019-3.935c-0.876-3.382-1.47-6.202-1.337-8.755
					C116.118,31.05,110.612,31,107.4,31.832c-4.36,1.129-5.267,2.976-4.815,4.72s2.537,2.611,5.132,1.939
					c2.85-0.738,4.187-2.764,4.187-2.764l0.662,0.804c0,0-1.718,2.306-4.568,3.044c-3.786,0.98-6.433-0.649-7.11-3.266
					c-0.722-2.787,0.334-5.897,5.566-7.252c4.829-1.25,10.226-0.832,14.643-0.864c0.634-2.547,2.168-4.511,4.274-5.056
					c1.829-0.474,3.154,0.522,3.518,1.926c0.617,2.382-1.463,4.079-4.462,4.855c-0.34,0.088-0.702,0.182-1.054,0.228
					c0.151,1.459,0.454,3.242,1.016,5.411l1.785,6.892l2.851-0.738l-0.111,1.413l-2.404,0.623l1.355,5.232
					c1.239,4.786,1.688,6.871,0.399,9.43c-1.09,2.188-3.594,4.176-7.529,5.195c-4.871,1.262-9.879-0.46-10.947-4.587
					c-1.19-4.594,3.384-7.617,4.408-8.132l0.651,0.762c-1.116,1.038-2.921,3.094-2.018,6.583c0.958,3.701,4.137,5.193,7.838,4.235
					c4.147-1.074,6.448-3.849,4.74-10.443l-1.939-7.487l-4.126,1.069l0.089-1.408L123.133,43.238z M123.357,28.154
					c0.905-0.098,1.762-0.207,2.507-0.399c1.531-0.396,1.933-1.477,1.707-2.349c-0.215-0.83-1.024-1.324-1.896-1.098
					C124.399,24.638,123.486,25.76,123.357,28.154z"/>
				<path display="none" fill="#FFFFFF" d="M142.404,47.738l0.121-0.496l1.021,0.482l-0.121,0.496
					c-1.762,6.698-2.826,9.546-4.804,9.96c-2.559,0.536-4.394-2.334-6.415-11.988c-2.858-13.652-1.562-19.893,1.319-20.496
					c0.86-0.18,1.648,0.261,2.035,2.11c0.892,4.257,0.51,13.156-0.043,19.085c1.816,6.958,2.661,8.532,3.715,8.311
					C140.285,54.982,141.364,51.771,142.404,47.738z M133.617,27.742c-0.967,0.203-0.139,8.983,1.152,15.58
					c0.301-5.314,0.195-11.396-0.499-14.707C134.145,28.013,133.939,27.675,133.617,27.742z"/>
				<path display="none" fill="#FFFFFF" d="M157.922,52.042c0.845-0.145,1.72-1.923,3.151-6.694l0.419-1.454l1.003,0.519
					l-0.419,1.454c-1.609,5.292-2.802,8.462-4.621,8.775c-1.906,0.328-2.942-1.813-3.603-4.486
					c-0.935,2.992-2.503,5.536-4.496,5.878c-2.901,0.499-6.064-1.432-6.947-6.563c-1.031-5.998,1.624-10.779,5.435-11.434
					c2.316-0.398,4.35,1.704,4.919,2.81l-0.102-2.145c-0.06-1.127,1.916-1.823,2.371-1.901c0.346-0.06,0.448,0.012,0.507,0.358
					c0.153,0.888-0.231,5.524,0.904,12.128C156.728,50.932,157.208,52.165,157.922,52.042z M148.397,39.301
					c-2.49,0.428-3.929,3.729-3.18,8.082c0.741,4.309,2.637,6.391,4.867,6.007c1.949-0.335,3.919-4.041,2.997-9.41
					C152.623,41.316,150.432,38.951,148.397,39.301z"/>
				<path display="none" fill="#FFFFFF" d="M173.507,52.296l-0.517-4.121c-1.054,2.9-3.049,4.656-5.055,4.908
					c-2.726,0.341-5.607-1.978-6.307-7.56c-0.587-4.688,1.017-9.916,5.356-10.46c1.701-0.213,3.383,0.307,4.552,1.512l-0.033-0.262
					c-0.139-1.112,1.324-1.982,2.218-2.094c0.501-0.063,0.692,0.046,0.73,0.352c0.058,0.458,0.077,2.028,0.47,5.167l1.186,9.463
					c1.231-2.015,2.776-4.888,3.765-7.603l0.164-0.463l0.979,0.564l-0.163,0.463c-1.043,2.988-3.07,6.608-4.509,8.914l0.593,4.732
					c0.672,5.364-1.083,7.621-3.765,7.957c-1.657,0.208-3.039-0.749-3.263-2.537C169.589,58.678,171.308,55.783,173.507,52.296z
					 M172.718,45.995l-0.771-6.149c-0.33-2.639-2.326-4.072-4.114-3.848c-2.813,0.352-3.711,4.141-3.258,7.761
					c0.557,4.448,2.035,7.23,4.412,6.933C170.775,50.468,172.358,47.9,172.718,45.995z M174.132,57.29l-0.407-3.249
					c-1.684,2.647-2.825,5.027-2.59,6.902c0.112,0.894,0.736,1.635,1.63,1.523C173.703,62.348,174.692,61.759,174.132,57.29z"/>
				<path display="none" fill="#FFFFFF" d="M219.247,19.762c0.332,6.912-6.914,12.669-13.501,15.185
					c6.611,5.313,8.217,19.069,20.219,18.493l0.131,0.896c0,0-0.889,0.263-2.469,0.338c-15.228,0.73-14.601-14.167-19.741-19.088
					c-0.586,0.16-1.153,0.275-1.697,0.389c0.159,4.237,0.107,5.911-0.033,7.567c-0.418,4.573-2.178,6.417-4.876,6.546
					c-3.818,0.184-6.952-4.175-7.361-12.71c-0.646-13.472,7.854-24.239,19.746-24.81C215.743,12.277,219.043,15.527,219.247,19.762z
					 M198.811,32.949c-0.405-5.699-0.795-9.705-0.795-9.705s0.439-0.461,1.339-0.504c1.338-0.064,2.259,0.332,2.314,1.472
					c0.165,3.445,0.305,6.363,0.385,8.933c0.956,0.218,1.832,0.594,2.623,1.04c5.328-1.729,11.15-5.967,10.786-13.56
					c-0.238-4.959-3.253-6.837-6.852-6.665c-8.974,0.431-16.924,8.465-16.105,25.536c0.238,4.959,1.364,9.633,4.282,9.494
					c1.558-0.075,2.875-1.04,2.573-7.337c-0.109-2.282-0.165-3.423-0.307-5.483c-1.132-0.209-1.796-0.771-1.837-1.627
					C197.18,33.797,197.788,33.174,198.811,32.949z M198.958,35.097l-0.049-1.031c-0.413,0.107-0.582,0.248-0.573,0.423
					C198.349,34.774,198.359,34.994,198.958,35.097z M202.135,34.856c0.219-0.01,0.458-0.066,0.676-0.12
					c-0.226-0.121-0.473-0.241-0.697-0.319L202.135,34.856z"/>
				<path display="none" fill="#FFFFFF" d="M220.239,39.542l-0.217,0.44l-0.217,0.463l-0.905-0.675l0.217-0.463
					c1.476-2.976,1.763-6.295,2.152-7.199c0.325-0.683,1.489-0.91,1.796-0.912c0.637-0.004,0.814,0.214,0.818,0.896
					c0.004,0.659-0.604,5.41-0.571,10.529c0.023,3.691,0.794,3.994,1.475,3.99c0.945-0.006,2.232-1.442,4.945-6.909l0.239-0.463
					l0.905,0.676l-0.239,0.463c-2.17,4.364-4.384,8.794-6.691,8.809c-2.373,0.015-3.483-1.736-3.517-7.142
					c-0.004-0.747-0.01-1.604,0.028-2.505L220.239,39.542z M222.873,28.495c-0.989,0.006-1.807-0.758-1.813-1.791
					c-0.006-0.989,0.802-1.807,1.791-1.813c1.033-0.006,1.807,0.802,1.813,1.791C224.67,27.715,223.906,28.489,222.873,28.495z"/>
				<path display="none" fill="#FFFFFF" d="M237.029,48.153c1.846,0.043,3.092-1.51,3.746-4.067
					c-3.017-0.731-5.65-3.717-5.557-7.694c0.078-3.274,1.92-4.945,3.963-4.897c2.417,0.057,5.23,2.872,5.102,8.321
					c-0.024,1.033-0.179,2.018-0.421,2.958c1.394-0.385,2.646-1.235,3.428-2.711l0.252-0.456l0.885,0.702l-0.252,0.456
					c-1.036,1.954-2.822,3.121-4.764,3.427c-1.147,2.963-3.441,5.151-6.54,5.078c-4.373-0.103-7.433-3.649-7.196-13.668
					c0.33-13.953,3.226-19.292,6.17-19.223c0.901,0.021,1.546,0.63,1.501,2.52c-0.103,4.351-2.504,12.934-4.396,18.583
					C232.879,44.229,234.327,48.089,237.029,48.153z M235.468,18.392c-0.989-0.023-2.185,8.72-2.431,15.442
					c1.527-5.108,2.789-11.059,2.869-14.442C235.92,18.776,235.797,18.4,235.468,18.392z M241.025,42.794
					c0.151-0.81,0.216-1.709,0.238-2.654c0.099-4.175-1.223-6.866-2.717-6.901c-0.989-0.023-1.829,1.078-1.874,3.012
					C236.591,39.722,238.6,42.144,241.025,42.794z"/>
				<path display="none" fill="#FFFFFF" d="M254.277,48.804c1.843,0.108,3.143-1.401,3.885-3.934
					c-2.99-0.835-5.518-3.911-5.286-7.883c0.191-3.27,2.09-4.875,4.131-4.756c2.414,0.141,5.128,3.052,4.81,8.493
					c-0.06,1.031-0.25,2.011-0.524,2.942c1.407-0.336,2.687-1.142,3.52-2.591l0.268-0.447l0.86,0.733l-0.268,0.447
					c-1.103,1.917-2.929,3.021-4.88,3.26c-1.25,2.921-3.618,5.028-6.712,4.848c-4.367-0.255-7.302-3.905-6.717-13.911
					c0.814-13.933,3.894-19.169,6.834-18.998c0.9,0.053,1.523,0.684,1.413,2.571c-0.253,4.344-2.952,12.839-5.039,18.42
					C250.266,44.739,251.579,48.646,254.277,48.804z M253.75,19.006c-0.987-0.058-2.486,8.64-2.966,15.349
					c1.704-5.052,3.172-10.955,3.369-14.334C254.189,19.406,254.08,19.026,253.75,19.006z M258.457,43.588
					c0.179-0.804,0.276-1.701,0.331-2.645c0.244-4.169-0.983-6.905-2.476-6.992c-0.987-0.058-1.865,1.014-1.978,2.945
					C254.132,40.363,256.056,42.854,258.457,43.588z"/>
				<path display="none" fill="#FFFFFF" d="M283.402,43.021l-0.283,0.437c-1.166,1.878-3.029,2.919-4.986,3.091
					c-1.35,2.876-3.788,4.901-6.873,4.615c-4.486-0.416-6.891-4.7-6.433-9.645c0.599-6.455,5.752-8.956,6.912-8.849l0.213,0.792
					c0,0-3.381,1.716-3.996,8.347c-0.375,4.048,0.847,8.001,3.538,8.251c1.838,0.17,3.188-1.293,4.016-3.799
					c-2.959-0.937-5.38-4.096-5.013-8.057c0.302-3.26,2.255-4.801,4.29-4.612c2.408,0.223,5.019,3.224,4.517,8.651
					c-0.096,1.028-0.318,2-0.625,2.921c1.418-0.288,2.725-1.05,3.605-2.469l0.283-0.437L283.402,43.021z M275.849,44.991
					c0.206-0.797,0.333-1.69,0.42-2.631c0.387-4.158-0.747-6.933-2.235-7.071c-0.985-0.091-1.898,0.949-2.077,2.875
					C271.638,41.621,273.475,44.175,275.849,44.991z"/>
				<path display="none" fill="#FFFFFF" d="M285.496,42.1c-0.41,2.54-0.887,5.604-1.318,9.005c-0.113,0.894-1.955,1.104-2.631,1.018
					c-0.438-0.055-0.873-0.288-0.76-1.182c0.107-0.85,0.721-2.722,1.203-4.079l1.352-10.663c0.074-0.588,0.113-0.894,0.223-1.057
					c0.451-0.763,2.031-0.651,2.533-0.587c0.48,0.061,0.627,0.301,0.541,0.977c0.012-0.087-0.365,1.482-0.809,4.284
					c2.09-2.504,4.76-4.692,7.18-4.385c2.18,0.276,2.971,1.905,2.676,4.238c-0.379,2.987-1.889,7.382-2.262,10.326
					c-0.123,0.981,0.146,1.481,0.713,1.553c0.764,0.097,2.105-1.063,5.844-6.615l0.277-0.43l0.809,0.789l-0.277,0.43
					c-4.369,6.514-6.334,8.038-8.254,7.794c-1.242-0.157-2.432-0.906-2.141-3.218c0.443-3.489,2.301-9.058,2.613-11.522
					c0.135-1.068-0.232-1.846-1.17-1.965C290.225,36.606,287.248,39.463,285.496,42.1z"/>
			</g>
			<g display="none">
				<path display="inline" fill="#FFFFFF" d="M294.543,63.287c-0.162,3.712-3.305,6.589-7.018,6.426l-51.621-2.267
					c-3.711-0.163-6.588-3.304-6.425-7.017l0,0c0.162-3.712,3.304-6.589,7.016-6.426l51.623,2.266
					C291.828,56.433,294.706,59.575,294.543,63.287L294.543,63.287z"/>
				<g display="inline">
					<path fill="#BD0D0D" d="M241.895,56.344c1.93,0.094,2.818,1.031,2.747,2.514c-0.04,0.827-0.574,1.524-1.323,1.777
						c0.88,0.306,1.61,1.249,1.556,2.377c-0.07,1.456-1.069,2.513-3.247,2.408c-1.063-0.051-1.915-0.119-2.898-0.18l-0.074-0.096
						l0.426-8.806l0.084-0.088C240.122,56.285,241.028,56.302,241.895,56.344z M240.23,61.118l-0.153,3.176
						c0.551,0.026,1.102,0.04,1.588,0.063c1.417,0.068,1.75-0.823,1.782-1.492c0.032-0.656-0.305-1.606-1.708-1.674L240.23,61.118z
						 M240.283,60.042l1.377,0.066c1.234,0.06,1.545-0.661,1.575-1.278c0.031-0.643-0.184-1.364-1.418-1.423
						c-0.367-0.018-0.984-0.048-1.403-0.081L240.283,60.042z"/>
					<path fill="#BD0D0D" d="M247.786,63.483l-0.802,2.158c-0.172,0.031-0.396,0.034-0.606,0.023
						c-0.25-0.012-0.496-0.063-0.678-0.125l-0.036-0.067l3.394-8.728c0.213-0.029,0.581-0.025,0.803-0.014
						c0.224,0.011,0.591,0.042,0.785,0.091l2.511,9.014c-0.204,0.122-0.521,0.158-0.822,0.144c-0.434-0.021-0.649-0.189-0.792-0.774
						l-0.412-1.559c-0.222-0.011-0.683-0.021-0.788-0.025l-1.797-0.087C248.442,63.527,248.009,63.494,247.786,63.483z
						 M248.195,62.372c0.21,0.01,0.565,0.014,0.669,0.02l1.313,0.063c0.092,0.004,0.445,0.035,0.655,0.045l-0.512-1.933
						c-0.199-0.772-0.43-1.705-0.581-2.409l-0.064-0.003c-0.161,0.584-0.437,1.4-0.605,1.878L248.195,62.372z"/>
					<path fill="#BD0D0D" d="M261.58,57.363l-0.433,8.937c-0.224,0.029-0.672,0.034-0.843,0.025
						c-0.17-0.008-0.563-0.041-0.837-0.093l-2.529-5.634c-0.283-0.672-0.529-1.302-0.737-1.864l-0.054,0.01
						c0.009,0.909,0.011,2.237-0.037,3.221l-0.198,4.094c-0.238,0.028-0.463,0.031-0.646,0.021
						c-0.183-0.009-0.432-0.034-0.653-0.084l0.433-8.95c0.226-0.029,0.66-0.034,0.831-0.026c0.184,0.009,0.563,0.041,0.837,0.094
						l2.503,5.632c0.295,0.698,0.551,1.395,0.773,1.944l0.054-0.011c-0.015-1.052,0.011-2.406,0.055-3.312l0.158-3.268
						c0.029-0.616,0.227-0.857,0.79-0.83l0.459,0.022L261.58,57.363z"/>
					<path fill="#BD0D0D" d="M270.505,57.795l-0.433,8.937c-0.225,0.029-0.673,0.034-0.843,0.025
						c-0.171-0.008-0.564-0.041-0.837-0.094l-2.53-5.634c-0.283-0.671-0.528-1.301-0.737-1.864l-0.054,0.011
						c0.009,0.908,0.011,2.237-0.037,3.221l-0.198,4.094c-0.238,0.028-0.463,0.03-0.646,0.021c-0.184-0.009-0.433-0.034-0.654-0.084
						l0.433-8.95c0.226-0.029,0.661-0.034,0.831-0.026c0.184,0.009,0.563,0.041,0.837,0.093l2.503,5.633
						c0.296,0.698,0.551,1.395,0.773,1.944l0.054-0.011c-0.015-1.053,0.011-2.407,0.055-3.312l0.158-3.268
						c0.029-0.616,0.227-0.857,0.79-0.83l0.46,0.022L270.505,57.795z"/>
					<path fill="#BD0D0D" d="M278.072,66.488c-0.102,0.442-0.426,0.637-0.926,0.613l-3.897-0.188
						c-0.499-0.024-0.784-0.367-0.758-0.905l0.389-8.031l0.096-0.074l5.274,0.255c0.029,0.212,0.021,0.396,0.014,0.553
						s-0.047,0.418-0.135,0.625l-3.111-0.15c-0.196-0.01-0.525-0.013-0.826-0.04c-0.017,0.341-0.013,0.512-0.029,0.853l-0.089,1.837
						c0.303,0.015,0.618,0.017,0.814,0.026l2.467,0.12c0.043,0.187,0.045,0.423,0.037,0.581c-0.008,0.157-0.031,0.394-0.092,0.574
						l-2.468-0.12c-0.196-0.01-0.511-0.025-0.813-0.053l-0.104,2.152c-0.012,0.236-0.033,0.419-0.046,0.668
						c0.265-0.013,0.527-0.014,0.868,0.003l3.399,0.165C278.131,66.07,278.119,66.306,278.072,66.488z"/>
					<path fill="#BD0D0D" d="M284.283,63.487c0.424,0.179,0.719,0.64,0.877,1.16l0.504,1.563c0.113,0.361,0.254,0.723,0.545,0.974
						c-0.197,0.267-0.613,0.404-0.967,0.387c-0.525-0.025-0.693-0.323-0.877-0.897l-0.57-1.803c-0.193-0.615-0.459-1.101-1.273-1.14
						l-1.076-0.052l-0.174,3.609c-0.213,0.029-0.475,0.03-0.699,0.019c-0.209-0.01-0.484-0.037-0.68-0.086l0.43-8.884l0.084-0.088
						c0.984,0.035,1.932,0.054,2.822,0.097c1.824,0.088,2.934,1.089,2.85,2.834C286.02,62.387,285.256,63.231,284.283,63.487z
						 M281.5,62.563c0.512,0.012,1.09,0.026,1.457,0.044c1.287,0.063,1.641-0.736,1.678-1.497c0.039-0.8-0.238-1.603-1.525-1.665
						c-0.379-0.018-1.01-0.049-1.455-0.083L281.5,62.563z"/>
				</g>
			</g>
		</g>
	</g>
</g>
<g display="none">
	<defs>
		<rect id="SVGID_31_" y="182.41" width="512" height="159.092"/>
	</defs>
	<clipPath id="SVGID_32_" display="inline">
		<use xlink:href="#SVGID_31_"  overflow="visible"/>
	</clipPath>
	<g display="inline" clip-path="url(#SVGID_32_)">
		<g>
			<path fill="#E80C0C" d="M474.227,257.644l24.326-24.953c0,0-54.589-9.026-113.904-0.574v51.94c0,0-5.331,1.502-13.727,4.037
				c-21.554,6.518-63.314,19.885-87.211,32.425c0,0,136.893-34.736,218.559-27.834L474.227,257.644z"/>
			<g>
				<defs>
					<path id="SVGID_33_" d="M89.838,261.891c3.311-2.589,106.785-60.887,129.02-69.138c0,0-118.922,3.834-237.844,46.309
						l16.968,93.377c0,0,64.084-22.937,101.935-32.56C99.917,299.879,89.696,262,89.838,261.891z"/>
				</defs>
				<use xlink:href="#SVGID_33_"  overflow="visible" fill="#E80C0C"/>
				<clipPath id="SVGID_34_">
					<use xlink:href="#SVGID_33_"  overflow="visible"/>
				</clipPath>
				
					<radialGradient id="SVGID_35_" cx="1337.5547" cy="338.9248" r="57.2373" gradientTransform="matrix(-0.8292 0.1913 -0.6291 -2.7264 1375.9205 919.275)" gradientUnits="userSpaceOnUse">
					<stop  offset="0.0547" style="stop-color:#F26666"/>
					<stop  offset="0.2014" style="stop-color:#B04A4A"/>
					<stop  offset="0.3426" style="stop-color:#793333"/>
					<stop  offset="0.4722" style="stop-color:#4E2121"/>
					<stop  offset="0.6389" style="stop-color:#2A1212"/>
					<stop  offset="0.8241" style="stop-color:#090404"/>
					<stop  offset="1" style="stop-color:#000000"/>
				</radialGradient>
				<path clip-path="url(#SVGID_34_)" fill="url(#SVGID_35_)" d="M6.137,262.037c-19.901-86.19-14.759-160.917,11.438-166.98
					c26.21-6.06,63.595,58.904,83.484,145.088c19.867,86.227,14.759,160.974-11.458,167.013
					C63.363,413.219,26.02,348.234,6.137,262.037z"/>
				
					<radialGradient id="SVGID_36_" cx="1555.1953" cy="128.71" r="57.2388" gradientTransform="matrix(-0.1417 -0.3461 1.7317 -0.7091 180.6293 837.9938)" gradientUnits="userSpaceOnUse">
					<stop  offset="0.2" style="stop-color:#B16363"/>
					<stop  offset="0.4242" style="stop-color:#CD9B9B"/>
					<stop  offset="0.7394" style="stop-color:#EFE0E0"/>
					<stop  offset="1" style="stop-color:#FFFFFF"/>
				</radialGradient>
				<path clip-path="url(#SVGID_34_)" fill="url(#SVGID_36_)" d="M175.036,188.662c54.751-22.422,102.747-31.715,107.231-20.784
					c4.479,10.937-36.267,37.984-91.007,60.401c-54.755,22.417-102.76,31.723-107.24,20.783
					C79.549,238.11,120.296,211.083,175.036,188.662z"/>
				
					<radialGradient id="SVGID_37_" cx="1550.7422" cy="97.7002" r="57.2419" gradientTransform="matrix(-0.1796 -0.328 1.2512 -0.685 293.7686 806.7876)" gradientUnits="userSpaceOnUse">
					<stop  offset="0.1455" style="stop-color:#B16363"/>
					<stop  offset="0.3636" style="stop-color:#CD9B9B"/>
					<stop  offset="0.5212" style="stop-color:#E1C3C3"/>
					<stop  offset="0.6667" style="stop-color:#EFE0E0"/>
					<stop  offset="0.8424" style="stop-color:#F9F3F3"/>
					<stop  offset="1" style="stop-color:#FFFFFF"/>
				</radialGradient>
				<path clip-path="url(#SVGID_34_)" fill="url(#SVGID_37_)" d="M127.222,212.442c39.56-21.66,76.22-30.797,81.897-20.436
					c5.677,10.365-21.785,36.332-61.338,57.986c-39.565,21.654-76.228,30.806-81.904,20.438
					C60.205,260.049,87.671,234.101,127.222,212.442z"/>
				
					<radialGradient id="SVGID_38_" cx="1543.8975" cy="71.9497" r="57.2393" gradientTransform="matrix(-0.2489 -0.2791 0.7344 -0.6548 435.1414 731.9834)" gradientUnits="userSpaceOnUse">
					<stop  offset="0.1455" style="stop-color:#B16363"/>
					<stop  offset="0.3636" style="stop-color:#CD9B9B"/>
					<stop  offset="0.5212" style="stop-color:#E1C3C3"/>
					<stop  offset="0.6667" style="stop-color:#EFE0E0"/>
					<stop  offset="0.8424" style="stop-color:#F9F3F3"/>
					<stop  offset="1" style="stop-color:#FFFFFF"/>
				</radialGradient>
				<path clip-path="url(#SVGID_34_)" fill="url(#SVGID_38_)" d="M89.461,237.992c23.219-20.704,48.414-30.32,56.28-21.505
					c7.865,8.82-4.574,32.759-27.79,53.458c-23.224,20.698-48.417,30.328-56.284,21.505C53.8,282.616,66.249,258.693,89.461,237.992
					z"/>
				
					<radialGradient id="SVGID_39_" cx="1559.8184" cy="62.1865" r="57.2388" gradientTransform="matrix(-0.5799 0.1463 -0.3775 -1.4973 1025.5884 166.1058)" gradientUnits="userSpaceOnUse">
					<stop  offset="0.2" style="stop-color:#B16363"/>
					<stop  offset="0.4242" style="stop-color:#CD9B9B"/>
					<stop  offset="0.7394" style="stop-color:#EFE0E0"/>
					<stop  offset="1" style="stop-color:#FFFFFF"/>
				</radialGradient>
				<path clip-path="url(#SVGID_34_)" fill="url(#SVGID_39_)" d="M64.38,309.562c-11.939-47.338-6.741-89.445,11.579-94.07
					c18.329-4.623,42.872,30,54.808,77.33c11.93,47.344,6.749,89.455-11.582,94.078C100.837,391.515,76.322,356.891,64.38,309.562z"
					/>
				
					<radialGradient id="SVGID_40_" cx="1385.3555" cy="373.8242" r="57.2363" gradientTransform="matrix(-0.7971 0.1838 -0.7194 -3.1172 1379.2589 1194.5959)" gradientUnits="userSpaceOnUse">
					<stop  offset="0" style="stop-color:#8A1313"/>
					<stop  offset="1" style="stop-color:#FFFFFF"/>
				</radialGradient>
				<path clip-path="url(#SVGID_34_)" fill="url(#SVGID_40_)" d="M-39.563,294.442c-22.753-98.538-20.747-183.099,4.433-188.923
					c25.193-5.831,64.065,69.346,86.81,167.882c22.723,98.594,20.744,183.165-4.458,188.966
					C22.002,468.183-16.83,393-39.563,294.442z"/>
			</g>
			<path fill="#C40A0A" d="M283.711,286.251c32.175-4.49,66.463-6.048,100.938-2.194c0,0-67.731,19.038-100.938,36.462V286.251z"/>
			<g>
				<defs>
					<path id="SVGID_41_" d="M221.738,230.277v0.049c-71.462,17.051-129.427,30.385-131.899,31.564
						c31.352-23.36,57.34-45.659,129.02-69.138L221.738,230.277z"/>
				</defs>
				<use xlink:href="#SVGID_41_"  overflow="visible" fill="#C40A0A"/>
				<clipPath id="SVGID_42_">
					<use xlink:href="#SVGID_41_"  overflow="visible"/>
				</clipPath>
				
					<radialGradient id="SVGID_43_" cx="196.375" cy="-63.1318" r="34.4697" gradientTransform="matrix(0.1083 0.4767 -4.418 1.0034 -75.8726 189.9749)" gradientUnits="userSpaceOnUse">
					<stop  offset="0" style="stop-color:#8A1313"/>
					<stop  offset="1" style="stop-color:#FFFFFF"/>
				</radialGradient>
				<path clip-path="url(#SVGID_42_)" fill="url(#SVGID_43_)" d="M228.044,236.671c-84.115,19.112-153.984,27.232-156.027,18.16
					c-2.064-9.085,64.447-31.927,148.577-51.025c84.105-19.104,153.953-27.228,156.01-18.165
					C378.665,194.727,312.162,217.575,228.044,236.671z"/>
				
					<radialGradient id="SVGID_44_" cx="216.8115" cy="-37.6787" r="31.1946" gradientTransform="matrix(0.1874 0.4515 -3.6097 1.4981 -74.1019 220.0424)" gradientUnits="userSpaceOnUse">
					<stop  offset="0" style="stop-color:#8A1313"/>
					<stop  offset="1" style="stop-color:#FFFFFF"/>
				</radialGradient>
				<path clip-path="url(#SVGID_42_)" fill="url(#SVGID_44_)" d="M108.384,275.569C46.19,301.39-6.856,316.003-10.069,308.226
					c-3.233-7.788,44.564-35.018,106.773-60.828c62.188-25.813,115.216-40.424,118.438-32.657
					C218.373,222.528,170.584,249.764,108.384,275.569z"/>
			</g>
			<g>
				<defs>
					<path id="SVGID_45_" d="M89.838,261.891c-0.046,0.049,17.392,73.295,17.392,73.295s78.776-35.249,176.48-48.935
						c32.175-4.49,66.463-6.048,100.938-2.194v-71.245C239.581,198.18,139.214,237.471,89.838,261.891z"/>
				</defs>
				<use xlink:href="#SVGID_45_"  overflow="visible" fill="#E80C0C"/>
				<clipPath id="SVGID_46_">
					<use xlink:href="#SVGID_45_"  overflow="visible"/>
				</clipPath>
				
					<radialGradient id="SVGID_47_" cx="713.4404" cy="-62.9893" r="72.5867" gradientTransform="matrix(1.0825 -0.1952 0.4224 2.343 -563.9547 525.1865)" gradientUnits="userSpaceOnUse">
					<stop  offset="0.0547" style="stop-color:#F26666"/>
					<stop  offset="0.2014" style="stop-color:#B04A4A"/>
					<stop  offset="0.3426" style="stop-color:#793333"/>
					<stop  offset="0.4722" style="stop-color:#4E2121"/>
					<stop  offset="0.6389" style="stop-color:#2A1212"/>
					<stop  offset="0.8241" style="stop-color:#090404"/>
					<stop  offset="1" style="stop-color:#000000"/>
				</radialGradient>
				<path clip-path="url(#SVGID_46_)" fill="url(#SVGID_47_)" d="M260.306,224.174c16.966,93.929-4.52,176.423-47.912,184.251
					c-43.398,7.825-92.298-61.991-109.227-155.926c-16.965-93.932,4.498-176.417,47.9-184.245
					C194.478,60.427,243.36,130.237,260.306,224.174z"/>
				
					<radialGradient id="SVGID_48_" cx="960.7021" cy="-93.5693" r="72.5825" gradientTransform="matrix(0.4829 0.0231 -0.0978 2.0389 -173.4114 346.4724)" gradientUnits="userSpaceOnUse">
					<stop  offset="0.0547" style="stop-color:#F26666"/>
					<stop  offset="0.2014" style="stop-color:#B04A4A"/>
					<stop  offset="0.3426" style="stop-color:#793333"/>
					<stop  offset="0.4722" style="stop-color:#4E2121"/>
					<stop  offset="0.6389" style="stop-color:#2A1212"/>
					<stop  offset="0.8241" style="stop-color:#090404"/>
					<stop  offset="1" style="stop-color:#000000"/>
				</radialGradient>
				<path clip-path="url(#SVGID_46_)" fill="url(#SVGID_48_)" d="M334.708,179.566c-3.905,81.744-22.791,147.254-42.146,146.33
					c-19.358-0.929-31.867-67.953-27.944-149.695c3.907-81.745,22.781-147.25,42.141-146.324
					C326.122,30.805,338.625,97.821,334.708,179.566z"/>
				
					<radialGradient id="SVGID_49_" cx="698.7109" cy="-41.2627" r="72.5962" gradientTransform="matrix(0.3339 0.0075 -0.0556 2.4692 141.7479 342.2255)" gradientUnits="userSpaceOnUse">
					<stop  offset="0.0401" style="stop-color:#A0A0A0"/>
					<stop  offset="0.1861" style="stop-color:#6C6C6C"/>
					<stop  offset="0.3212" style="stop-color:#515151"/>
					<stop  offset="0.4599" style="stop-color:#363636"/>
					<stop  offset="0.6314" style="stop-color:#1B1B1B"/>
					<stop  offset="0.8102" style="stop-color:#070707"/>
					<stop  offset="1" style="stop-color:#000000"/>
				</radialGradient>
				<path clip-path="url(#SVGID_46_)" fill="url(#SVGID_49_)" d="M401.581,246.123c-2.224,99.004-14.892,179.01-28.279,178.714
					c-13.387-0.313-22.426-80.808-20.2-179.812c2.228-98.99,14.879-179.001,28.274-178.699
					C394.763,66.618,403.807,147.12,401.581,246.123z"/>
				
					<radialGradient id="SVGID_50_" cx="-49.3721" cy="-40.8926" r="72.5857" gradientTransform="matrix(0.3273 -0.0668 0.4647 2.277 138.3904 381.8809)" gradientUnits="userSpaceOnUse">
					<stop  offset="0.0401" style="stop-color:#A0A0A0"/>
					<stop  offset="0.1861" style="stop-color:#6C6C6C"/>
					<stop  offset="0.3212" style="stop-color:#515151"/>
					<stop  offset="0.4599" style="stop-color:#363636"/>
					<stop  offset="0.6314" style="stop-color:#1B1B1B"/>
					<stop  offset="0.8102" style="stop-color:#070707"/>
					<stop  offset="1" style="stop-color:#000000"/>
				</radialGradient>
				<path clip-path="url(#SVGID_46_)" fill="url(#SVGID_50_)" d="M126.982,287.214c18.634,91.293,23.091,167.467,9.974,170.148
					c-13.121,2.669-38.854-69.166-57.484-160.457c-18.634-91.282-23.105-167.457-9.979-170.136
					C82.604,124.082,108.347,195.922,126.982,287.214z"/>
			</g>
			<g>
				<defs>
					<path id="SVGID_51_" d="M283.711,286.251c32.175-4.49,66.463-6.048,100.938-2.194c0,0-67.731,19.038-100.938,36.462V286.251z"
						/>
				</defs>
				<clipPath id="SVGID_52_">
					<use xlink:href="#SVGID_51_"  overflow="visible"/>
				</clipPath>
				
					<radialGradient id="SVGID_53_" cx="399.041" cy="-83.4238" r="34.4648" gradientTransform="matrix(0.0307 0.4879 -5.6018 0.353 -142.2553 116.6275)" gradientUnits="userSpaceOnUse">
					<stop  offset="0" style="stop-color:#8A1313"/>
					<stop  offset="1" style="stop-color:#FFFFFF"/>
				</radialGradient>
				<path clip-path="url(#SVGID_52_)" fill="url(#SVGID_53_)" d="M338.383,298.683c-106.658,6.729-193.6,4.638-194.167-4.641
					c-0.582-9.301,85.393-22.276,192.068-28.984c106.64-6.729,193.558-4.64,194.139,4.635
					C531.009,278.988,445.039,291.973,338.383,298.683z"/>
				
					<radialGradient id="SVGID_54_" cx="434.6914" cy="-79.5947" r="34.4639" gradientTransform="matrix(0.2251 0.6627 -5.3146 1.8054 -192.8746 168.3826)" gradientUnits="userSpaceOnUse">
					<stop  offset="0.0547" style="stop-color:#F26666"/>
					<stop  offset="0.2014" style="stop-color:#B04A4A"/>
					<stop  offset="0.3426" style="stop-color:#793333"/>
					<stop  offset="0.4722" style="stop-color:#4E2121"/>
					<stop  offset="0.6389" style="stop-color:#2A1212"/>
					<stop  offset="0.8241" style="stop-color:#090404"/>
					<stop  offset="1" style="stop-color:#000000"/>
				</radialGradient>
				<path clip-path="url(#SVGID_52_)" fill="url(#SVGID_54_)" d="M335.75,335.584c-101.188,34.387-186.701,52.014-190.965,39.406
					c-4.287-12.634,74.258-50.719,175.47-85.08c101.17-34.381,186.658-52.003,190.934-39.407
					C515.478,263.13,436.942,301.228,335.75,335.584z"/>
			</g>
			<g>
				<defs>
					<path id="SVGID_55_" d="M474.227,257.644l24.326-24.953c0,0-54.589-9.026-113.904-0.574v51.94c0,0-5.331,1.502-13.727,4.037
						c-21.554,6.518-63.314,19.885-87.211,32.425c0,0,136.893-34.736,218.559-27.834L474.227,257.644z"/>
				</defs>
				<clipPath id="SVGID_56_">
					<use xlink:href="#SVGID_55_"  overflow="visible"/>
				</clipPath>
				
					<radialGradient id="SVGID_57_" cx="743.9902" cy="156.248" r="68.019" gradientTransform="matrix(0.644 -0.0419 0.1609 2.4737 -66.1258 -97.7822)" gradientUnits="userSpaceOnUse">
					<stop  offset="0.0547" style="stop-color:#F26666"/>
					<stop  offset="0.2014" style="stop-color:#B04A4A"/>
					<stop  offset="0.3426" style="stop-color:#793333"/>
					<stop  offset="0.4722" style="stop-color:#4E2121"/>
					<stop  offset="0.6389" style="stop-color:#2A1212"/>
					<stop  offset="0.8241" style="stop-color:#090404"/>
					<stop  offset="1" style="stop-color:#000000"/>
				</radialGradient>
				<path clip-path="url(#SVGID_56_)" fill="url(#SVGID_57_)" d="M481.948,254.712c6.054,92.943-8.678,169.516-32.849,171.105
					c-24.185,1.584-48.689-72.479-54.759-165.404c-6.023-92.943,8.672-169.536,32.869-171.119
					C451.417,87.734,475.915,161.78,481.948,254.712z"/>
				
					<radialGradient id="SVGID_58_" cx="981.3828" cy="170.9531" r="57.2432" gradientTransform="matrix(-0.0563 -0.1825 1.6319 -0.5037 88.5968 573.6604)" gradientUnits="userSpaceOnUse">
					<stop  offset="0.1455" style="stop-color:#B16363"/>
					<stop  offset="0.3636" style="stop-color:#CD9B9B"/>
					<stop  offset="0.5212" style="stop-color:#E1C3C3"/>
					<stop  offset="0.6667" style="stop-color:#EFE0E0"/>
					<stop  offset="0.8424" style="stop-color:#F9F3F3"/>
					<stop  offset="1" style="stop-color:#FFFFFF"/>
				</radialGradient>
				<path clip-path="url(#SVGID_56_)" fill="url(#SVGID_58_)" d="M309.105,298c51.596-15.928,94.843-24.149,96.63-18.387
					c1.78,5.77-38.594,23.354-90.182,39.28c-51.606,15.927-94.865,24.156-96.645,18.382C217.134,331.5,257.511,313.922,309.105,298z
					"/>
				
					<radialGradient id="SVGID_59_" cx="1011.4824" cy="200.6709" r="57.2422" gradientTransform="matrix(-0.0563 -0.1825 1.2393 -0.3825 147.0915 555.8002)" gradientUnits="userSpaceOnUse">
					<stop  offset="0.1455" style="stop-color:#B16363"/>
					<stop  offset="0.3636" style="stop-color:#CD9B9B"/>
					<stop  offset="0.5212" style="stop-color:#E1C3C3"/>
					<stop  offset="0.6667" style="stop-color:#EFE0E0"/>
					<stop  offset="0.8424" style="stop-color:#F9F3F3"/>
					<stop  offset="1" style="stop-color:#FFFFFF"/>
				</radialGradient>
				<path clip-path="url(#SVGID_56_)" fill="url(#SVGID_59_)" d="M335.616,284c39.182-12.097,72.369-17.215,74.156-11.45
					c1.779,5.77-28.533,20.249-67.708,32.344c-39.189,12.094-72.387,17.218-74.167,11.444
					C266.121,310.563,296.436,296.09,335.616,284z"/>
				
					<radialGradient id="SVGID_60_" cx="1235.2412" cy="221.6904" r="57.2451" gradientTransform="matrix(-0.479 0.0166 -0.0449 -1.2962 982.2228 519.3969)" gradientUnits="userSpaceOnUse">
					<stop  offset="0.1455" style="stop-color:#B16363"/>
					<stop  offset="0.3636" style="stop-color:#CD9B9B"/>
					<stop  offset="0.5212" style="stop-color:#E1C3C3"/>
					<stop  offset="0.6667" style="stop-color:#EFE0E0"/>
					<stop  offset="0.8424" style="stop-color:#F9F3F3"/>
					<stop  offset="1" style="stop-color:#FFFFFF"/>
				</radialGradient>
				<path clip-path="url(#SVGID_56_)" fill="url(#SVGID_60_)" d="M353.165,253.491c-1.426-40.981,9.708-74.608,24.845-75.14
					c15.145-0.523,28.573,32.266,30.001,73.241c1.415,40.988-9.711,74.626-24.866,75.148
					C367.988,327.261,354.577,294.47,353.165,253.491z"/>
				
					<radialGradient id="SVGID_61_" cx="1217.3115" cy="245.8125" r="57.2432" gradientTransform="matrix(-0.1667 -0.4494 0.9114 -0.3381 335.9417 920.5753)" gradientUnits="userSpaceOnUse">
					<stop  offset="0.1455" style="stop-color:#B16363"/>
					<stop  offset="0.3636" style="stop-color:#CD9B9B"/>
					<stop  offset="0.5212" style="stop-color:#E1C3C3"/>
					<stop  offset="0.6667" style="stop-color:#EFE0E0"/>
					<stop  offset="0.8424" style="stop-color:#F9F3F3"/>
					<stop  offset="1" style="stop-color:#FFFFFF"/>
				</radialGradient>
				<path clip-path="url(#SVGID_56_)" fill="url(#SVGID_61_)" d="M347.512,264.678c28.813-10.692,56.436-7.826,61.705,6.373
					c5.268,14.208-13.814,34.389-42.623,45.081c-28.822,10.686-56.448,7.829-61.719-6.39
					C299.604,295.522,318.695,275.357,347.512,264.678z"/>
				
					<radialGradient id="SVGID_62_" cx="1342.1465" cy="373.3281" r="57.2441" gradientTransform="matrix(0.4762 -0.0545 0.214 1.8674 -236.1138 -374.6789)" gradientUnits="userSpaceOnUse">
					<stop  offset="0.1455" style="stop-color:#B16363"/>
					<stop  offset="0.3636" style="stop-color:#CD9B9B"/>
					<stop  offset="0.5212" style="stop-color:#E1C3C3"/>
					<stop  offset="0.6667" style="stop-color:#EFE0E0"/>
					<stop  offset="0.8424" style="stop-color:#F9F3F3"/>
					<stop  offset="1" style="stop-color:#FFFFFF"/>
				</radialGradient>
				<path clip-path="url(#SVGID_56_)" fill="url(#SVGID_62_)" d="M510.17,246.212c6.771,59.038,0.038,108.276-15.007,110.006
					c-15.056,1.723-32.744-44.729-39.516-103.761c-6.761-59.052-0.04-108.3,15.026-110.022
					C485.74,140.715,503.412,187.174,510.17,246.212z"/>
			</g>
		</g>
		<g>
			<g>
				<path fill="#FFFFFF" d="M158.925,262.485l-1.291-3.853c-1.111-3.313-1.9-6.082-1.946-8.639
					c-4.612,0.827-10.106,1.164-13.252,2.219c-4.27,1.431-5.044,3.336-4.472,5.043c0.572,1.709,2.714,2.428,5.255,1.575
					c2.791-0.936,3.981-3.05,3.981-3.05l0.718,0.756c0,0-1.552,2.42-4.343,3.356c-3.708,1.243-6.461-0.196-7.32-2.759
					c-0.915-2.729-0.079-5.904,5.044-7.623c4.729-1.585,10.14-1.545,14.543-1.887c0.455-2.586,1.847-4.65,3.909-5.342
					c1.792-0.602,3.182,0.299,3.644,1.674c0.781,2.333-1.174,4.17-4.111,5.154c-0.333,0.113-0.687,0.231-1.034,0.301
					c0.253,1.445,0.68,3.201,1.393,5.326l2.262,6.748l2.791-0.936l-0.011,1.418l-2.354,0.789l1.719,5.123
					c1.571,4.687,2.165,6.734,1.058,9.377c-0.934,2.26-3.292,4.417-7.145,5.709c-4.77,1.599-9.885,0.232-11.24-3.809
					c-1.508-4.498,2.842-7.834,3.827-8.419l0.702,0.715c-1.04,1.112-2.696,3.29-1.551,6.706c1.216,3.623,4.489,4.89,8.113,3.674
					c4.062-1.361,6.161-4.29,3.997-10.746l-2.458-7.332l-4.041,1.355l-0.01-1.411L158.925,262.485z M158.093,247.426
					c0.896-0.162,1.743-0.329,2.473-0.574c1.499-0.502,1.823-1.607,1.537-2.461c-0.272-0.813-1.113-1.248-1.968-0.963
					C158.886,243.847,158.054,245.029,158.093,247.426z"/>
				<path fill="#FFFFFF" d="M178.403,265.421l0.078-0.505l1.06,0.393l-0.078,0.506c-1.183,6.828-2,9.759-3.938,10.34
					c-2.504,0.754-4.579-1.95-7.421-11.401c-4.018-13.366-3.26-19.699-0.438-20.546c0.842-0.254,1.665,0.119,2.209,1.929
					c1.253,4.167,1.635,13.072,1.59,19.03c2.406,6.781,3.383,8.277,4.415,7.968C176.911,272.824,177.712,269.531,178.403,265.421z
					 M167.932,246.237c-0.947,0.285,0.631,8.968,2.483,15.435c-0.155-5.324-0.781-11.379-1.756-14.62
					C168.482,246.463,168.248,246.143,167.932,246.237z"/>
				<path fill="#FFFFFF" d="M194.27,268.244c0.827-0.226,1.528-2.08,2.494-6.969l0.277-1.487l1.048,0.42l-0.277,1.488
					c-1.093,5.423-1.977,8.694-3.757,9.181c-1.865,0.51-3.104-1.521-4.018-4.119c-0.644,3.068-1.961,5.752-3.91,6.285
					c-2.842,0.774-6.176-0.844-7.548-5.867c-1.604-5.872,0.581-10.889,4.312-11.906c2.268-0.62,4.495,1.277,5.168,2.324
					l-0.308-2.126c-0.167-1.116,1.732-1.999,2.178-2.121c0.339-0.093,0.447-0.03,0.54,0.309c0.237,0.869,0.3,5.522,2.065,11.987
					C192.975,267.254,193.57,268.436,194.27,268.244z M183.562,256.475c-2.438,0.666-3.553,4.092-2.39,8.353
					c1.152,4.218,3.24,6.108,5.424,5.513c1.908-0.521,3.514-4.4,2.078-9.656C187.962,258.076,185.555,255.932,183.562,256.475z"/>
				<path fill="#FFFFFF" d="M209.881,266.83l-0.961-4.039c-0.733,2.996-2.524,4.959-4.492,5.426
					c-2.672,0.637-5.788-1.355-7.089-6.828c-1.094-4.597-0.066-9.968,4.188-10.979c1.667-0.396,3.396-0.062,4.689,1.008
					l-0.062-0.256c-0.259-1.091,1.101-2.114,1.978-2.322c0.492-0.116,0.693-0.03,0.765,0.27c0.107,0.449,0.296,2.007,1.028,5.086
					l2.206,9.278c1.005-2.137,2.229-5.16,2.917-7.967l0.112-0.479l1.033,0.454l-0.112,0.479c-0.712,3.082-2.333,6.9-3.513,9.35
					l1.104,4.639c1.25,5.26-0.249,7.693-2.879,8.318c-1.625,0.387-3.103-0.414-3.52-2.166
					C206.679,273.6,208.073,270.535,209.881,266.83z M208.411,260.652l-1.433-6.028c-0.615-2.587-2.755-3.794-4.508-3.378
					c-2.758,0.656-3.239,4.52-2.396,8.068c1.036,4.361,2.809,6.967,5.139,6.412C206.967,265.311,208.262,262.586,208.411,260.652z
					 M211.045,271.727l-0.758-3.186c-1.386,2.814-2.263,5.303-1.825,7.142c0.208,0.876,0.909,1.546,1.786,1.337
					C211.168,276.801,212.086,276.109,211.045,271.727z"/>
				<path fill="#FFFFFF" d="M251.392,229.039c1.188,6.82-5.287,13.438-11.513,16.752c7.223,4.453,10.527,17.908,22.369,15.844
					l0.241,0.873c0,0-0.85,0.371-2.408,0.643c-15.025,2.619-16.256-12.247-21.97-16.492c-0.563,0.231-1.11,0.416-1.637,0.597
					c0.686,4.186,0.842,5.854,0.909,7.516c0.153,4.591-1.364,6.64-4.027,7.104c-3.767,0.657-7.42-3.28-8.888-11.702
					c-2.316-13.293,4.783-25.036,16.518-27.082C246.983,222.045,250.664,224.861,251.392,229.039z M232.745,244.67
					c-1.11-5.605-1.996-9.533-1.996-9.533s0.38-0.514,1.267-0.668c1.321-0.23,2.284,0.049,2.48,1.174
					c0.592,3.399,1.095,6.279,1.492,8.819c0.977,0.098,1.893,0.362,2.733,0.706c5.073-2.379,10.325-7.31,9.021-14.801
					c-0.853-4.893-4.079-6.383-7.63-5.764c-8.855,1.543-15.747,10.508-12.812,27.352c0.853,4.893,2.551,9.393,5.431,8.891
					c1.537-0.268,2.725-1.39,1.642-7.604c-0.392-2.251-0.589-3.377-0.986-5.404c-1.149-0.067-1.879-0.543-2.026-1.387
					C231.232,245.715,231.758,245.021,232.745,244.67z M233.159,246.784l-0.178-1.017c-0.396,0.158-0.547,0.317-0.517,0.491
					C232.514,246.539,232.552,246.756,233.159,246.784z M236.282,246.15c0.217-0.037,0.447-0.123,0.656-0.203
					c-0.238-0.092-0.5-0.181-0.731-0.229L236.282,246.15z"/>
				<path fill="#FFFFFF" d="M254.809,248.527l-0.158,0.465l-0.155,0.487l-0.985-0.554l0.156-0.486
					c1.079-3.141,0.935-6.472,1.205-7.418c0.234-0.719,1.359-1.094,1.664-1.137c0.632-0.086,0.836,0.108,0.928,0.783
					c0.089,0.653,0.1,5.443,0.792,10.517c0.499,3.659,1.303,3.859,1.978,3.767c0.937-0.128,2.028-1.719,4.013-7.49l0.178-0.489
					l0.984,0.553l-0.177,0.49c-1.589,4.608-3.213,9.288-5.5,9.601c-2.351,0.32-3.678-1.272-4.409-6.629
					c-0.101-0.74-0.217-1.59-0.295-2.488L254.809,248.527z M255.995,237.23c-0.98,0.135-1.89-0.518-2.029-1.541
					c-0.134-0.98,0.563-1.896,1.542-2.029c1.023-0.14,1.896,0.563,2.029,1.541C257.677,236.225,257.019,237.092,255.995,237.23z"/>
				<path fill="#FFFFFF" d="M272.57,254.878c1.835-0.199,2.864-1.903,3.176-4.522c-3.086-0.326-6.088-2.938-6.519-6.891
					c-0.354-3.254,1.251-5.152,3.281-5.373c2.402-0.262,5.561,2.156,6.151,7.571c0.111,1.026,0.088,2.023-0.028,2.986
					c1.33-0.565,2.458-1.571,3.038-3.138l0.19-0.484l0.97,0.579l-0.191,0.485c-0.768,2.072-2.384,3.464-4.268,4.022
					c-0.746,3.087-2.73,5.557-5.81,5.892c-4.347,0.475-7.845-2.637-8.93-12.594c-1.512-13.867,0.654-19.539,3.581-19.857
					c0.895-0.098,1.615,0.42,1.818,2.299c0.472,4.324-0.776,13.145-1.907,18.99C267.942,251.538,269.885,255.172,272.57,254.878z
					 M267.104,225.6c-0.983,0.107-1.017,8.927-0.375,15.619c0.841-5.264,1.307-11.324,0.94-14.687
					C267.604,225.92,267.432,225.563,267.104,225.6z M275.824,249.044c0.043-0.823-0.011-1.723-0.113-2.661
					c-0.452-4.149-2.116-6.642-3.601-6.48c-0.983,0.107-1.67,1.309-1.46,3.23C271.026,246.584,273.336,248.718,275.824,249.044z"/>
				<path fill="#FFFFFF" d="M289.768,253.242c1.841-0.138,2.928-1.806,3.328-4.413c-3.072-0.432-5.985-3.146-6.281-7.11
					c-0.244-3.266,1.425-5.108,3.463-5.261c2.41-0.181,5.485,2.345,5.891,7.778c0.077,1.03,0.02,2.027-0.129,2.984
					c1.349-0.52,2.511-1.487,3.145-3.033l0.207-0.479l0.948,0.613l-0.206,0.479c-0.839,2.045-2.502,3.381-4.404,3.875
					c-0.852,3.061-2.919,5.463-6.009,5.693c-4.36,0.326-7.752-2.902-8.498-12.895c-1.039-13.914,1.319-19.51,4.256-19.729
					c0.898-0.068,1.6,0.475,1.74,2.359c0.324,4.338-1.225,13.113-2.554,18.919C285.254,249.745,287.072,253.443,289.768,253.242z
					 M285.3,223.785c-0.986,0.074-1.319,8.891-0.907,15.602c1.02-5.231,1.692-11.275,1.44-14.65
					C285.787,224.123,285.628,223.762,285.3,223.785z M293.219,247.52c0.071-0.82,0.048-1.723-0.022-2.664
					c-0.312-4.164-1.89-6.712-3.38-6.601c-0.985,0.073-1.713,1.251-1.569,3.181C288.506,244.896,290.742,247.109,293.219,247.52z"/>
				<path fill="#FFFFFF" d="M317.866,243.668l-0.224,0.471c-0.91,2.016-2.62,3.291-4.538,3.719c-0.96,3.028-3.111,5.355-6.208,5.477
					c-4.501,0.176-7.447-3.755-7.642-8.717c-0.254-6.479,4.527-9.635,5.69-9.68l0.315,0.758c0,0-3.126,2.145-2.866,8.799
					c0.159,4.063,1.89,7.82,4.59,7.715c1.845-0.072,2.99-1.701,3.483-4.293c-3.056-0.539-5.871-3.355-6.027-7.328
					c-0.128-3.273,1.606-5.057,3.648-5.136c2.416-0.095,5.399,2.538,5.612,7.983c0.04,1.032-0.053,2.025-0.235,2.979
					c1.367-0.472,2.563-1.398,3.251-2.92l0.223-0.471L317.866,243.668z M310.636,246.612c0.101-0.817,0.109-1.72,0.072-2.664
					c-0.162-4.172-1.65-6.774-3.144-6.716c-0.988,0.038-1.757,1.189-1.681,3.122C306.02,243.824,308.176,246.115,310.636,246.612z"
					/>
				<path fill="#FFFFFF" d="M319.841,242.484c-0.083,2.572-0.163,5.67-0.156,9.1c0.002,0.9-1.799,1.344-2.48,1.346
					c-0.439,0-0.901-0.174-0.903-1.074c-0.002-0.857,0.367-2.793,0.672-4.199l-0.023-10.748c-0.001-0.592-0.003-0.9,0.085-1.076
					c0.35-0.814,1.933-0.905,2.438-0.906c0.483-0.002,0.659,0.219,0.661,0.898c0-0.087-0.172,1.518-0.254,4.354
					c1.752-2.752,4.12-5.262,6.56-5.268c2.198-0.005,3.19,1.51,3.195,3.861c0.007,3.01-0.928,7.562-0.922,10.528
					c0.002,0.989,0.333,1.45,0.904,1.448c0.77-0.002,1.953-1.322,4.95-7.307l0.219-0.463l0.903,0.68l-0.219,0.462
					c-3.501,7.019-5.255,8.78-7.189,8.784c-1.253,0.004-2.528-0.588-2.533-2.916c-0.008-3.517,1.122-9.277,1.116-11.76
					c-0.002-1.078-0.466-1.803-1.41-1.8C323.826,236.433,321.24,239.646,319.841,242.484z"/>
			</g>
			<g>
				<path fill="#FFFFFF" d="M336.58,263.289c0.326,3.698-2.412,6.965-6.115,7.291l-51.472,4.517c-3.7,0.325-6.966-2.412-7.289-6.116
					l0,0c-0.326-3.699,2.411-6.963,6.112-7.289l51.476-4.518C332.992,256.849,336.256,259.587,336.58,263.289L336.58,263.289z"/>
				<g>
					<path fill="#BD0D0D" d="M283.429,263.307c1.926-0.16,2.928,0.652,3.051,2.132c0.069,0.825-0.368,1.586-1.077,1.936
						c0.912,0.188,1.76,1.026,1.854,2.153c0.121,1.453-0.73,2.631-2.903,2.813c-1.061,0.088-1.914,0.133-2.897,0.201l-0.087-0.085
						l-0.73-8.786l0.071-0.098C281.664,263.48,282.563,263.379,283.429,263.307z M282.314,267.183l1.375-0.114
						c1.23-0.103,1.444-0.858,1.394-1.474c-0.054-0.642-0.361-1.327-1.592-1.226c-0.366,0.031-0.982,0.082-1.402,0.104
						L282.314,267.183z M282.403,268.257l0.264,3.168c0.551-0.046,1.1-0.104,1.584-0.145c1.414-0.118,1.627-1.046,1.571-1.714
						c-0.054-0.654-0.513-1.552-1.913-1.436L282.403,268.257z"/>
					<path fill="#BD0D0D" d="M290.204,269.611l-0.512,2.244c-0.167,0.053-0.389,0.085-0.598,0.103
						c-0.249,0.021-0.501,0.002-0.689-0.035l-0.044-0.062l2.222-9.098c0.207-0.057,0.572-0.101,0.795-0.119s0.591-0.035,0.789-0.013
						l3.67,8.606c-0.185,0.147-0.495,0.226-0.796,0.251c-0.433,0.036-0.668-0.103-0.886-0.665l-0.612-1.49
						c-0.223,0.018-0.68,0.068-0.785,0.078l-1.793,0.148C290.86,269.569,290.428,269.593,290.204,269.611z M290.464,268.456
						c0.209-0.018,0.563-0.06,0.667-0.069l1.31-0.108c0.092-0.008,0.446-0.024,0.655-0.042l-0.761-1.848
						c-0.299-0.74-0.649-1.634-0.892-2.313l-0.064,0.006c-0.083,0.6-0.249,1.444-0.354,1.941L290.464,268.456z"/>
					<path fill="#BD0D0D" d="M303.078,261.737l0.742,8.915c-0.22,0.059-0.662,0.122-0.832,0.136
						c-0.171,0.015-0.564,0.034-0.843,0.017l-3.245-5.253c-0.369-0.628-0.695-1.222-0.976-1.751l-0.052,0.018
						c0.128,0.898,0.302,2.215,0.384,3.197l0.34,4.085c-0.231,0.06-0.453,0.091-0.636,0.106c-0.184,0.016-0.434,0.022-0.66,0.002
						l-0.743-8.93c0.22-0.058,0.65-0.12,0.82-0.134c0.182-0.016,0.563-0.034,0.842-0.017l3.219,5.256
						c0.385,0.652,0.729,1.31,1.021,1.825l0.052-0.017c-0.152-1.042-0.305-2.388-0.38-3.291l-0.271-3.26
						c-0.051-0.615,0.113-0.88,0.676-0.927l0.457-0.038L303.078,261.737z"/>
					<path fill="#BD0D0D" d="M311.982,260.996l0.742,8.916c-0.22,0.058-0.661,0.121-0.832,0.135
						c-0.17,0.015-0.564,0.034-0.843,0.018l-3.245-5.254c-0.369-0.629-0.695-1.221-0.976-1.752l-0.052,0.018
						c0.128,0.9,0.303,2.217,0.385,3.198l0.34,4.085c-0.231,0.059-0.454,0.091-0.637,0.106c-0.183,0.015-0.433,0.022-0.66,0.001
						l-0.743-8.928c0.221-0.059,0.65-0.121,0.82-0.135c0.184-0.016,0.563-0.033,0.842-0.018l3.22,5.256
						c0.384,0.654,0.729,1.311,1.021,1.826l0.051-0.018c-0.151-1.041-0.304-2.387-0.379-3.29l-0.271-3.26
						c-0.051-0.615,0.112-0.88,0.675-0.927l0.459-0.038L311.982,260.996z"/>
					<path fill="#BD0D0D" d="M320.622,268.622c-0.042,0.451-0.339,0.687-0.836,0.728l-3.889,0.324
						c-0.497,0.041-0.825-0.261-0.869-0.798l-0.667-8.013l0.084-0.086l5.264-0.438c0.057,0.206,0.071,0.389,0.085,0.547
						c0.013,0.156,0.01,0.42-0.053,0.637l-3.104,0.258c-0.195,0.017-0.521,0.057-0.824,0.068c0.028,0.341,0.056,0.51,0.084,0.85
						l0.152,1.834c0.302-0.025,0.615-0.064,0.811-0.081l2.462-0.205c0.067,0.179,0.101,0.413,0.113,0.571
						c0.014,0.156,0.02,0.395-0.018,0.581l-2.462,0.205c-0.195,0.017-0.51,0.042-0.813,0.054l0.179,2.148
						c0.02,0.234,0.022,0.42,0.043,0.668c0.26-0.048,0.521-0.082,0.861-0.111l3.391-0.281
						C320.627,268.199,320.646,268.436,320.622,268.622z"/>
					<path fill="#BD0D0D" d="M326.387,264.832c0.445,0.122,0.797,0.541,1.021,1.036l0.704,1.483
						c0.161,0.344,0.347,0.684,0.668,0.895c-0.16,0.289-0.554,0.48-0.906,0.51c-0.524,0.044-0.731-0.229-0.988-0.774l-0.801-1.713
						c-0.273-0.584-0.601-1.03-1.412-0.964l-1.073,0.09l0.3,3.6c-0.206,0.058-0.467,0.092-0.689,0.111
						c-0.209,0.018-0.485,0.027-0.687,0.004l-0.737-8.864l0.071-0.098c0.981-0.095,1.921-0.2,2.812-0.274
						c1.82-0.15,3.051,0.696,3.195,2.438C327.965,263.516,327.317,264.451,326.387,264.832z M323.507,264.281
						c0.509-0.055,1.084-0.116,1.45-0.146c1.284-0.107,1.53-0.945,1.467-1.705c-0.066-0.798-0.445-1.558-1.729-1.451
						c-0.379,0.032-1.008,0.084-1.453,0.108L323.507,264.281z"/>
				</g>
			</g>
		</g>
	</g>
</g>
</svg>
