<?xml version="1.0" encoding="utf-8"?>
<!-- Generator: Adobe Illustrator 20.1.0, SVG Export Plug-In . SVG Version: 6.00 Build 0)  -->
<svg version="1.1" id="Слой_1" xmlns="http://www.w3.org/2000/svg" xmlns:xlink="http://www.w3.org/1999/xlink" x="0px" y="0px"
	 viewBox="0 0 140.8 34" style="enable-background:new 0 0 140.8 34;" xml:space="preserve">
<style type="text/css">
	.st0{display:none;fill:#CE3A37;}
	.st1{fill:#D77273;}
	.st2{fill:#FFFFFF;}
	.st3{fill:#CD333D;}
</style>
<path class="st0" d="M211.4,168.4c3.2,0,6.3-1,8.8-2.6h-17.5C205.2,167.4,208.2,168.4,211.4,168.4z"/>
<path class="st0" d="M195.5,152.5c0,2.8,0.8,5.5,2.1,7.8v-15.7C196.3,147,195.5,149.7,195.5,152.5z"/>
<path class="st0" d="M224.5,143.5v18c1.8-2.6,2.8-5.7,2.8-9S226.3,146,224.5,143.5z"/>
<path class="st0" d="M211.4,136.6c-2.9,0-5.7,0.8-8,2.2h16C217.1,137.4,214.4,136.6,211.4,136.6z"/>
<g>
	<path class="st1" d="M23.9,8.7h-0.3c-0.5,0-0.9,0.4-0.9,1v14.3c0,0.5,0.4,1,0.9,1h0.3c0.5,0,0.9-0.4,0.9-1V9.6
		C24.8,9.1,24.4,8.7,23.9,8.7z"/>
	<path class="st1" d="M19.5,8.7h-0.3c-0.5,0-0.9,0.4-0.9,1v14.3c0,0.5,0.4,1,0.9,1h0.3c0.5,0,0.9-0.4,0.9-1V9.6
		C20.5,9.1,20.1,8.7,19.5,8.7z"/>
	<path class="st1" d="M15.2,8.7h-4.9c0,0,0,0,0,0c0,0-0.1,0-0.1,0H9.8c-0.5,0-0.9,0.4-0.9,1v14.3c0,0.5,0.4,1,0.9,1h0.3c0,0,0,0,0,0
		c0,0,0.1,0,0.1,0h4.9c0.5,0,0.9-0.4,0.9-1v-0.3c0-0.5-0.4-1-0.9-1H11v-4.8h4.2c0.5,0,0.9-0.4,0.9-1v-0.3c0-0.5-0.4-1-0.9-1H11v-4.8
		h4.2c0.5,0,0.9-0.4,0.9-1V9.6C16.1,9.1,15.7,8.7,15.2,8.7z"/>
	<path class="st1" d="M17,34C7.6,34,0,26.4,0,17C0,7.6,16.4,0,17,0c9.4,0,17,7.6,17,17C34,17.6,26.4,34,17,34z M17,2.2
		C8.8,2.2,2.2,8.8,2.2,17c0,8.2,6.6,14.8,14.8,14.8S31.8,25.2,31.8,17C31.8,8.8,25.2,2.2,17,2.2z"/>
</g>
<g>
	<g>
		<path class="st2" d="M42.3,29.5V4.4h7.5c4.4,0,6.6,2.4,6.6,7.1c0,2.3-0.6,4-1.8,5.1c-1.2,1.1-2.9,1.6-5.1,1.6h-2.4v11.2H42.3z
			 M47.1,15.1h1.5c1.3,0,2.2-0.3,2.7-0.8c0.5-0.5,0.7-1.4,0.7-2.8c0-0.8,0-1.4-0.1-1.8c-0.1-0.4-0.2-0.8-0.4-1.2
			c-0.2-0.3-0.6-0.6-1-0.7c-0.5-0.1-1.1-0.2-1.8-0.2h-1.5V15.1z"/>
		<path class="st2" d="M64.2,29.8c-2,0-3.5-0.5-4.5-1.6c-1-1.1-1.5-2.6-1.5-4.7v-5.9c0-2,0.5-3.6,1.5-4.7c1-1.1,2.5-1.6,4.5-1.6
			c2,0,3.5,0.5,4.5,1.6c1,1.1,1.5,2.6,1.5,4.7v5.9c0,2-0.5,3.6-1.5,4.7C67.7,29.3,66.2,29.8,64.2,29.8z M64.2,26.8
			c0.4,0,0.6-0.1,0.9-0.2c0.2-0.2,0.4-0.4,0.5-0.7c0.1-0.3,0.2-0.6,0.2-0.9c0-0.3,0-0.7,0-1.2v-6.5c0-0.4,0-0.7,0-0.9
			c0-0.2-0.1-0.5-0.1-0.8c-0.1-0.3-0.1-0.5-0.3-0.7c-0.1-0.2-0.3-0.3-0.5-0.4c-0.2-0.1-0.4-0.2-0.7-0.2c-0.4,0-0.6,0.1-0.9,0.2
			c-0.2,0.2-0.4,0.4-0.5,0.7c-0.1,0.3-0.2,0.6-0.2,0.9c0,0.3,0,0.7,0,1.2v6.5c0,0.4,0,0.7,0,0.9c0,0.2,0.1,0.5,0.1,0.8
			c0.1,0.3,0.1,0.5,0.3,0.7c0.1,0.2,0.3,0.3,0.5,0.4C63.7,26.8,63.9,26.8,64.2,26.8z"/>
		<path class="st2" d="M87.9,29.5V4.4h4.4v25.1H87.9z"/>
		<path class="st2" d="M101.4,29.8c-2.1,0-3.6-0.6-4.6-1.7c-0.9-1.1-1.4-2.8-1.4-5V18c0-2.2,0.5-3.9,1.4-5c0.9-1.1,2.5-1.7,4.5-1.7
			c1.1,0,2,0.2,2.8,0.5c0.8,0.3,1.3,0.8,1.8,1.4c0.4,0.6,0.7,1.4,0.9,2.2c0.2,0.8,0.3,1.8,0.3,3v2.3h-7.3v2.7c0,0.4,0,0.7,0,0.9
			c0,0.2,0,0.5,0.1,0.7c0,0.3,0.1,0.5,0.1,0.7c0.1,0.2,0.2,0.3,0.3,0.5c0.1,0.2,0.3,0.3,0.5,0.4c0.2,0.1,0.4,0.1,0.7,0.1
			c0.6,0,1-0.2,1.2-0.6c0.2-0.4,0.3-1,0.3-1.7v-1h4.2v0.7c0,1.9-0.5,3.3-1.4,4.3C104.7,29.3,103.3,29.8,101.4,29.8z M99.8,18.6h3.2
			v-1.7c0-0.9-0.1-1.6-0.4-2c-0.2-0.4-0.7-0.6-1.2-0.6c-0.6,0-1,0.2-1.2,0.7c-0.2,0.4-0.3,1.3-0.3,2.4V18.6z"/>
		<path class="st2" d="M114.6,29.5V4.4h10.9v3.2h-6.1v7.2h4.9v3.2h-4.9v8.3h6.2v3.2H114.6z"/>
		<path class="st2" d="M128.3,29.5V4.4h4.4v25.1H128.3z"/>
		<path class="st2" d="M136.4,29.5V4.4h4.4v25.1H136.4z"/>
	</g>
	<path class="st2" d="M80.2,25.4c-0.2,0.3-0.5,0.5-0.8,0.7c-0.3,0.2-0.7,0.4-1,0.4c-0.5,0-0.8-0.2-1.1-0.6c-0.3-0.4-0.4-0.9-0.4-1.5
		c0-1,0.5-1.9,1.5-2.8l-1.9-1.8c-0.5,0.3-0.7,0.4-1.5,0.9c-0.8,0.6-1.4,1.2-1.7,2c-0.4,0.8-0.5,1.7-0.5,2.7c0,1.1,0.4,2.1,1.1,3
		c0.7,0.9,1.7,1.3,2.9,1.3c1,0,1.7-0.3,2.4-0.8c0.6-0.6,1-1.3,1.3-2.1c0.1,0.6,0.2,1.5,0.5,2.6h4c-0.2-1.6-0.3-3.1-0.3-4.5v-8.2
		c0-1.8-0.4-3.1-1.3-4.1c-0.9-1-2.2-1.4-4.1-1.4c-1.9,0-3.3,0.4-4.4,1.3c-1,0.9-1.6,2.3-1.7,4.1c0,0.1,0,0.2,0,0.3
		c0,0.2,0,0.3,0,0.3l4.2,0.2l0.1-1.1c0-1.3,0.5-2,1.5-2c0.6,0,1,0.2,1.2,0.6c0.2,0.4,0.3,1,0.3,1.8v1.5c-0.2,0.1-0.4,0.2-0.7,0.3
		c-0.4,0.1-0.7,0.3-1,0.4c0,0,1.6,1,1.6,1.5"/>
</g>
<g>
	<path class="st3" d="M-49.5,245.9h-0.3c-0.6,0-1.1,0.5-1.1,1.1v16.5c0,0.6,0.5,1.1,1.1,1.1h0.3c0.6,0,1.1-0.5,1.1-1.1V247
		C-48.4,246.4-48.9,245.9-49.5,245.9z"/>
	<path class="st3" d="M-54.5,245.9h-0.3c-0.6,0-1.1,0.5-1.1,1.1v16.5c0,0.6,0.5,1.1,1.1,1.1h0.3c0.6,0,1.1-0.5,1.1-1.1V247
		C-53.5,246.4-54,245.9-54.5,245.9z"/>
	<path class="st3" d="M-59.6,245.9h-5.7c0,0,0,0,0,0c-0.1,0-0.1,0-0.2,0h-0.3c-0.6,0-1.1,0.5-1.1,1.1v16.5c0,0.6,0.5,1.1,1.1,1.1
		h0.3c0,0,0,0,0,0c0.1,0,0.1,0,0.2,0h5.7c0.6,0,1.1-0.5,1.1-1.1v-0.3c0-0.6-0.5-1.1-1.1-1.1h-4.8v-5.5h4.8c0.6,0,1.1-0.5,1.1-1.1
		v-0.3c0-0.6-0.5-1.1-1.1-1.1h-4.8v-5.5h4.8c0.6,0,1.1-0.5,1.1-1.1V247C-58.6,246.4-59,245.9-59.6,245.9z"/>
	<path class="st3" d="M-57.5,274c-10.2,0-18.5-8.3-18.5-18.5c0-10.2,17.9-18.5,18.5-18.5c10.2,0,18.5,8.3,18.5,18.5
		C-39,256.1-47.3,274-57.5,274z M-57.5,239.4c-8.9,0-16.1,7.2-16.1,16.1c0,8.9,7.2,16.1,16.1,16.1s16.1-7.2,16.1-16.1
		C-41.4,246.6-48.6,239.4-57.5,239.4z"/>
</g>
</svg>
