<?xml version="1.0" encoding="utf-8"?>
<!-- Generator: Adobe Illustrator 15.0.0, SVG Export Plug-In . SVG Version: 6.00 Build 0)  -->
<svg version="1.2" baseProfile="tiny" id="Layer_1" xmlns="http://www.w3.org/2000/svg" xmlns:xlink="http://www.w3.org/1999/xlink"
	 x="0px" y="0px" width="164.623px" height="30.833px" viewBox="0 0 164.623 30.833" xml:space="preserve">
<g>
	<path fill="none" d="M49.345,14.419c0.265,0.138,0.599,0.207,1.002,0.207c0.603,0,1.111-0.182,1.522-0.546
		c0.595-0.522,0.892-1.398,0.892-2.629c0-1.279-0.347-2.204-1.043-2.776c-0.439-0.364-0.969-0.546-1.591-0.546
		c-0.677,0-1.015,0.192-1.015,0.576v5.02C49.112,14.109,49.19,14.341,49.345,14.419z"/>
	<path fill="none" d="M83.682,19.661c-0.298,0.354-0.446,0.778-0.446,1.271c0,0.473,0.105,0.854,0.315,1.145
		c0.211,0.29,0.489,0.436,0.837,0.436c0.731,0,1.098-0.665,1.098-1.994c0-0.541-0.053-0.905-0.158-1.092
		c-0.104-0.188-0.304-0.286-0.597-0.296C84.328,19.129,83.979,19.307,83.682,19.661z"/>
	<path fill="none" d="M68.465,22.083c0.814,0,1.22-0.556,1.22-1.668c0-0.827-0.102-1.768-0.308-2.82
		c-0.206-1.053-0.455-1.91-0.748-2.569c-0.302-0.67-0.722-1.014-1.262-1.034c-0.403,0-0.725,0.16-0.967,0.48
		c-0.243,0.32-0.364,0.746-0.364,1.277c0,0.591,0.103,1.396,0.309,2.415s0.45,1.922,0.734,2.709
		C67.362,21.679,67.824,22.083,68.465,22.083z"/>
	<path fill="none" d="M113.833,15.926c0.585,0,0.878-0.292,0.878-0.872c0-0.532-0.142-0.965-0.426-1.299
		c-0.283-0.335-0.653-0.503-1.111-0.503c-0.512,0-0.913,0.217-1.206,0.65c-0.274,0.404-0.412,0.812-0.412,1.226
		c0,0.295,0.065,0.502,0.198,0.62c0.133,0.118,0.364,0.177,0.693,0.177H113.833z"/>
	<path fill="none" d="M2,15.417c0,7.398,6.019,13.416,13.417,13.416s13.417-6.018,13.417-13.416S22.814,2,15.417,2S2,8.019,2,15.417
		z M14.54,8.603c0,0.507-0.394,0.917-0.881,0.917H9.643v4.62h4.016c0.487,0,0.881,0.411,0.881,0.917v0.287
		c0,0.505-0.394,0.916-0.881,0.916H9.643v4.621h4.016c0.487,0,0.881,0.41,0.881,0.916v0.287c0,0.506-0.394,0.917-0.881,0.917H8.915
		c-0.045,0-0.088-0.005-0.131-0.012c-0.008,0.001-0.015,0.002-0.022,0.002H8.486c-0.487,0-0.882-0.411-0.882-0.917V8.306
		c0-0.506,0.395-0.916,0.882-0.916h0.276c0.044,0,0.088,0.004,0.131,0.011c0.007,0,0.014-0.001,0.022-0.001h4.744
		c0.487,0,0.881,0.41,0.881,0.916V8.603z M20.926,8.316c0-0.507,0.394-0.917,0.881-0.917h0.276c0.487,0,0.881,0.41,0.881,0.917
		v13.767c0,0.506-0.394,0.917-0.881,0.917h-0.276c-0.487,0-0.881-0.411-0.881-0.917V8.316z M16.724,8.315
		c0-0.506,0.394-0.916,0.881-0.916h0.276c0.487,0,0.881,0.41,0.881,0.916v13.768c0,0.506-0.394,0.917-0.881,0.917h-0.276
		c-0.487,0-0.881-0.411-0.881-0.917V8.315z"/>
	<path d="M49.414,17.771c0.091,0,0.324,0.015,0.699,0.044c0.705,0.069,1.299,0.104,1.784,0.104c1.911,0,3.54-0.565,4.884-1.697
		c1.427-1.21,2.141-2.821,2.141-4.829c0-2.48-1.02-4.291-3.06-5.434C54.691,5.3,53.356,4.97,51.856,4.97
		c-0.439,0-0.924,0.029-1.454,0.089c-1.601,0.157-2.532,0.243-2.792,0.258c-0.261,0.015-1.151,0.027-2.669,0.037h-0.823
		c-0.869-0.029-1.413-0.044-1.633-0.044c-0.659,0-1.162,0.118-1.509,0.354c-0.348,0.236-0.521,0.576-0.521,1.019
		c0,0.63,0.411,1.073,1.234,1.329c0.568,0.167,0.915,0.386,1.043,0.657s0.192,0.908,0.192,1.912v7.767
		c-0.018,1.821-0.055,2.898-0.109,3.233c-0.056,0.335-0.247,0.596-0.577,0.782c-0.54,0.296-0.883,0.522-1.029,0.68
		s-0.22,0.384-0.22,0.679c0,1.251,1.693,1.876,5.077,1.876c1.61,0,2.854-0.168,3.732-0.502c0.878-0.335,1.317-0.813,1.317-1.433
		c0-0.403-0.297-0.777-0.892-1.122c-0.439-0.246-0.729-0.485-0.871-0.716c-0.142-0.231-0.222-0.584-0.24-1.056l-0.096-2.422v-0.089
		C49.016,17.934,49.148,17.771,49.414,17.771z M49.112,8.706c0-0.384,0.338-0.576,1.015-0.576c0.622,0,1.152,0.182,1.591,0.546
		c0.696,0.572,1.043,1.497,1.043,2.776c0,1.231-0.297,2.107-0.892,2.629c-0.411,0.364-0.919,0.546-1.522,0.546
		c-0.403,0-0.737-0.069-1.002-0.207c-0.155-0.079-0.233-0.31-0.233-0.694V8.706z"/>
	<path d="M73.17,23.559c1.821-1.496,2.731-3.313,2.731-5.448c0-1.221-0.284-2.392-0.851-3.515c-0.549-1.072-1.276-1.943-2.182-2.613
		c-1.262-0.935-2.73-1.403-4.403-1.403c-2.406,0-4.451,0.778-6.133,2.333c-1.611,1.477-2.415,3.377-2.415,5.7
		c0,2.086,0.658,3.78,1.975,5.079c1.354,1.339,3.124,2.007,5.31,2.007C69.443,25.699,71.432,24.987,73.17,23.559z M66.345,18.163
		c-0.206-1.019-0.309-1.823-0.309-2.415c0-0.531,0.121-0.957,0.364-1.277c0.242-0.32,0.564-0.48,0.967-0.48
		c0.54,0.02,0.96,0.364,1.262,1.034c0.293,0.659,0.542,1.516,0.748,2.569c0.206,1.053,0.308,1.993,0.308,2.82
		c0,1.112-0.406,1.668-1.22,1.668c-0.641,0-1.103-0.403-1.386-1.211C66.795,20.084,66.551,19.181,66.345,18.163z"/>
	<path d="M84.195,17.018c-2.387,0.01-4.18,0.635-5.378,1.875c-0.769,0.788-1.152,1.693-1.152,2.717c0,0.641,0.141,1.253,0.425,1.839
		c0.283,0.586,0.667,1.061,1.152,1.425c0.741,0.551,1.711,0.826,2.909,0.826c1.161,0,2.2-0.359,3.114-1.077
		c0.302-0.246,0.544-0.369,0.727-0.369c0.165,0,0.344,0.128,0.535,0.384c0.559,0.709,1.318,1.063,2.278,1.063
		c0.75,0,1.468-0.217,2.154-0.649c0.558-0.345,1.013-0.772,1.364-1.284c0.353-0.512,0.528-1.004,0.528-1.477
		c0-0.364-0.146-0.571-0.439-0.62c-0.292-0.05-0.484-0.104-0.575-0.163c-0.092-0.059-0.188-0.196-0.288-0.413
		c-0.201-0.452-0.303-1.441-0.303-2.968l0.027-2.2c0-1.043-0.116-1.862-0.349-2.458c-0.234-0.596-0.644-1.125-1.229-1.588
		c-1.106-0.866-2.456-1.299-4.048-1.299c-1.802,0-3.53,0.473-5.186,1.418c-0.604,0.354-1.082,0.767-1.434,1.24
		c-0.352,0.473-0.528,0.945-0.528,1.417c0,0.463,0.142,0.837,0.426,1.122c0.283,0.286,0.649,0.429,1.097,0.429
		c0.887,0,1.738-0.625,2.552-1.875c0.32-0.473,0.588-0.798,0.804-0.975c0.214-0.177,0.459-0.266,0.733-0.266
		c0.457,0,0.786,0.234,0.988,0.702c0.201,0.467,0.301,1.223,0.301,2.266c0,0.414-0.067,0.678-0.205,0.79
		C85.061,16.961,84.727,17.018,84.195,17.018z M85.485,20.517c0,1.329-0.366,1.994-1.098,1.994c-0.348,0-0.626-0.146-0.837-0.436
		c-0.21-0.291-0.315-0.672-0.315-1.145c0-0.492,0.148-0.916,0.446-1.271c0.297-0.354,0.646-0.531,1.049-0.531
		c0.293,0.01,0.492,0.108,0.597,0.296C85.433,19.612,85.485,19.976,85.485,20.517z"/>
	<path d="M102.712,8.75c0.091-1.132,0.137-1.856,0.137-2.171c0-0.964-0.361-1.446-1.084-1.446c-0.457,0-1.188,0.093-2.194,0.28
		c-1.007,0.187-1.825,0.384-2.456,0.591C96.172,6.309,95.486,6.641,95.056,7c-0.43,0.36-0.645,0.781-0.645,1.262
		c0,0.306,0.07,0.564,0.213,0.776c0.142,0.212,0.404,0.435,0.789,0.672c0.512,0.334,0.832,0.846,0.96,1.535s0.191,2.235,0.191,4.637
		c0,2.362-0.072,4.184-0.219,5.463c-0.083,0.749-0.302,1.207-0.659,1.374c-0.384,0.177-0.633,0.329-0.747,0.458
		c-0.114,0.127-0.172,0.31-0.172,0.545c0,0.296,0.105,0.58,0.316,0.85c0.21,0.271,0.479,0.47,0.809,0.598
		c0.714,0.285,1.953,0.429,3.719,0.429c1.563,0,2.675-0.108,3.334-0.325c0.356-0.108,0.643-0.295,0.856-0.562
		c0.215-0.266,0.323-0.561,0.323-0.886c0-0.256-0.057-0.452-0.172-0.591c-0.114-0.138-0.341-0.285-0.68-0.442
		c-0.393-0.187-0.619-0.453-0.679-0.798c-0.06-0.344-0.089-1.564-0.089-3.661v-4.74C102.523,12.126,102.593,10.512,102.712,8.75z"/>
	<path d="M112.09,18.687h6.449c0.394,0,0.713-0.205,0.96-0.613s0.37-0.933,0.37-1.572c0-0.787-0.214-1.595-0.645-2.422
		c-0.375-0.728-0.868-1.358-1.481-1.89c-1.217-1.063-2.694-1.595-4.432-1.595c-1.088,0-2.1,0.212-3.032,0.636
		c-1.244,0.561-2.268,1.412-3.073,2.554c-0.933,1.319-1.399,2.806-1.399,4.459c0,1.23,0.27,2.402,0.81,3.514
		c0.412,0.837,0.933,1.551,1.564,2.142c1.299,1.201,2.908,1.801,4.829,1.801c1.902,0,3.581-0.585,5.035-1.757
		c0.823-0.659,1.235-1.344,1.235-2.052c0-0.335-0.115-0.66-0.344-0.975c-0.229-0.315-0.462-0.473-0.699-0.473
		c-0.184,0-0.43,0.118-0.741,0.354c-0.348,0.266-0.789,0.489-1.324,0.672c-0.534,0.182-1.021,0.272-1.461,0.272
		c-0.74,0-1.434-0.282-2.079-0.849c-0.644-0.566-0.967-1.169-0.967-1.809C111.665,18.82,111.808,18.687,112.09,18.687z
		 M111.556,15.129c0-0.414,0.138-0.822,0.412-1.226c0.293-0.433,0.694-0.65,1.206-0.65c0.458,0,0.828,0.168,1.111,0.503
		c0.284,0.334,0.426,0.767,0.426,1.299c0,0.58-0.293,0.872-0.878,0.872h-1.386c-0.329,0-0.561-0.06-0.693-0.177
		C111.621,15.631,111.556,15.424,111.556,15.129z"/>
	<path d="M131.927,8.572c0.229-0.403,0.87-0.605,1.921-0.605c1.409,0,2.422,0.111,3.039,0.332c0.617,0.222,1.127,0.662,1.529,1.322
		c0.283,0.463,0.511,0.76,0.68,0.893c0.169,0.133,0.404,0.199,0.707,0.199c0.438,0,0.783-0.184,1.036-0.553
		c0.251-0.369,0.377-0.874,0.377-1.513c0-1.271-0.303-2.353-0.906-3.249c-0.365-0.551-0.786-0.827-1.262-0.827
		c-0.11,0-0.262,0.03-0.453,0.089c-0.622,0.196-1.261,0.327-1.914,0.391c-0.653,0.064-1.694,0.096-3.121,0.096h-7.052
		c-1.024,0-1.716,0.044-2.072,0.133c-0.283,0.079-0.512,0.241-0.686,0.487c-0.175,0.246-0.261,0.527-0.261,0.842
		c0,0.58,0.261,0.955,0.782,1.122c0.347,0.108,0.576,0.202,0.686,0.28c0.11,0.079,0.21,0.217,0.302,0.414
		c0.438,0.994,0.658,3.391,0.658,7.191c0,2.519-0.15,4.522-0.451,6.008c-0.074,0.364-0.178,0.641-0.31,0.827
		c-0.133,0.188-0.336,0.345-0.611,0.473c-0.393,0.197-0.644,0.359-0.754,0.487c-0.109,0.128-0.165,0.335-0.165,0.62
		c0,0.403,0.128,0.716,0.385,0.938c0.256,0.222,0.617,0.332,1.084,0.332h11.634c0.979,0.029,1.761,0.104,2.346,0.222
		c0.33,0.06,0.581,0.089,0.755,0.089c0.21,0,0.385-0.057,0.521-0.17s0.311-0.337,0.521-0.672c0.411-0.689,0.76-1.477,1.043-2.362
		s0.426-1.624,0.426-2.215c0-0.541-0.126-0.992-0.377-1.352c-0.253-0.359-0.57-0.539-0.954-0.539c-0.329,0-0.598,0.099-0.804,0.296
		c-0.205,0.197-0.436,0.581-0.692,1.151c-0.439,0.994-1.006,1.681-1.701,2.06c-0.695,0.38-1.729,0.569-3.101,0.569
		c-0.888,0-1.521-0.057-1.9-0.169c-0.379-0.114-0.606-0.318-0.679-0.614c-0.064-0.236-0.125-0.721-0.186-1.454
		c-0.06-0.733-0.089-1.331-0.089-1.794c0-0.758,0.075-1.277,0.226-1.558c0.151-0.28,0.433-0.421,0.845-0.421
		c1.069,0,1.674,0.556,1.811,1.668c0.064,0.542,0.156,0.898,0.274,1.07c0.119,0.173,0.334,0.259,0.645,0.259
		c0.503,0,0.878-0.271,1.125-0.813c0.448-0.994,0.673-2.269,0.673-3.823c0-0.788-0.066-1.543-0.198-2.267
		c-0.134-0.723-0.296-1.228-0.487-1.513c-0.267-0.384-0.586-0.576-0.961-0.576c-0.256,0-0.48,0.088-0.672,0.266
		c-0.184,0.157-0.31,0.342-0.378,0.553c-0.068,0.212-0.135,0.603-0.198,1.174c-0.046,0.443-0.156,0.751-0.329,0.923
		c-0.174,0.172-0.454,0.258-0.837,0.258c-0.778,0-1.258-0.071-1.441-0.213c-0.183-0.143-0.274-0.51-0.274-1.101
		c0-1.496,0.012-2.426,0.035-2.79C131.736,9.08,131.808,8.789,131.927,8.572z"/>
	<path d="M152.583,22.792c-0.393-0.187-0.62-0.453-0.679-0.798c-0.061-0.344-0.089-1.564-0.089-3.661v-4.74
		c0.018-1.467,0.087-3.081,0.206-4.843c0.091-1.132,0.137-1.856,0.137-2.171c0-0.964-0.362-1.446-1.084-1.446
		c-0.457,0-1.189,0.093-2.195,0.28s-1.825,0.384-2.456,0.591c-0.941,0.305-1.628,0.637-2.058,0.996
		c-0.431,0.36-0.646,0.781-0.646,1.262c0,0.306,0.071,0.564,0.213,0.776c0.143,0.212,0.404,0.435,0.789,0.672
		c0.513,0.334,0.832,0.846,0.96,1.535s0.192,2.235,0.192,4.637c0,2.362-0.073,4.184-0.219,5.463
		c-0.083,0.749-0.303,1.207-0.659,1.374c-0.384,0.177-0.633,0.329-0.747,0.458c-0.115,0.127-0.172,0.31-0.172,0.545
		c0,0.296,0.104,0.58,0.315,0.85c0.21,0.271,0.48,0.47,0.81,0.598c0.714,0.285,1.953,0.429,3.718,0.429
		c1.564,0,2.675-0.108,3.334-0.325c0.357-0.108,0.644-0.295,0.857-0.562c0.215-0.266,0.322-0.561,0.322-0.886
		c0-0.256-0.057-0.452-0.172-0.591C153.148,23.096,152.921,22.949,152.583,22.792z"/>
	<path d="M163.772,22.792c-0.393-0.187-0.62-0.453-0.679-0.798c-0.061-0.344-0.089-1.564-0.089-3.661v-4.74
		c0.018-1.467,0.087-3.081,0.206-4.843c0.091-1.132,0.137-1.856,0.137-2.171c0-0.964-0.362-1.446-1.084-1.446
		c-0.457,0-1.189,0.093-2.195,0.28s-1.825,0.384-2.456,0.591c-0.941,0.305-1.628,0.637-2.058,0.996
		c-0.431,0.36-0.646,0.781-0.646,1.262c0,0.306,0.071,0.564,0.213,0.776c0.143,0.212,0.404,0.435,0.789,0.672
		c0.513,0.334,0.832,0.846,0.96,1.535s0.192,2.235,0.192,4.637c0,2.362-0.073,4.184-0.219,5.463
		c-0.083,0.749-0.302,1.207-0.659,1.374c-0.384,0.177-0.633,0.329-0.747,0.458c-0.115,0.127-0.172,0.31-0.172,0.545
		c0,0.296,0.104,0.58,0.315,0.85c0.211,0.271,0.48,0.47,0.81,0.598c0.714,0.285,1.953,0.429,3.718,0.429
		c1.564,0,2.675-0.108,3.334-0.325c0.357-0.108,0.644-0.295,0.857-0.562c0.215-0.266,0.322-0.561,0.322-0.886
		c0-0.256-0.057-0.452-0.172-0.591C164.338,23.096,164.11,22.949,163.772,22.792z"/>
	<path fill="#F3544B" d="M21.807,23h0.276c0.487,0,0.881-0.411,0.881-0.917V8.316c0-0.507-0.394-0.917-0.881-0.917h-0.276
		c-0.487,0-0.881,0.41-0.881,0.917v13.767C20.926,22.589,21.32,23,21.807,23z"/>
	<path fill="#F3544B" d="M17.605,23h0.276c0.487,0,0.881-0.411,0.881-0.917V8.315c0-0.506-0.394-0.916-0.881-0.916h-0.276
		c-0.487,0-0.881,0.41-0.881,0.916v13.768C16.724,22.589,17.118,23,17.605,23z"/>
	<path fill="#F3544B" d="M13.659,7.399H8.915C8.907,7.399,8.9,7.4,8.893,7.4C8.85,7.394,8.806,7.39,8.762,7.39H8.486
		c-0.487,0-0.882,0.41-0.882,0.916v13.768c0,0.506,0.395,0.917,0.882,0.917h0.276c0.007,0,0.014-0.001,0.022-0.002
		C8.827,22.996,8.87,23,8.915,23h4.744c0.487,0,0.881-0.411,0.881-0.917v-0.287c0-0.506-0.394-0.916-0.881-0.916H9.643v-4.621h4.016
		c0.487,0,0.881-0.41,0.881-0.916v-0.287c0-0.506-0.394-0.917-0.881-0.917H9.643V9.52h4.016c0.487,0,0.881-0.41,0.881-0.917V8.315
		C14.54,7.81,14.146,7.399,13.659,7.399z"/>
	<path fill="#F3544B" d="M0,15.407v0.02c0.005,8.496,6.92,15.406,15.417,15.406c8.501,0,15.417-6.915,15.417-15.416
		c0-8.498-6.911-15.411-15.407-15.417h-0.02C6.915,0.006,0.005,6.914,0,15.407z M28.833,15.417c0,7.398-6.019,13.416-13.417,13.416
		S2,22.815,2,15.417S8.019,2,15.417,2S28.833,8.019,28.833,15.417z"/>
</g>
</svg>
