<?xml version="1.0" encoding="iso-8859-1"?>
<!-- Generator: Adobe Illustrator 18.0.0, SVG Export Plug-In . SVG Version: 6.00 Build 0)  -->
<!DOCTYPE svg PUBLIC "-//W3C//DTD SVG 1.1//EN" "http://www.w3.org/Graphics/SVG/1.1/DTD/svg11.dtd">
<svg version="1.1" id="Capa_1" xmlns="http://www.w3.org/2000/svg" xmlns:xlink="http://www.w3.org/1999/xlink" x="0px" y="0px"
	 viewBox="0 0 481.696 481.696" style="enable-background:new 0 0 481.696 481.696;" xml:space="preserve">
<g>
	<path d="M460.271,29.211c-0.106-0.552-0.217-1.107-0.33-1.676c-2.18-10.828-9.196-19.696-19.25-24.331
		c-10.082-4.648-21.423-4.221-31.108,1.174c-47.432,26.415-94.068,69.171-106.31,80.736c-1.111-0.061-2.224-0.108-3.342-0.126
		c-21.865-0.377-42.937,7.572-59.083,21.989c-16.146-14.416-37.19-22.356-59.083-21.989c-1.118,0.018-2.231,0.065-3.343,0.126
		C166.18,73.549,119.544,30.793,72.112,4.377c-9.688-5.396-21.024-5.823-31.107-1.174c-10.054,4.635-17.07,13.503-19.249,24.327
		c-0.113,0.563-0.224,1.123-0.33,1.672c-7.4,38.208,3.833,78.286,30.048,107.209l31.438,34.687
		c-12.949,29.981-19.485,63.235-19.485,99.456c0,81.326,28.966,134.001,53.266,163.869c26.574,32.665,53.175,45.822,54.294,46.366
		c3.813,1.853,8.396,0.789,11.011-2.546c2.616-3.335,2.545-8.049-0.162-11.31c-0.155-0.187-15.636-19.04-24.69-48.124
		c-11.942-38.363-7.651-75.712,12.756-111.01c2.487-4.303,1.016-9.808-3.287-12.296c-4.304-2.488-9.809-1.016-12.297,3.287
		c-21.694,37.525-24.109,72.959-19.945,100.974c-10.832-23.297-18.465-51.239-15.503-81.354c0.486-4.947-3.129-9.351-8.076-9.837
		c-4.954-0.491-9.352,3.128-9.838,8.076c-2.703,27.477,2.271,56.32,14.452,84.825c-17.718-28.963-33.979-71.681-33.979-130.921
		c0-56.073,16.75-104.354,49.785-143.502c12.641-14.979,31.171-23.751,50.842-24.066c18.68-0.299,36.672,7.052,49.794,20.265v41.252
		l-16.63-10.55c-10.433-6.62-23.223-8.43-35.086-4.963c-11.765,3.437-21.477,11.754-26.646,22.819
		c-13.192,28.245-15.475,57.919-6.599,85.815c1.507,4.736,6.565,7.356,11.305,5.848c4.737-1.507,7.354-6.568,5.848-11.305
		c-7.587-23.847-5.651-48.32,5.755-72.74c3.022-6.471,8.486-11.144,15.384-13.159c6.897-2.014,14.332-0.964,20.396,2.884
		l30.451,19.319c2.943,1.867,6.699,1.867,9.643,0l30.45-19.319c6.065-3.848,13.5-4.899,20.397-2.884
		c6.898,2.015,12.361,6.688,15.384,13.159c11.406,24.42,13.342,48.894,5.755,72.741c-1.507,4.736,1.11,9.798,5.848,11.305
		c0.907,0.289,1.826,0.426,2.73,0.426c3.814,0,7.356-2.445,8.574-6.274c8.876-27.896,6.594-57.57-6.599-85.815
		c-5.168-11.064-14.88-19.382-26.645-22.819c-11.866-3.466-24.654-1.658-35.088,4.963l-16.629,10.55V123.25
		c13.114-13.212,31.039-20.565,49.794-20.264c19.67,0.315,38.2,9.087,50.841,24.066c33.035,39.148,49.786,87.429,49.786,143.502
		c0,59.24-16.262,101.958-33.979,130.921c12.18-28.505,17.155-57.348,14.452-84.825c-0.486-4.947-4.908-8.568-9.838-8.076
		c-4.947,0.486-8.563,4.891-8.076,9.837c3.015,30.649-5.112,58.938-15.512,81.408c4.175-28.024,1.771-63.479-19.937-101.028
		c-2.488-4.303-7.992-5.775-12.297-3.287c-4.303,2.488-5.774,7.993-3.287,12.296c20.407,35.298,24.699,72.647,12.756,111.01
		c-9.054,29.084-24.534,47.937-24.679,48.111c-2.724,3.256-2.802,7.972-0.188,11.316c1.751,2.242,4.394,3.458,7.095,3.458
		c1.329,0,2.672-0.294,3.931-0.906c1.119-0.544,27.72-13.702,54.294-46.366c24.3-29.868,53.266-82.543,53.266-163.869
		c0-36.221-6.537-69.474-19.486-99.455l31.439-34.687C456.437,107.488,467.67,67.41,460.271,29.211z M156.315,89.262
		c-4.715,1.545-9.283,3.492-13.652,5.82c-0.424-7.126-1.658-14.127-3.635-20.883C145.746,79.871,151.604,85.024,156.315,89.262z
		 M117.456,115.443c-10.101,11.97-18.798,24.71-26.082,38.188l-26.564-29.308C42.382,99.578,32.77,65.298,39.099,32.619
		c0.098-0.506,0.198-1.016,0.303-1.531c1.032-5.13,4.364-9.335,9.14-11.538c4.807-2.215,10.205-2.014,14.813,0.553
		c10.612,5.91,21.27,12.756,31.518,19.914c19.621,15.013,30.8,38.682,29.913,63.385l-0.163,4.535
		C122.1,110.281,119.702,112.782,117.456,115.443z M342.661,74.197c-1.977,6.756-3.211,13.756-3.635,20.882
		c-4.369-2.327-8.935-4.274-13.65-5.818C330.086,85.023,335.943,79.87,342.661,74.197z M390.321,153.632
		c-7.284-13.478-15.981-26.219-26.083-38.188c-2.248-2.663-4.647-5.166-7.171-7.511l-0.163-4.531
		c-0.888-24.705,10.293-48.375,29.917-63.388c10.245-7.154,20.902-13.999,31.518-19.911c4.608-2.567,10.009-2.769,14.814-0.553
		c4.775,2.202,8.107,6.407,9.138,11.526c0.104,0.517,0.206,1.031,0.306,1.55c6.328,32.671-3.284,66.951-25.714,91.698
		L390.321,153.632z"/>
	<path d="M305.406,284.362l-13.748-44.913c-1.454-4.753-6.485-7.428-11.24-5.972c-4.752,1.455-7.426,6.487-5.971,11.24
		l13.748,44.913c3.131,10.227-1.498,21.204-11.005,26.102c-5.989,3.085-12.895,3.137-18.791,0.634
		c7.854-5.343,12.985-14.068,12.985-23.915c0-8.869-4.301-15.469-12.111-18.585c-5.577-2.226-12.121-2.41-18.897-2.41
		s-13.32,0.184-18.898,2.41c-7.81,3.116-12.11,9.717-12.11,18.585c0,9.989,5.28,18.826,13.327,24.146
		c-5.761,2.253-12.4,2.118-18.188-0.865c-9.508-4.897-14.137-15.875-11.007-26.102l13.749-44.913
		c1.455-4.752-1.218-9.785-5.971-11.24c-4.759-1.456-9.787,1.219-11.24,5.972l-13.749,44.913
		c-5.682,18.56,2.72,38.483,19.975,47.372c14.698,7.571,32.451,5.096,44.585-5.339c7.367,6.336,16.805,9.737,26.374,9.737
		c6.191,0,12.437-1.424,18.212-4.398C302.689,322.845,311.089,302.922,305.406,284.362z M227.553,290.875
		c1.165-0.941,5.478-1.419,12.822-1.419s11.657,0.478,12.822,1.419c0.067,0.178,0.187,0.681,0.187,1.576
		c0,6.295-5.836,11.417-13.009,11.417s-13.009-5.122-13.009-11.417C227.366,291.557,227.485,291.054,227.553,290.875z"/>
	<path d="M290.632,230.125c9.593,0,16.827-6.807,16.827-15.833c0-9.278-7.549-16.827-16.827-16.827s-16.827,7.549-16.827,16.827
		C273.805,223.318,281.039,230.125,290.632,230.125z"/>
	<path d="M191.064,230.125c9.593,0,16.827-6.807,16.827-15.833c0-9.278-7.549-16.827-16.827-16.827s-16.827,7.549-16.827,16.827
		C174.236,223.318,181.471,230.125,191.064,230.125z"/>
</g>
<g>
</g>
<g>
</g>
<g>
</g>
<g>
</g>
<g>
</g>
<g>
</g>
<g>
</g>
<g>
</g>
<g>
</g>
<g>
</g>
<g>
</g>
<g>
</g>
<g>
</g>
<g>
</g>
<g>
</g>
</svg>
