<?xml version="1.0" encoding="iso-8859-1"?>
<!-- Generator: Adobe Illustrator 18.0.0, SVG Export Plug-In . SVG Version: 6.00 Build 0)  -->
<!DOCTYPE svg PUBLIC "-//W3C//DTD SVG 1.1//EN" "http://www.w3.org/Graphics/SVG/1.1/DTD/svg11.dtd">
<svg version="1.1" id="Capa_1" xmlns="http://www.w3.org/2000/svg" xmlns:xlink="http://www.w3.org/1999/xlink" x="0px" y="0px"
	 viewBox="0 0 467.636 467.636" style="enable-background:new 0 0 467.636 467.636;" xml:space="preserve">
<g>
	<path d="M430.928,1.696c-3.564-2.566-8.458-2.184-11.58,0.899L296.99,123.371c-13.758-6.744-29.595-8.637-44.91-4.985l-4.789,1.142
		c-8.809,2.11-18.129,2.11-26.955-0.002l-4.782-1.14c-5.083-1.211-10.3-1.825-15.506-1.825c-10.31,0-20.335,2.365-29.403,6.81
		L48.288,2.595c-3.122-3.084-8.017-3.464-11.58-0.899c-3.563,2.565-4.756,7.326-2.823,11.267l36.908,75.264
		c8.858,18.063,14.223,37.386,15.946,57.432l7.234,84.185c0.889,10.354,6.389,19.554,15.089,25.239l5.636,3.683l-0.937,4.333
		c-0.135,0.625-0.203,1.263-0.203,1.902v72c0,28.067,16.32,54.107,41.574,66.338l4.243,2.057v3.781
		c0,22.493,11.699,39.098,30.532,43.335c1.94,0.437,3.888,0.711,5.83,0.856c6.882,8.732,19.636,13.854,36.143,14.246l0.104,0.001
		c0.612,0.01,1.217,0.02,1.832,0.02c0.613,0,1.217-0.009,1.829-0.02l0.175-0.003c16.453-0.39,29.199-5.514,36.079-14.249
		c1.942-0.145,3.888-0.416,5.827-0.853c18.833-4.237,30.532-20.842,30.532-43.335v-4.102l3.688-1.49
		c0.187-0.075,0.371-0.157,0.552-0.245c25.257-12.232,41.577-38.272,41.577-66.34v-72c0-0.639-0.068-1.277-0.203-1.902l-0.937-4.333
		l5.636-3.683c8.699-5.685,14.198-14.884,15.089-25.238l7.234-84.186c1.722-20.043,7.087-39.366,15.946-57.432l36.908-75.264
		C435.684,9.022,434.491,4.261,430.928,1.696z M326.675,119.362l-5.306,24.255c-2.555-3.386-5.408-6.546-8.552-9.433
		c-0.2-0.184-0.406-0.361-0.609-0.542L326.675,119.362z M146.264,143.603l-5.304-24.242l14.471,14.284
		c-0.203,0.182-0.412,0.353-0.613,0.538C151.662,137.083,148.809,140.239,146.264,143.603z M111.907,228.303l-7.234-84.186
		c-1.914-22.274-7.876-43.745-17.718-63.816L73.413,52.687l44.046,43.477l16.298,74.493c-0.037,0.165-0.081,0.327-0.116,0.492
		l-14.868,68.767C114.818,237.27,112.315,233.052,111.907,228.303z M235.462,449.617l-0.108,0.002c-1.028,0.017-2.045,0.017-3.073,0
		l-0.038,0c-4.969-0.118-9.404-0.784-13.082-1.889c2.662-1.625,5.16-3.575,7.431-5.845l7.228-7.228l7.227,7.227
		c2.273,2.273,4.778,4.219,7.444,5.846C244.82,448.834,240.402,449.5,235.462,449.617z M216.483,370.008
		c3.66-2.217,9.334-3.523,16.003-3.676c0.893-0.023,1.745-0.024,2.692,0c6.643,0.153,12.316,1.458,15.976,3.676
		c3.574,2.165,4.056,4.416,4.056,6.332c0,0.317-0.017,0.633-0.05,0.948c-0.066-0.001-0.133-0.001-0.2-0.001
		c-7.06,0-13.688,4.097-16.714,10.89l-0.989,2.222c-2.266,0.254-4.609,0.254-6.875,0l-0.99-2.222
		c-3.026-6.793-9.653-10.89-16.713-10.89c-0.066,0-0.135,0-0.201,0.001c-0.033-0.315-0.05-0.63-0.05-0.948
		C212.427,374.424,212.908,372.173,216.483,370.008z M336.078,337.001c0,19.845-10.797,38.348-27.817,48.221v-34.183
		c0-15.564,5.405-30.787,15.221-42.864c3.135-3.857,2.549-9.526-1.309-12.661c-3.857-3.136-9.527-2.548-12.66,1.308
		c-12.415,15.276-19.252,34.531-19.252,54.217v58.138c0,20.474-12.617,24.905-16.483,25.774c-7.263,1.636-14.74-0.533-20.004-5.796
		l-10.955-10.955V407.75c1.002-0.189,1.996-0.409,2.979-0.662c2.661-0.684,4.863-2.545,5.981-5.055l2.909-6.533
		c0.071-0.161,0.251-0.242,0.419-0.185l2.488,0.821c3.721,1.229,7.805-0.091,10.105-3.26c3.604-4.966,5.509-10.685,5.509-16.538
		c0-4.425-1.073-8.449-3.071-11.986l9.956-100.175c12.988-1.401,24.959-8.435,32.416-19.432c1.646-2.427,2.006-5.504,0.965-8.246
		s-3.353-4.804-6.194-5.527l-5.183-1.319c-8.357-2.126-17.015-0.831-24.381,3.646c-6.968,4.234-11.938,10.807-14.116,18.609
		c-0.32,0.784-1.165,7.93-1.165,7.93l-9.094,91.504c-5.115-1.807-11.074-2.854-17.723-3.007c-1.205-0.031-2.425-0.031-3.575,0
		c-5.965,0.137-11.373,0.994-16.117,2.469l-10.631-90.967c0,0-0.96-7.173-1.256-7.904c-2.174-7.813-7.145-14.396-14.122-18.635
		c-7.368-4.478-16.026-5.772-24.381-3.646l-5.183,1.319c-2.842,0.723-5.153,2.786-6.194,5.527c-1.041,2.741-0.681,5.818,0.965,8.245
		c7.482,11.036,19.512,18.079,32.556,19.445l11.417,97.698c-3.027,4.087-4.672,8.962-4.672,14.45c0,5.853,1.905,11.572,5.51,16.538
		c2.3,3.169,6.383,4.487,10.104,3.26l2.491-0.822c0.163-0.054,0.346,0.024,0.417,0.185l2.91,6.533
		c1.118,2.509,3.32,4.371,5.98,5.054c0.983,0.253,1.977,0.473,2.979,0.662v10.45l-10.956,10.956
		c-5.264,5.263-12.74,7.43-20.003,5.796c-15.295-3.441-16.483-20.598-16.483-25.774v-58.138c0-19.685-6.837-38.939-19.252-54.216
		c-3.133-3.858-8.804-4.444-12.66-1.309c-3.857,3.134-4.443,8.803-1.309,12.66c9.815,12.079,15.221,27.302,15.221,42.865v34.183
		c-17.021-9.873-27.817-28.376-27.817-48.222v-71.038l19.677-91.01c2.302-10.642,7.752-20.156,15.765-27.517
		c9.03-8.303,20.768-12.875,33.048-12.875c3.803,0,7.616,0.449,11.332,1.334l4.773,1.138c11.564,2.767,23.779,2.767,35.322,0.001
		l4.78-1.14c15.82-3.774,32.41,0.542,44.384,11.543c3.972,3.648,7.338,7.864,10.012,12.54c2.674,4.663,4.608,9.702,5.75,14.974
		l19.677,91.01V337.001z M380.681,80.302c-9.844,20.074-15.805,41.545-17.718,63.816l-7.234,84.185
		c-0.408,4.749-2.912,8.968-6.867,11.612l-14.868-68.769c-0.035-0.164-0.079-0.325-0.116-0.489l16.298-74.493l44.048-43.478
		L380.681,80.302z"/>
	<path d="M276.45,195.696c-4.471-2.171-9.856-0.304-12.026,4.167l-5.007,10.315c-2.171,4.472-0.305,9.856,4.167,12.026
		c1.266,0.615,2.604,0.905,3.923,0.905c3.339,0,6.548-1.867,8.104-5.072l5.007-10.315
		C282.788,203.251,280.922,197.866,276.45,195.696z"/>
	<path d="M203.213,199.863c-2.17-4.472-7.553-6.336-12.026-4.168c-4.472,2.17-6.337,7.555-4.167,12.026l5.006,10.315
		c1.556,3.207,4.764,5.073,8.104,5.073c1.318,0,2.657-0.291,3.923-0.905c4.472-2.17,6.337-7.555,4.167-12.026L203.213,199.863z"/>
</g>
<g>
</g>
<g>
</g>
<g>
</g>
<g>
</g>
<g>
</g>
<g>
</g>
<g>
</g>
<g>
</g>
<g>
</g>
<g>
</g>
<g>
</g>
<g>
</g>
<g>
</g>
<g>
</g>
<g>
</g>
</svg>
