<?xml version="1.0" encoding="iso-8859-1"?>
<!-- Generator: Adobe Illustrator 18.0.0, SVG Export Plug-In . SVG Version: 6.00 Build 0)  -->
<!DOCTYPE svg PUBLIC "-//W3C//DTD SVG 1.1//EN" "http://www.w3.org/Graphics/SVG/1.1/DTD/svg11.dtd">
<svg version="1.1" id="Capa_1" xmlns="http://www.w3.org/2000/svg" xmlns:xlink="http://www.w3.org/1999/xlink" x="0px" y="0px"
	 viewBox="0 0 452.968 452.968" style="enable-background:new 0 0 452.968 452.968;" xml:space="preserve">
<g>
	<path d="M332.228,154.273c-6.702-8.022-16.88-11.675-27.221-9.768c-10.324,1.902-18.517,8.926-21.913,18.789
		c-4.416,12.824-11.578,23.111-11.668,23.239c-1.583,2.249-2.051,5.098-1.271,7.736c0.782,2.641,2.729,4.779,5.287,5.802
		c8.365,3.346,16.235,4.713,23.467,4.713c21.079,0,36.714-11.626,43.227-19.768c1.426-1.781,2.121-4.037,1.946-6.312
		C343.994,177.548,342.907,167.051,332.228,154.273z M292.549,186.282c2.507-4.673,5.313-10.587,7.565-17.127
		c1.254-3.641,4.302-6.238,8.154-6.948c3.871-0.714,7.663,0.635,10.147,3.607c3.764,4.504,5.716,8.332,6.717,10.918
		C320.093,181.195,308.775,188.861,292.549,186.282z"/>
	<path d="M182.811,194.268c0.782-2.641,0.312-5.495-1.277-7.745c-0.071-0.102-7.2-10.277-11.66-23.23
		c-3.396-9.862-11.588-16.886-21.912-18.789c-10.346-1.907-20.52,1.746-27.223,9.768c-10.678,12.779-11.766,23.275-11.854,24.43
		c-0.175,2.275,0.521,4.532,1.946,6.313c0.666,0.834,6.836,8.305,17.963,13.868c6.234,3.117,14.757,5.957,25.122,5.957
		c7.063,0,14.981-1.32,23.608-4.771C180.081,199.047,182.029,196.909,182.811,194.268z M127.834,176.737
		c1.001-2.587,2.952-6.417,6.718-10.923c2.483-2.972,6.275-4.324,10.148-3.607c3.853,0.709,6.9,3.307,8.154,6.948
		c2.253,6.542,5.061,12.458,7.567,17.131C144.177,188.876,132.878,181.216,127.834,176.737z"/>
	<path d="M446.741,60.63c-5.555-7.443-14.058-12.016-23.329-12.545l-71.951-4.112l-64.611-6.62
		c-13.811-3.461-28.348-2.884-42.091,1.821c-11.785,4.036-24.766,4.036-36.551,0c-13.746-4.707-28.284-5.283-42.094-1.821
		l-64.608,6.62l-71.952,4.112c-9.271,0.53-17.775,5.103-23.329,12.546S-1.29,77.528,0.842,86.567l28.73,121.817
		c2.216,9.398,9.868,15.959,19.495,16.715c0.609,0.048,1.215,0.071,1.815,0.071c6.378,0,12.163-2.679,16.19-7.285l6.81,75.883
		c1.74,19.39,14.004,36.04,32.005,43.452l31.911,13.14c1.495,7.479,4.611,14.636,9.253,20.959
		c8.598,11.711,21.491,19.278,35.778,21.148c8.183,15.38,25.018,25.367,43.65,25.367c18.639,0,35.479-9.988,43.662-25.368
		c14.286-1.871,27.177-9.438,35.775-21.147c4.642-6.323,7.759-13.479,9.253-20.959l31.912-13.14
		c18.001-7.412,30.264-24.062,32.004-43.451l6.81-75.884c4.027,4.607,9.812,7.286,16.191,7.285c0.6,0,1.205-0.023,1.814-0.071
		c9.626-0.755,17.279-7.316,19.496-16.715l28.73-121.817C454.259,77.527,452.295,68.073,446.741,60.63z M257.306,302.549
		c0,15.408-13.827,27.944-30.822,27.944s-30.822-12.536-30.822-27.944c0-8.833,2.916-12.703,30.822-12.703
		S257.306,293.716,257.306,302.549z M54.272,204.815c-0.909,2.223-2.769,2.417-3.796,2.338c-1.028-0.081-2.834-0.565-3.385-2.902
		L18.361,82.435c-0.907-3.848-0.072-7.871,2.292-11.039c2.363-3.168,5.983-5.115,9.93-5.34l72.152-4.123
		c3.199-0.178,5.005,1.826,5.628,2.698s1.939,3.223,0.721,6.201l-4.646,11.357L54.272,204.815z M187.552,374.863
		c-10.369-0.648-19.843-5.823-25.991-14.198s-8.248-18.962-5.761-29.049l19.081-77.386c1.19-4.826-1.758-9.703-6.584-10.893
		c-4.83-1.19-9.702,1.758-10.893,6.583l-19.081,77.386c-0.287,1.164-0.52,2.333-0.727,3.503l-24.856-10.235
		c-11.772-4.847-19.793-15.735-20.931-28.416l-9.012-100.424c-0.327-3.644-0.07-7.332,0.731-10.899l37.581-91.865l6.249-15.042
		l32.723-15.399c13.333-6.274,28.354-7.101,42.295-2.327c4.912,1.682,9.981,2.829,15.107,3.449v212.302
		c-17.822,0.598-39.822,4.543-39.822,30.595c0,22.522,17.317,41.291,40.075,45.183v4.875
		C214.399,366.388,201.693,375.747,187.552,374.863z M226.479,399.834c-8.878,0-17.065-3.448-22.78-9.142
		c9.016-2.868,16.963-8.376,22.784-15.787c5.82,7.41,13.76,12.931,22.774,15.799C243.541,396.391,235.356,399.834,226.479,399.834z
		 M370.17,191.737l-9.013,100.423c-1.138,12.68-9.158,23.568-20.93,28.416L315.37,330.81c-0.207-1.171-0.439-2.34-0.727-3.503
		l-19.081-77.386c-1.19-4.826-6.069-7.771-10.893-6.583c-4.826,1.19-7.774,6.067-6.584,10.893l19.081,77.386
		c2.487,10.087,0.388,20.675-5.761,29.05s-15.622,13.549-25.991,14.197c-14.152,0.874-26.846-8.476-30.184-22.257v-4.875
		c22.758-3.892,40.075-22.661,40.075-45.183c0-26.051-22.001-29.997-39.822-30.595V59.652c5.127-0.619,10.196-1.767,15.107-3.449
		c13.939-4.774,28.961-3.948,42.295,2.327l32.723,15.399l6.199,14.923l37.63,91.984C370.239,184.404,370.496,188.091,370.17,191.737
		z M434.607,82.435l-28.73,121.816c-0.551,2.337-2.357,2.822-3.385,2.902c-1.022,0.079-2.886-0.115-3.796-2.338L348.478,82.061
		l-4.594-11.231c-1.218-2.978,0.099-5.328,0.721-6.2c0.596-0.835,2.264-2.71,5.22-2.71c0.134,0,0.271,0.004,0.409,0.012
		l72.151,4.123c3.947,0.226,7.566,2.172,9.93,5.34C434.678,74.563,435.514,78.587,434.607,82.435z"/>
	<path d="M159.604,128.35c1.183,0,2.386-0.235,3.541-0.73l12.32-5.28c4.569-1.958,6.686-7.249,4.728-11.818
		c-1.958-4.568-7.251-6.684-11.817-4.727l-12.32,5.28c-4.569,1.958-6.686,7.249-4.728,11.818
		C152.791,126.306,156.113,128.35,159.604,128.35z"/>
	<path d="M277.502,122.34l12.32,5.28c1.155,0.495,2.357,0.73,3.541,0.73c3.491,0,6.813-2.044,8.276-5.457
		c1.958-4.569-0.158-9.86-4.728-11.818l-12.32-5.28c-4.563-1.956-9.858,0.158-11.817,4.727
		C270.816,115.091,272.932,120.382,277.502,122.34z"/>
</g>
<g>
</g>
<g>
</g>
<g>
</g>
<g>
</g>
<g>
</g>
<g>
</g>
<g>
</g>
<g>
</g>
<g>
</g>
<g>
</g>
<g>
</g>
<g>
</g>
<g>
</g>
<g>
</g>
<g>
</g>
</svg>
