<?xml version="1.0" encoding="iso-8859-1"?>
<!-- Generator: Adobe Illustrator 18.0.0, SVG Export Plug-In . SVG Version: 6.00 Build 0)  -->
<!DOCTYPE svg PUBLIC "-//W3C//DTD SVG 1.1//EN" "http://www.w3.org/Graphics/SVG/1.1/DTD/svg11.dtd">
<svg version="1.1" id="Capa_1" xmlns="http://www.w3.org/2000/svg" xmlns:xlink="http://www.w3.org/1999/xlink" x="0px" y="0px"
	 viewBox="0 0 435.175 435.175" style="enable-background:new 0 0 435.175 435.175;" xml:space="preserve">
<path d="M429.511,219.835l-24.819-83.971c-12.689-42.93-43.535-77.734-84.629-95.489c-65.124-28.137-139.827-28.138-204.951,0
	C74.018,58.13,43.172,92.934,30.483,135.864L5.664,219.835c-10.187,34.465-6.551,71.212,10.238,103.474
	c11.104,21.337,23.935,53.06,22.002,83.016c-0.23,3.575,1.681,6.947,4.867,8.584c3.187,1.637,7.041,1.229,9.813-1.039
	c44.726-36.594,87.654-120.437,104.289-155.357c0.13,0.134,0.255,0.272,0.387,0.405c6.504,6.504,15.152,10.087,24.351,10.087
	c0.823,0,1.64-0.039,2.453-0.096c8.81,8.95,20.918,14.059,33.521,14.059c12.611,0,24.725-5.114,33.536-14.074
	c9.613,0.676,19.456-2.643,26.789-9.976c0.133-0.132,0.257-0.271,0.387-0.405c16.636,34.92,59.563,118.763,104.289,155.357
	c1.642,1.343,3.664,2.034,5.701,2.034c1.403,0,2.813-0.328,4.112-0.995c3.187-1.638,5.098-5.009,4.868-8.584
	c-1.933-29.956,10.898-61.678,22.002-83.016C436.061,291.047,439.698,254.299,429.511,219.835z M267.486,42.478
	c1.887,6.479,5.096,18.723,6.85,32.368c2.025,15.748-3.725,31.671-15.382,42.595c-10.881,10.197-19.063,21.711-23.907,29.365
	c-4.744-2.618-10.672-4.079-17.46-4.079c-6.789,0-12.714,1.462-17.458,4.081c-4.844-7.654-13.026-19.169-23.908-29.367
	c-11.657-10.924-17.407-26.847-15.382-42.595c1.748-13.596,4.964-25.875,6.853-32.369C200.554,35.547,234.625,35.547,267.486,42.478
	z M279.619,192.634c-4.887-0.626-9.292-3.184-12.293-7.049l-4.44-6.576l5.858-6.695c6.035-6.896,16.055-8.376,23.826-3.52
	l9.266,5.792l-2.609,6.522C296.082,188.97,288.018,193.713,279.619,192.634z M217.587,177.62c-6.444,0-11.686-4.572-11.686-10.191
	c0-6.049,8.172-6.702,11.686-6.702s11.687,0.653,11.687,6.702C229.274,173.049,224.031,177.62,217.587,177.62z M167.849,185.585
	c-3.002,3.865-7.406,6.423-12.292,7.049c-8.392,1.083-16.463-3.664-19.608-11.527l-2.609-6.522l9.267-5.792
	c7.771-4.856,17.791-3.377,23.826,3.52l5.858,6.695L167.849,185.585z M119.188,292.625c-1.443-19.045-6.68-38.405-11.629-56.64
	c-4.249-15.654-8.261-30.44-9.092-42.69c-2.706-39.913,18.282-71.836,18.494-72.154c2.765-4.12,1.673-9.704-2.444-12.478
	c-4.123-2.777-9.715-1.688-12.493,2.434c-1.008,1.496-24.652,37.166-21.516,83.417c0.951,14.027,5.191,29.648,9.679,46.187
	c9.03,33.273,18.324,67.563,3.883,94.661c-1.932,3.021-27.554,39.444-38.687,51.216c-2.313-21.98-10.183-45.961-23.514-71.578
	c-14.626-28.105-17.802-60.09-8.943-90.062l24.819-83.971c11.171-37.795,38.328-68.437,74.506-84.068
	c8.324-3.596,16.821-6.68,25.435-9.289c-1.692,6.922-3.498,15.594-4.701,24.941c-2.76,21.467,5.063,43.158,20.927,58.024
	c10.52,9.858,18.315,21.43,22.291,27.948c-0.363,0.463-0.718,0.941-1.06,1.447l-2.437,3.609l-2.729-3.119
	c-11.882-13.578-31.61-16.494-46.912-6.93l-15.647,9.779c-3.693,2.308-5.204,6.93-3.586,10.975l5.404,13.508
	c5.331,13.33,17.842,22.083,31.773,22.913c-4.974,8.544-6.462,18.416-4.645,27.709C143.028,245.74,133.067,267.132,119.188,292.625z
	 M169.99,246.19c-7.381-7.382-8.5-19.019-2.659-27.67l24.759-36.672c3.684,5.853,9.536,10.336,16.497,12.444v14.836
	c0,14-5.452,27.162-15.351,37.061c-3.105,3.104-7.233,4.814-11.624,4.814S173.095,249.294,169.99,246.19z M217.588,264.967
	c-5.099,0-9.949-1.284-14.226-3.697c0.9-0.736,1.769-1.52,2.603-2.353l11.623-11.623l11.624,11.623
	c0.836,0.836,1.705,1.62,2.603,2.352C227.537,263.683,222.687,264.967,217.588,264.967z M253.562,251.004
	c-4.391,0-8.519-1.71-11.624-4.814c-9.899-9.899-15.351-23.062-15.351-37.061v-14.836c6.961-2.108,12.813-6.592,16.497-12.445
	l24.759,36.672c5.841,8.651,4.723,20.288-2.658,27.67C262.081,249.294,257.953,251.004,253.562,251.004z M403.306,314.999
	c-13.332,25.617-21.201,49.598-23.514,71.578c-11.134-11.772-36.755-48.196-38.687-51.216c-14.44-27.099-5.147-61.388,3.883-94.662
	c4.488-16.539,8.728-32.16,9.679-46.187c3.136-46.251-20.508-81.92-21.516-83.417c-2.777-4.122-8.372-5.212-12.493-2.434
	c-4.122,2.778-5.211,8.371-2.434,12.493c0.212,0.315,21.207,31.979,18.484,72.139c-0.831,12.25-4.843,27.036-9.092,42.689
	c-4.947,18.227-10.196,37.579-11.642,56.616c-13.872-25.482-23.828-46.862-27.162-54.187c1.817-9.293,0.329-19.165-4.645-27.708
	c13.93-0.831,26.442-9.585,31.773-22.913l5.403-13.509c1.617-4.044,0.107-8.666-3.586-10.974l-15.647-9.779
	c-15.301-9.564-35.03-6.649-46.912,6.93l-2.729,3.119l-2.437-3.609c-0.343-0.508-0.701-0.988-1.065-1.453
	c3.957-6.5,11.723-18.033,22.297-27.941c15.863-14.866,23.687-36.557,20.927-58.024c-1.202-9.347-3.008-18.018-4.7-24.94
	c8.614,2.608,17.111,5.692,25.435,9.289c36.178,15.631,63.334,46.272,74.505,84.067l24.819,83.972
	C421.108,254.909,417.932,286.894,403.306,314.999z"/>
<g>
</g>
<g>
</g>
<g>
</g>
<g>
</g>
<g>
</g>
<g>
</g>
<g>
</g>
<g>
</g>
<g>
</g>
<g>
</g>
<g>
</g>
<g>
</g>
<g>
</g>
<g>
</g>
<g>
</g>
</svg>
