<?xml version="1.0" encoding="iso-8859-1"?>
<!-- Generator: Adobe Illustrator 18.0.0, SVG Export Plug-In . SVG Version: 6.00 Build 0)  -->
<!DOCTYPE svg PUBLIC "-//W3C//DTD SVG 1.1//EN" "http://www.w3.org/Graphics/SVG/1.1/DTD/svg11.dtd">
<svg version="1.1" id="Capa_1" xmlns="http://www.w3.org/2000/svg" xmlns:xlink="http://www.w3.org/1999/xlink" x="0px" y="0px"
	 viewBox="0 0 476.48 476.48" style="enable-background:new 0 0 476.48 476.48;" xml:space="preserve">
<g>
	<path d="M405.748,78.267C360.899,44.512,301.411,25.922,238.24,25.922c-63.171,0-122.659,18.589-167.508,52.344
		C25.12,112.596,0,158.478,0,207.459c0,2.808,1.29,5.329,3.324,6.983c1.563,1.343,16.726,14.539,30.931,32.861
		c13.167,16.982,28.252,41.993,25.354,64.7c-0.384,3.01,0.774,6.012,3.082,7.982c2.308,1.971,5.452,2.647,8.366,1.797
		c5.846-1.705,10.859-5.094,15.034-10.112l39.582,84.518l-0.054,0.508c-0.46,4.34,0.951,8.69,3.869,11.934
		c2.919,3.244,7.096,5.105,11.459,5.105c4.006,0,7.924-0.485,11.688-1.412c13.529,31.33,29.412,38.232,40.749,38.232
		c18.126,0,33.823-17.352,44.857-48.662c11.028,31.306,26.729,48.662,44.863,48.662c11.332,0,27.21-6.902,40.739-38.233
		c3.765,0.927,7.684,1.413,11.691,1.413c4.364,0,8.541-1.86,11.459-5.105c2.919-3.244,4.33-7.594,3.87-11.935l-0.054-0.509
		l39.581-84.516c4.174,5.018,9.188,8.406,15.033,10.111c0.83,0.242,1.678,0.36,2.52,0.36c2.117,0,4.196-0.747,5.847-2.157
		c2.308-1.971,3.466-4.972,3.082-7.982c-5.54-43.396,52.576-94.362,56.236-97.52c2.079-1.667,3.373-4.223,3.373-7.025
		C476.48,158.478,451.36,112.596,405.748,78.267z M18.065,203.443c1.541-47.206,30.151-89.518,74.721-118.683l-4.692,7.75
		c-16.269,26.87-22.82,58.801-18.446,89.913c1.388,9.874,6.561,35.838,10.656,55.88c2.861,14,2.957,27.819,0.286,41.07
		c-0.752,3.733-2,8.682-3.949,13.229C68.931,251.942,29.832,214.065,18.065,203.443z M118.208,337.813l16.614-94.377
		c1.465-8.325,6.097-15.386,12.525-20.05c-3.003,7.816-5.064,16.131-5.986,24.832l-12.02,113.368L118.208,337.813z M193.383,432.558
		c-7.849,0-16.917-10.458-24.379-27.746c6.304-4.496,11.546-10.541,15.174-17.799l16.033-32.081
		c8.5,6.266,18.446,10.354,28.922,11.867C219.854,411.957,204.152,432.558,193.383,432.558z M247.211,244.514l-2.08,4.668
		c-4.517,0.702-9.266,0.702-13.781,0l-2.08-4.668c-3.983-8.941-13.245-13.93-22.612-12.693c-0.482-1.537-0.724-3.109-0.724-4.709
		c0-15.355,25.31-16.716,30.404-16.834c1.274-0.032,2.511-0.032,3.825,0c5.073,0.117,30.383,1.478,30.383,16.833
		c0,1.6-0.242,3.172-0.724,4.709C260.455,230.578,251.193,235.573,247.211,244.514z M238.24,278.842l9.66,19.329
		c-3.149,0.671-6.376,1.01-9.66,1.01c-3.284,0-6.511-0.34-9.66-1.01L238.24,278.842z M220.353,314.632
		c5.779,1.68,11.762,2.549,17.887,2.549c6.125,0,12.109-0.869,17.887-2.549l11.926,23.862c-8.28,7.026-18.853,10.978-29.813,10.978
		s-21.532-3.953-29.812-10.979L220.353,314.632z M283.104,432.558c-5.829,0-12.418-5.718-18.552-16.101
		c-7.038-11.913-12.972-29.067-17.2-49.658c10.474-1.513,20.418-5.602,28.916-11.866l16.033,32.081
		c3.627,7.256,8.868,13.301,15.17,17.796C300.012,422.1,290.947,432.558,283.104,432.558z M308.403,378.967l-56.371-112.791
		c0.564-0.128,1.126-0.261,1.684-0.404c2.66-0.684,4.862-2.545,5.979-5.054l3.957-8.88c0.775-1.74,2.724-2.601,4.533-2.005
		l3.383,1.117c3.72,1.228,7.805-0.09,10.104-3.259c4.496-6.193,6.872-13.31,6.872-20.579c0-20.801-18.381-34.146-47.948-34.828
		c-1.578-0.041-3.158-0.04-4.695,0c-29.588,0.682-47.969,14.027-47.969,34.829c0,7.269,2.376,14.385,6.872,20.579
		c2.3,3.169,6.384,4.486,10.105,3.26l3.381-1.117c1.808-0.595,3.759,0.265,4.535,2.005l3.956,8.879
		c1.118,2.509,3.32,4.371,5.98,5.054c0.558,0.144,1.12,0.276,1.684,0.404l-56.37,112.791c-4.735,9.475-13.855,15.663-24.242,16.636
		l15.425-145.488c4.294-40.504,38.249-71.048,78.98-71.048s74.686,30.544,78.979,71.048l15.425,145.488
		C322.259,394.63,313.139,388.442,308.403,378.967z M335.12,248.217c-0.923-8.701-2.983-17.015-5.986-24.831
		c6.427,4.663,11.059,11.724,12.525,20.05l16.614,94.376l-11.132,23.771L335.12,248.217z M371.555,309.45l-12.17-69.134
		c-3.861-21.938-21.701-38.3-43.414-40.633c-4.994-6.605-10.805-12.529-17.277-17.646l6.056-19.174
		c0.838-2.65,2.704-4.714,5.255-5.813c2.55-1.098,5.331-1.036,7.831,0.176l51.122,24.784c4.473,2.168,9.855,0.3,12.024-4.172
		c2.168-4.473,0.3-9.856-4.173-12.025l-51.122-24.784c-7.175-3.477-15.484-3.662-22.803-0.511c-0.19,0.082-0.373,0.174-0.56,0.259
		l-3.243-27.838c-0.575-4.936-5.032-8.479-9.98-7.898c-4.938,0.575-8.474,5.043-7.898,9.981l5.33,45.755l-3.519,11.141
		c-10.907-5.633-22.993-9.272-35.773-10.438V70.314c0-4.971-4.029-9-9-9c-4.971,0-9,4.029-9,9v91.167
		c-12.781,1.166-24.866,4.804-35.772,10.437l-3.519-11.143l5.33-45.753c0.575-4.938-2.961-9.406-7.898-9.981
		c-4.943-0.583-9.406,2.961-9.981,7.898l-3.243,27.838c-0.187-0.086-0.371-0.178-0.56-0.26c-7.319-3.152-15.629-2.966-22.803,0.511
		l-51.122,24.784c-4.473,2.168-6.34,7.552-4.172,12.025c2.168,4.472,7.551,6.338,12.025,4.172l51.121-24.784
		c2.5-1.211,5.282-1.274,7.832-0.176c2.551,1.099,4.417,3.163,5.254,5.811l6.056,19.176c-6.472,5.117-12.284,11.042-17.277,17.646
		c-21.713,2.333-39.553,18.695-43.415,40.632l-12.17,69.134l-8.648-18.465c0.731-2.539,1.387-5.219,1.959-8.054
		c3.15-15.628,3.051-31.855-0.295-48.23c-3.311-16.204-9.073-44.868-10.467-54.783c-3.799-27.019,1.89-54.75,16.018-78.084
		l20.736-34.248c33.278-15.011,72.311-23.662,114.012-23.662s80.733,8.651,114.011,23.662l20.736,34.247
		c14.129,23.335,19.817,51.066,16.019,78.085c-1.395,9.923-7.156,38.582-10.467,54.782c-3.347,16.375-3.445,32.602-0.295,48.231
		c0.572,2.835,1.227,5.515,1.959,8.053L371.555,309.45z M399.838,292.602c-1.948-4.547-3.196-9.496-3.949-13.229
		c-2.671-13.252-2.575-27.07,0.285-41.07c4.095-20.038,9.268-45.998,10.656-55.88c4.375-31.112-2.176-63.043-18.445-89.914
		l-4.692-7.75c44.57,29.166,73.183,71.477,74.723,118.683C446.652,214.061,407.549,251.939,399.838,292.602z"/>
	<path d="M138.805,191.604l10.903,2.782c0.741,0.189,1.488,0.28,2.226,0.28c3.22,0,6.271-1.735,7.881-4.656l5.464-9.912
		c1.86-3.375,1.366-7.558-1.229-10.406c-2.596-2.849-6.716-3.729-10.247-2.19l-16.368,7.13c-3.525,1.536-5.686,5.142-5.376,8.975
		C132.368,187.44,135.079,190.653,138.805,191.604z"/>
	<path d="M339.045,174.632l-16.367-7.13c-3.532-1.539-7.653-0.659-10.247,2.189c-2.596,2.848-3.09,7.032-1.229,10.406l5.464,9.912
		c1.61,2.921,4.66,4.656,7.881,4.656c0.738,0,1.485-0.091,2.227-0.28l10.903-2.782c3.726-0.951,6.437-4.164,6.745-7.997
		C344.73,179.774,342.57,176.168,339.045,174.632z"/>
</g>
<g>
</g>
<g>
</g>
<g>
</g>
<g>
</g>
<g>
</g>
<g>
</g>
<g>
</g>
<g>
</g>
<g>
</g>
<g>
</g>
<g>
</g>
<g>
</g>
<g>
</g>
<g>
</g>
<g>
</g>
</svg>
