<?xml version="1.0" encoding="iso-8859-1"?>
<!-- Generator: Adobe Illustrator 18.0.0, SVG Export Plug-In . SVG Version: 6.00 Build 0)  -->
<!DOCTYPE svg PUBLIC "-//W3C//DTD SVG 1.1//EN" "http://www.w3.org/Graphics/SVG/1.1/DTD/svg11.dtd">
<svg version="1.1" id="Capa_1" xmlns="http://www.w3.org/2000/svg" xmlns:xlink="http://www.w3.org/1999/xlink" x="0px" y="0px"
	 viewBox="0 0 473.308 473.308" style="enable-background:new 0 0 473.308 473.308;" xml:space="preserve">
<path d="M455.952,121.206c-4.853-35.125-20.128-67.478-44.175-93.562c-15.833-17.175-37.413-26.982-60.765-27.613
	c-19.815-0.526-38.674,5.611-54.16,17.416c-39.622-9.11-80.776-9.11-120.398,0C160.965,5.641,142.096-0.498,122.296,0.032
	C98.944,0.662,77.364,10.469,61.53,27.644c-24.046,26.084-39.322,58.438-44.174,93.562c-4.857,35.159,1.1,70.429,17.227,101.999
	c33.292,65.17,72.224,159.832,68.633,240.703c-0.174,3.918,2.21,7.498,5.893,8.849c1.013,0.372,2.061,0.551,3.097,0.551
	c2.729,0,5.379-1.244,7.12-3.492c0.627-0.811,15.543-20.223,30.568-51.622c10.061-21.027,21.517-50.535,27.071-84.363
	c3.594,4.528,7.992,8.357,12.945,11.292c8.176,16.527,26.11,27.425,45.681,27.425c19.066,0,36.284-10.021,44.84-25.804
	c6.169-3.083,11.616-7.499,15.914-12.912c5.554,33.829,17.01,63.336,27.071,84.363c15.024,31.399,29.94,50.811,30.568,51.622
	c1.739,2.249,4.39,3.493,7.119,3.492c1.036,0,2.084-0.179,3.097-0.551c3.683-1.351,6.066-4.93,5.893-8.849
	c-3.59-80.872,35.342-175.533,68.634-240.703C454.852,191.636,460.81,156.365,455.952,121.206z M120.805,434.57
	c-5.111-77.059-39.912-160.277-70.193-219.553c-14.441-28.271-19.776-59.858-15.425-91.347
	c4.348-31.469,18.033-60.455,39.578-83.826c12.512-13.572,29.565-21.321,48.018-21.819c11.125-0.299,21.877,2.063,31.563,6.802
	c-6.12,3.71-11.195,9.056-14.531,15.499l-24.041,46.423c-8.769,16.933-10.406,37.042-4.492,55.171l51,156.326
	C161.037,355.593,137.307,406.157,120.805,434.57z M220.071,350.9c5.771-1.258,11.103-4.071,15.504-8.276
	c0.37-0.353,0.729-0.712,1.079-1.079c0.35,0.366,0.71,0.726,1.079,1.079c4.05,3.87,8.887,6.568,14.13,7.954
	c-4.828,2.547-10.405,3.969-16.273,3.969C230.052,354.547,224.743,353.228,220.071,350.9z M236.654,307.146
	c-11.302,0-20.497-8.238-20.497-18.365c0-4.261,0-7.076,20.497-7.076c20.498,0,20.498,2.815,20.498,7.076
	C257.151,298.908,247.956,307.146,236.654,307.146z M260.92,333.64c-4.014,0.178-7.84-1.249-10.752-4.03
	c-1.685-1.61-2.915-3.55-3.667-5.674c16.472-4.121,28.65-18.317,28.65-35.154c0-13.52-7.778-19.461-14.304-22.065
	c-6.971-2.781-15.422-3.011-24.194-3.011s-17.223,0.23-24.193,3.011c-6.525,2.604-14.304,8.545-14.304,22.065
	c0,16.837,12.178,31.033,28.649,35.154c-0.751,2.124-1.982,4.064-3.667,5.674c-2.912,2.782-6.741,4.205-10.751,4.03
	c-11.917-0.542-22.408-8.525-26.108-19.865l-2.055-6.3c-5.267-16.559-3.276-34.621,5.506-49.63
	c7.76-13.263,12.182-28.388,12.788-43.742c0.012-0.303,0.008-0.606-0.01-0.909c0,0-6.383-103.448-6.385-103.47
	c-0.234-3.407-2.398-6.495-5.735-7.781c-20.505-7.9-36.97,5.695-42.811,13.989c-2.275,3.229-2.178,7.564,0.239,10.689
	c0.372,0.481,2.46,3.067,7.017,6.709c4.252,3.399,9.47,5.203,14.803,5.203c1.53,0,3.071-0.149,4.6-0.451
	c1.921-0.379,3.762-0.997,5.497-1.813l4.781,77.566c-0.556,12.26-4.12,24.325-10.319,34.92c-2.125,3.633-3.941,7.405-5.448,11.276
	l-40.353-123.693c-4.428-13.575-3.202-28.632,3.363-41.311l24.041-46.423c2.69-5.195,7.464-9.081,13.096-10.662
	c22.165-6.222,44.962-9.332,67.76-9.332c22.798,0,45.596,3.11,67.76,9.332c5.633,1.581,10.406,5.467,13.097,10.662l24.04,46.423
	c6.566,12.679,7.792,27.736,3.363,41.311L304.561,260.03c-1.507-3.871-3.323-7.644-5.448-11.276
	c-6.199-10.595-9.763-22.66-10.319-34.919l4.794-77.515c1.744,0.819,3.596,1.437,5.529,1.814c1.511,0.294,3.031,0.439,4.543,0.439
	c5.294,0,10.469-1.776,14.681-5.124c4.662-3.706,6.793-6.342,7.173-6.833c2.418-3.125,2.515-7.461,0.239-10.69
	c-5.841-8.294-22.311-21.89-42.811-13.989c-3.338,1.287-5.502,4.376-5.736,7.785c-0.002,0.02-6.407,103.469-6.407,103.469
	c-0.02,0.303-0.022,0.607-0.011,0.911c0.606,15.353,5.028,30.479,12.788,43.742c8.786,15.016,10.776,33.086,5.5,49.65l-2.049,6.281
	C283.328,325.115,272.836,333.098,260.92,333.64z M352.5,434.616c-16.503-28.369-40.231-78.889-41.473-136.366l51-156.33
	c5.914-18.128,4.276-38.238-4.492-55.171l-24.04-46.423c-3.336-6.441-8.408-11.785-14.526-15.495
	c9.684-4.738,20.433-7.105,31.557-6.806c18.452,0.499,35.505,8.247,48.017,21.819c21.545,23.371,35.231,52.357,39.579,83.826
	c4.351,31.489-0.984,63.076-15.426,91.347C392.409,274.305,357.601,357.542,352.5,434.616z"/>
<g>
</g>
<g>
</g>
<g>
</g>
<g>
</g>
<g>
</g>
<g>
</g>
<g>
</g>
<g>
</g>
<g>
</g>
<g>
</g>
<g>
</g>
<g>
</g>
<g>
</g>
<g>
</g>
<g>
</g>
</svg>
