<?xml version="1.0" encoding="iso-8859-1"?>
<!-- Generator: Adobe Illustrator 18.0.0, SVG Export Plug-In . SVG Version: 6.00 Build 0)  -->
<!DOCTYPE svg PUBLIC "-//W3C//DTD SVG 1.1//EN" "http://www.w3.org/Graphics/SVG/1.1/DTD/svg11.dtd">
<svg version="1.1" id="Capa_1" xmlns="http://www.w3.org/2000/svg" xmlns:xlink="http://www.w3.org/1999/xlink" x="0px" y="0px"
	 viewBox="0 0 475.694 475.694" style="enable-background:new 0 0 475.694 475.694;" xml:space="preserve">
<g>
	<path d="M475.694,251.491c0-45.24-25.741-90.51-70.623-124.203c-45.539-34.187-104.927-53.014-167.224-53.014
		S116.162,93.102,70.623,127.288C25.741,160.981,0,206.252,0,251.491c0,30.74,26.095,59.231,79.721,86.993
		c-2.274,4.668-4.327,9.442-6.115,14.314c-0.887,2.428-1.336,4.951-1.336,7.499c0,7.521,3.981,14.616,10.405,18.527
		c11.316,6.858,23.599,12.996,36.515,18.244c4.03,1.634,8.194,2.413,12.293,2.413c9.162-0.001,17.982-3.907,24.232-10.854
		c25.486,8.52,53.805,12.793,82.132,12.793c28.33,0,56.652-4.274,82.14-12.796c6.243,6.949,15.058,10.857,24.222,10.856
		c4.098,0,8.266-0.78,12.298-2.414c12.919-5.246,25.203-11.38,36.52-18.239c8.832-5.371,12.642-16.327,9.063-26.042
		c-1.788-4.87-3.837-9.642-6.106-14.307C449.602,310.719,475.694,282.23,475.694,251.491z M125.958,380.389
		c-0.725-0.294-1.44-0.601-2.16-0.902c5.398-17.205,14.708-33.092,27.195-46.306c3.414-3.612,3.252-9.309-0.36-12.723
		c-3.612-3.413-9.309-3.253-12.723,0.36c-13.832,14.638-24.262,32.139-30.565,51.1c-5.288-2.674-10.413-5.502-15.325-8.479
		c-1.08-0.657-1.75-1.861-1.75-3.143c0-0.435,0.082-0.879,0.239-1.311c7.349-20.03,19.505-38.324,35.143-52.892
		c0.328-0.305,0.659-0.607,0.99-0.909c0.344-0.314,0.687-0.628,1.028-0.944c20.162-18.032,46.331-28.277,74.022-29.06
		c3.288,11.762,13.386,20.702,25.759,22.286c-2.563,7.443-8.489,13.534-16.326,16.228c-19.807,6.807-47.428,22.678-66.529,59.636
		C141.034,380.218,133.016,383.25,125.958,380.389z M252.893,262.64c2.343,0,4.25,1.907,4.25,4.25
		c0,7.079-5.759,12.837-12.837,12.837h-12.918c-7.078,0-12.837-5.759-12.837-12.837c0-2.343,1.907-4.25,4.25-4.25H252.893z
		 M165.539,372.885c15.484-24.851,35.339-36.399,50.293-41.762c7.232,1.722,14.623,2.587,22.016,2.587
		c7.391,0,14.783-0.865,22.013-2.586c14.95,5.358,34.806,16.904,50.305,41.758C264.907,386.979,210.798,386.98,165.539,372.885z
		 M383.686,363.44c-4.916,2.979-10.044,5.808-15.336,8.483c-6.317-19.004-16.773-36.532-30.64-51.178
		c-3.417-3.61-9.114-3.765-12.723-0.348c-3.61,3.417-3.765,9.114-0.348,12.723c12.515,13.219,21.846,29.127,27.256,46.367
		c-0.719,0.299-1.432,0.605-2.155,0.899c-7.064,2.862-15.069-0.168-18.626-7.055c-19.127-36.968-46.748-52.835-66.548-59.635
		c-7.833-2.693-13.757-8.784-16.318-16.229c12.37-1.586,22.466-10.525,25.754-22.285c28.438,0.813,55.227,11.619,75.765,30.65
		c7.812,7.23,14.791,15.409,20.744,24.31c6.014,8.988,10.954,18.694,14.685,28.856C385.81,360.666,385.17,362.537,383.686,363.44z
		 M373.679,201.194c-7.328-9.58-12.479-20.48-15.31-32.397l-7.088-29.847c-1.148-4.836-6.001-7.824-10.836-6.677
		c-4.836,1.148-7.825,6-6.677,10.836l7.088,29.847c3.418,14.393,9.651,27.573,18.525,39.175
		c30.21,39.493,28.276,81.735,23.238,103.896c-6.081-8.486-13-16.345-20.623-23.401c-24.138-22.366-55.699-34.907-89.102-35.471
		c-1.853-3.791-4.752-6.978-8.318-9.188c5.113-32.102,25.068-60.39,53.685-75.925c4.368-2.372,5.987-7.835,3.616-12.204
		s-7.835-5.988-12.204-3.616c-33.366,18.113-56.68,51.029-62.794,88.419h-18.066c-6.115-37.39-29.428-70.306-62.794-88.419
		c-4.368-2.372-9.832-0.753-12.204,3.616s-0.752,9.832,3.616,12.204c28.617,15.535,48.573,43.823,53.685,75.925
		c-3.566,2.21-6.465,5.397-8.318,9.187c-32.567,0.542-63.452,12.466-87.194,33.729c-0.039,0.036-0.078,0.071-0.117,0.107
		c-0.328,0.305-0.659,0.607-0.99,0.909c-0.364,0.333-0.728,0.666-1.103,1.013c-7.526,7.011-14.33,14.788-20.314,23.148
		c-5.044-22.152-6.994-64.417,23.23-103.929c8.875-11.602,15.107-24.782,18.525-39.175l7.088-29.847
		c1.148-4.836-1.841-9.688-6.677-10.836c-4.834-1.148-9.688,1.84-10.836,6.677l-7.088,29.847
		c-2.831,11.917-7.981,22.817-15.31,32.397c-31.966,41.789-32.706,86.438-27.529,113.949c-1.816-1.044-3.575-2.087-5.304-3.129
		c-8.893-33.282,2.248-66.028,2.365-66.365c1.638-4.686-0.826-9.814-5.51-11.461c-4.69-1.65-9.827,0.815-11.476,5.505
		c-0.466,1.325-9.337,27.126-6.179,58.2c-2.323-1.806-4.517-3.609-6.575-5.41c-3.769-47.966,12.502-75.594,12.745-75.998
		c2.59-4.223,1.28-9.749-2.937-12.358c-4.227-2.615-9.774-1.31-12.389,2.917c-0.695,1.124-14.341,23.729-15.862,63.715
		c-3.566-6.473-5.364-12.9-5.364-19.267c0-39.523,23.119-79.547,63.429-109.808c42.442-31.862,97.993-49.409,156.418-49.409
		s113.975,17.547,156.417,49.409c40.31,30.261,63.429,70.285,63.429,109.808c0,6.367-1.798,12.793-5.364,19.267
		c-1.52-39.986-15.166-62.591-15.862-63.715c-2.616-4.228-8.162-5.533-12.389-2.917s-5.533,8.163-2.917,12.389
		c0.17,0.274,16.555,27.435,12.726,75.967c-2.058,1.801-4.252,3.605-6.575,5.411c3.158-31.074-5.713-56.875-6.179-58.2
		c-1.649-4.689-6.788-7.154-11.476-5.505c-4.689,1.648-7.154,6.787-5.505,11.476c0.118,0.335,11.314,32.892,2.36,66.35
		c-1.729,1.043-3.489,2.086-5.305,3.13C406.385,287.632,405.646,242.983,373.679,201.194z"/>
	<path d="M150.407,211.052c-2.004,0.227-3.952,0.676-5.788,1.336c-16.4,5.892-21.822,27.379-22.386,29.81
		c-0.799,3.444,0.492,7.037,3.3,9.185c1.623,1.241,13.882,10.259,27.272,10.259c2.967,0,5.992-0.443,8.966-1.512
		c1.833-0.658,3.62-1.55,5.312-2.651c0.001,0,0.002-0.001,0.002-0.001c9.92-6.46,13.852-18.405,9.785-29.725
		S162.164,209.723,150.407,211.052z M159.93,233.838c0.466,1.296,1.649,5.743-2.667,8.554c-0.524,0.341-1.055,0.609-1.578,0.797
		c-3.816,1.373-9.451-0.554-13.893-2.836c1.97-4.562,5.102-9.656,8.914-11.026c0.524-0.188,1.103-0.319,1.723-0.389
		C157.546,228.359,159.465,232.542,159.93,233.838z"/>
	<path d="M325.154,211.052c-11.767-1.332-22.397,5.38-26.464,16.7s-0.135,23.265,9.785,29.725c0,0,0.001,0.001,0.002,0.001
		c1.692,1.101,3.479,1.993,5.311,2.651c2.976,1.069,5.999,1.512,8.967,1.512c13.39,0,25.649-9.018,27.272-10.259
		c2.808-2.147,4.099-5.74,3.3-9.184c-0.564-2.431-5.986-23.918-22.386-29.811C329.104,211.727,327.156,211.278,325.154,211.052z
		 M319.874,243.189c-0.521-0.188-1.052-0.455-1.577-0.796c-4.317-2.811-3.133-7.258-2.667-8.554c0.466-1.296,2.386-5.481,7.503-4.9
		c0.618,0.07,1.198,0.201,1.722,0.389c3.818,1.372,6.938,6.443,8.912,11.03C329.343,242.621,323.687,244.56,319.874,243.189z"/>
</g>
<g>
</g>
<g>
</g>
<g>
</g>
<g>
</g>
<g>
</g>
<g>
</g>
<g>
</g>
<g>
</g>
<g>
</g>
<g>
</g>
<g>
</g>
<g>
</g>
<g>
</g>
<g>
</g>
<g>
</g>
</svg>
