<?xml version="1.0" encoding="iso-8859-1"?>
<!-- Generator: Adobe Illustrator 18.0.0, SVG Export Plug-In . SVG Version: 6.00 Build 0)  -->
<!DOCTYPE svg PUBLIC "-//W3C//DTD SVG 1.1//EN" "http://www.w3.org/Graphics/SVG/1.1/DTD/svg11.dtd">
<svg version="1.1" id="Capa_1" xmlns="http://www.w3.org/2000/svg" xmlns:xlink="http://www.w3.org/1999/xlink" x="0px" y="0px"
	 viewBox="0 0 459.946 459.946" style="enable-background:new 0 0 459.946 459.946;" xml:space="preserve">
<g>
	<path d="M229.978,342.582c-33.992,0-62.894,25.4-67.228,59.082c-0.634,4.93,2.848,9.441,7.778,10.075
		c0.39,0.05,0.777,0.074,1.16,0.074c4.459,0,8.331-3.313,8.915-7.852c1.207-9.378,5.013-17.878,10.629-24.822
		c11.304,7.892,24.773,12.171,38.747,12.171c13.973,0,27.442-4.279,38.746-12.17c5.616,6.944,9.422,15.443,10.628,24.821
		c0.636,4.93,5.148,8.41,10.075,7.778c4.93-0.634,8.412-5.145,7.778-10.075C292.873,367.981,263.971,342.582,229.978,342.582z
		 M229.979,373.31c-8.613,0-16.965-2.21-24.333-6.344c7.234-4.069,15.55-6.384,24.332-6.384c8.783,0,17.099,2.316,24.333,6.385
		C246.943,371.1,238.591,373.31,229.979,373.31z"/>
	<path d="M145.447,271.249c12.075,0,21.899-9.824,21.899-21.899s-9.824-21.899-21.899-21.899s-21.899,9.824-21.899,21.899
		S133.372,271.249,145.447,271.249z M145.447,245.451c2.15,0,3.899,1.749,3.899,3.899s-1.749,3.899-3.899,3.899
		c-2.15,0-3.899-1.749-3.899-3.899S143.297,245.451,145.447,245.451z"/>
	<path d="M292.611,249.35c0,12.075,9.824,21.899,21.899,21.899s21.899-9.824,21.899-21.899s-9.824-21.899-21.899-21.899
		S292.611,237.275,292.611,249.35z M318.41,249.35c0,2.15-1.749,3.899-3.899,3.899s-3.899-1.749-3.899-3.899
		s1.749-3.899,3.899-3.899S318.41,247.2,318.41,249.35z"/>
	<path d="M421.308,179.948c-5.85-11.231-13.633-21.037-22.899-29.115c27.192-35.753,39.273-77.951,34.1-119.776l-2.859-23.16
		c-0.36-2.913-2.118-5.468-4.71-6.845c-2.592-1.377-5.693-1.404-8.31-0.071L307.489,56.602
		c-20.578,10.493-33.428,28.646-34.372,48.562c-0.003,0.062-0.005,0.124-0.007,0.186l-0.095,3.558
		c-7.658-3.164-15.67-5.469-23.918-6.871c1.768-1.643,2.881-3.982,2.881-6.587c0-3.132-1.602-5.888-4.029-7.5
		c2.427-1.612,4.029-4.368,4.029-7.5c0-4.97-4.029-9-9-9h-2.558c2.449-21.96,21.117-39.094,43.72-39.094c4.971,0,9-4.03,9-9
		s-4.029-9-9-9c-17.187,0-32.759,7.034-44,18.369V12.95c0-4.97-4.029-9-9-9s-9,4.03-9,9v20.993
		c-11.317-12.044-27.37-19.587-45.162-19.587c-4.971,0-9,4.03-9,9s4.029,9,9,9c22.602,0,41.271,17.134,43.719,39.094h-3.719
		c-4.971,0-9,4.03-9,9c0,3.132,1.602,5.888,4.029,7.5c-2.427,1.612-4.029,4.368-4.029,7.5c0,2.604,1.113,4.943,2.881,6.586
		c-8.251,1.403-16.268,3.71-23.929,6.876l-0.095-3.562c-0.001-0.062-0.004-0.124-0.007-0.186
		c-0.944-19.915-13.793-38.069-34.374-48.563L43.316,0.981c-2.615-1.333-5.715-1.306-8.309,0.071
		c-2.592,1.377-4.35,3.932-4.71,6.845l-2.86,23.158c-5.173,41.828,6.909,84.025,34.1,119.778
		c-9.266,8.078-17.049,17.885-22.9,29.117c-2.204,4.234-4.117,8.648-5.686,13.119c-1.646,4.69,0.822,9.826,5.512,11.472
		c4.691,1.647,9.827-0.822,11.472-5.512c1.287-3.667,2.857-7.29,4.667-10.766c10.07-19.333,27.061-33.588,47.843-40.139
		c20.782-6.55,42.867-4.615,62.191,5.451c23.275,12.12,38.482,34.2,42.701,58.591c-3.765-6.03-8.257-11.661-13.448-16.766
		c-17.09-16.807-39.703-26.063-63.674-26.063c-50.072,0-90.808,40.74-90.808,90.817c0,30.214,14.964,58.362,40.029,75.295
		c1.544,1.043,3.296,1.543,5.03,1.543c2.889,0,5.727-1.389,7.466-3.963c2.783-4.119,1.699-9.713-2.419-12.496
		c-20.104-13.581-32.105-36.153-32.105-60.379c0-20.344,8.395-38.756,21.89-51.981c-2.691,8.665-4.095,17.745-4.095,26.929
		c0,21.99,7.959,43.207,22.411,59.742c1.779,2.036,4.273,3.077,6.78,3.077c2.101,0,4.212-0.732,5.919-2.223
		c3.742-3.271,4.125-8.957,0.854-12.699c-11.584-13.255-17.964-30.265-17.964-47.897c0-16.066,5.356-31.727,15.113-44.393
		c6.916-2.186,14.271-3.372,21.9-3.372c19.22,0,37.35,7.421,51.052,20.897c12.025,11.826,19.442,27.135,21.296,43.681
		C139.715,263.818,92.259,315.81,92.259,377.962c0,28.799,9.966,56.024,28.821,78.733c1.78,2.144,4.345,3.251,6.929,3.251
		c2.026,0,4.064-0.681,5.744-2.076c3.824-3.175,4.351-8.849,1.175-12.673c-16.139-19.438-24.669-42.688-24.669-67.235
		c0-20.771,6.242-40.216,17.066-56.839c-4.292,11.706-6.635,24.344-6.635,37.518c0,24.372,7.854,47.434,22.712,66.693
		c3.036,3.936,8.688,4.664,12.624,1.628c3.936-3.036,4.665-8.688,1.628-12.624c-12.406-16.081-18.964-35.341-18.964-55.698
		c0-50.337,40.952-91.289,91.289-91.289s91.289,40.952,91.289,91.289c0,20.357-6.558,39.617-18.964,55.698
		c-3.036,3.936-2.307,9.587,1.629,12.624c1.637,1.263,3.571,1.875,5.49,1.875c2.694,0,5.359-1.205,7.133-3.503
		c14.858-19.26,22.712-42.322,22.712-66.693c0-13.186-2.347-25.834-6.646-37.548c10.834,16.629,17.077,36.086,17.077,56.869
		c0,24.547-8.53,47.796-24.67,67.235c-3.175,3.824-2.648,9.499,1.176,12.674c3.824,3.175,9.498,2.65,12.674-1.176
		c18.854-22.71,28.82-49.935,28.82-78.733c0-62.155-47.461-114.15-110.316-126.048c1.854-16.545,9.271-31.853,21.295-43.679
		c13.702-13.476,31.833-20.897,51.053-20.897c7.629,0,14.984,1.185,21.9,3.372c9.757,12.665,15.113,28.327,15.113,44.394
		c0,17.633-6.38,34.643-17.964,47.897c-3.271,3.743-2.889,9.428,0.854,12.699c1.707,1.492,3.817,2.224,5.919,2.224
		c2.507,0,5.001-1.042,6.78-3.077c14.452-16.535,22.411-37.752,22.411-59.742c0-9.184-1.404-18.265-4.094-26.929
		c13.495,13.225,21.889,31.637,21.889,51.981c0,24.227-12.002,46.799-32.104,60.379c-4.119,2.783-5.202,8.377-2.42,12.496
		c1.739,2.574,4.577,3.963,7.466,3.963c1.733,0,3.486-0.5,5.03-1.543c25.064-16.933,40.028-45.081,40.028-75.295
		c0-50.077-40.736-90.817-90.808-90.817c-23.971,0-46.584,9.256-63.674,26.063c-5.191,5.106-9.684,10.738-13.45,16.768
		c4.219-24.391,19.427-46.474,42.704-58.594c19.325-10.065,41.412-12.001,62.19-5.451c20.782,6.551,37.773,20.806,47.843,40.138
		c1.811,3.478,3.38,7.1,4.667,10.767c1.645,4.69,6.782,7.159,11.472,5.514c4.69-1.645,7.158-6.781,5.513-11.472
		C425.426,188.599,423.513,184.184,421.308,179.948z M137.27,126.839c-13.377-1.395-27.023-0.047-40.236,4.118
		c-7.396,2.331-14.384,5.484-20.899,9.335c-24.515-32.07-35.44-69.788-30.834-107.029l1.286-10.412l71.013,36.19
		C122.352,67.653,139.084,100.114,137.27,126.839z M155.134,128.892c1.488-19.588-4.794-40.656-11.224-56.443l0.371,0.189
		c14.718,7.505,23.895,19.945,24.564,33.292l0.328,12.281C164.258,121.375,159.565,124.941,155.134,128.892z M220.978,193.289
		c-8.105-23.294-24.764-43.565-48.027-55.678c-0.023-0.012-0.046-0.023-0.068-0.034c13.986-10.623,30.531-17.079,48.096-18.725
		V193.289z M286.997,137.61c-23.255,12.109-39.91,32.37-48.019,55.653v-74.412c17.564,1.646,34.107,8.102,48.092,18.722
		C287.046,137.586,287.021,137.598,286.997,137.61z M304.808,128.877c-4.43-3.947-9.121-7.511-14.033-10.673l0.327-12.276
		c0.671-13.346,9.847-25.787,24.563-33.29l0.376-0.191C309.61,88.231,303.324,109.291,304.808,128.877z M383.811,140.292
		c-6.514-3.851-13.502-7.004-20.898-9.335c-13.214-4.165-26.86-5.513-40.236-4.118c-1.814-26.729,14.92-59.191,19.668-67.797
		l71.014-36.19l1.286,10.414C419.251,70.504,408.327,108.222,383.811,140.292z"/>
	<path d="M229.978,331.528c4.308,0,8.335-1.699,11.342-4.785l10.87-11.162c4.9-5.032,6.303-12.466,3.572-18.938
		c-2.731-6.473-9.035-10.655-16.061-10.655h-19.447c-7.025,0-13.329,4.182-16.06,10.655c-2.731,6.472-1.329,13.906,3.572,18.938
		l10.871,11.163C221.644,329.829,225.671,331.528,229.978,331.528z M238.354,303.988l-8.376,8.601l-8.375-8.601L238.354,303.988z"/>
</g>
<g>
</g>
<g>
</g>
<g>
</g>
<g>
</g>
<g>
</g>
<g>
</g>
<g>
</g>
<g>
</g>
<g>
</g>
<g>
</g>
<g>
</g>
<g>
</g>
<g>
</g>
<g>
</g>
<g>
</g>
</svg>
