<?xml version="1.0" encoding="iso-8859-1"?>
<!-- Generator: Adobe Illustrator 18.0.0, SVG Export Plug-In . SVG Version: 6.00 Build 0)  -->
<!DOCTYPE svg PUBLIC "-//W3C//DTD SVG 1.1//EN" "http://www.w3.org/Graphics/SVG/1.1/DTD/svg11.dtd">
<svg version="1.1" id="Capa_1" xmlns="http://www.w3.org/2000/svg" xmlns:xlink="http://www.w3.org/1999/xlink" x="0px" y="0px"
	 viewBox="0 0 451.681 451.681" style="enable-background:new 0 0 451.681 451.681;" xml:space="preserve">
<g>
	<path d="M320.462,175.067c-1.149-0.851-11.541-8.226-22.68-5.134c-4.6,1.275-10.919,4.816-14.903,14.443
		c-1.897,4.585,0.275,9.84,4.855,11.749c3.245,1.352,9.011,2.918,15.114,2.918c4.383,0,8.941-0.809,12.861-3.083
		c4.699-2.727,7.656-7.182,8.326-12.544C324.439,180.191,323.073,177,320.462,175.067z"/>
	<path d="M135.971,195.959c3.92,2.275,8.478,3.083,12.861,3.083c6.103,0,11.87-1.566,15.114-2.918
		c4.581-1.908,6.752-7.164,4.855-11.749c-3.984-9.627-10.303-13.168-14.903-14.443c-11.137-3.089-21.532,4.284-22.68,5.134
		c-2.611,1.934-3.977,5.125-3.574,8.348C128.315,188.777,131.272,193.232,135.971,195.959z"/>
	<path d="M451.56,174.054l-8.428-51.131c-4.573-27.745-22.195-52.061-47.137-65.044c-25.86-13.462-56.763-13.511-82.666-0.134
		l-14.794,7.641c-4.062-1.255-8.408-1.75-12.848-1.345l-50.03,4.548c-6.514,0.592-13.119,0.592-19.632,0l-50.03-4.548
		c-4.44-0.404-8.786,0.091-12.847,1.345l-14.795-7.641c-25.903-13.378-56.805-13.328-82.666,0.133
		c-24.942,12.984-42.564,37.3-47.137,65.045l-8.428,51.131c-0.799,4.85,2.44,9.444,7.277,10.32c0.542,0.098,1.081,0.146,1.613,0.146
		c1.138,0,3.264-0.618,3.264-0.618c0.418-0.164,38.169-14.732,79.866-17.648c-8.847,21.065-16.01,42.844-21.369,65.046
		c-6.776,28.076-0.848,57.521,16.267,80.787l39.836,54.152c0.362,9.311,6.115,17.384,14.889,20.726
		c1.355,0.516,2.731,0.898,4.113,1.155l7.915,7.106c7.012,6.296,16.413,9.422,25.802,8.572c9.385-0.849,18.077-5.609,23.846-13.061
		c3.015-3.894,7.754-6.219,12.678-6.219h19.444c4.924,0,9.663,2.325,12.678,6.219c5.769,7.452,14.461,12.212,23.846,13.061
		c1.014,0.092,2.026,0.137,3.038,0.137c8.35,0,16.51-3.093,22.764-8.708l7.936-7.125c1.375-0.256,2.745-0.623,4.092-1.136
		c8.774-3.342,14.527-11.416,14.889-20.726l39.836-54.152c17.103-23.25,23.036-52.67,16.28-80.729
		c-0.004-0.02-0.009-0.04-0.014-0.06c-5.358-22.201-12.52-43.978-21.367-65.042c41.618,2.922,79.87,17.642,79.87,17.642
		c1.022,0.4,2.122,0.622,3.259,0.622c0.532,0,1.071-0.047,1.613-0.146C449.12,183.499,452.359,178.904,451.56,174.054z
		 M387.683,73.845c11.101,5.778,20.387,14.363,27.071,24.667c-8.724-8.837-19.298-15.778-32.023-18.756
		c-32.502-7.607-52.363-0.893-62.894,5.477l-1.572-3.118c-0.906-1.797-1.971-3.469-3.146-5.034l6.471-3.342
		C342.299,63.041,367.008,63.081,387.683,73.845z M262.494,205.269c27.354,13.904,44.347,41.589,44.347,72.25v87.791
		c0,3.217-2.33,4.452-3.332,4.834c-1.002,0.382-3.563,1.009-5.704-1.393l-50.093-56.216c-6.437-7.224-10.619-16.067-12.178-25.491
		c2.374-0.342,4.722-0.802,7.028-1.395c2.66-0.684,4.862-2.545,5.98-5.054l4.328-9.715c1.026-2.303,3.603-3.444,5.999-2.653
		l3.701,1.222c3.719,1.228,7.805-0.09,10.105-3.26c4.813-6.63,7.356-14.244,7.356-22.017c0-22.248-19.792-36.523-51.629-37.257
		c-1.714-0.044-3.432-0.043-5.098,0c-31.861,0.734-51.653,15.01-51.653,37.257c0,7.773,2.544,15.386,7.356,22.017
		c2.301,3.169,6.386,4.486,10.105,3.26l3.701-1.222c2.394-0.791,4.973,0.351,5.999,2.653l4.328,9.715
		c1.118,2.509,3.32,4.371,5.98,5.054c2.306,0.593,4.654,1.053,7.028,1.395c-1.559,9.424-5.741,18.267-12.178,25.492l-50.093,56.215
		c-2.141,2.403-4.702,1.774-5.704,1.393c-1.001-0.381-3.332-1.616-3.332-4.834v-86.662c0-31.061,17.032-59.141,44.45-73.28
		c16.376-8.446,26.55-25.359,26.55-44.14v-30.709c0-5.514,4.486-10,10-10s10,4.486,10,10v30.797
		C235.841,180.071,246.054,196.913,262.494,205.269z M233.965,269.082c-5.318,0.878-10.931,0.878-16.25,0l-2.462-5.526
		c-4.3-9.652-14.425-14.945-24.543-13.291c-0.706-1.979-1.061-4.015-1.061-6.093c0-3.085,1.643-18.515,34.091-19.263
		c1.405-0.036,2.768-0.037,4.222,0c32.425,0.747,34.067,16.177,34.067,19.262c0,2.078-0.355,4.114-1.061,6.093
		c-10.113-1.651-20.243,3.638-24.543,13.291L233.965,269.082z M63.998,73.844c20.676-10.762,45.384-10.802,66.094-0.106l6.471,3.342
		c-1.175,1.565-2.24,3.237-3.146,5.034l-1.572,3.118c-10.531-6.37-30.393-13.083-62.894-5.477
		c-12.725,2.978-23.299,9.919-32.023,18.756C43.611,88.208,52.897,79.623,63.998,73.844z M22.063,161.586
		c6.783-21.325,22.331-57.598,50.989-64.305c29.217-6.838,44.415-0.265,50.691,4.013l-19.215,38.099
		c-1.409,2.794-2.778,5.61-4.126,8.435C69.317,148.681,39.667,156.182,22.063,161.586z M88.27,235.523
		c7.349-30.444,18.226-60.06,32.33-88.024l28.889-57.28c2.814-5.579,8.658-8.815,14.876-8.253l50.03,4.548
		c0.814,0.074,1.63,0.136,2.446,0.194v17.301c-11.036,3.758-19,14.217-19,26.508v30.709c0,12.014-6.438,22.797-16.8,28.142
		c-33.432,17.242-54.2,51.451-54.2,89.278v57.168l-25.302-34.395C87.579,282.443,82.743,258.424,88.27,235.523z M273.708,385.871
		c-4.487-0.406-8.477-2.591-11.234-6.153c-6.399-8.265-16.459-13.199-26.911-13.199h-19.444c-10.452,0-20.512,4.935-26.911,13.199
		c-2.758,3.563-6.747,5.748-11.234,6.153c-4.385,0.396-8.601-0.976-11.919-3.847c0.432-0.416,0.855-0.845,1.26-1.299l50.093-56.215
		c3.239-3.635,6.06-7.574,8.434-11.741c2.373,4.167,5.194,8.106,8.433,11.741l50.093,56.215c0.404,0.454,0.822,0.888,1.253,1.304
		C282.302,384.897,278.084,386.266,273.708,385.871z M363.412,235.523c5.527,22.901,0.691,46.919-13.269,65.896l-25.302,34.395
		v-58.297c0-37.472-20.765-71.305-54.191-88.295c-10.368-5.27-16.809-15.963-16.809-27.907v-30.797c0-12.291-7.964-22.75-19-26.507
		V86.709c0.816-0.058,1.632-0.12,2.446-0.194l50.03-4.548c6.224-0.562,12.062,2.674,14.876,8.253l28.895,57.291
		c14.092,27.943,24.962,57.532,32.31,87.952C363.401,235.482,363.406,235.503,363.412,235.523z M347.159,139.404l-19.226-38.12
		c6.213-4.208,21.468-10.844,50.696-4.003c28.571,6.687,44.154,42.966,50.965,64.297c-17.607-5.403-47.244-12.897-78.315-13.75
		C349.933,145.007,348.566,142.195,347.159,139.404z"/>
</g>
<g>
</g>
<g>
</g>
<g>
</g>
<g>
</g>
<g>
</g>
<g>
</g>
<g>
</g>
<g>
</g>
<g>
</g>
<g>
</g>
<g>
</g>
<g>
</g>
<g>
</g>
<g>
</g>
<g>
</g>
</svg>
