<?xml version="1.0" encoding="iso-8859-1"?>
<!-- Generator: Adobe Illustrator 18.0.0, SVG Export Plug-In . SVG Version: 6.00 Build 0)  -->
<!DOCTYPE svg PUBLIC "-//W3C//DTD SVG 1.1//EN" "http://www.w3.org/Graphics/SVG/1.1/DTD/svg11.dtd">
<svg version="1.1" id="Capa_1" xmlns="http://www.w3.org/2000/svg" xmlns:xlink="http://www.w3.org/1999/xlink" x="0px" y="0px"
	 viewBox="0 0 480.899 480.899" style="enable-background:new 0 0 480.899 480.899;" xml:space="preserve">
<g>
	<path d="M199.391,175.423c-5.615-11.185-15.903-18.854-28.226-21.041c-12.322-2.187-24.622,1.474-33.742,10.044
		c-3.344,3.142-5.288,7.576-5.334,12.164c-0.045,4.589,1.811,9.06,5.092,12.268l3.856,3.77c0.134,0.13,0.271,0.257,0.413,0.379
		c7.714,6.656,17.402,10.142,27.241,10.142c5.029,0,10.1-0.912,14.961-2.777l14.421-5.533c2.373-0.91,4.25-2.782,5.168-5.152
		c0.918-2.37,0.792-5.018-0.349-7.289L199.391,175.423z M177.204,183.566c-8.095,3.105-17.188,1.562-23.801-4.02l-2.814-2.752
		c4.839-4.102,11.129-5.807,17.431-4.689c5.962,1.058,11.045,4.487,14.229,9.526L177.204,183.566z"/>
	<path d="M309.07,154.382c-12.323,2.187-22.611,9.856-28.226,21.041l-3.501,6.976c-1.14,2.271-1.267,4.919-0.349,7.289
		c0.918,2.37,2.795,4.241,5.168,5.152l14.421,5.533c4.863,1.866,9.932,2.777,14.962,2.777c9.837,0,19.527-3.487,27.241-10.142
		c0.141-0.122,0.278-0.248,0.412-0.378l3.857-3.77c3.281-3.208,5.137-7.679,5.091-12.267c-0.045-4.589-1.989-9.022-5.333-12.165
		C333.692,155.856,321.395,152.196,309.07,154.382z M326.831,179.546c-6.612,5.582-15.708,7.126-23.801,4.02l-5.044-1.936
		c3.184-5.039,8.267-8.467,14.229-9.525c6.303-1.119,12.592,0.588,17.431,4.689L326.831,179.546z"/>
	<path d="M463.402,170.202c-0.126-0.135-0.257-0.265-0.392-0.392L382.4,93.998c-38.623-36.323-89.567-36.306-138.822-36.314
		c0,0-11.357,0.114-13.694,0.152c-48.227,0.777-93.779,1.511-130.336,35.671L17.91,169.79c-0.142,0.133-0.28,0.27-0.413,0.412
		C3.549,185.039-2.609,205.86,1.024,225.898l17.133,94.489c2.917,16.091,12.034,29.924,25.671,38.949
		c13.637,9.026,29.933,12.013,45.885,8.411c8.533-1.927,16.306-5.674,22.954-10.769l18.386,59.876
		c1.189,3.872,4.751,6.361,8.601,6.361c0.875,0,1.765-0.129,2.645-0.399c4.751-1.459,7.42-6.494,5.961-11.245l-21.491-69.987
		c5.421-8.526,8.723-18.474,9.213-29.046l0.853-18.384c0.604-13.019-1.344-25.832-5.791-38.085
		c-4.118-11.346-6.86-23.043-8.264-34.846c15.634,10.697,18.842,24.42,19.187,32.608l3.457,82.129
		c0.552,13.03,7.396,25.065,18.305,32.191l11.233,7.346c3.362,2.196,7.183,3.319,11.053,3.319c2.305,0,4.627-0.398,6.879-1.205
		c1.073-0.385,2.099-0.852,3.073-1.394c13.966,5.729,29.223,8.599,44.481,8.599s30.516-2.87,44.482-8.599
		c0.973,0.541,1.999,1.009,3.073,1.394c6.033,2.162,12.568,1.391,17.935-2.115l11.226-7.341
		c10.913-7.128,17.757-19.163,18.309-32.195l3.457-82.126c0.345-8.188,3.553-21.912,19.187-32.609
		c-1.404,11.804-4.146,23.5-8.264,34.847c-4.446,12.252-6.395,25.066-5.791,38.084l0.853,18.385
		c0.49,10.572,3.792,20.519,9.213,29.046l-21.491,69.987c-1.459,4.751,1.21,9.786,5.961,11.245c0.88,0.27,1.77,0.399,2.645,0.399
		c3.849,0,7.412-2.489,8.601-6.361l18.386-59.876c6.648,5.094,14.422,8.842,22.954,10.769c4.412,0.996,8.848,1.488,13.249,1.488
		c11.512,0,22.77-3.369,32.636-9.899c13.637-9.026,22.754-22.858,25.671-38.949l17.133-94.489
		C483.508,205.86,477.35,185.039,463.402,170.202z M240.45,283.36c-12.614,0-23.271-7.183-23.271-15.686
		c0-10.883,20.889-11.198,23.271-11.198s23.271,0.314,23.271,11.198C263.72,276.177,253.063,283.36,240.45,283.36z M254.239,325.136
		c1.296,0,2.266,0.51,2.832,0.924c0.582,0.428,1.355,1.195,1.739,2.422c0.005,0.015,0.012,0.029,0.017,0.044
		c-12.195-1.339-24.561-1.339-36.755,0c0.005-0.015,0.012-0.029,0.017-0.044c0.384-1.227,1.158-1.994,1.719-2.407
		c0.585-0.428,1.555-0.938,2.852-0.938c5.197,0,9.97-1.699,13.79-4.585C244.269,323.436,249.041,325.136,254.239,325.136z
		 M207.054,361.189l6.079-13.153c17.974-3.343,36.66-3.343,54.632,0l6.079,13.153C252.581,368.736,228.318,368.736,207.054,361.189z
		 M462.163,222.686l-17.133,94.489c-2.034,11.217-8.389,20.859-17.895,27.151c-9.506,6.292-20.868,8.375-31.985,5.863
		c-18.129-4.094-31.393-19.919-32.254-38.485l-0.853-18.385c-0.493-10.634,1.098-21.101,4.73-31.109
		c16.796-46.279,13.218-97.776-9.818-141.287c-2.425-4.579-8.24-6.206-12.719-3.425c-4.051,2.515-5.284,7.873-3.061,12.091
		c11.549,21.908,17.605,46.063,18.026,70.373c-24.897,11.785-33.734,29.701-36.769,42.55c-8.441-11.039-15.911-21.874-22.203-32.215
		c-2.484-4.082-7.727-5.769-11.969-3.568c-4.672,2.424-6.251,8.244-3.564,12.668c6.772,11.156,14.816,22.82,23.904,34.666
		c6.863,8.95,10.694,19.905,10.991,31.191l-2.102,49.945c-0.306,7.24-4.107,13.926-10.172,17.887l-9.523,5.95
		c-2.067,1.291-4.798,0.481-5.825-1.73l-16.186-34.827c-1.511-4.386-4.283-8.152-8.066-10.934
		c-3.944-2.885-8.604-4.409-13.478-4.409c-2.568,0-4.714-2.082-4.784-4.641c-0.001-0.055-0.003-0.111-0.006-0.166
		c-0.001-0.6-0.064-1.185-0.177-1.752c18.53-3.308,32.447-16.8,32.447-32.903c0-17.737-16.2-29.198-41.271-29.198
		c-25.071,0-41.271,11.461-41.271,29.198c0,16.103,13.918,29.595,32.448,32.903c-0.112,0.563-0.175,1.145-0.177,1.741
		c-0.003,0.059-0.005,0.118-0.006,0.177c-0.069,2.559-2.215,4.641-4.784,4.641c-4.873,0-9.533,1.525-13.498,4.424
		c-3.764,2.769-6.535,6.534-8.046,10.919l-16.204,35.005c-1.035,2.236-3.808,3.039-5.878,1.703l-9.456-6.104
		c-6.061-3.959-9.862-10.645-10.168-17.882l-2.102-49.947c0.297-11.285,4.128-22.241,10.989-31.189
		c8.98-11.705,16.961-23.272,23.725-34.386c2.501-4.11,1.582-9.582-2.367-12.331c-4.303-2.995-10.17-1.704-12.849,2.707
		c-6.348,10.456-13.865,21.372-22.339,32.456c-3.035-12.848-11.872-30.764-36.769-42.549c0.42-24.309,6.476-48.463,18.024-70.37
		c2.223-4.218,0.991-9.576-3.058-12.093c-4.477-2.782-10.296-1.156-12.72,3.424c-23.036,43.511-26.614,95.008-9.818,141.286
		c3.632,10.009,5.223,20.476,4.73,31.11l-0.853,18.384c-0.861,18.566-14.125,34.391-32.254,38.485
		c-11.119,2.511-22.479,0.429-31.985-5.863c-9.506-6.292-15.861-15.934-17.895-27.151l-17.133-94.489
		c-2.603-14.355,1.765-29.269,11.687-39.953l81.415-76.076c31.492-29.426,73.676-30.106,118.337-30.825
		c2.348-0.038,13.406-0.149,13.406-0.149c47.89-0.001,93.064-0.009,126.489,31.427l80.399,75.614
		C460.397,193.408,464.767,208.326,462.163,222.686z"/>
	<path d="M211.927,139.466c-8.516-16.15-21.396-25.883-37.249-28.148c-4.926-0.703-9.479,2.716-10.183,7.637
		c-0.703,4.92,2.716,9.479,7.637,10.182c24.384,3.483,29.818,35.603,29.879,35.982c0.695,4.436,4.522,7.607,8.88,7.607
		c0.455,0,0.916-0.035,1.38-0.106c4.913-0.756,8.283-5.351,7.527-10.264C219.728,161.898,217.999,150.982,211.927,139.466z"/>
	<path d="M278.891,165.094c0.013-0.083,1.399-8.501,6.003-17.232c5.794-10.99,13.826-17.289,23.873-18.724
		c4.92-0.703,8.339-5.262,7.637-10.182c-0.703-4.92-5.257-8.339-10.183-7.637c-15.853,2.265-28.733,11.998-37.249,28.148
		c-6.072,11.516-7.801,22.432-7.872,22.891c-0.756,4.913,2.614,9.508,7.527,10.264c0.464,0.072,0.924,0.106,1.38,0.106
		C274.373,172.727,278.206,169.543,278.891,165.094z"/>
</g>
<g>
</g>
<g>
</g>
<g>
</g>
<g>
</g>
<g>
</g>
<g>
</g>
<g>
</g>
<g>
</g>
<g>
</g>
<g>
</g>
<g>
</g>
<g>
</g>
<g>
</g>
<g>
</g>
<g>
</g>
</svg>
