<?xml version="1.0" encoding="iso-8859-1"?>
<!-- Generator: Adobe Illustrator 18.0.0, SVG Export Plug-In . SVG Version: 6.00 Build 0)  -->
<!DOCTYPE svg PUBLIC "-//W3C//DTD SVG 1.1//EN" "http://www.w3.org/Graphics/SVG/1.1/DTD/svg11.dtd">
<svg version="1.1" id="Capa_1" xmlns="http://www.w3.org/2000/svg" xmlns:xlink="http://www.w3.org/1999/xlink" x="0px" y="0px"
	 viewBox="0 0 452.646 452.646" style="enable-background:new 0 0 452.646 452.646;" xml:space="preserve">
<g>
	<path d="M303.004,266.472c7.43,0,14.946-2.005,21.704-6.212c2.026-1.262,3.469-3.276,4.01-5.602
		c0.541-2.325,0.136-4.769-1.126-6.795l-5.78-9.285c-4.271-6.861-10.959-11.649-18.831-13.48
		c-7.873-1.832-15.987-0.487-22.847,3.784l-9.285,5.78c-2.026,1.262-3.469,3.276-4.01,5.601c-0.541,2.325-0.136,4.77,1.125,6.796
		C275.762,259.584,289.234,266.472,303.004,266.472z M289.646,244.162c2.78-1.73,6.068-2.276,9.256-1.533
		c3.189,0.742,5.898,2.681,7.629,5.461l0.063,0.102c-5.965,0.945-12.113-0.486-17.049-3.967L289.646,244.162z"/>
	<path d="M127.938,260.26c6.759,4.208,14.273,6.212,21.704,6.212c13.769,0,27.243-6.889,35.04-19.414
		c1.261-2.026,1.666-4.471,1.125-6.796c-0.541-2.325-1.983-4.339-4.01-5.601l-9.285-5.78c-6.861-4.271-14.976-5.615-22.847-3.784
		c-7.872,1.832-14.56,6.619-18.831,13.48l-5.78,9.285c-1.262,2.026-1.667,4.471-1.126,6.795
		C124.469,256.983,125.911,258.998,127.938,260.26z M146.115,248.091c1.73-2.78,4.439-4.719,7.628-5.461
		c3.19-0.742,6.477-0.198,9.256,1.533l0.102,0.063c-4.938,3.48-11.084,4.91-17.05,3.966L146.115,248.091z"/>
	<path d="M388.236,244.215c22.215-57.534,27.903-119.923,16.424-180.545l-6.434-33.979c-2.854-15.077-14.468-26.514-29.587-29.138
		c-15.119-2.623-29.907,4.232-37.675,17.466l-55.643,94.799c-3.447-0.834-7.026-1.279-10.672-1.279h-76.653
		c-3.991,0-7.906,0.525-11.65,1.521l-54.665-93.133C113.914,6.692,99.123-0.162,84.007,2.461
		C68.888,5.084,57.274,16.522,54.42,31.598l-6.434,33.979c-11.446,60.447-5.822,122.649,16.233,180.044l-8.511,62.634
		c-4.415,32.49,3.501,65.737,22.289,93.617l31.537,46.802c1.738,2.58,4.579,3.972,7.472,3.972c1.73,0,3.479-0.498,5.021-1.537
		c4.122-2.778,5.212-8.371,2.435-12.493l-31.538-46.802c-16.316-24.213-23.198-53.027-19.379-81.135l10.821-79.627l84.741-93.516
		c4.606-5.083,11.492-7.998,18.892-7.998h76.653c7.399,0,14.285,2.915,18.892,7.998l84.741,93.516l10.821,79.627
		c3.819,28.107-3.063,56.922-19.38,81.135l-31.537,46.802c-2.777,4.122-1.688,9.715,2.435,12.493
		c4.123,2.778,9.715,1.687,12.493-2.435l31.536-46.802c18.788-27.88,26.703-61.127,22.289-93.617L388.236,244.215z M73.281,216.477
		c-14.273-47.767-16.94-98.276-7.609-147.551l6.434-33.979c1.754-9.264,8.888-13.695,14.979-14.752
		c6.093-1.056,14.301,0.711,19.074,8.843l16.375,27.899c2.5,12.128,12.147,65.262-1.523,104.123
		c-1.028,2.922-2.606,5.62-4.686,7.916L73.281,216.477z M155.767,125.45l-11.111,12.262c1.783-14.162,1.851-28.394,1.134-41.153
		l14.469,24.65C158.662,122.507,157.155,123.918,155.767,125.45z M291.623,120.602l15.358-26.165
		c-0.846,13.292-0.868,28.327,1.016,43.281l-11.118-12.269C295.271,123.676,293.507,122.061,291.623,120.602z M336.321,168.976
		c-1.978-2.183-3.545-4.715-4.535-7.489c-15.685-43.917-1.283-106.425-1.13-107.075c0,0-0.074,0.016-0.21,0.047l16.041-27.329
		c4.773-8.132,12.983-9.899,19.074-8.843c6.091,1.057,13.225,5.488,14.979,14.752l6.434,33.979
		c9.423,49.767,6.607,100.792-8.043,148.98L336.321,168.976z"/>
	<path d="M345.81,334.719c0-4.971-4.029-9-9-9c-7.665,0-15.112,1.397-22.068,4.041c-4.297-24.9-18.487-47.41-39.576-61.96
		c-12.27-8.466-19.595-22.281-19.595-36.957v-59.11c0-4.971-4.029-9-9-9s-9,4.029-9,9v59.11c0,20.592,10.232,39.946,27.372,51.772
		c18.95,13.075,31.029,34.079,32.913,56.86c-1.701,1.378-3.345,2.845-4.914,4.414l-11.458,11.458
		c-8.318,8.318-19.377,12.899-31.141,12.899c-8.283,0-15.021-6.739-15.021-15.021v-2.901c16.841-4.062,29.394-19.248,29.394-37.319
		c0-8.853-7.202-16.055-16.055-16.055h-44.679c-8.853,0-16.055,7.202-16.055,16.055c0,18.071,12.553,33.257,29.395,37.319v2.901
		c0,8.283-6.739,15.021-15.021,15.021c-11.763,0-22.822-4.581-31.141-12.898l-11.458-11.458c-1.569-1.569-3.213-3.037-4.914-4.414
		c1.885-22.78,13.963-43.785,32.913-56.86c17.14-11.826,27.372-31.18,27.372-51.772v-59.11c0-4.971-4.029-9-9-9s-9,4.029-9,9v59.11
		c0,14.675-7.325,28.491-19.595,36.957c-21.089,14.551-35.279,37.059-39.576,61.96c-6.957-2.644-14.403-4.041-22.068-4.041
		c-4.971,0-9,4.029-9,9s4.029,9,9,9c11.763,0,22.822,4.581,31.14,12.898l11.458,11.458c11.718,11.717,27.297,18.17,43.868,18.17
		c9.459,0,17.995-4.004,24.021-10.399c6.026,6.395,14.562,10.399,24.021,10.399c16.571,0,32.15-6.453,43.868-18.171l11.458-11.458
		c8.318-8.317,19.377-12.898,31.14-12.898C341.781,343.719,345.81,339.69,345.81,334.719z M206.02,314.951h40.605
		c-0.983,10.336-9.713,18.449-20.302,18.449h0C215.733,333.4,207.003,325.287,206.02,314.951z"/>
</g>
<g>
</g>
<g>
</g>
<g>
</g>
<g>
</g>
<g>
</g>
<g>
</g>
<g>
</g>
<g>
</g>
<g>
</g>
<g>
</g>
<g>
</g>
<g>
</g>
<g>
</g>
<g>
</g>
<g>
</g>
</svg>
