<?xml version="1.0" encoding="iso-8859-1"?>
<!-- Generator: Adobe Illustrator 18.0.0, SVG Export Plug-In . SVG Version: 6.00 Build 0)  -->
<!DOCTYPE svg PUBLIC "-//W3C//DTD SVG 1.1//EN" "http://www.w3.org/Graphics/SVG/1.1/DTD/svg11.dtd">
<svg version="1.1" id="Capa_1" xmlns="http://www.w3.org/2000/svg" xmlns:xlink="http://www.w3.org/1999/xlink" x="0px" y="0px"
	 viewBox="0 0 477.192 477.192" style="enable-background:new 0 0 477.192 477.192;" xml:space="preserve">
<g>
	<path d="M419.666,5.977c-1.541-4.317-6.084-6.786-10.538-5.736c-39.145,9.214-107.112,90.328-143.683,148.361
		c-17.846-2.637-35.854-2.637-53.697,0C175.178,90.569,107.212,9.455,68.064,0.241c-4.453-1.048-8.997,1.42-10.538,5.736
		c-9.441,26.461,1.501,99.993,12.342,157.02c3.606,18.974,14.402,35.4,30.398,46.252l26.298,17.842
		c-1.534,5.209-2.092,10.718-1.57,16.257l3.651,38.71c0.943,9.995,3.637,19.646,8.005,28.685l16.356,33.84
		c9.146,18.924,14.179,40.033,14.554,61.046c0.326,18.284,11.258,34.124,26.813,41.657c7.17,17.803,24.774,29.906,44.225,29.906
		c19.447,0,37.046-12.103,44.216-29.905c15.556-7.533,26.489-23.374,26.816-41.659c0.374-21.013,5.406-42.122,14.554-61.046
		l16.354-33.839c4.37-9.04,7.063-18.691,8.006-28.686l3.651-38.708c0.522-5.539-0.035-11.048-1.57-16.257l26.299-17.842
		c15.996-10.852,26.792-27.278,30.398-46.252C418.166,105.968,429.106,32.434,419.666,5.977z M290.655,158.262
		c-2.218-1.767-4.593-3.301-7.097-4.588c2.906-4.506,5.947-9.069,9.102-13.659L290.655,158.262z M186.536,158.264l-2.005-18.253
		c3.156,4.591,6.198,9.156,9.104,13.663C191.13,154.961,188.754,156.496,186.536,158.264z M110.372,194.354
		c-12.009-8.147-20.113-20.477-22.82-34.718C75.189,94.609,69.86,44.573,72.588,21.095c23.327,11.841,59.338,49.162,90.625,89.7
		l7.015,63.869l-33.372,34.707c-0.572,0.595-1.122,1.206-1.656,1.828L110.372,194.354z M219.265,451.965h38.663
		c-5.272,4.53-12.093,7.227-19.328,7.227C231.361,459.192,224.539,456.495,219.265,451.965z M212.996,405.332
		c-0.172-0.809-0.259-1.629-0.259-2.457c0-11.652,20.216-12.708,24.295-12.802c1.047-0.027,2.055-0.028,3.154,0
		c4.053,0.093,24.269,1.149,24.269,12.802c0,0.828-0.087,1.647-0.259,2.457c-8.095-0.556-15.869,3.927-19.313,11.658l-1.439,3.232
		c-3.187,0.426-6.51,0.426-9.694,0l-1.439-3.231C228.866,409.259,221.081,404.769,212.996,405.332z M334.277,241.658l-3.651,38.709
		c-0.741,7.854-2.857,15.438-6.292,22.542l-16.355,33.84c-10.271,21.252-15.924,44.959-16.345,68.558
		c-0.282,15.802-13.369,28.658-29.174,28.658h-5.846c0.55-0.646,1.021-1.365,1.374-2.157l3.337-7.493
		c0.36-0.808,1.265-1.206,2.104-0.93l2.854,0.942c3.717,1.228,7.805-0.09,10.104-3.259c3.97-5.468,6.067-11.759,6.067-18.192
		c0-18.123-16.429-30.211-41.828-30.796c-1.359-0.035-2.729-0.035-4.035,0c-25.426,0.586-41.854,12.674-41.854,30.797
		c0,6.434,2.098,12.724,6.067,18.192c2.3,3.169,6.387,4.486,10.104,3.259l2.854-0.942c0.845-0.276,1.744,0.124,2.104,0.931
		l3.339,7.494c0.353,0.792,0.824,1.51,1.373,2.156h-5.847c-15.805,0-28.892-12.856-29.173-28.658
		c-0.422-23.599-6.074-47.305-16.345-68.558l-16.356-33.839c-3.434-7.104-5.55-14.689-6.292-22.543l-3.651-38.709
		c-0.688-7.302,1.832-14.523,6.916-19.811l45.409-47.226c3.688-3.836,8.406-6.367,13.643-7.318
		c9.858-1.792,19.786-2.689,29.714-2.689s19.855,0.896,29.714,2.689c0,0,0,0,0.001,0c5.235,0.952,9.952,3.482,13.642,7.318
		l45.409,47.226C332.445,227.134,334.966,234.355,334.277,241.658z M389.642,159.635c-2.707,14.241-10.812,26.571-22.82,34.718
		l-24.829,16.845c-0.533-0.622-1.084-1.232-1.656-1.827l-33.375-34.711l7.017-63.864c31.288-40.54,67.3-77.86,90.626-89.702
		C407.332,44.571,402.003,94.606,389.642,159.635z"/>
	<path d="M172.503,238.322c-5.34-0.605-10.737,1.063-14.831,4.577c-4.184,3.591-6.706,8.823-6.922,14.352
		c-0.39,9.98,4.146,15.446,8.021,18.273c4.662,3.402,10.603,4.531,16.442,4.531c9.808,0,19.324-3.189,21.971-4.152
		c2.438-0.887,4.375-2.783,5.314-5.202c0.938-2.418,0.788-5.125-0.414-7.424C199.27,257.892,188.821,240.176,172.503,238.322z
		 M169.383,260.984c-0.647-0.472-0.683-2.102-0.646-3.033c0.029-0.745,0.426-1.194,0.66-1.395c0.358-0.308,0.693-0.361,0.903-0.361
		c0.074,0,0.133,0.006,0.171,0.011c2.62,0.298,5.747,2.348,8.772,5.552C174.846,262.294,170.984,262.153,169.383,260.984z"/>
	<path d="M319.521,242.899c-4.095-3.514-9.507-5.186-14.831-4.577c-16.318,1.854-26.768,19.57-29.581,24.956
		c-1.202,2.299-1.353,5.005-0.414,7.424c0.939,2.419,2.876,4.314,5.314,5.202c2.646,0.963,12.162,4.152,21.971,4.152
		c5.838,0,11.78-1.13,16.441-4.531c3.874-2.828,8.411-8.293,8.021-18.273C326.227,251.722,323.705,246.491,319.521,242.899z
		 M307.812,260.983c-1.616,1.185-5.46,1.329-9.871,0.786c3.028-3.21,6.158-5.264,8.78-5.562c0.145-0.019,0.59-0.067,1.075,0.35
		c0.234,0.201,0.631,0.649,0.66,1.395C308.493,258.881,308.458,260.511,307.812,260.983z"/>
	<path d="M238.597,187.492c-4.971,0-9,4.029-9,9v127.494c0,4.971,4.029,9,9,9s9-4.029,9-9V196.492
		C247.597,191.522,243.567,187.492,238.597,187.492z"/>
</g>
<g>
</g>
<g>
</g>
<g>
</g>
<g>
</g>
<g>
</g>
<g>
</g>
<g>
</g>
<g>
</g>
<g>
</g>
<g>
</g>
<g>
</g>
<g>
</g>
<g>
</g>
<g>
</g>
<g>
</g>
</svg>
