<?xml version="1.0" encoding="iso-8859-1"?>
<!-- Generator: Adobe Illustrator 18.0.0, SVG Export Plug-In . SVG Version: 6.00 Build 0)  -->
<!DOCTYPE svg PUBLIC "-//W3C//DTD SVG 1.1//EN" "http://www.w3.org/Graphics/SVG/1.1/DTD/svg11.dtd">
<svg version="1.1" id="Capa_1" xmlns="http://www.w3.org/2000/svg" xmlns:xlink="http://www.w3.org/1999/xlink" x="0px" y="0px"
	 viewBox="0 0 446.691 446.691" style="enable-background:new 0 0 446.691 446.691;" xml:space="preserve">
<g>
	<path d="M390.595,208.366l-11.468-11.468l14.143-14.834c10.78-11.307,15.323-27.184,12.154-42.473
		c-6.947-33.512-20.37-95.39-32.209-133.275c-0.879-2.812-3.078-5.016-5.888-5.9c-2.811-0.885-5.876-0.338-8.206,1.463
		c-55.069,42.554-71.24,84.907-75.973,105.079c-36.938-21.032-82.73-20.921-119.575,0.332
		c-4.633-20.036-20.676-62.622-76.05-105.411c-2.329-1.801-5.396-2.348-8.205-1.463c-2.811,0.885-5.01,3.088-5.888,5.9
		c-11.845,37.899-25.265,99.769-32.21,133.276c-3.169,15.289,1.374,31.166,12.153,42.473l14.464,15.17L56.05,209.023
		c-37.999,37.999-37.999,99.828,0,137.826l52.394,52.394c30.598,30.597,71.279,47.448,114.551,47.448s83.952-16.851,114.55-47.448
		l53.051-53.05c18.407-18.407,28.545-42.881,28.545-68.913C419.14,251.247,409.002,226.774,390.595,208.366z M359.835,24.47
		c10.595,37.235,21.825,89.164,27.964,118.775c1.969,9.501-0.855,19.37-7.557,26.399l-13.846,14.524l-23.956-23.956l18.655-63.355
		c1.403-4.768-1.323-9.771-6.092-11.176c-4.77-1.404-9.771,1.323-11.176,6.091l-15.883,53.943l-19.314-19.314
		c-2.974-2.974-6.068-5.758-9.264-8.354C300.496,109.13,308.358,68.348,359.835,24.47z M66.402,169.644
		c-6.7-7.029-9.525-16.897-7.556-26.399C64.983,113.64,76.209,61.72,86.807,24.476c28.46,24.3,43.261,47.514,50.796,63.381
		c7.372,15.524,9.271,26.922,9.725,30.691c-2.98,2.454-5.872,5.068-8.657,7.853l-19.822,19.822l-16.033-54.451
		c-1.404-4.768-6.405-7.495-11.176-6.091c-4.769,1.404-7.495,6.407-6.092,11.176l18.804,63.863l-23.784,23.784L66.402,169.644z
		 M68.779,221.751l82.621-82.621c19.299-19.299,44.958-29.927,72.251-29.927s52.952,10.628,72.251,29.927l81.965,81.965
		c8.325,8.326,14.392,18.061,18.243,28.438l-6.56-3.243c-31.588-15.617-59.655-36.727-83.421-62.745
		c-8.507-9.313-21.06-13.927-33.568-12.342c-12.513,1.584-23.516,9.18-29.433,20.319l-20.133,37.9l-20.133-37.9
		c-5.918-11.139-16.921-18.735-29.434-20.319c-12.52-1.583-25.063,3.03-33.568,12.342c-23.767,26.018-51.834,47.128-83.422,62.744
		l-5.501,2.72C54.878,238.914,60.885,229.644,68.779,221.751z M377.867,333.464l-53.051,53.05
		c-27.197,27.198-63.358,42.176-101.821,42.176c-38.464,0-74.625-14.978-101.822-42.176l-52.394-52.394
		c-15.008-15.008-23.273-34.961-23.273-56.185c0-2.113,0.105-4.209,0.267-6.293l18.643-9.218
		c33.6-16.611,63.454-39.065,88.733-66.74c4.634-5.073,11.2-7.488,18.018-6.625c6.817,0.863,12.575,4.838,15.799,10.906
		l28.081,52.862c1.562,2.94,4.619,4.778,7.948,4.778s6.387-1.838,7.948-4.778l28.081-52.862c3.223-6.068,8.98-10.043,15.797-10.906
		c6.813-0.864,13.384,1.551,18.019,6.625c25.279,27.674,55.133,50.129,88.732,66.74l19.333,9.559
		C402.367,294.058,394.702,316.629,377.867,333.464z"/>
	<path d="M223.323,203.022c4.971,0,9-4.03,9-9v-57.695c0-4.97-4.029-9-9-9s-9,4.03-9,9v57.695
		C214.323,198.993,218.352,203.022,223.323,203.022z"/>
	<path d="M257.26,283.275c-7.698-11.402-20.508-18.21-34.266-18.21s-26.567,6.807-34.266,18.21l-35.116,52.012
		c-11.255,16.671-9.101,39.095,5.122,53.318c7.806,7.805,18.311,11.296,28.538,10.49c9.347,9.621,22.267,15.12,35.72,15.12
		c0.001,0,0,0,0.001,0c13.453,0,26.374-5.5,35.721-15.12c0.957,0.075,1.916,0.123,2.876,0.123c9.294,0,18.588-3.538,25.663-10.613
		c14.224-14.224,16.377-36.647,5.121-53.318L257.26,283.275z M222.993,396.215c-5.925,0-11.54-1.586-16.427-4.55
		c1.211-0.936,2.382-1.95,3.493-3.06l12.935-12.934l12.934,12.934c1.111,1.111,2.282,2.124,3.494,3.061
		C234.535,394.629,228.919,396.216,222.993,396.215z M222.994,352.459c-7.275,0-13.194-5.199-13.194-11.59
		c0-2.359,1.286-7.846,13.194-7.846s13.194,5.487,13.194,7.846C236.189,347.259,230.27,352.459,222.994,352.459z M274.526,375.877
		c-7.131,7.133-18.736,7.133-25.869,0l-9.634-9.635c9.078-5.179,15.167-14.614,15.167-25.374c0-15.459-12.536-25.846-31.194-25.846
		S191.8,325.409,191.8,340.868c0,10.76,6.088,20.194,15.166,25.374l-9.635,9.635c-7.131,7.133-18.737,7.132-25.868,0
		c-8.142-8.141-9.374-20.976-2.933-30.518l35.116-52.012c4.412-6.534,11.464-10.282,19.348-10.282s14.936,3.748,19.348,10.282
		l35.115,52.012C283.9,354.901,282.667,367.736,274.526,375.877z"/>
	<path d="M172.284,276.284l11.469-7.14c2.027-1.261,3.469-3.276,4.01-5.601s0.137-4.77-1.125-6.796
		c-14.213-22.83-44.35-29.839-67.178-15.628c-4.219,2.627-5.511,8.177-2.884,12.396l7.14,11.47
		c6.675,10.721,18.206,16.616,29.991,16.616C160.067,281.602,166.499,279.885,172.284,276.284z M138.997,255.473l-1.674-2.689
		c9.848-2.615,20.453-0.147,28.137,6.546l-2.689,1.674C154.692,266.034,144.026,263.551,138.997,255.473z"/>
	<path d="M326.528,241.119c-11.059-6.884-24.136-9.051-36.825-6.099c-12.688,2.952-23.467,10.668-30.352,21.727
		c-2.627,4.22-1.336,9.77,2.884,12.397l11.47,7.14c5.663,3.525,12.058,5.339,18.567,5.339c2.681,0,5.381-0.308,8.057-0.93
		c9.173-2.134,16.966-7.713,21.943-15.708l7.14-11.469C332.038,249.296,330.747,243.746,326.528,241.119z M306.991,255.473
		c-2.437,3.914-6.251,6.644-10.741,7.689c-4.489,1.044-9.119,0.278-13.032-2.158l-2.7-1.681c3.751-3.28,8.273-5.61,13.265-6.771
		c4.99-1.161,10.077-1.067,14.89,0.221L306.991,255.473z"/>
</g>
<g>
</g>
<g>
</g>
<g>
</g>
<g>
</g>
<g>
</g>
<g>
</g>
<g>
</g>
<g>
</g>
<g>
</g>
<g>
</g>
<g>
</g>
<g>
</g>
<g>
</g>
<g>
</g>
<g>
</g>
</svg>
