<?xml version="1.0" encoding="iso-8859-1"?>
<!-- Generator: Adobe Illustrator 18.0.0, SVG Export Plug-In . SVG Version: 6.00 Build 0)  -->
<!DOCTYPE svg PUBLIC "-//W3C//DTD SVG 1.1//EN" "http://www.w3.org/Graphics/SVG/1.1/DTD/svg11.dtd">
<svg version="1.1" id="Capa_1" xmlns="http://www.w3.org/2000/svg" xmlns:xlink="http://www.w3.org/1999/xlink" x="0px" y="0px"
	 viewBox="0 0 488.122 488.122" style="enable-background:new 0 0 488.122 488.122;" xml:space="preserve">
<g>
	<path d="M431.321,439.403l-16.322-37.199c-11.964-27.267-18.03-56.189-18.03-85.965V185.952c0-17.003-6.994-33.551-19.188-45.401
		l-37.157-36.107l0.135-2.598c1.386-26.785-8.021-52.246-26.487-71.693C295.808,10.708,270.873,0,244.061,0
		s-51.747,10.708-70.21,30.152c-18.467,19.447-27.874,44.909-26.487,71.694l0.135,2.597l-37.157,36.107
		c-12.195,11.85-19.188,28.398-19.188,45.401v130.288c0,29.776-6.066,58.698-18.03,85.965L56.8,439.403
		c-6.317,14.396-0.901,31.33,12.598,39.389c10.339,6.173,21.861,9.329,33.561,9.329c5.709,0,11.461-0.752,17.138-2.271
		c17.308-4.634,31.652-15.801,40.39-31.444c21.757-38.952,35.864-81.013,42.013-125.107c1.708,0.381,3.472,0.618,5.285,0.683
		c7.951,0.283,15.472-2.598,21.186-8.112c2.762-2.665,4.917-5.776,6.415-9.172c2.888,0.233,5.781,0.356,8.675,0.356
		c2.894,0,5.787-0.123,8.675-0.356c1.497,3.396,3.653,6.507,6.414,9.172c5.458,5.267,12.566,8.131,20.119,8.131
		c0.354,0,0.71-0.006,1.067-0.019c1.813-0.064,3.577-0.302,5.285-0.683c6.15,44.095,20.257,86.156,42.013,125.107
		c8.738,15.643,23.082,26.81,40.39,31.444c5.677,1.52,11.428,2.271,17.138,2.271c11.699,0,23.222-3.157,33.561-9.329
		C432.223,470.733,437.638,453.8,431.321,439.403z M144.772,445.628c-6.345,11.359-16.762,19.469-29.331,22.834
		c-12.568,3.365-25.644,1.544-36.816-5.125c-5.724-3.417-8.02-10.597-5.341-16.702l16.322-37.199
		c12.97-29.561,19.546-60.917,19.546-93.197V185.952c0-12.168,5.005-24.012,13.732-32.492l25.852-25.122l4.947,95.396
		c1.093,21.161,10.564,41.083,26.151,55.317v21.469c0,6.755,2.205,12.963,5.929,17.927l-0.27,2.225
		C180.144,364.788,166.443,406.83,144.772,445.628z M247.201,235.376l-0.673,1.511c-1.631,0.15-3.305,0.15-4.934,0l-0.673-1.511
		c-2.771-6.219-8.724-10.054-15.158-10.311c0.071-7.415,15.352-7.981,17.124-8.021c0.787-0.021,1.537-0.021,2.375,0
		c1.746,0.04,17.026,0.606,17.097,8.021C255.925,225.321,249.971,229.157,247.201,235.376z M237.834,294.825v-4.374
		c0-3.779,2.756-7.011,6.226-7.409c3.47,0.398,6.227,3.63,6.227,7.409v4.374C246.14,295.114,241.982,295.114,237.834,294.825z
		 M279.697,311.993c-3.028,0.11-5.88-0.985-8.047-3.076c-2.168-2.093-3.363-4.904-3.363-7.917v-10.548
		c0-10.524-6.239-19.576-15.227-23.445v-12.94c0.666-0.138,1.331-0.275,1.988-0.443c2.66-0.684,4.863-2.545,5.98-5.054l2.39-5.365
		l1.711,0.565c3.719,1.228,7.805-0.09,10.106-3.26c3.352-4.618,5.124-9.941,5.124-15.393c0-15.351-13.614-25.583-34.658-26.068
		c-1.097-0.028-2.208-0.028-3.255,0c-21.069,0.485-34.684,10.718-34.684,26.068c0,5.452,1.771,10.774,5.124,15.393
		c2.301,3.17,6.387,4.488,10.106,3.26l1.71-0.565l2.39,5.365c1.118,2.509,3.32,4.37,5.98,5.054c0.656,0.169,1.322,0.306,1.987,0.443
		v12.94c-8.988,3.869-15.226,12.921-15.226,23.445V301c0,3.012-1.194,5.824-3.363,7.917c-2.167,2.091-5.031,3.184-8.047,3.076
		c-5.839-0.208-10.59-5.354-10.59-11.472v-93.413c0-15.743,6.092-30.582,17.154-41.784c14.41-14.593,22.346-33.924,22.346-54.432
		v-5.648c0-18.414-14.981-33.395-33.396-33.395c-8.919,0-17.306,3.474-23.614,9.781c-3.515,3.515-3.515,9.213,0,12.728
		c3.515,3.515,9.214,3.516,12.728,0c2.908-2.908,6.774-4.509,10.886-4.509c8.489,0,15.396,6.906,15.396,15.395v5.648
		c0,15.743-6.092,30.582-17.154,41.784c-14.41,14.592-22.346,33.923-22.346,54.432v43.487c-4.814-8.42-7.666-17.932-8.176-27.791
		l-6.32-121.889c-1.128-21.807,6.53-42.535,21.564-58.368C201.934,26.717,222.233,18,244.061,18
		c21.828,0,42.127,8.718,57.159,24.547c15.034,15.833,22.692,36.561,21.564,58.367l-6.32,121.892
		c-0.51,9.857-3.362,19.369-8.176,27.789v-43.487c0-20.508-7.936-39.839-22.346-54.432c-11.062-11.202-17.154-26.041-17.154-41.784
		v-5.648c0-8.489,6.906-15.395,15.396-15.395c4.112,0,7.978,1.602,10.886,4.509c3.516,3.515,9.213,3.514,12.728,0
		c3.515-3.515,3.514-9.213,0-12.728c-6.308-6.307-14.694-9.781-23.614-9.781c-18.415,0-33.396,14.981-33.396,33.395v5.648
		c0,20.508,7.936,39.839,22.346,54.432c11.062,11.202,17.154,26.041,17.154,41.784v93.413
		C290.287,306.639,285.536,311.785,279.697,311.993z M409.497,463.337c-11.172,6.67-24.245,8.49-36.816,5.125
		c-12.569-3.365-22.986-11.474-29.331-22.834c-21.671-38.798-35.371-80.839-40.721-124.957l-0.27-2.224
		c3.724-4.963,5.929-11.172,5.929-17.927v-21.469c15.588-14.234,25.058-34.156,26.151-55.316l4.947-95.398l25.852,25.122
		c8.727,8.48,13.732,20.324,13.732,32.492v130.288c0,32.281,6.576,63.637,19.546,93.197l16.322,37.199
		C417.517,452.74,415.22,459.92,409.497,463.337z"/>
	<path d="M295.032,114.555c-3.494-4.118-9.305-5.303-14.135-2.879c-4.827,2.423-7.35,7.792-6.135,13.054v0l0.435,1.883
		c2.62,11.355,11.146,20.603,22.25,24.136c1.193,0.38,2.405,0.563,3.597,0.563c3.817,0,7.44-1.88,9.663-5.217
		c2.917-4.379,2.589-10.017-0.815-14.027L295.032,114.555z"/>
	<path d="M175.811,146.095c2.223,3.337,5.846,5.217,9.663,5.217c1.192,0,2.403-0.184,3.596-0.563
		c11.105-3.533,19.631-12.781,22.25-24.134l0.435-1.884v0c1.215-5.263-1.308-10.631-6.135-13.054
		c-4.829-2.424-10.641-1.239-14.135,2.879l-14.858,17.512C173.222,136.079,172.894,141.716,175.811,146.095z"/>
</g>
<g>
</g>
<g>
</g>
<g>
</g>
<g>
</g>
<g>
</g>
<g>
</g>
<g>
</g>
<g>
</g>
<g>
</g>
<g>
</g>
<g>
</g>
<g>
</g>
<g>
</g>
<g>
</g>
<g>
</g>
</svg>
