<?xml version="1.0" encoding="iso-8859-1"?>
<!-- Generator: Adobe Illustrator 18.0.0, SVG Export Plug-In . SVG Version: 6.00 Build 0)  -->
<!DOCTYPE svg PUBLIC "-//W3C//DTD SVG 1.1//EN" "http://www.w3.org/Graphics/SVG/1.1/DTD/svg11.dtd">
<svg version="1.1" id="Capa_1" xmlns="http://www.w3.org/2000/svg" xmlns:xlink="http://www.w3.org/1999/xlink" x="0px" y="0px"
	 viewBox="0 0 468.763 468.763" style="enable-background:new 0 0 468.763 468.763;" xml:space="preserve">
<path d="M430.293,127.167c-39.352-45.593-105.266-68.71-195.912-68.71c-90.645,0-156.559,23.118-195.91,68.71
	C-6.518,179.291-0.12,241.843,0.872,249.555c0.161,57.792,22.911,96.577,56.714,96.577c12.558,0,22.902-8.865,31.159-20.873
	c6.127,10.854,13.45,20.989,21.898,30.28c0.906,11.161,7.104,20.957,16.992,26.576c5.257,2.988,10.995,4.479,16.728,4.479
	c1.275,0,2.549-0.089,3.819-0.237c25.961,15.665,55.677,23.95,86.196,23.95c30.52,0,60.238-8.286,86.2-23.953
	c6.976,0.811,14.122-0.587,20.549-4.239c9.889-5.62,16.089-15.419,16.992-26.583c8.45-9.294,15.772-19.428,21.894-30.277
	c8.257,12.01,18.602,20.877,31.162,20.877c33.804,0,56.555-38.784,56.715-96.577C468.883,241.843,475.281,179.291,430.293,127.167z
	 M169.156,377.309l17.55-10.454c9.289-5.533,17.186-12.798,23.473-21.595c0.204-0.286,0.409-0.586,0.615-0.894
	c7.166,3.718,15.26,5.704,23.585,5.704c8.331,0,16.427-1.986,23.591-5.704c0.205,0.308,0.411,0.608,0.615,0.895
	c6.287,8.797,14.185,16.062,23.474,21.595l17.547,10.452c-20.213,9.844-42.469,14.999-65.226,14.999
	C211.622,392.306,189.368,387.152,169.156,377.309z M234.381,281.758c-5.011,0-9.1-3.45-9.204-7.724
	c2.021-0.421,6.11-0.414,8.967-0.42h0.474c2.852-0.011,6.946,0,8.968,0.421C243.481,278.308,239.392,281.758,234.381,281.758z
	 M234.125,323.207h0.512c5.362,0,10.383,2.109,14.048,5.672c-4.372,2.08-9.261,3.192-14.307,3.192c-5.04,0-9.927-1.111-14.301-3.191
	C223.743,325.316,228.763,323.207,234.125,323.207z M449.988,247.626c-0.064,0.436-0.097,0.875-0.097,1.315
	c0,22.987-4.106,43.679-11.563,58.264c-4.881,9.547-13.554,20.927-27.152,20.927c-9.027,0-20.872-16.145-30.174-41.131
	c-9.371-25.171-15.427-56.723-15.427-80.381c0-4.971-4.029-9-9-9s-9,4.029-9,9c0,25.628,6.499,59.645,16.558,86.662
	c1.59,4.272,3.388,8.688,5.389,13.065c-3.252,6.95-7.026,13.615-11.296,19.96c-0.453-19.545-12.895-37.15-31.26-44.038
	l-18.623-6.983c-5.08-1.905-8.992-5.918-10.9-10.808c2.279,0.345,4.783,0.515,7.563,0.515c7.287,0,12.702-1.153,17.041-3.628
	c6.289-3.588,9.752-9.85,9.752-17.633c0-14.774-12.02-26.793-26.793-26.793c-1.865,0-3.686,0.193-5.445,0.557
	c2.53-6.123,6.4-11.683,11.427-16.197c3.698-3.321,4.004-9.011,0.683-12.709c-3.321-3.699-9.01-4.003-12.71-0.683
	c-13.221,11.873-20.804,28.873-20.804,46.643v23.154c0,15.245,9.591,29.084,23.865,34.438l18.623,6.983
	c11.725,4.397,19.602,15.764,19.602,28.286v25.286c0,5.771-2.996,10.919-8.014,13.771c-5.018,2.852-10.974,2.79-15.932-0.164
	l-25.033-14.911c-7.139-4.252-13.208-9.835-18.039-16.595c-0.777-1.087-2.099-3.258-3.984-7.429
	c-4.871-10.769-14.544-18.474-25.86-21.132v-7.94c10.589-3.545,18.203-13.153,18.203-24.427c0-7.993-4.096-14.035-11.237-16.577
	c-4.713-1.677-10.058-1.663-15.733-1.677h-0.472c-5.672-0.026-11.02-0.001-15.733,1.677c-7.141,2.542-11.237,8.584-11.237,16.577
	c0,11.276,7.617,20.886,18.209,24.429v7.936c-11.32,2.657-20.995,10.364-25.867,21.134c-1.887,4.173-3.208,6.342-3.984,7.427
	c-4.832,6.761-10.901,12.344-18.04,16.597l-25.033,14.912c-4.958,2.953-10.914,3.015-15.932,0.163
	c-5.018-2.852-8.014-8-8.014-13.771v-25.286c0-12.521,7.877-23.889,19.602-28.286l18.623-6.983
	c14.274-5.353,23.865-19.192,23.865-34.437v-23.154c0-17.769-7.583-34.77-20.804-46.643c-3.698-3.321-9.389-3.016-12.709,0.683
	c-3.321,3.698-3.015,9.388,0.683,12.709c5.027,4.514,8.896,10.075,11.426,16.197c-1.759-0.365-3.579-0.557-5.444-0.557
	c-14.774,0-26.793,12.019-26.793,26.793c0,7.783,3.463,14.045,9.751,17.633c4.339,2.476,9.754,3.628,17.042,3.628
	c2.78,0,5.283-0.17,7.563-0.515c-1.908,4.891-5.82,8.903-10.9,10.808l-18.623,6.983c-18.368,6.888-30.81,24.498-31.26,44.045
	c-4.269-6.343-8.044-13.007-11.3-19.958c2.002-4.38,3.801-8.8,5.393-13.074c10.059-27.017,16.558-61.034,16.558-86.662
	c0-4.971-4.029-9-9-9s-9,4.029-9,9c0,23.658-6.055,55.21-15.427,80.381c-9.302,24.986-21.146,41.131-30.174,41.131
	c-13.599,0-22.271-11.38-27.152-20.927c-7.457-14.584-11.563-35.276-11.563-58.264c0-0.429-0.033-0.874-0.094-1.298
	c-0.086-0.603-8.184-60.815,33.491-108.913c35.804-41.322,97.076-62.274,182.113-62.274c85.038,0,146.31,20.952,182.114,62.274
	C458.17,186.827,450.072,247.04,449.988,247.626z M296.212,243.731c0-4.849,3.945-8.793,8.794-8.793s8.793,3.944,8.793,8.793
	c0,1.616-0.296,1.785-0.672,1.999c-0.826,0.472-2.98,1.263-8.121,1.263s-7.296-0.792-8.122-1.263
	C296.508,245.515,296.212,245.346,296.212,243.731z M172.551,243.731c0,1.616-0.296,1.785-0.671,1.999
	c-0.827,0.472-2.981,1.263-8.122,1.263s-7.295-0.792-8.122-1.263c-0.375-0.214-0.671-0.383-0.671-1.999
	c0-4.849,3.944-8.793,8.793-8.793S172.551,238.882,172.551,243.731z"/>
<g>
</g>
<g>
</g>
<g>
</g>
<g>
</g>
<g>
</g>
<g>
</g>
<g>
</g>
<g>
</g>
<g>
</g>
<g>
</g>
<g>
</g>
<g>
</g>
<g>
</g>
<g>
</g>
<g>
</g>
</svg>
