<?xml version="1.0" encoding="iso-8859-1"?>
<!-- Generator: Adobe Illustrator 18.0.0, SVG Export Plug-In . SVG Version: 6.00 Build 0)  -->
<!DOCTYPE svg PUBLIC "-//W3C//DTD SVG 1.1//EN" "http://www.w3.org/Graphics/SVG/1.1/DTD/svg11.dtd">
<svg version="1.1" id="Capa_1" xmlns="http://www.w3.org/2000/svg" xmlns:xlink="http://www.w3.org/1999/xlink" x="0px" y="0px"
	 viewBox="0 0 489.337 489.337" style="enable-background:new 0 0 489.337 489.337;" xml:space="preserve">
<g>
	<path d="M488.96,175.46l-10.223-35.785c-5.407-18.924-19.749-34.036-38.365-40.424l-21.242-7.289
		c-35.238-12.091-74.211-9.505-107.516,7.023c-43.878-12.666-90.015-12.665-133.89,0c-33.303-16.528-72.276-19.116-107.515-7.023
		l-21.242,7.289c-18.628,6.392-32.955,21.487-38.365,40.424L0.376,175.463c-1.067,3.734,0.163,7.86,3.322,10.118
		c1.577,1.127,3.41,1.681,5.236,1.681c2.093,0,4.176-0.729,5.849-2.158l29.63-25.32c1.733-1.481,3.509-2.914,5.318-4.307
		c6.254,3.597,17.917,10.904,30.083,21.612c12.137,10.683,26.707,26.546,35.507,46.717c4.294,9.841,6.441,20.487,6.52,31.223l0,0
		c0,14.095,7.673,27.165,20.003,34.027c10.652,5.929,17.498,16.937,18.657,29.072l2.199,23.04
		c1.607,16.829,14.32,29.932,30.533,32.414c3.554,5.461,8.678,9.766,14.696,12.329c6.45,11.472,20.76,18.988,36.741,18.988
		s30.291-7.516,36.741-18.988c6.018-2.562,11.141-6.867,14.696-12.328c16.214-2.482,28.926-15.585,30.532-32.415l2.2-23.039
		c1.168-12.236,8.248-23.164,18.938-29.231c12.164-6.904,19.721-19.882,19.721-33.869l0,0c0.079-10.737,2.226-21.382,6.52-31.223
		c8.8-20.171,23.37-36.034,35.507-46.717c12.165-10.708,23.828-18.014,30.082-21.612c1.809,1.393,3.585,2.826,5.318,4.307
		l29.63,25.32c1.673,1.429,3.755,2.158,5.849,2.158c1.828,0,3.664-0.556,5.243-1.686C488.801,183.316,490.026,179.192,488.96,175.46
		z M32.72,146.099l-6.924,5.917l2.112-7.396c3.792-13.269,13.848-23.865,26.9-28.344l21.242-7.289
		c12.779-4.385,26.119-6.554,39.436-6.554c15.652,0,31.272,3,45.89,8.92c-23.246-4.21-47.384-3.054-70.122,3.394
		C69.863,120.813,49.623,131.655,32.72,146.099z M66.384,144.483c9.414-5.285,19.443-9.486,29.78-12.418
		c19.49-5.527,40.143-6.641,60.115-3.312l-33.415,63.986c-0.672,1.286-1.022,2.715-1.022,4.166v1.007
		C105.025,171.815,81.177,153.9,66.384,144.483z M180.617,339.455l-2.199-23.039c-1.725-18.073-12.182-34.212-27.972-43.174
		c-6.542-3.713-10.605-10.692-10.605-18.214v-55.915l43.331-82.973c17.231-4.935,34.837-7.752,52.497-8.469v133.795l-13.015,9.362
		c-26.796,19.273-41.091,51.615-37.307,84.405l1.924,16.674C183.602,348.921,181.102,344.53,180.617,339.455z M234.875,385.352
		c3.693-1.758,7.014-4.177,9.794-7.115c2.78,2.938,6.101,5.357,9.794,7.115c-2.887,0.963-6.18,1.546-9.794,1.546
		S237.762,386.315,234.875,385.352z M244.669,345.494c-9.022,0-16.362-6.518-16.362-14.528c0-9.252,11.442-10.251,16.362-10.251
		c4.919,0,16.361,0.999,16.361,10.251C261.03,338.976,253.691,345.494,244.669,345.494z M286.11,333.17l-2.793,24.195
		c-0.866,7.507-7.218,13.167-14.774,13.167c-5.947,0-11.075-3.517-13.453-8.573c13.868-4.188,23.942-16.497,23.942-30.995
		c0-16.898-13.809-28.251-34.361-28.251s-34.362,11.353-34.362,28.251c0,14.498,10.074,26.807,23.943,30.995
		c-2.378,5.056-7.506,8.573-13.453,8.573c-7.557,0-13.908-5.661-14.775-13.168l-2.792-24.194
		c-3.036-26.312,8.435-52.264,29.937-67.729l11.504-8.275l11.504,8.275C277.675,280.907,289.146,306.86,286.11,333.17z
		 M349.497,255.028c0,7.522-4.063,14.501-10.605,18.214c-15.79,8.961-26.246,25.101-27.972,43.174l-2.2,23.039
		c-0.485,5.075-2.984,9.466-6.654,12.453l1.925-16.675c3.784-32.789-10.511-65.131-37.306-84.405l-13.016-9.362V107.672
		c17.66,0.716,35.266,3.534,52.497,8.469l43.331,82.973V255.028z M367.497,197.912v-1.007c0-1.451-0.351-2.88-1.022-4.166
		l-33.416-63.987c19.97-3.329,40.624-2.215,60.115,3.312c10.337,2.931,20.366,7.133,29.78,12.418
		C408.16,153.9,384.313,171.815,367.497,197.912z M456.617,146.099c-16.902-14.444-37.144-25.285-58.533-31.351
		c-13.794-3.912-28.103-5.875-42.417-5.875c-9.279,0-18.564,0.826-27.707,2.482c27.055-10.96,57.524-11.907,85.327-2.367
		l21.242,7.289c13.053,4.479,23.108,15.075,26.9,28.343l2.112,7.397L456.617,146.099z"/>
	<path d="M208.472,227.316c2.53-2.638,3.214-6.545,1.729-9.885c-0.839-1.886-8.614-18.5-23.325-21.072
		c-14.706-2.576-27.664,10.416-29.092,11.904c-2.53,2.638-3.214,6.545-1.729,9.885c0.839,1.886,8.614,18.5,23.324,21.072
		c1.32,0.231,2.623,0.336,3.908,0.336C196.32,239.557,207.172,228.672,208.472,227.316z M182.481,221.49
		c-2.143-0.375-4.478-2.478-6.424-4.936c2.668-1.656,5.577-2.838,7.718-2.465c2.143,0.375,4.478,2.477,6.427,4.941
		C187.592,220.652,184.677,221.872,182.481,221.49z"/>
	<path d="M288.309,217.431c-1.484,3.34-0.801,7.247,1.729,9.885c1.301,1.356,12.151,12.241,25.185,12.241
		c1.284,0,2.589-0.105,3.908-0.336c14.71-2.572,22.485-19.186,23.324-21.072c1.484-3.34,0.801-7.247-1.729-9.885
		c-1.429-1.489-14.384-14.482-29.093-11.904C296.923,198.932,289.148,215.545,288.309,217.431z M314.735,214.089
		c2.146-0.374,5.053,0.811,7.719,2.463c-1.948,2.463-4.282,4.563-6.424,4.938c-2.14,0.37-5.049-0.809-7.718-2.464
		C310.26,216.564,312.594,214.464,314.735,214.089z"/>
</g>
<g>
</g>
<g>
</g>
<g>
</g>
<g>
</g>
<g>
</g>
<g>
</g>
<g>
</g>
<g>
</g>
<g>
</g>
<g>
</g>
<g>
</g>
<g>
</g>
<g>
</g>
<g>
</g>
<g>
</g>
</svg>
