<?xml version="1.0" encoding="iso-8859-1"?>
<!-- Generator: Adobe Illustrator 18.0.0, SVG Export Plug-In . SVG Version: 6.00 Build 0)  -->
<!DOCTYPE svg PUBLIC "-//W3C//DTD SVG 1.1//EN" "http://www.w3.org/Graphics/SVG/1.1/DTD/svg11.dtd">
<svg version="1.1" id="Capa_1" xmlns="http://www.w3.org/2000/svg" xmlns:xlink="http://www.w3.org/1999/xlink" x="0px" y="0px"
	 viewBox="0 0 469.563 469.563" style="enable-background:new 0 0 469.563 469.563;" xml:space="preserve">
<g>
	<path d="M396.165,101.614c2.646-18.526,1.18-37.785-4.24-55.696l-9.87-32.614c-1.903-6.287-6.833-11.03-13.19-12.688
		c-6.358-1.657-12.976,0.074-17.706,4.633c-0.193,0.186-0.378,0.381-0.554,0.583c-29.839,34.4-52.3,75.639-65.046,119.367
		c-3.672-0.905-7.479-1.382-11.353-1.382h-78.895c-3.859,0-7.651,0.474-11.311,1.373c-12.747-43.724-35.206-84.96-65.043-119.358
		c-0.176-0.203-0.361-0.397-0.554-0.583c-4.73-4.558-11.349-6.291-17.706-4.633c-6.356,1.657-11.287,6.4-13.19,12.688l-9.87,32.614
		c-5.42,17.911-6.887,37.17-4.24,55.696l5.747,40.23c0.595,4.161,0.534,8.372-0.18,12.515c-2.634,15.279,1.044,31.262,10.092,43.852
		l18.977,26.406c-1.172,5.959-1.508,12.091-0.93,18.203l8.595,90.958c0.927,9.815,5.249,19.089,12.167,26.111l25.075,25.454
		l4.763,18.474c4.66,18.078,17.011,32.654,33.121,40.465c9.078,15.675,25.622,25.281,43.937,25.281
		c18.315,0,34.859-9.606,43.937-25.281c16.11-7.812,28.46-22.388,33.121-40.465l4.763-18.475l25.074-25.453
		c6.919-7.023,11.24-16.296,12.167-26.112l8.594-90.958c0.576-6.096,0.244-12.211-0.921-18.154l19.012-26.455
		c9.048-12.59,12.726-28.574,10.092-43.852c-0.714-4.144-0.775-8.355-0.18-12.516L396.165,101.614z M302.336,131.959
		c2.434-8.547,5.283-16.988,8.486-25.302l4.154,40.272l-1.572-2.32c-3.117-4.601-6.973-8.53-11.336-11.708L302.336,131.959z
		 M167.487,132.874c-4.379,3.183-8.247,7.122-11.373,11.735l-1.52,2.243l4.146-40.196c3.202,8.314,6.052,16.755,8.486,25.302
		L167.487,132.874z M103.673,187.706c-6.25-8.696-8.791-19.736-6.971-30.29c1.034-5.998,1.122-12.094,0.261-18.119l-5.747-40.23
		c-2.278-15.945-1.016-32.521,3.649-47.936l9.87-32.614c0.041-0.134,0.116-0.383,0.502-0.483c0.24-0.063,0.404-0.018,0.517,0.05
		c14.792,17.125,27.631,36.046,38.235,56.14l-10.742,104.14l-15.506,22.89c-0.712,1.051-1.378,2.128-2.023,3.215L103.673,187.706z
		 M223.376,449.549c4.104-0.981,7.966-2.754,11.383-5.229c3.418,2.474,7.279,4.247,11.384,5.228
		c-3.574,1.311-7.413,2.014-11.384,2.014C230.789,451.563,226.95,450.86,223.376,449.549z M234.76,418.803L234.76,418.803
		c-3.486,0-6.93-0.818-10.01-2.45c-4.092-2.169-8.311-5.39-9.661-8.648c-1.625-3.922-2.159-8.069-1.466-11.379
		c0.423-2.021,1.292-3.527,2.265-3.931c2.168-0.898,7.357,2.052,10.667,8.695c1.199,2.406,3.286,4.315,5.888,4.99
		c4.291,1.113,8.571-0.984,10.411-4.768c3.304-6.799,8.587-9.826,10.776-8.917h0c2.148,0.89,4.084,7.378,0.799,15.31
		c-1.35,3.261-5.575,6.482-9.663,8.65C241.688,417.987,238.245,418.803,234.76,418.803z M344.496,241.127l-8.594,90.958
		c-0.539,5.704-3.05,11.092-7.07,15.173l-3.295,3.345l5.957-23.106c1.241-4.813-1.655-9.721-6.468-10.961
		c-4.813-1.241-9.721,1.655-10.962,6.468l-19.676,76.321c-4.732,18.355-20.611,31.646-39.513,33.072
		c-1.312,0.1-2.606,0.02-3.857-0.219c7.143-2.878,16.162-8.216,20.042-17.583c6.832-16.495,2.202-33.55-10.541-38.828h0
		c-8.457-3.502-18.191-0.753-25.759,6.454c-7.567-7.206-17.302-9.957-25.759-6.454c-6.584,2.727-11.32,8.876-12.995,16.871
		c-1.438,6.867-0.567,14.665,2.454,21.958c3.88,9.365,12.896,14.703,20.038,17.581c-1.25,0.239-2.543,0.319-3.854,0.221
		c-18.901-1.426-34.78-14.717-39.512-33.072l-19.676-76.32c-1.241-4.813-6.151-7.709-10.961-6.468
		c-4.813,1.241-7.709,6.148-6.468,10.961l5.957,23.106l-3.295-3.345c-4.02-4.081-6.531-9.469-7.07-15.172l-8.595-90.958
		c-0.99-10.484,1.717-21.059,7.623-29.777l38.372-56.645c5.466-8.069,14.549-12.887,24.295-12.887h78.895
		c9.747,0,18.829,4.817,24.295,12.886l38.372,56.645C342.78,220.068,345.487,230.643,344.496,241.127z M378.346,99.068l-5.747,40.23
		c-0.86,6.024-0.772,12.121,0.261,18.12c1.82,10.553-0.721,21.593-6.971,30.29l-12.071,16.797c-0.651-1.1-1.324-2.188-2.043-3.25
		l-15.454-22.813l-10.75-104.217c10.604-20.094,23.443-39.015,38.235-56.14c0.113-0.067,0.277-0.113,0.517-0.05
		c0.387,0.101,0.462,0.35,0.502,0.483l9.87,32.614C379.362,66.547,380.624,83.123,378.346,99.068z"/>
	<path d="M176.902,225.069H158.58c-4.971,0-9,4.029-9,9s4.029,9,9,9h9.322v2.572c0,4.971,4.029,9,9,9s9-4.029,9-9v-11.572
		C185.902,229.098,181.872,225.069,176.902,225.069z"/>
	<path d="M310.939,225.069h-18.322c-4.971,0-9,4.029-9,9v11.572c0,4.971,4.029,9,9,9s9-4.029,9-9v-2.572h9.322c4.971,0,9-4.029,9-9
		S315.91,225.069,310.939,225.069z"/>
</g>
<g>
</g>
<g>
</g>
<g>
</g>
<g>
</g>
<g>
</g>
<g>
</g>
<g>
</g>
<g>
</g>
<g>
</g>
<g>
</g>
<g>
</g>
<g>
</g>
<g>
</g>
<g>
</g>
<g>
</g>
</svg>
