<?xml version="1.0" encoding="iso-8859-1"?>
<!-- Generator: Adobe Illustrator 18.0.0, SVG Export Plug-In . SVG Version: 6.00 Build 0)  -->
<!DOCTYPE svg PUBLIC "-//W3C//DTD SVG 1.1//EN" "http://www.w3.org/Graphics/SVG/1.1/DTD/svg11.dtd">
<svg version="1.1" id="Capa_1" xmlns="http://www.w3.org/2000/svg" xmlns:xlink="http://www.w3.org/1999/xlink" x="0px" y="0px"
	 viewBox="0 0 490.5 490.5" style="enable-background:new 0 0 490.5 490.5;" xml:space="preserve">
<g>
	<path d="M281.391,156.354c1.705,1.484,3.811,2.212,5.906,2.212c2.513,0,5.012-1.046,6.791-3.09l6.248-7.176
		c3.265-3.749,2.872-9.434-0.877-12.698c-3.749-3.264-9.435-2.87-12.697,0.877l-6.248,7.176
		C277.249,147.406,277.642,153.09,281.391,156.354z"/>
	<path d="M196.41,155.476c1.779,2.044,4.279,3.09,6.792,3.09c2.096,0,4.201-0.728,5.905-2.212c3.749-3.264,4.143-8.949,0.879-12.698
		l-6.247-7.176c-3.264-3.75-8.949-4.142-12.697-0.879c-3.749,3.264-4.143,8.949-0.879,12.698L196.41,155.476z"/>
	<path d="M474.491,239.286c-55.691-93.297-108.048-123.27-119.983-129.189c-3.24-4.544-7.385-8.431-12.272-11.406l-24.992-15.212
		c-44.409-27.031-99.581-27.031-143.988,0l-24.992,15.212c-4.886,2.974-9.031,6.862-12.272,11.406
		c-11.935,5.918-64.292,35.892-119.983,129.189c-18.552,31.078-21.141,69.521-6.924,102.833
		c7.238,16.963,15.227,34.993,23.743,53.589c7.992,17.45,24.15,29.13,43.223,31.246c2.052,0.228,4.094,0.34,6.12,0.339
		c16.812,0,32.52-7.721,42.889-21.348l47.211-62.046c5.434,17.027,20.879,29.273,39.022,30.373c0.551,0.033,1.098,0.037,1.646,0.05
		c7.393,9.786,19.293,15.679,32.307,15.679c13.019,0,24.92-5.892,32.313-15.675c0.549-0.013,1.097-0.021,1.649-0.055
		c18.142-1.1,33.587-13.346,39.021-30.373l47.211,62.046c10.369,13.628,26.075,21.349,42.889,21.348c2.025,0,4.069-0.112,6.12-0.339
		c19.072-2.116,35.23-13.797,43.222-31.246c8.511-18.582,16.5-36.612,23.744-53.589
		C495.632,308.806,493.043,270.364,474.491,239.286z M110.735,395.046c-7.753,10.189-19.982,15.429-32.7,14.018
		c-12.727-1.412-23.509-9.206-28.842-20.851c-8.451-18.454-16.376-36.339-23.554-53.159c-11.964-28.037-9.787-60.389,5.824-86.542
		c37.369-62.602,73.167-95.254,94.378-110.776l-4.983,18.55c-7.198,26.791-1.918,54.989,14.478,77.352
		c0.24,0.329,0.496,0.666,0.757,0.997c12.143,15.519,20.188,32.594,23.912,50.75l7.257,35.374L110.735,395.046z M234.322,369.313
		c4.027-2.12,7.723-4.857,10.927-8.144c3.205,3.287,6.897,6.028,10.923,8.148c-3.271,1.715-7.028,2.685-10.926,2.685
		C241.35,372.001,237.592,371.031,234.322,369.313z M245.25,331.515c-11.986,0-21.738-8.755-21.738-19.516
		c0-4.309,2.118-14.331,21.738-14.331c19.619,0,21.737,10.022,21.737,14.331C266.987,322.761,257.236,331.515,245.25,331.515z
		 M278.119,356.305c-8.005,0.483-15.602-2.775-20.767-8.575c16.01-4.845,27.635-19.028,27.635-35.731
		c0-19.338-15.969-32.331-39.737-32.331s-39.738,12.993-39.738,32.331c0,16.703,11.625,30.886,27.635,35.731
		c-5.165,5.8-12.76,9.058-20.765,8.575c-11.599-0.703-21.329-9.144-23.664-20.526l-11.08-54.012
		c-4.228-20.611-13.691-40.745-27.377-58.236c-0.138-0.175-0.269-0.347-0.4-0.527c-13.157-17.945-17.392-40.561-11.619-62.049
		l8.807-32.781c1.589-5.913,5.345-10.924,10.575-14.107l24.992-15.212c38.635-23.517,86.635-23.517,125.27,0l24.992,15.212
		c5.23,3.184,8.986,8.194,10.575,14.107l8.807,32.781c5.872,21.86,1.424,44.764-12.199,62.83l-0.108,0.141
		c-13.587,17.683-23.073,38.263-27.434,59.517l-10.735,52.336C299.447,347.161,289.717,355.602,278.119,356.305z M464.86,335.055
		c-7.185,16.834-15.108,34.719-23.555,53.159c-5.333,11.644-16.114,19.439-28.841,20.851c-12.721,1.412-24.947-3.829-32.7-14.018
		l-56.526-74.288l6.912-33.698c3.814-18.596,12.14-36.635,24.056-52.143l0.22-0.288c16.992-22.533,22.538-51.088,15.216-78.344
		l-4.983-18.55c21.211,15.522,57.009,48.174,94.378,110.776C474.647,274.665,476.824,307.017,464.86,335.055z"/>
	<path d="M335.104,193.673c3.694-4.67,6.879-8.65,6.885-8.658c1.698-2.122,2.346-4.898,1.764-7.553
		c-0.584-2.655-2.335-4.904-4.766-6.119l-9.427-4.713c-8.937-4.469-19.247-4.59-28.287-0.332c-9.04,4.258-15.513,12.284-17.76,22.02
		c0,0-2.329,10.116-2.336,10.149c-0.004,0.017-6.667,31.254-6.667,31.254c-1.036,4.861,2.065,9.642,6.927,10.678
		c0.633,0.135,1.263,0.2,1.885,0.2c4.156,0,7.893-2.897,8.794-7.126l5.221-24.5c2.195-0.101,4.736-0.193,7.333-0.23
		C316.568,208.573,327.66,203.08,335.104,193.673z M320.988,182.504c-4.07,5.145-10.111,8.147-16.574,8.24
		c-0.984,0.014-1.958,0.035-2.909,0.061c1.271-3.618,3.916-6.564,7.438-8.223c1.956-0.921,4.046-1.381,6.135-1.381
		c2.017,0,4.032,0.429,5.924,1.286C320.997,182.492,320.993,182.498,320.988,182.504z"/>
	<path d="M206.986,188.317c-2.247-9.736-8.72-17.762-17.76-22.02c-9.039-4.258-19.351-4.137-28.288,0.332l-9.426,4.713
		c-2.431,1.215-4.182,3.464-4.766,6.119c-0.582,2.655,0.065,5.431,1.764,7.553c0.006,0.008,3.19,3.988,6.886,8.659
		c7.443,9.407,18.535,14.899,30.432,15.069c2.597,0.037,5.139,0.129,7.334,0.23l5.221,24.5c0.901,4.229,4.637,7.126,8.794,7.126
		c0.621,0,1.252-0.065,1.885-0.2c4.861-1.036,7.963-5.817,6.927-10.678L206.986,188.317z M186.085,190.744
		c-6.462-0.092-12.503-3.095-16.572-8.239c-0.005-0.006-0.01-0.012-0.015-0.018c3.849-1.744,8.212-1.716,12.059,0.095
		c3.522,1.659,6.168,4.605,7.438,8.223C188.044,190.779,187.07,190.758,186.085,190.744z"/>
</g>
<g>
</g>
<g>
</g>
<g>
</g>
<g>
</g>
<g>
</g>
<g>
</g>
<g>
</g>
<g>
</g>
<g>
</g>
<g>
</g>
<g>
</g>
<g>
</g>
<g>
</g>
<g>
</g>
<g>
</g>
</svg>
