<?xml version="1.0" encoding="iso-8859-1"?>
<!-- Generator: Adobe Illustrator 18.0.0, SVG Export Plug-In . SVG Version: 6.00 Build 0)  -->
<!DOCTYPE svg PUBLIC "-//W3C//DTD SVG 1.1//EN" "http://www.w3.org/Graphics/SVG/1.1/DTD/svg11.dtd">
<svg version="1.1" id="Capa_1" xmlns="http://www.w3.org/2000/svg" xmlns:xlink="http://www.w3.org/1999/xlink" x="0px" y="0px"
	 viewBox="0 0 479.549 479.549" style="enable-background:new 0 0 479.549 479.549;" xml:space="preserve">
<g>
	<path d="M462.069,167.018l-98.153-74.887c-11.036-8.419-25.953-9.409-38.003-2.52l-9.314,5.324
		c-6.529-4.84-13.543-9.091-20.978-12.657c-35.433-16.992-76.075-16.992-111.506,0c-8.187,3.926-15.866,8.679-22.945,14.14
		l-6.369-4.369c-12.301-8.439-28.535-8.03-40.395,1.02l-96.925,73.95c-18.636,14.218-23.025,40.618-9.994,60.102l86.815,129.802
		c1.682,2.514,4.498,3.997,7.479,3.997c0.329,0,0.659-0.018,0.99-0.054c3.337-0.369,6.192-2.564,7.405-5.695l16.07-41.489
		c1.971,1.612,4.148,2.996,6.505,4.09c9.711,4.509,17.098,12.525,20.8,22.573l7.063,19.171c3.483,9.453,10.533,16.692,19.217,20.54
		c3.14,17.022,18.083,29.961,36,29.961h48.074c17.926,0,32.874-12.952,36.004-29.987c8.677-3.85,15.732-11.066,19.213-20.514
		l7.063-19.171c3.702-10.047,11.088-18.063,20.8-22.573c2.301-1.068,4.432-2.409,6.365-3.971l16.024,41.37
		c1.213,3.13,4.067,5.326,7.405,5.695c0.331,0.037,0.661,0.054,0.99,0.054c2.981,0,5.798-1.482,7.479-3.997l86.815-129.802
		C485.094,207.637,480.704,181.237,462.069,167.018z M99.641,332.529L22.448,217.113c-7.759-11.601-5.145-27.319,5.95-35.784
		l73.127-55.793c1.65,1.888,4.069,3.086,6.773,3.086c4.971,0,9-4.029,9-9v-1.8c0-1.323-0.293-2.575-0.805-3.706l8.829-6.737
		c5.666-4.322,13.419-4.517,19.295-0.487l2.733,1.875c-14.526,14.977-25.383,33.413-31.311,53.853
		c-10.016,34.541-11.873,71.493-5.368,106.862l4.311,23.44l-4.18,10.792c-1.523-1.181-3.429-1.891-5.505-1.891c-4.971,0-9,4.029-9,9
		v1.8c0,4.498,3.303,8.214,7.613,8.882L99.641,332.529z M263.904,392.015H215.83c-6.849,0-12.83-3.728-16.063-9.251l17.551-2.083
		c8.899-1.056,16.828-5.354,22.549-11.696c5.722,6.341,13.651,10.64,22.55,11.696l17.55,2.082
		C276.734,388.287,270.753,392.015,263.904,392.015z M245.483,332.926l-1.278,2.87c-2.854,0.361-5.822,0.361-8.675,0l-1.279-2.871
		c-3.307-7.421-10.718-11.777-18.461-11.386c-0.113-0.629-0.169-1.265-0.169-1.906c0-10.727,18.943-11.707,22.763-11.794
		c0.994-0.025,1.953-0.026,2.991,0c3.797,0.087,22.74,1.067,22.74,11.794c0,0.641-0.057,1.276-0.169,1.906
		C256.194,321.142,248.789,325.506,245.483,332.926z M283.111,365.01l-18.573-2.204c-6.137-0.728-11.348-4.537-14.031-9.851
		c0.755-0.158,1.51-0.312,2.255-0.503c2.66-0.684,4.862-2.545,5.98-5.054l3.184-7.148c0.256-0.574,0.901-0.859,1.495-0.661
		l2.723,0.899c3.719,1.228,7.805-0.09,10.105-3.26c3.837-5.287,5.866-11.371,5.866-17.595c0-17.532-15.829-29.225-40.303-29.789
		c-1.3-0.033-2.607-0.033-3.865,0c-24.497,0.564-40.326,12.257-40.326,29.789c0,6.223,2.028,12.307,5.865,17.595
		c2.301,3.17,6.387,4.488,10.106,3.26l2.722-0.899c0.599-0.196,1.24,0.088,1.496,0.661l3.184,7.147
		c1.118,2.508,3.32,4.37,5.979,5.054c0.744,0.191,1.5,0.346,2.255,0.503c-2.682,5.314-7.893,9.123-14.03,9.851l-18.573,2.204
		c-7.492,0.887-14.575-2.906-18.056-9.388h0.531c4.971,0,9-4.029,9-9s-4.029-9-9-9h-1.8c-0.834,0-1.637,0.122-2.403,0.334
		c0.091-5.432,1.228-10.843,3.421-15.958l22.636-52.817c5.353-12.489,16.467-21.705,29.731-24.652
		c6.009-1.336,12.359-1.336,18.369,0c13.264,2.947,24.378,12.163,29.73,24.652l17.34,40.46c-4.795,0.199-8.623,4.137-8.623,8.981
		c0,4.971,4.029,9,9,9h1.8c1.719,0,3.32-0.491,4.686-1.327c2.703,8.807,2.471,18.229-0.747,26.978l-0.007,0.019
		C299.323,361.182,291.46,365.998,283.111,365.01z M339.404,301.444c-8.069,3.746-15.019,9.173-20.499,15.86
		c-0.304-0.802-0.603-1.605-0.942-2.397l-22.636-52.817c-7.628-17.798-23.467-30.932-42.37-35.133
		c-8.563-1.903-17.616-1.903-26.179,0c-18.903,4.2-34.743,17.334-42.371,35.133l-22.636,52.817
		c-0.337,0.787-0.652,1.581-0.955,2.377c-5.477-6.679-12.424-12.098-20.486-15.841c-2.805-1.302-5.014-3.571-6.262-6.334
		c0.077,0.001,0.153,0.012,0.23,0.012c7.622,0,13.822-6.2,13.822-13.822v-5.357c0-7.621-6.2-13.821-13.822-13.821
		c-2.291,0-4.448,0.569-6.352,1.56c-5.457-31.858-3.62-65.007,5.382-96.049c5.918-20.408,17.545-38.495,33.194-52.301
		c1.65,1.89,4.07,3.09,6.776,3.09c4.971,0,9-4.029,9-9v-1.8c0-1.235-0.25-2.412-0.7-3.483c3.316-2.048,6.753-3.93,10.3-5.631
		c30.484-14.62,65.453-14.62,95.938,0c28.438,13.639,49.786,38.834,58.57,69.125c9.242,31.867,10.955,65.96,4.953,98.592
		l-4.771,25.945C345.84,296.236,343.154,299.703,339.404,301.444z M457.101,217.113l-40.223,60.14l-1.109-1.65
		c-4.925-7.33-14.896-9.287-22.226-4.361c-7.33,4.925-9.286,14.896-4.361,22.226l4.348,6.47c1.32,1.964,3.03,3.564,4.996,4.754
		l-18.618,27.836l-15.216-39.283l4.371-23.765c6.505-35.37,4.648-72.322-5.368-106.862c-6.108-21.061-17.445-39.999-32.642-55.213
		l3.793-2.168c5.757-3.29,12.882-2.817,18.152,1.204l47.124,35.954c-1.268-0.384-2.61-0.596-4.002-0.596
		c-7.621,0-13.821,6.2-13.821,13.822v5.357c0,7.126,5.422,13.008,12.357,13.742v4.901c0,7.621,6.2,13.821,13.821,13.821
		s13.821-6.2,13.821-13.821v-5.357c0-7.126-5.422-13.008-12.357-13.742v-4.901c0-2.713-0.797-5.239-2.153-7.377l43.362,33.084
		C462.246,189.794,464.86,205.513,457.101,217.113z"/>
	<path d="M334.62,203.745c-4.34-6.972-11.135-11.836-19.133-13.696c-7.997-1.859-16.242-0.495-23.214,3.844l-9.497,5.912
		c-2.447,1.523-3.901,4.03-4.185,6.69c-0.003,0.023-1.651,16.686-1.651,16.686c-0.487,4.947,3.128,9.352,8.074,9.839
		c0.3,0.03,0.598,0.044,0.893,0.044c4.078,0,7.625-2.764,8.672-6.656c3.517,2.016,7.349,3.53,11.409,4.475
		c3.183,0.74,6.393,1.106,9.581,1.106c7.74,0,15.346-2.158,22.08-6.35c4.22-2.627,5.511-8.177,2.884-12.397L334.62,203.745z
		 M310.065,213.35c-3.171-0.738-6.1-2.083-8.657-3.942l0.377-0.235c2.889-1.799,6.306-2.366,9.622-1.593
		c3.315,0.771,6.132,2.788,7.931,5.677l0.235,0.377C316.458,214.175,313.238,214.087,310.065,213.35z"/>
	<path d="M200.968,205.406c-0.541-2.325-1.983-4.339-4.01-5.601l-9.497-5.912c-6.972-4.34-15.217-5.707-23.214-3.844
		c-7.999,1.86-14.793,6.725-19.134,13.696l-5.912,9.497c-2.627,4.22-1.335,9.77,2.884,12.397c6.88,4.283,14.528,6.323,22.091,6.323
		c7.336,0,14.582-1.939,20.968-5.599c1.031,3.915,4.589,6.7,8.683,6.7c0.295,0,0.593-0.014,0.893-0.044
		c4.946-0.487,8.562-4.892,8.074-9.839C202.796,223.18,201.052,205.766,200.968,205.406z M160.168,213.622l0.228-0.365
		c1.799-2.89,4.616-4.906,7.931-5.677c3.315-0.772,6.732-0.206,9.623,1.594l0.366,0.228
		C173.096,213.183,166.519,214.715,160.168,213.622z"/>
	<path d="M301.502,162.527c0.001,0,0.002,0,0.003,0c0.875,4.055,4.477,7.095,8.794,7.095c4.971,0,9-4.029,9-9v-1.8
		c0-2.595-1.105-4.927-2.862-6.569c0.689-1.785,1.082-3.716,1.082-5.741v-7.795c0-8.832-7.185-16.016-16.016-16.016
		s-16.016,7.185-16.016,16.016v7.795C285.486,155.343,292.671,162.527,301.502,162.527z"/>
	<path d="M201.298,150.622c-7.621,0-13.821,6.2-13.821,13.821v5.357c0,7.622,6.2,13.822,13.821,13.822s13.821-6.2,13.821-13.822
		v-5.357C215.12,156.822,208.92,150.622,201.298,150.622z"/>
	<path d="M67.978,211.837c0.838-1.782,1.321-3.762,1.321-5.858v-5.357c0-7.622-6.2-13.822-13.821-13.822s-13.821,6.2-13.821,13.822
		v1.958c-6.874,5.046-8.625,14.683-3.825,21.826l4.348,6.47c2.386,3.551,6.012,5.96,10.21,6.784
		c1.039,0.204,2.081,0.305,3.116,0.305c3.149,0,6.228-0.932,8.9-2.728l0,0c7.33-4.925,9.286-14.896,4.36-22.226L67.978,211.837z"/>
	<path d="M218.099,264.622h-1.8c-4.971,0-9,4.029-9,9s4.029,9,9,9h1.8c4.971,0,9-4.029,9-9S223.069,264.622,218.099,264.622z"/>
	<path d="M99.198,186.522v-1.8c0-4.971-4.029-9-9-9s-9,4.029-9,9v1.8c0,4.971,4.029,9,9,9S99.198,191.493,99.198,186.522z"/>
	<path d="M383.298,214.622c-4.971,0-9,4.029-9,9v1.8c0,4.971,4.029,9,9,9s9-4.029,9-9v-1.8
		C392.298,218.651,388.269,214.622,383.298,214.622z"/>
</g>
<g>
</g>
<g>
</g>
<g>
</g>
<g>
</g>
<g>
</g>
<g>
</g>
<g>
</g>
<g>
</g>
<g>
</g>
<g>
</g>
<g>
</g>
<g>
</g>
<g>
</g>
<g>
</g>
<g>
</g>
</svg>
