<?xml version="1.0" encoding="iso-8859-1"?>
<!-- Generator: Adobe Illustrator 18.0.0, SVG Export Plug-In . SVG Version: 6.00 Build 0)  -->
<!DOCTYPE svg PUBLIC "-//W3C//DTD SVG 1.1//EN" "http://www.w3.org/Graphics/SVG/1.1/DTD/svg11.dtd">
<svg version="1.1" id="Capa_1" xmlns="http://www.w3.org/2000/svg" xmlns:xlink="http://www.w3.org/1999/xlink" x="0px" y="0px"
	 viewBox="0 0 472.291 472.291" style="enable-background:new 0 0 472.291 472.291;" xml:space="preserve">
<path d="M405.166,297.4c-21.089-53.666-25.264-100.304-25.875-123.328c-0.506-19.036-8.057-37.423-21.262-51.774
	c-19.728-21.439-25.723-47.536-25.781-47.797c0,0-0.016,0.016-0.033,0.034c-3.418-13.348-9.655-26.001-18.527-37.148
	C294.777,13.627,266.513,0,236.145,0s-58.63,13.627-77.542,37.387c-8.872,11.146-15.108,23.798-18.526,37.145
	c-0.017-0.016-0.034-0.03-0.034-0.03c-0.058,0.261-6.053,26.357-25.781,47.797C101.057,136.649,93.506,155.036,93,174.073
	c-0.611,23.023-4.786,69.661-25.875,123.327c-18.035,45.895-20.02,96.687-5.591,143.015l0.258,0.826
	c3.731,11.936,13.62,21.059,25.807,23.811l24.095,5.441c5.329,1.204,10.693,1.798,16.021,1.798c13.613,0,26.964-3.886,38.715-11.422
	c16.379-10.503,27.617-26.782,31.644-45.836c7.242-34.272,9.459-71.779,6.667-111.748c8.246,7.462,19.396,11.895,31.406,11.895
	c12.01,0,23.16-4.433,31.406-11.895c-2.793,39.969-0.577,77.475,6.667,111.748c4.027,19.055,15.265,35.333,31.645,45.836
	c11.752,7.536,25.1,11.421,38.714,11.421c5.326,0,10.692-0.595,16.021-1.798l24.096-5.441c12.187-2.751,22.075-11.875,25.803-23.796
	l0.26-0.834C425.185,394.087,423.2,343.295,405.166,297.4z M187.708,33.915c8.532-6.515,18.386-11.142,28.834-13.609
	c31.93-7.538,63.567,3.797,83.063,28.291c13.467,16.92,19.51,38.077,17.181,59.242c-1.969-6.039-7.221-18.24-18.403-22.257
	c-1.618-0.581-3.332-0.977-5.098-1.177c-10.391-1.177-19.769,4.743-23.354,14.722s-0.112,20.516,8.645,26.218c0,0,0,0,0.001,0.001
	c1.488,0.969,3.063,1.755,4.682,2.336c2.612,0.939,5.259,1.327,7.851,1.327c11.513,0,21.929-7.657,23.31-8.713
	c0.035-0.027,0.063-0.059,0.097-0.086l-21.789,94.639c-2.446-4.683-3.655-9.991-3.414-15.401c0.016-0.337,0.021-0.655,0.02-0.969
	c-0.102-11.772-4.031-22.869-10.941-31.875c3.039-17.318-0.859-35.2-11.013-49.725l-6.172-8.812
	c-1.566-2.236-2.776-4.689-3.596-7.29c-2.674-8.488-1.041-18.079,5.272-26.124C267.247,69.09,274.053,66,281.123,66h7.284
	c1.593,0,3.135-0.673,4.155-1.897C298.858,56.548,293.615,48,286.375,48H281.1c-14.007,0-27.228,6.93-34.82,18.701
	c-8.072,12.516-9.855,26.733-5.838,39.483c1.372,4.357,3.398,8.466,6.021,12.208l6.166,8.804c5.186,7.418,8.13,16.039,8.678,24.879
	c-15.793-8.517-34.53-8.516-50.325,0.001c0.547-8.837,3.491-17.457,8.675-24.874l6.167-8.806c2.624-3.744,4.651-7.853,6.024-12.211
	c3.991-12.668,2.256-26.801-5.697-39.314C218.6,54.991,205.307,48,191.23,48h-7.346c-1.593,0-3.135,0.673-4.155,1.897
	C173.432,57.452,178.675,66,185.915,66h5.283c7.522,0,14.649,3.556,19.026,9.673c5.637,7.879,7.01,17.001,4.457,25.102
	c-0.82,2.602-2.029,5.054-3.598,7.292l-6.174,8.816c-10.15,14.52-14.048,32.396-11.01,49.707
	c-7.06,9.185-10.997,20.538-10.941,32.583c0.001,0.293,0.011,0.608,0.029,0.924c0.292,5.136-0.911,10.261-3.396,14.865
	l-21.815-94.754c0.034,0.027,0.062,0.059,0.097,0.086c1.381,1.057,11.796,8.714,23.31,8.714c2.591,0,5.239-0.388,7.851-1.327
	c1.619-0.582,3.194-1.368,4.682-2.336l0.001-0.001c8.756-5.702,12.229-16.239,8.644-26.219c-3.586-9.98-12.978-15.898-23.355-14.722
	c-1.766,0.2-3.481,0.597-5.097,1.177c-11.182,4.017-16.434,16.218-18.403,22.257C152.438,79.961,163.896,52.098,187.708,33.915z
	 M297.961,109.195c-3.049,1.378-6.443,2.329-8.619,1.547c-0.312-0.112-0.62-0.269-0.945-0.48c-2.443-1.592-1.882-4.062-1.527-5.049
	c0.355-0.987,1.49-3.251,4.39-2.922c0.381,0.043,0.73,0.121,1.038,0.232C294.382,103.271,296.429,106.09,297.961,109.195z
	 M257.79,275.613c-4.057-0.659-7.752-2.825-10.168-6.15c-0.894-1.231-1.667-2.622-2.033-4.073c-1.19-4.717-0.412-7.941-0.444-12.595
	l0,0c14.595-3.754,25.362-16.4,25.362-31.389c0-16.897-13.809-28.25-34.362-28.25c-20.553,0-34.362,11.353-34.362,28.25
	c0,14.989,10.767,27.635,25.362,31.389v0.002c-0.156,5.589,0.646,8.16-0.396,12.554c-0.225,0.949-0.617,1.868-1.101,2.73
	c-2.381,4.247-6.782,6.893-11.599,7.602c-17.66,2.596-32.885-11.088-32.885-28.26c0-3.461,1.063-6.767,3.077-9.563
	c0.585-0.813,1.249-1.577,1.973-2.271c10.137-9.717,15.511-23.025,14.746-36.489c-0.058-12.306,6.145-23.536,16.591-30.041
	c11.471-7.142,25.721-7.142,37.192,0c10.283,6.402,16.485,17.458,16.589,29.557c-0.619,13.917,4.757,27.393,14.747,36.971
	c1.031,0.989,1.928,2.104,2.667,3.315c1.56,2.557,2.384,5.503,2.384,8.52C291.128,264.742,275.643,278.512,257.79,275.613z
	 M236.145,235.934c-9.022,0-16.362-6.518-16.362-14.529c0-9.251,11.442-10.25,16.362-10.25s16.362,0.999,16.362,10.25
	C252.507,229.417,245.167,235.934,236.145,235.934z M174.332,109.199c1.474-3.002,3.487-5.896,5.665-6.678
	c0.307-0.11,0.655-0.188,1.034-0.231c2.895-0.324,4.037,1.935,4.391,2.922c0.355,0.988,0.917,3.458-1.527,5.049
	c-0.32,0.208-0.638,0.37-0.946,0.48C180.862,111.491,177.49,110.619,174.332,109.199z M180.462,411.311
	c-4.01,18.98-17.549,34.288-36.985,40.666c-8.756,2.874-18.161,3.139-27.151,1.109l-24.763-5.592
	c-5.945-1.342-10.77-5.796-12.592-11.624l-0.25-0.802c-13.216-42.437-11.385-88.99,5.157-131.085
	c22.096-56.228,26.473-105.228,27.115-129.433c0.391-14.687,6.255-28.915,16.514-40.063c4.489-4.879,8.354-9.929,11.679-14.911
	c0.125,0.588,0.245,1.177,0.38,1.765l25.942,112.679c0,0,0.016,0.875-0.168,1.367c-1.43,3.814-2.177,7.871-2.177,12.037
	c0,16.699,8.839,31.368,22.079,39.591C189.994,331.938,188.401,373.741,180.462,411.311z M219.904,292.36
	c6.471-2.124,12.18-6.221,16.242-11.751c4.062,5.529,9.771,9.626,16.242,11.751c-4.582,3.059-10.223,4.82-16.242,4.82
	C230.126,297.18,224.486,295.42,219.904,292.36z M393.553,435.123l-0.233,0.748c-1.822,5.828-6.646,10.282-12.592,11.624
	l-24.096,5.441c-14.209,3.208-28.789,0.646-41.054-7.218c-12.292-7.882-20.727-20.102-23.749-34.406
	c-7.94-37.57-9.532-79.373-4.78-124.298c13.24-8.223,22.079-22.891,22.079-39.59c0-4.134-0.747-8.207-2.178-12.036
	c-0.184-0.492-0.168-1.368-0.168-1.368l25.942-112.679c0.135-0.588,0.256-1.177,0.38-1.765c3.325,4.982,7.189,10.033,11.678,14.912
	c10.259,11.149,16.124,25.377,16.514,40.063c0.644,24.205,5.021,73.206,27.115,129.433
	C404.954,346.079,406.785,392.633,393.553,435.123z"/>
<g>
</g>
<g>
</g>
<g>
</g>
<g>
</g>
<g>
</g>
<g>
</g>
<g>
</g>
<g>
</g>
<g>
</g>
<g>
</g>
<g>
</g>
<g>
</g>
<g>
</g>
<g>
</g>
<g>
</g>
</svg>
