<?xml version="1.0" encoding="iso-8859-1"?>
<!-- Generator: Adobe Illustrator 18.0.0, SVG Export Plug-In . SVG Version: 6.00 Build 0)  -->
<!DOCTYPE svg PUBLIC "-//W3C//DTD SVG 1.1//EN" "http://www.w3.org/Graphics/SVG/1.1/DTD/svg11.dtd">
<svg version="1.1" id="Capa_1" xmlns="http://www.w3.org/2000/svg" xmlns:xlink="http://www.w3.org/1999/xlink" x="0px" y="0px"
	 viewBox="0 0 400.47 400.47" style="enable-background:new 0 0 400.47 400.47;" xml:space="preserve">
<g>
	<path d="M149.238,117.962c0-4.407-2.602-8.414-6.627-10.207c-4.027-1.794-8.745-1.048-12.022,1.901l-11.371,10.234
		c-2.593,2.333-3.604,5.955-2.595,9.294c1.01,3.339,3.857,5.794,7.31,6.3l4.296,0.63c0.89,0.13,1.78,0.195,2.667,0.195
		c4.375,0,8.635-1.565,11.991-4.465C146.923,128.356,149.238,123.296,149.238,117.962z"/>
	<path d="M269.88,109.655c-3.277-2.948-7.995-3.694-12.021-1.9c-4.025,1.793-6.627,5.8-6.627,10.207
		c0,5.335,2.315,10.395,6.352,13.883c3.356,2.9,7.616,4.465,11.99,4.465c0.887,0,1.779-0.064,2.669-0.195l4.295-0.63
		c3.452-0.506,6.3-2.961,7.31-6.3c1.009-3.339-0.002-6.961-2.595-9.294L269.88,109.655z"/>
	<path d="M394.756,188.938l-21.29-73.931c-8.109-28.141-28.112-51.088-54.882-62.956l-54.798-24.286
		C244.713,16.224,222.664,9.98,200.234,9.98c-22.424,0-44.468,6.241-63.538,17.777L81.89,52.05
		c-26.775,11.866-46.783,34.813-54.892,62.958l-21.29,73.93c-6.865,23.839-7.552,49.218-1.987,73.393
		C9.286,286.507,21,309.032,37.596,327.469l25.621,28.47c5.982,6.647,14.053,10.162,22.396,10.162c4.246,0,8.563-0.91,12.711-2.78
		c3.662-1.651,6.836-3.906,9.467-6.598l0.403,2.641c0.937,6.134,4.885,11.292,10.561,13.797c2.35,1.037,4.835,1.549,7.308,1.549
		c0.993,0,1.982-0.092,2.961-0.256l9.821,8.87c5.675,5.126,13.313,7.704,20.919,7.073c7.62-0.63,14.717-4.426,19.472-10.413
		c5.117-6.443,12.771-10.139,20.999-10.139c8.228,0,15.881,3.696,20.998,10.139c4.755,5.988,11.853,9.783,19.473,10.414
		c0.756,0.063,1.513,0.094,2.267,0.094c6.848,0,13.541-2.55,18.651-7.166l9.819-8.869c3.417,0.574,6.976,0.159,10.271-1.295
		c5.676-2.505,9.624-7.663,10.56-13.797l0.404-2.646c2.632,2.694,5.808,4.951,9.472,6.603c4.148,1.87,8.464,2.781,12.71,2.78
		c8.344,0,16.415-3.515,22.398-10.162l25.619-28.469c16.598-18.438,28.312-40.963,33.875-65.139
		C402.315,238.155,401.625,212.775,394.756,188.938z M265.937,51.189c30.295,24.455,45.465,63.555,39.591,102.042l-9.16,60.037
		c-5.625-10.942-13.14-20.945-22.338-29.55c-20.077-18.785-46.284-29.13-73.793-29.13c-28.863,0-55.997,11.239-76.402,31.644
		c-8.008,8.003-14.639,17.143-19.728,27.047l-9.165-60.048c-5.875-38.487,9.295-77.587,39.59-102.042
		c18.541-14.967,41.875-23.209,65.702-23.209C224.062,27.98,247.396,36.223,265.937,51.189z M208.359,216.754
		c-5.316,0.878-10.933,0.878-16.249,0l-2.462-5.526c-4.3-9.652-14.43-14.945-24.543-13.291c-0.705-1.979-1.061-4.015-1.061-6.093
		c0-3.085,1.643-18.515,34.092-19.263c1.402-0.036,2.768-0.037,4.221,0c32.425,0.747,34.067,16.177,34.067,19.262
		c0,2.078-0.355,4.114-1.061,6.093c-10.11-1.652-20.243,3.638-24.542,13.29L208.359,216.754z M98.143,334.062
		c0.004,0.038,0.008,0.076,0.012,0.114c0.764,6.643-3.234,10.935-7.229,12.736c-3.994,1.801-9.856,1.956-14.328-3.013
		l-25.621-28.471c-14.559-16.172-24.833-35.928-29.714-57.134c-4.881-21.204-4.278-43.465,1.743-64.375l21.29-73.929
		c6.631-23.015,22.991-41.78,44.889-51.484l8.789-3.896c-17.949,26.381-25.754,59.043-20.825,91.337L98.143,334.062z
		 M110.508,255.221c1.721-21.207,10.941-41.156,26.053-56.258c3.001-3.002,6.18-5.763,9.508-8.279
		c-0.012,0.385-0.024,0.771-0.024,1.161c0,7.772,2.544,15.385,7.355,22.016c2.301,3.17,6.384,4.487,10.105,3.26l3.701-1.222
		c2.396-0.792,4.974,0.351,5.999,2.654l4.328,9.714c1.117,2.509,3.319,4.369,5.979,5.053c2.53,0.651,5.111,1.145,7.723,1.493v2.053
		c0,11.237-4.465,22.12-12.25,29.856c-17.265,17.159-25.703,43.287-29.742,62.185c-1.981,9.278-7.466,17.316-15.442,22.634
		l-7.728,5.165l-0.084-0.06L110.508,255.221z M242.189,372.458c-2.724-0.225-5.16-1.528-6.86-3.669
		c-8.552-10.769-21.343-16.945-35.094-16.945c-13.752,0-26.543,6.176-35.095,16.945c-1.7,2.141-4.136,3.443-6.86,3.669
		c-2.728,0.229-5.342-0.66-7.37-2.492l-5.262-4.753c10.892-7.919,18.388-19.389,21.198-32.543
		c2.737-12.804,9.227-35.802,22.548-50.757c7.015-2.101,14.647-2.104,21.679-0.004c13.323,14.955,19.815,37.956,22.552,50.761
		c2.811,13.154,10.307,24.624,21.198,32.543l-5.263,4.754C247.531,371.798,244.915,372.685,242.189,372.458z M274.488,356.667
		l-0.101,0.021l-7.719-5.146c-7.976-5.317-13.46-13.356-15.443-22.635c-4.038-18.897-12.477-45.025-29.742-62.185
		c-7.783-7.736-12.248-18.618-12.248-29.856v-2.053c2.612-0.348,5.192-0.842,7.722-1.493c2.659-0.684,4.861-2.545,5.979-5.053
		l4.329-9.715c1.024-2.302,3.6-3.445,5.998-2.653l3.701,1.222c3.717,1.227,7.804-0.09,10.105-3.26
		c4.812-6.631,7.355-14.244,7.355-22.016c0-0.347-0.012-0.688-0.022-1.031c19.877,15.024,33.429,38.095,35.557,64.448
		L274.488,356.667z M379.21,258.294c-4.879,21.205-15.153,40.961-29.713,57.134l-25.619,28.469
		c-4.473,4.969-10.336,4.814-14.33,3.014c-3.995-1.802-7.992-6.093-7.229-12.736c0.004-0.038,0.008-0.076,0.012-0.114
		l20.991-178.114c4.929-32.295-2.876-64.958-20.827-91.34l8.795,3.898c21.89,9.705,38.248,28.47,44.879,51.483l21.29,73.931
		C383.484,214.829,384.09,237.089,379.21,258.294z"/>
	<path d="M106.587,102.893c2.106,4.502,7.465,6.446,11.965,4.34l43.741-20.457c1.458,21.115-5.818,41.94-20.223,57.578
		c-3.367,3.656-3.133,9.35,0.522,12.717c1.73,1.593,3.915,2.38,6.096,2.38c2.427,0,4.848-0.977,6.622-2.903
		c18.665-20.265,27.626-47.593,24.583-74.977c-0.558-5.018-3.52-9.489-7.923-11.959c-4.4-2.47-9.759-2.669-14.335-0.53
		l-46.709,21.845C106.424,93.034,104.481,98.391,106.587,102.893z"/>
	<path d="M251.781,159.452c2.18,0,4.366-0.787,6.096-2.38c3.655-3.367,3.89-9.061,0.522-12.717
		c-14.404-15.638-21.681-36.463-20.223-57.578l43.741,20.457c4.498,2.105,9.858,0.163,11.965-4.34
		c2.105-4.502,0.163-9.859-4.34-11.965l-46.708-21.845c-4.573-2.139-9.934-1.941-14.336,0.529c-4.403,2.47-7.365,6.941-7.923,11.96
		c-3.043,27.384,5.918,54.712,24.583,74.977C246.933,158.476,249.353,159.452,251.781,159.452z"/>
</g>
<g>
</g>
<g>
</g>
<g>
</g>
<g>
</g>
<g>
</g>
<g>
</g>
<g>
</g>
<g>
</g>
<g>
</g>
<g>
</g>
<g>
</g>
<g>
</g>
<g>
</g>
<g>
</g>
<g>
</g>
</svg>
