<?xml version="1.0" encoding="iso-8859-1"?>
<!-- Generator: Adobe Illustrator 18.0.0, SVG Export Plug-In . SVG Version: 6.00 Build 0)  -->
<!DOCTYPE svg PUBLIC "-//W3C//DTD SVG 1.1//EN" "http://www.w3.org/Graphics/SVG/1.1/DTD/svg11.dtd">
<svg version="1.1" id="Capa_1" xmlns="http://www.w3.org/2000/svg" xmlns:xlink="http://www.w3.org/1999/xlink" x="0px" y="0px"
	 viewBox="0 0 444.753 444.753" style="enable-background:new 0 0 444.753 444.753;" xml:space="preserve">
<path d="M432,38.957c-9.659-24.369-37.479-36.675-62.005-27.438c-28.544,10.75-50.084,33.629-59.098,62.769l-14.499,46.882
	c-48.616-13.498-99.432-13.498-148.045,0l-14.5-46.882c-9.013-29.14-30.553-52.018-59.098-62.769
	c-24.531-9.24-52.346,3.07-62.004,27.438C-7.142,89.145-3.631,145.06,22.387,192.363c0,0,39.63,67.989,40.51,69.495
	c6.921,11.845,10.656,25.234,10.847,39.031c0.437,31.41,6.976,61.958,19.436,90.794l16.935,39.191c0,0,0.847,1.615,1.453,2.316
	c1.71,1.977,4.194,3.114,6.809,3.114h11.634c9.458,0,18.15-3.73,24.584-9.862c2.237,0.311,4.502,0.482,6.782,0.482
	c12.615,0,24.515-4.789,33.523-13.325c8.814,2.965,18.03,4.464,27.477,4.464s18.662-1.5,27.477-4.464
	c9.009,8.536,20.908,13.325,33.523,13.325c2.28,0,4.544-0.171,6.781-0.482c6.435,6.131,15.126,9.862,24.584,9.862h11.635
	c2.614,0,5.099-1.137,6.809-3.114c0.606-0.701,1.453-2.316,1.453-2.316l16.935-39.191c12.46-28.837,18.999-59.385,19.435-90.793
	c0.192-13.798,3.927-27.186,10.847-39.031c0.88-1.506,40.512-69.496,40.512-69.496C448.383,145.06,451.895,89.145,432,38.957z
	 M322.939,143.402l-10.545-13.026l4.878-15.773C318.855,125.025,320.831,134.694,322.939,143.402z M127.482,114.608l4.877,15.768
	L121.815,143.4C123.922,134.694,125.899,125.027,127.482,114.608z M29.486,45.59c6.063-15.298,23.523-23.026,38.927-17.226
	c20.105,7.573,35.947,22.519,44.643,41.755c-0.401,57.431-19.427,104.598-22.555,111.964l-31.693,39.15l-20.649-37.545
	C14.738,141.105,11.576,90.77,29.486,45.59z M259.351,397.406c-2.519-3.132-6.81-4.214-10.509-2.655
	c-8.369,3.526-17.273,5.314-26.466,5.314s-18.097-1.788-26.466-5.314c-3.7-1.559-7.992-0.477-10.509,2.655
	c-5.179,6.443-12.584,10.464-20.682,11.337c0.282-1.215,0.51-2.451,0.666-3.713l1.936-15.671c0,0,0,0,0.001,0
	c1.857-15.044,9.672-28.073,20.888-36.858c9.828,7.34,21.71,11.325,34.166,11.325c12.456,0,24.338-3.985,34.166-11.325
	c11.215,8.786,19.031,21.814,20.889,36.858l1.935,15.671c0.156,1.262,0.384,2.499,0.666,3.713
	C271.935,407.87,264.53,403.849,259.351,397.406z M226.803,295.153l-0.989,2.222c-2.266,0.254-4.609,0.254-6.875,0l-0.99-2.222
	c-3.056-6.857-9.807-10.999-16.914-10.888c-0.033-0.315-0.05-0.63-0.05-0.948c0-1.916,0.481-4.167,4.056-6.332
	c3.66-2.217,9.334-3.523,16.003-3.676c0.893-0.023,1.745-0.024,2.692,0c6.643,0.153,12.316,1.458,15.976,3.676
	c3.574,2.165,4.056,4.416,4.056,6.332c0,0.317-0.017,0.633-0.05,0.948c-0.066-0.001-0.133-0.001-0.2-0.001
	C236.457,284.263,229.829,288.36,226.803,295.153z M222.376,340.685c5.234,0,10.317,0.734,15.146,2.108
	c-4.74,1.984-9.867,3.032-15.146,3.032c-5.279,0-10.406-1.048-15.146-3.032C212.059,341.419,217.142,340.685,222.376,340.685z
	 M314.741,418.305c-8.894,0-16.422-6.656-17.512-15.482l-1.936-15.671c-4.166-33.731-30.919-59.832-63.918-63.898v-8.528
	c1.001-0.189,1.995-0.409,2.979-0.662c2.661-0.684,4.863-2.545,5.981-5.055l2.909-6.533c0.071-0.161,0.25-0.241,0.419-0.185
	l2.488,0.821c3.721,1.229,7.805-0.091,10.104-3.26c3.604-4.966,5.51-10.685,5.51-16.538c0-16.485-14.766-27.477-37.59-28.002
	c-1.205-0.031-2.425-0.031-3.575,0c-22.852,0.526-37.617,11.518-37.617,28.003c0,5.853,1.905,11.572,5.509,16.538
	c2.301,3.169,6.385,4.486,10.104,3.26l2.491-0.822c0.163-0.055,0.346,0.024,0.417,0.185l2.91,6.533
	c1.118,2.509,3.32,4.371,5.98,5.054c0.983,0.253,1.978,0.473,2.979,0.662v8.528c-33,4.066-59.753,30.167-63.919,63.898h0.001
	l-1.936,15.67c-1.091,8.827-8.619,15.482-17.513,15.482h-1.224l14.561-99.677c2.772-18.975,12.288-36.333,26.795-48.874
	s33.058-19.449,52.234-19.449s37.727,6.907,52.233,19.449s24.022,29.899,26.795,48.874l14.562,99.677H314.741z M369.734,247.34
	c-10.676,15.801-16.459,34.232-16.725,53.299c-0.402,29.025-6.445,57.255-17.96,83.904l-4.353,10.074l-11.481-78.591
	c-2.051-14.043-7.135-27.352-14.742-39.085c2.969,0.794,5.888,1.203,8.721,1.203c1.667,0,3.306-0.139,4.906-0.419
	c7.114-1.244,13.795-5.206,19.856-11.773c5.171-5.604,7.385-13.119,6.072-20.619c-1.312-7.5-5.944-13.818-12.71-17.334
	c-7.931-4.121-15.559-5.581-22.675-4.335c-8.417,1.472-16.465,6.952-23.274,15.848c-3.323,4.34-5.565,8.43-6.678,10.642
	c-16.423-11.557-36.08-17.848-56.316-17.848c-20.236,0-39.893,6.291-56.317,17.848c-1.113-2.212-3.355-6.302-6.677-10.642
	c-6.81-8.896-14.857-14.375-23.274-15.848c-7.116-1.246-14.744,0.214-22.675,4.335c-6.767,3.516-11.399,9.833-12.711,17.334
	c-1.313,7.5,0.901,15.016,6.072,20.619c6.062,6.568,12.742,10.53,19.857,11.774c1.602,0.28,3.238,0.419,4.906,0.419
	c2.832,0,5.751-0.408,8.721-1.203c-7.607,11.733-12.691,25.042-14.742,39.085l-11.48,78.591l-4.353-10.073
	c-11.515-26.648-17.558-54.878-17.961-83.904c-0.264-19.068-6.048-37.499-16.725-53.3l-6.453-9.552l79.078-97.686
	c48.95-14.748,100.515-14.749,149.467,0l79.078,97.685L369.734,247.34z M297.538,253.463c3.298-5.028,8.49-11.069,14.208-12.07
	c3.902-0.683,8.285,1.024,11.273,2.577c2.392,1.243,3.081,3.329,3.279,4.462s0.258,3.33-1.57,5.311
	c-2.283,2.475-5.824,5.567-9.729,6.25C309.285,260.994,302.347,257.074,297.538,253.463z M147.213,253.463
	c-4.809,3.61-11.745,7.526-17.46,6.531c-3.905-0.683-7.447-3.776-9.73-6.251c-1.828-1.98-1.769-4.177-1.57-5.31
	s0.888-3.22,3.279-4.462c2.522-1.311,6.038-2.732,9.422-2.732c0.624,0,1.245,0.049,1.853,0.155
	C138.724,242.394,143.916,248.436,147.213,253.463z M406.594,183.689l-20.649,37.545l-31.698-39.156
	c-3.133-7.352-22.152-54.362-22.551-111.958c8.697-19.237,24.539-34.183,44.644-41.755c15.398-5.798,32.863,1.926,38.928,17.226
	C433.176,90.77,430.015,141.105,406.594,183.689z"/>
<g>
</g>
<g>
</g>
<g>
</g>
<g>
</g>
<g>
</g>
<g>
</g>
<g>
</g>
<g>
</g>
<g>
</g>
<g>
</g>
<g>
</g>
<g>
</g>
<g>
</g>
<g>
</g>
<g>
</g>
</svg>
