<?xml version="1.0" encoding="iso-8859-1"?>
<!-- Generator: Adobe Illustrator 18.0.0, SVG Export Plug-In . SVG Version: 6.00 Build 0)  -->
<!DOCTYPE svg PUBLIC "-//W3C//DTD SVG 1.1//EN" "http://www.w3.org/Graphics/SVG/1.1/DTD/svg11.dtd">
<svg version="1.1" id="Capa_1" xmlns="http://www.w3.org/2000/svg" xmlns:xlink="http://www.w3.org/1999/xlink" x="0px" y="0px"
	 viewBox="0 0 476.391 476.391" style="enable-background:new 0 0 476.391 476.391;" xml:space="preserve">
<g>
	<path d="M476.103,126.19c-8.382-34.415-29.593-63.533-59.768-82.03c-29.662-18.183-64.541-23.982-98.459-16.437
		c-52.183-14.23-107.179-14.23-159.362,0c-33.92-7.546-68.797-1.747-98.459,16.437C29.881,62.657,8.669,91.775,0.288,126.19
		c-0.904,3.712,0.342,7.729,3.47,9.923c1.559,1.093,3.367,1.634,5.17,1.634c1.973,0,3.939-0.647,5.565-1.926l20.529-16.146
		c12.967-10.199,30.977-11.663,44.816-3.644c0.064,0.037,0.127,0.074,0.19,0.111c6.727,3.947,10.736,11.304,10.576,19.102
		c-0.098,4.792,0.589,9.603,2.09,14.204l18.171,55.698l-5.109,245.008c-0.104,4.969,3.841,9.082,8.811,9.186
		c0.064,0.001,0.127,0.002,0.191,0.002c4.883,0,8.892-3.907,8.994-8.813l4.035-193.512l35.174,107.816
		c5.124,15.708,17.506,27.824,32.719,32.999c7.338,15.786,23.827,26.092,42.515,26.092c18.687,0,35.176-10.306,42.515-26.092
		c15.213-5.175,27.595-17.291,32.719-32.999l35.174-107.816l4.035,193.512c0.102,4.906,4.111,8.813,8.994,8.813
		c0.063,0,0.128,0,0.191-0.002c4.97-0.104,8.914-4.216,8.811-9.186l-5.109-245.008l18.171-55.698
		c1.501-4.601,2.188-9.412,2.09-14.204c-0.16-7.798,3.85-15.155,10.576-19.102c0.063-0.037,0.127-0.074,0.19-0.111
		c13.838-8.019,31.849-6.555,44.816,3.644l20.529,16.146c1.626,1.278,3.592,1.926,5.565,1.926c1.803,0,3.611-0.541,5.17-1.634
		C475.762,133.918,477.008,129.902,476.103,126.19z M44.642,95.065c-5.546,1.531-10.91,3.873-15.879,7.019
		c9.512-17.334,23.404-31.976,40.7-42.579c19.818-12.148,42.332-17.902,65.076-16.883c-0.742,0.909-1.437,1.857-2.104,2.827
		C82.573,50.998,52.008,85.749,44.642,95.065z M88.862,100.456c-5.728-3.319-11.938-5.528-18.321-6.656
		c10.847-9.974,28.226-22.576,51.053-28.175l-22.248,42.962C96.436,105.547,92.936,102.817,88.862,100.456z M219.631,399.635
		c6.146-1.425,11.822-4.471,16.526-8.966c0.712-0.68,1.391-1.383,2.038-2.109c0.647,0.726,1.326,1.429,2.038,2.109
		c4.706,4.497,10.383,7.539,16.531,8.963c-5.063,3.944-11.618,6.292-18.569,6.292C231.247,405.923,224.694,403.577,219.631,399.635z
		 M209.743,324.234c0-18.027,21.778-19.428,28.453-19.428s28.452,1.401,28.452,19.428c0,14.196-12.764,25.745-28.452,25.745
		C222.507,349.979,209.743,338.43,209.743,324.234z M366.584,143.864L296.317,359.25c-4.338,13.296-16.64,22.657-30.611,23.292
		c-4.872,0.225-9.507-1.513-13.037-4.887c-2.976-2.843-4.807-6.524-5.314-10.534c21.242-4.017,37.293-21.718,37.293-42.887
		c0-19.739-13.748-33.407-35.835-36.67V61.861c0-4.971-4.029-9-9-9s-9,4.029-9,9v225.304c-23.973,2.362-39.069,16.384-39.069,37.07
		c0,21.169,16.051,38.87,37.293,42.887c-0.507,4.009-2.339,7.691-5.314,10.534c-3.53,3.374-8.163,5.113-13.037,4.887
		c-13.972-0.635-26.273-9.996-30.611-23.292l-70.267-215.386c-2.078-6.368-1.502-13.433,1.578-19.381l34.272-66.181
		c3.194-6.167,8.862-10.782,15.549-12.659c50.368-14.138,103.614-14.138,153.979,0c6.688,1.877,12.355,6.492,15.549,12.659
		l34.272,66.181C368.087,130.431,368.662,137.496,366.584,143.864z M387.529,100.456c-4.074,2.361-7.573,5.09-10.484,8.13
		l-22.248-42.962c22.826,5.6,40.205,18.201,51.052,28.175C399.465,94.927,393.257,97.137,387.529,100.456z M431.749,95.065
		c-7.365-9.315-37.93-44.067-87.793-49.616c-0.657-0.954-1.341-1.888-2.07-2.783c43.681-1.85,84.726,21.491,105.661,59.367
		C442.601,98.912,437.265,96.588,431.749,95.065z"/>
	<path d="M333.938,137.015c-10.352-5.933-18.55-4.2-23.605-1.704c-7.875,3.891-14.058,12.511-18.376,25.62
		c-2.893,8.782-3.959,16.631-4.003,16.961c-0.343,2.571,0.44,5.166,2.149,7.118c1.709,1.952,4.177,3.071,6.771,3.071
		c4.634,0,13.794-0.429,23.082-3.302c9.959-3.081,17.324-8.065,21.888-14.816c3.576-5.289,4.746-11.648,3.294-17.907
		C343.673,145.738,339.59,140.255,333.938,137.015z M326.934,159.883c-3.241,4.793-10.646,7.785-18.68,9.208
		c2.361-7.926,5.993-15.635,10.053-17.642c0.32-0.158,0.891-0.44,1.846-0.44c1.068,0,2.617,0.353,4.835,1.624
		c1.324,0.759,2.278,2.032,2.617,3.493C327.822,157.065,327.883,158.479,326.934,159.883z"/>
	<path d="M184.434,160.932c-4.318-13.109-10.5-21.729-18.376-25.62c-5.054-2.497-13.252-4.229-23.605,1.704
		c-5.652,3.24-9.735,8.723-11.201,15.043c-1.452,6.259-0.282,12.618,3.294,17.907c4.564,6.75,11.929,11.735,21.888,14.816
		c9.288,2.873,18.448,3.302,23.082,3.302c2.594,0,5.063-1.12,6.771-3.071c1.709-1.952,2.493-4.547,2.149-7.118
		C188.393,177.563,187.327,169.714,184.434,160.932z M149.457,159.883c-0.949-1.404-0.889-2.818-0.671-3.758
		c0.339-1.46,1.292-2.734,2.617-3.493c2.219-1.271,3.768-1.624,4.835-1.624c0.952,0,1.521,0.28,1.841,0.438
		c2.794,1.376,7.188,7.611,10.154,17.662C160.163,167.691,152.711,164.695,149.457,159.883z"/>
	<path d="M299.527,101.668c-3.695,3.325-3.994,9.016-0.669,12.71c3.325,3.694,9.016,3.994,12.71,0.669
		c0.354-0.319,8.806-7.633,22.114,5.674c1.757,1.757,4.061,2.636,6.364,2.636s4.606-0.879,6.364-2.636
		c3.515-3.515,3.515-9.213,0-12.728C321.165,82.748,299.739,101.476,299.527,101.668z"/>
	<path d="M180.099,101.668c3.695,3.325,3.994,9.016,0.669,12.71c-3.325,3.694-9.016,3.994-12.71,0.669
		c-0.354-0.319-8.806-7.633-22.114,5.674c-1.757,1.757-4.061,2.636-6.364,2.636s-4.606-0.879-6.364-2.636
		c-3.515-3.515-3.515-9.213,0-12.728C158.461,82.748,179.886,101.476,180.099,101.668z"/>
</g>
<g>
</g>
<g>
</g>
<g>
</g>
<g>
</g>
<g>
</g>
<g>
</g>
<g>
</g>
<g>
</g>
<g>
</g>
<g>
</g>
<g>
</g>
<g>
</g>
<g>
</g>
<g>
</g>
<g>
</g>
</svg>
