<?xml version="1.0" encoding="iso-8859-1"?>
<!-- Generator: Adobe Illustrator 18.0.0, SVG Export Plug-In . SVG Version: 6.00 Build 0)  -->
<!DOCTYPE svg PUBLIC "-//W3C//DTD SVG 1.1//EN" "http://www.w3.org/Graphics/SVG/1.1/DTD/svg11.dtd">
<svg version="1.1" id="Capa_1" xmlns="http://www.w3.org/2000/svg" xmlns:xlink="http://www.w3.org/1999/xlink" x="0px" y="0px"
	 viewBox="0 0 480.636 480.636" style="enable-background:new 0 0 480.636 480.636;" xml:space="preserve">
<path d="M434.62,25.468c-2.788-12.234-12.097-21.645-24.292-24.558c-12.176-2.909-24.71,1.27-32.712,10.904l-64.89,78.131
	c-7.818-2.378-15.991-3.631-24.235-3.631h-96.346c-8.244,0-16.416,1.253-24.235,3.631l-64.89-78.131
	C95.018,2.18,82.483-1.999,70.308,0.91C58.113,3.823,48.804,13.234,46.016,25.468c-6.885,30.208-9.866,58.829-8.861,85.068
	c1.338,34.933,9.831,64.724,25.218,88.651c-1.702,6.938-2.539,14.103-2.409,21.316l2.059,114.662
	c0.492,27.407,14.392,52.862,37.184,68.092l94.605,63.22c14.126,9.439,30.316,14.159,46.506,14.159
	c16.19,0,32.38-4.72,46.506-14.159l94.605-63.22c22.792-15.23,36.692-40.685,37.184-68.092l2.059-114.662
	c0.13-7.213-0.707-14.378-2.409-21.316c15.387-23.928,23.88-53.718,25.218-88.651C444.486,84.297,441.505,55.676,434.62,25.468z
	 M342.833,81.867v24.523c-4.008-3.412-8.325-6.425-12.88-9.015L342.833,81.867z M335.185,123.793l48.491,48.983
	c12.391,12.517,19.316,29.795,19,47.404l-0.485,27.028c-8.758-8.809-20.194-14.979-33.106-17.24l-15.391-2.7
	c-11.05-1.938-20.085-10.181-23.018-20.999l-6.74-24.88c-4.061-14.988-16.071-26.039-31.345-28.84
	c-15.242-2.796-30.361,3.243-39.481,15.762l-3.791,5.008v-69.006h39.173C305.91,104.314,322.929,111.414,335.185,123.793z
	 M325.593,236.918l-1.681,2.7c-2.436,3.914-6.251,6.645-10.741,7.689c-4.49,1.046-9.118,0.278-13.033-2.158l-2.7-1.681
	c3.751-3.28,8.273-5.609,13.264-6.771C315.693,235.536,320.78,235.63,325.593,236.918z M240.318,327.861
	c-7.276,0-13.195-5.199-13.195-11.59c0-2.359,1.286-7.847,13.195-7.847c11.909,0,13.194,5.487,13.194,7.847
	C253.513,322.662,247.594,327.861,240.318,327.861z M240.318,371.492l15.754,15.754c-4.726,2.706-10.101,4.142-15.754,4.142
	c-5.653,0-11.028-1.436-15.754-4.142L240.318,371.492z M269.348,375.067l-20.03-20.03V344.6
	c12.826-3.673,22.194-14.981,22.194-28.329c0-15.459-12.536-25.847-31.194-25.847c-18.659,0-31.195,10.387-31.195,25.847
	c0,13.348,9.369,24.656,22.195,28.329v10.436l-20.03,20.03c-8.99,8.989-23.617,8.989-32.605,0
	c-10.092-10.093-11.621-26.004-3.634-37.833l21.375-31.66c10.009-14.825,26.008-23.327,43.895-23.327
	c17.886,0,33.885,8.502,43.894,23.327l21.375,31.66c7.986,11.83,6.458,27.741-3.635,37.833
	C292.964,384.055,278.337,384.055,269.348,375.067z M231.318,104.314v69.006l-3.791-5.008c-9.12-12.519-24.238-18.558-39.481-15.762
	c-15.274,2.801-27.285,13.852-31.345,28.84l-6.74,24.879c-2.933,10.819-11.968,19.062-23.019,21l-15.387,2.699
	c-12.914,2.261-24.351,8.431-33.109,17.24l-0.485-27.028c-0.316-17.609,6.609-34.888,19-47.404l48.491-48.983
	c12.255-12.379,29.274-19.479,46.693-19.479H231.318z M169.934,236.697c4.991,1.161,9.513,3.49,13.264,6.771l-2.7,1.681
	c-3.914,2.437-8.54,3.203-13.033,2.158c-4.49-1.044-8.305-3.775-10.741-7.689l-1.681-2.7
	C159.856,235.63,164.944,235.536,169.934,236.697z M137.803,106.39V81.867l12.88,15.508
	C146.129,99.966,141.811,102.978,137.803,106.39z M55.142,109.848c-0.945-24.665,1.89-51.708,8.424-80.379
	c1.274-5.59,5.358-9.721,10.925-11.051c5.546-1.326,11.035,0.506,14.683,4.897l30.63,36.88v63.922l-35.635,35.997
	c-5.224,5.277-9.667,11.229-13.283,17.63C61.438,158.686,56.141,135.939,55.142,109.848z M371.429,388.292l-94.605,63.22
	c-22.176,14.819-50.835,14.818-73.01,0l-94.605-63.22c-17.89-11.955-28.802-31.936-29.188-53.449l-0.916-50.995
	c2.892-18.43,17.099-32.917,35.559-36.149l15.39-2.7c2.6-0.456,5.129-1.134,7.571-2.003l3.819,6.135
	c4.978,7.996,12.771,13.574,21.944,15.709c2.676,0.623,5.375,0.93,8.057,0.93c6.509,0,12.905-1.814,18.567-5.339l11.47-7.14
	c2.026-1.262,3.469-3.276,4.01-5.601c0.541-2.325,0.136-4.77-1.125-6.796c-6.885-11.059-17.664-18.775-30.352-21.727
	c-3.047-0.709-6.117-1.115-9.176-1.24c1.005-2.229,1.847-4.548,2.498-6.949l6.74-24.88c2.264-8.358,8.701-14.28,17.218-15.842
	c8.519-1.563,16.637,1.691,21.719,8.701c0.036,0.05,0.073,0.1,0.11,0.149l18.196,24.041v61.673
	c-20.115,2.561-38.296,13.624-49.813,30.682l-21.375,31.66c-12.8,18.959-10.35,44.459,5.825,60.633
	c11.406,11.406,27.906,14.678,42.243,9.829c8.931,7.53,20.319,11.765,32.12,11.765c11.801,0,23.189-4.235,32.12-11.766
	c4.276,1.446,8.744,2.177,13.213,2.177c10.513,0,21.026-4.001,29.03-12.005c16.175-16.175,18.625-41.675,5.825-60.633l-21.375-31.66
	c-11.516-17.058-29.698-28.121-49.812-30.682v-61.674l18.196-24.041c0.037-0.049,0.074-0.099,0.11-0.149
	c5.082-7.01,13.2-10.264,21.719-8.701c8.517,1.562,14.954,7.484,17.218,15.842l6.741,24.881c0.651,2.4,1.493,4.719,2.497,6.948
	c-3.059,0.124-6.128,0.53-9.176,1.24c-12.688,2.952-23.467,10.668-30.352,21.727c-1.261,2.026-1.666,4.471-1.125,6.796
	c0.541,2.325,1.983,4.339,4.01,5.601l11.47,7.14c5.663,3.525,12.058,5.339,18.567,5.339c2.68,0,5.381-0.308,8.057-0.93
	c9.173-2.134,16.966-7.713,21.944-15.709l3.819-6.135c2.442,0.869,4.971,1.547,7.571,2.003l15.393,2.7
	c18.457,3.231,32.664,17.718,35.556,36.148l-0.916,50.995C400.231,356.356,389.319,376.337,371.429,388.292z M425.495,109.848
	c-1,26.091-6.297,48.838-15.744,67.896c-3.617-6.401-8.059-12.353-13.283-17.63l-35.635-35.997V60.195l30.63-36.88
	c3.648-4.392,9.138-6.223,14.683-4.897c5.567,1.33,9.651,5.461,10.925,11.051C423.605,58.139,426.44,85.183,425.495,109.848z"/>
<g>
</g>
<g>
</g>
<g>
</g>
<g>
</g>
<g>
</g>
<g>
</g>
<g>
</g>
<g>
</g>
<g>
</g>
<g>
</g>
<g>
</g>
<g>
</g>
<g>
</g>
<g>
</g>
<g>
</g>
</svg>
