<?xml version="1.0" encoding="iso-8859-1"?>
<!-- Generator: Adobe Illustrator 18.0.0, SVG Export Plug-In . SVG Version: 6.00 Build 0)  -->
<!DOCTYPE svg PUBLIC "-//W3C//DTD SVG 1.1//EN" "http://www.w3.org/Graphics/SVG/1.1/DTD/svg11.dtd">
<svg version="1.1" id="Capa_1" xmlns="http://www.w3.org/2000/svg" xmlns:xlink="http://www.w3.org/1999/xlink" x="0px" y="0px"
	 viewBox="0 0 478.928 478.928" style="enable-background:new 0 0 478.928 478.928;" xml:space="preserve">
<g>
	<path d="M166.707,265.59c14.329-8.941,18.713-27.873,9.771-42.203c-1.582-2.536-3.439-4.633-5.51-6.287
		c2.677-4.214,4.402-9.03,4.989-14.16c1.165-10.202-2.33-20.217-9.591-27.477c-3.516-3.515-9.213-3.515-12.729,0
		c-3.515,3.515-3.515,9.213,0,12.728c3.357,3.357,4.975,7.989,4.436,12.706c-0.539,4.718-3.159,8.865-7.188,11.378
		c0,0-23.658,15.23-27.159,21.065c-4.188,6.98-3.912,14.963,0.777,22.478c5.802,9.298,15.81,14.408,26.037,14.408
		C156.076,270.226,161.675,268.73,166.707,265.59z M139.775,246.289c-1.44-2.309-1.039-2.979-0.614-3.687
		c1.142-1.903,4.068-4.332,8.697-7.22c4.629-2.888,8.097-4.449,10.308-4.638c0.141-0.012,0.28-0.024,0.422-0.024
		c0.687,0,1.426,0.281,2.62,2.196c3.688,5.909,1.88,13.716-4.029,17.403C151.274,254.006,143.463,252.2,139.775,246.289z"/>
	<path d="M322.041,212.275c-4.028-2.514-6.648-6.661-7.188-11.378c-0.539-4.717,1.078-9.348,4.436-12.706
		c3.515-3.515,3.515-9.213,0-12.728c-3.515-3.515-9.212-3.515-12.729,0c-7.261,7.26-10.756,17.275-9.591,27.477
		c0.586,5.129,2.311,9.945,4.987,14.158c-2.07,1.654-3.925,3.752-5.509,6.289c-8.941,14.33-4.558,33.262,9.771,42.203
		c5.032,3.14,10.63,4.636,16.165,4.636c10.228,0,20.237-5.111,26.039-14.408c4.689-7.516,4.965-15.499,0.776-22.478
		C345.7,227.506,322.041,212.275,322.041,212.275z M333.154,246.289c-3.688,5.91-11.496,7.717-17.404,4.03
		c-5.909-3.687-7.717-11.494-4.029-17.403c1.194-1.915,1.934-2.196,2.62-2.196c0.142,0,0.281,0.012,0.422,0.024
		c2.211,0.189,5.679,1.75,10.308,4.638c4.629,2.888,7.556,5.318,8.697,7.22C334.192,243.311,334.594,243.98,333.154,246.289z"/>
	<path d="M188.3,174.672c4.017,4.016,6.229,9.356,6.229,15.036c0,5.68-2.212,11.02-6.229,15.036c-3.515,3.515-3.515,9.213,0,12.728
		c1.758,1.758,4.061,2.636,6.364,2.636c2.303,0,4.606-0.879,6.364-2.636c7.416-7.416,11.5-17.276,11.5-27.764
		c0-10.488-4.084-20.348-11.5-27.764l-17.259-17.258c-3.516-3.515-9.213-3.515-12.729,0c-3.515,3.515-3.515,9.213,0,12.728
		L188.3,174.672z"/>
	<path d="M284.264,220.109c2.304,0,4.606-0.879,6.364-2.636c3.515-3.515,3.515-9.213,0-12.728
		c-4.017-4.016-6.229-9.356-6.229-15.036c0-5.68,2.212-11.02,6.229-15.037l17.258-17.258c3.515-3.515,3.515-9.213,0-12.728
		c-3.516-3.515-9.213-3.515-12.729,0L277.9,161.944c-7.416,7.416-11.5,17.276-11.5,27.764c0,10.488,4.084,20.348,11.5,27.764
		C279.658,219.23,281.96,220.109,284.264,220.109z"/>
	<path d="M476.292,147.007c-39.972-39.972-93.076-63.52-149.536-66.306c-24.322-1.187-48.465,1.51-71.816,7.994
		c-5.03-0.313-10.185-0.477-15.476-0.477c-5.3,0-10.463,0.162-15.5,0.47c-23.345-6.479-47.486-9.174-71.797-7.987
		c-56.454,2.786-109.559,26.334-149.53,66.306c-3.021,3.021-3.502,7.75-1.15,11.317l49.497,75.099
		c1.683,2.553,4.521,4.048,7.513,4.047c0.495,0,0.995-0.041,1.494-0.125c3.515-0.591,6.349-3.2,7.229-6.653l3.743-14.687
		l13.916,16.472c-0.987,10.758-1.483,22.175-1.483,34.296c0,47.976,22.175,69.754,53.501,95.282c3.079,2.51,6.342,4.967,9.696,7.302
		c0.001,0,0.001,0,0.001,0c27.387,19.065,59.501,29.142,92.871,29.142c33.369,0,65.483-10.077,92.87-29.141l4.618-3.215
		c0.176-0.122,0.347-0.251,0.514-0.385c31.157-25.166,58.066-46.899,58.066-98.985c0-12.09-0.511-23.49-1.526-34.244l13.96-16.524
		l3.743,14.687c0.881,3.453,3.715,6.062,7.229,6.653c0.499,0.084,0.998,0.125,1.494,0.125c2.991,0,5.83-1.495,7.513-4.047
		l49.497-75.099C479.793,154.756,479.313,150.028,476.292,147.007z M54.93,206.022l-0.125,0.491l-34.181-51.86
		c27.551-25.703,61.257-43.324,97.669-51.332c-10.722,9.301-20.444,19.735-29.082,31.226C73.1,155.98,61.567,180.026,54.93,206.022z
		 M76.977,195.233c6.237-17.883,15.149-34.607,26.622-49.87c14.172-18.853,31.55-34.583,51.676-46.781
		c5.87-0.224,11.728-0.202,17.563,0.063c-26.387,9.524-47.026,25.541-61.661,47.974c-10.953,16.791-18.604,37.242-23.065,61.794
		L76.977,195.233z M326.406,351.554l-4.354,3.031c-24.354,16.953-52.912,25.915-82.587,25.915s-58.233-8.961-82.588-25.915l0.001,0
		c-2.984-2.077-5.881-4.259-8.61-6.483c-31.861-25.965-46.872-42.452-46.872-81.329c0-48.593,8.131-84.679,24.858-110.32
		c22.052-33.803,59.083-50.236,113.211-50.236c94.196,0,138.068,51.018,138.068,160.555
		C377.533,308.223,360.004,324.407,326.406,351.554z M367.162,146.588c-14.745-22.401-35.347-38.402-61.549-47.924
		c5.993-0.285,12.01-0.313,18.04-0.082c20.126,12.197,37.504,27.927,51.676,46.781c11.474,15.264,20.386,31.988,26.623,49.87
		l-11.253,13.32C386.14,184.069,378.334,163.56,367.162,146.588z M424.123,206.513l-0.126-0.496
		c-6.637-25.992-18.17-50.038-34.28-71.47c-8.638-11.491-18.36-21.925-29.082-31.226c36.411,8.009,70.12,25.631,97.669,51.332
		L424.123,206.513z"/>
	<path d="M239.464,204.541c4.971,0,9-4.03,9-9v-63.839c0-4.97-4.029-9-9-9s-9,4.03-9,9v63.839
		C230.464,200.512,234.493,204.541,239.464,204.541z"/>
	<path d="M277.156,251.557c-20.782-20.782-54.6-20.784-75.384,0l-45.424,45.424c-7.318,7.319-11.35,17.05-11.35,27.4
		c0,10.351,4.031,20.081,11.35,27.4c7.318,7.319,17.05,11.35,27.4,11.35c3.342,0,6.617-0.426,9.77-1.242
		c12.673,8.721,29.202,13.689,45.767,13.689c0.108,0,0.216,0,0.322,0c16.595,0,33.127-4.968,45.802-13.689
		c3.153,0.816,6.428,1.242,9.771,1.242c10.351,0,20.081-4.031,27.4-11.35c15.107-15.108,15.107-39.691,0-54.799L277.156,251.557z
		 M239.464,287.791c-11.986,0-21.738-8.755-21.738-19.516c0-4.309,2.118-14.331,21.738-14.331c19.619,0,21.737,10.022,21.737,14.331
		C261.202,279.036,251.451,287.791,239.464,287.791z M169.076,339.052L169.076,339.052c-3.92-3.919-6.078-9.13-6.078-14.672
		s2.158-10.753,6.078-14.672l31.941-31.941c3.872,13.969,16.082,24.777,31.285,27.402l-33.883,33.883
		c-3.919,3.919-9.129,6.077-14.671,6.077C178.205,345.13,172.995,342.971,169.076,339.052z M239.576,357.576
		c-0.086,0-0.172,0-0.26,0c-9.812,0-19.519-2.171-27.867-6.098l10.052-10.052c5.807-1.323,11.809-2.002,17.885-2.002
		c0.033,0,0.065,0,0.098,0c6.124,0.001,12.118,0.672,17.941,2l10.053,10.053C259.127,355.405,249.413,357.576,239.576,357.576z
		 M309.852,339.052c-3.919,3.919-9.13,6.077-14.672,6.077s-10.752-2.158-14.671-6.077l-33.883-33.883
		c15.202-2.624,27.412-13.433,31.284-27.402l31.942,31.941C317.942,317.799,317.942,330.962,309.852,339.052z"/>
</g>
<g>
</g>
<g>
</g>
<g>
</g>
<g>
</g>
<g>
</g>
<g>
</g>
<g>
</g>
<g>
</g>
<g>
</g>
<g>
</g>
<g>
</g>
<g>
</g>
<g>
</g>
<g>
</g>
<g>
</g>
</svg>
