<?xml version="1.0" encoding="iso-8859-1"?>
<!-- Generator: Adobe Illustrator 18.0.0, SVG Export Plug-In . SVG Version: 6.00 Build 0)  -->
<!DOCTYPE svg PUBLIC "-//W3C//DTD SVG 1.1//EN" "http://www.w3.org/Graphics/SVG/1.1/DTD/svg11.dtd">
<svg version="1.1" id="Capa_1" xmlns="http://www.w3.org/2000/svg" xmlns:xlink="http://www.w3.org/1999/xlink" x="0px" y="0px"
	 viewBox="0 0 460.433 460.433" style="enable-background:new 0 0 460.433 460.433;" xml:space="preserve">
<g>
	<path d="M445.868,97.05l-37.85-83.271c-4.449-9.786-14.95-15.299-25.528-13.411L298.53,15.362
		c-45.328,6.625-91.297,6.625-136.625,0L77.944,0.369C67.361-1.522,56.865,3.994,52.415,13.78L14.565,97.05
		c-1.607,3.536-0.765,7.705,2.091,10.339c1.703,1.572,3.894,2.385,6.104,2.385c1.495,0,2.999-0.372,4.369-1.133l35.435-19.686
		l-3.32,12.806c-2.115,8.159-2.252,16.817-0.396,25.037l9.083,40.222l-20.19,83.284c-4.783,19.734-0.494,40.333,11.77,56.515
		l43.991,58.05c3.388,16.297,9.48,32.139,18.254,46.842c7.519,12.599,20.052,21.618,34.386,24.745
		c9.031,1.971,18.388,1.511,27.099-1.178c10.538,15.695,27.886,25.154,46.974,25.154c19.082,0,36.431-9.457,46.977-25.149
		c5.113,1.579,10.45,2.387,15.813,2.387c3.771,0,7.558-0.4,11.287-1.213c14.335-3.126,26.868-12.146,34.388-24.745
		c8.775-14.704,14.867-30.545,18.254-46.843l43.99-58.049c12.264-16.184,16.554-36.783,11.771-56.516l-20.19-83.284l9.081-40.221
		c1.857-8.22,1.721-16.878-0.395-25.039l-3.32-12.805l35.434,19.686c1.37,0.761,2.874,1.133,4.369,1.133
		c2.211,0,4.401-0.813,6.104-2.385C446.633,104.755,447.476,100.587,445.868,97.05z M68.802,21.229
		c0.905-1.991,2.879-3.227,5.006-3.227c0.321,0,0.646,0.028,0.972,0.086l59.24,10.579L42.245,79.653L68.802,21.229z
		 M230.214,442.433c-12.23,0-23.426-5.743-30.723-15.38l3.352-2.31c11.787-8.12,21.116-18.968,27.374-31.38
		c6.258,12.412,15.586,23.26,27.373,31.38l3.353,2.31C253.639,436.691,242.441,442.433,230.214,442.433z M239.018,303.381
		l-2.04,4.578c-4.432,0.684-9.09,0.684-13.521,0l-2.04-4.578c-3.949-8.866-13.109-13.83-22.406-12.629
		c-0.459-1.49-0.69-3.015-0.69-4.564c0-15.121,24.987-16.462,30.02-16.579c1.256-0.032,2.475-0.033,3.779,0
		c5.009,0.116,29.996,1.458,29.996,16.578c0,1.549-0.231,3.074-0.69,4.564C252.121,289.555,242.965,294.517,239.018,303.381z
		 M323.222,402.488c-5.051,8.464-13.137,14.282-22.767,16.383c-9.629,2.1-19.402,0.178-27.52-5.414l-5.135-3.537
		c-17.898-12.331-28.584-32.668-28.584-54.402v-29.7c2.143-0.313,4.263-0.73,6.345-1.265c2.66-0.684,4.863-2.545,5.98-5.054
		l3.918-8.793c0.749-1.682,2.631-2.513,4.379-1.937l3.349,1.106c3.719,1.229,7.805-0.089,10.106-3.26
		c4.462-6.149,6.82-13.212,6.82-20.427c0-20.649-18.232-33.896-47.559-34.573c-1.566-0.04-3.137-0.04-4.654,0
		c-29.35,0.677-47.582,13.924-47.582,34.573c0,7.215,2.358,14.278,6.82,20.427c2.301,3.17,6.389,4.488,10.106,3.26l3.348-1.105
		c1.744-0.577,3.63,0.255,4.381,1.938l3.917,8.792c1.117,2.509,3.319,4.37,5.979,5.054c2.082,0.536,4.202,0.953,6.346,1.266v29.7
		c0,21.735-10.687,42.072-28.586,54.403l-5.133,3.537c-8.117,5.592-17.89,7.514-27.521,5.414
		c-9.629-2.101-17.714-7.918-22.765-16.382c-22.706-38.047-25.075-84.733-6.339-124.883l25.014-53.601
		c7.816-16.749,23.353-28.65,41.559-31.836c21.743-3.805,43.796-3.805,65.543,0c18.206,3.186,33.742,15.087,41.559,31.836
		l25.014,53.601C348.297,317.755,345.928,364.441,323.222,402.488z M382.838,102.7l-32.379-31.226
		c-3.578-3.45-9.274-3.349-12.727,0.23c-3.45,3.578-3.347,9.275,0.23,12.726l44.947,43.347l-4.645,20.572l-47.127-51.316
		c-13.271-14.453-35.117-16.474-50.816-4.7l-12.992,9.744c-3.977,2.982-4.783,8.624-1.801,12.6c2.983,3.976,8.626,4.782,12.6,1.8
		l12.993-9.744c8.267-6.198,19.77-5.135,26.759,2.475l57.18,62.262l20.14,83.076c3.505,14.456,0.362,29.547-8.622,41.403
		l-26.52,34.996c-0.43-20.776-5.126-41.537-14.186-60.952l-25.014-53.601c-9.489-20.335-27.617-35.239-49.173-40.744l-14.122-48.482
		c-1.389-4.771-6.388-7.515-11.157-6.124c-4.772,1.39-7.515,6.386-6.124,11.158l11.729,40.269c-14.505-1.533-29.083-1.533-43.588,0
		l11.729-40.269c1.391-4.772-1.352-9.768-6.124-11.158c-4.776-1.389-9.768,1.352-11.157,6.124l-14.122,48.482
		c-21.556,5.505-39.684,20.409-49.173,40.744l-25.014,53.601c-9.061,19.415-13.756,40.177-14.186,60.953l-26.521-34.997
		c-8.984-11.855-12.126-26.946-8.621-41.402l20.14-83.076l57.18-62.262c6.988-7.609,18.491-8.674,26.76-2.474l12.992,9.744
		c3.978,2.983,9.618,2.176,12.6-1.8c2.982-3.977,2.176-9.618-1.801-12.6l-12.991-9.743c-15.7-11.774-37.546-9.754-50.817,4.699
		L82.168,148.35l-4.646-20.573L122.47,84.43c3.578-3.451,3.682-9.148,0.231-12.726c-3.451-3.578-9.148-3.681-12.726-0.231
		l-32.38,31.226l6.692-25.813l77.959-43.31c12.483,1.747,25.009,3.009,37.556,3.79l-4.298,36.86
		c-0.575,4.937,2.96,9.406,7.897,9.982c0.354,0.041,0.705,0.062,1.054,0.062c4.504,0,8.394-3.375,8.928-7.958l4.449-38.156
		c4.127,0.104,8.255,0.176,12.384,0.176c4.127,0,8.254-0.071,12.38-0.176l4.458,38.158c0.536,4.583,4.425,7.957,8.928,7.957
		c0.349,0,0.701-0.021,1.056-0.062c4.938-0.577,8.472-5.046,7.896-9.983l-4.306-36.858c12.548-0.78,25.076-2.042,37.56-3.79
		l77.958,43.311L382.838,102.7z M326.414,28.667l59.24-10.579c2.479-0.442,4.937,0.85,5.978,3.14l26.557,58.424L326.414,28.667z"/>
	<path d="M289.673,138.932c0.842,14.054,8.375,26.964,19.961,34.723c-3.258,2.59-4.378,7.188-2.444,11.06
		c1.577,3.156,4.756,4.98,8.059,4.98c1.352,0,2.724-0.306,4.015-0.951l5.032-2.514c0.518,0.873,1.006,1.766,1.423,2.696
		l39.125,87.279c1.498,3.34,4.78,5.321,8.218,5.321c1.23,0,2.481-0.254,3.677-0.79c4.535-2.033,6.564-7.358,4.531-11.894
		l-39.125-87.278c-4.101-9.148-11.245-16.756-20.118-21.423c-8.312-4.372-13.824-12.911-14.387-22.287l-0.421-7.01
		c-0.298-4.961-4.552-8.726-9.522-8.444c-4.962,0.298-8.742,4.562-8.444,9.523L289.673,138.932z"/>
	<path d="M162.736,122.4c-4.936-0.284-9.225,3.484-9.521,8.446l-0.42,7.009c-0.563,9.375-6.075,17.914-14.387,22.286
		c-8.872,4.666-16.017,12.274-20.119,21.422l-39.125,87.279c-2.033,4.536-0.004,9.861,4.531,11.894
		c1.195,0.536,2.446,0.79,3.677,0.79c3.438,0,6.721-1.981,8.218-5.321l39.124-87.278c0.417-0.931,0.906-1.824,1.424-2.697
		l5.033,2.514c1.291,0.645,2.663,0.951,4.015,0.951c3.303,0,6.482-1.825,8.059-4.98c1.934-3.872,0.814-8.469-2.444-11.059
		c11.586-7.759,19.12-20.668,19.962-34.723l0.42-7.01C171.479,126.96,167.698,122.697,162.736,122.4z"/>
</g>
<g>
</g>
<g>
</g>
<g>
</g>
<g>
</g>
<g>
</g>
<g>
</g>
<g>
</g>
<g>
</g>
<g>
</g>
<g>
</g>
<g>
</g>
<g>
</g>
<g>
</g>
<g>
</g>
<g>
</g>
</svg>
